<svg id="Capa_1" enable-background="new 0 0 512 512" height="512" viewBox="0 0 512 512" width="512" xmlns="http://www.w3.org/2000/svg"><g><g fill="#77abdb"><path d="m376.949 70.69v15h42.053c-.114-1.321-.185-2.655-.185-4.005 0-3.789.469-7.469 1.335-10.995z"/><path d="m470.186 276.2c-1.219 1.694-3.191 2.706-5.277 2.706s-4.059-1.011-5.277-2.706l-2.223-3.091v110.491c2.442-.402 4.946-.62 7.5-.62s5.058.218 7.5.62v-110.491z"/><path d="m457.408 127.157v103.52h15v-103.52c-2.442.402-4.946.62-7.5.62s-5.057-.218-7.5-.62z"/><path d="m418.817 429.071c0-.779.021-1.553.059-2.323h-41.927v15h43.655c-1.155-4.031-1.787-8.28-1.787-12.677z"/></g><g fill="#77abdb"><path d="m47.091 217.055c2.542 0 5.033.216 7.464.613v-115.674c0-8.99 7.313-16.304 16.303-16.304h62.296v-15h-62.295c-17.261 0-31.303 14.043-31.303 31.304v115.687c2.453-.405 4.968-.626 7.535-.626z"/><path d="m39.556 308.612v38.889l2.229-3.1c1.218-1.694 3.191-2.706 5.277-2.706s4.06 1.011 5.277 2.706l2.216 3.082v-38.859c-2.431.398-4.922.613-7.464.613-2.567.001-5.082-.22-7.535-.625z"/><path d="m133.155 426.748h-62.296c-8.99 0-16.303-7.314-16.303-16.304v-20.52h-15v20.52c0 17.261 14.042 31.304 31.303 31.304h62.296z"/></g><g fill="#ffe5c2"><path d="m247.553 320.967h15v63.021h-15z"/><path d="m247.553 128.011h15v66.316h-15z"/></g><g><g><circle cx="464.909" cy="429.071" fill="#4fc123" r="47.091"/></g><g><path d="m444.087 429.071c0-21.447 14.343-39.533 33.957-45.221-4.171-1.21-8.574-1.87-13.135-1.87-26.008 0-47.091 21.083-47.091 47.091s21.084 47.091 47.091 47.091c4.56 0 8.964-.661 13.135-1.87-19.614-5.688-33.957-23.774-33.957-45.221z" fill="#47a920"/></g><g><path d="m464.909 452.359c-12.841 0-23.288-10.447-23.288-23.288s10.447-23.288 23.288-23.288 23.288 10.447 23.288 23.288-10.447 23.288-23.288 23.288z" fill="#dbf1d0"/></g><g><path d="m458.946 429.071c0-9.78 6.063-18.166 14.626-21.611-2.68-1.078-5.602-1.678-8.663-1.678-12.841 0-23.288 10.447-23.288 23.288s10.448 23.288 23.288 23.288c3.061 0 5.983-.599 8.663-1.678-8.563-3.444-14.626-11.829-14.626-21.609z" fill="#c1e9af"/></g></g><g><g><circle cx="464.909" cy="81.685" fill="#4fc123" r="47.091"/></g><g><path d="m444.087 81.685c0-21.447 14.343-39.533 33.957-45.221-4.171-1.21-8.574-1.87-13.135-1.87-26.008 0-47.091 21.084-47.091 47.091s21.084 47.091 47.091 47.091c4.56 0 8.964-.661 13.135-1.87-19.614-5.688-33.957-23.773-33.957-45.221z" fill="#47a920"/></g><g><path d="m464.909 104.973c-12.841 0-23.288-10.447-23.288-23.288s10.447-23.288 23.288-23.288 23.288 10.447 23.288 23.288-10.447 23.288-23.288 23.288z" fill="#dbf1d0"/></g><g><path d="m458.946 81.685c0-9.78 6.063-18.166 14.626-21.611-2.68-1.078-5.602-1.678-8.663-1.678-12.841 0-23.288 10.447-23.288 23.288s10.448 23.288 23.288 23.288c3.061 0 5.983-.599 8.663-1.678-8.563-3.443-14.626-11.829-14.626-21.609z" fill="#c1e9af"/></g></g><g><g><circle cx="47.091" cy="263.146" fill="#3675bb" r="47.091"/></g><g><path d="m25.833 263.146c0-21.527 14.45-39.666 34.175-45.283-4.106-1.169-8.435-1.808-12.917-1.808-26.007 0-47.091 21.084-47.091 47.091 0 26.008 21.084 47.092 47.091 47.092 4.481 0 8.81-.639 12.917-1.809-19.725-5.616-34.175-23.756-34.175-45.283z" fill="#2263aa"/></g><g><path d="m47.092 286.434c-12.841 0-23.288-10.447-23.288-23.288s10.447-23.288 23.288-23.288 23.288 10.447 23.288 23.288-10.448 23.288-23.288 23.288z" fill="#77abdb"/></g><g><path d="m40.692 263.147c0-9.863 6.166-18.308 14.844-21.697-2.62-1.023-5.466-1.591-8.444-1.591-12.841 0-23.288 10.447-23.288 23.288s10.447 23.288 23.288 23.288c2.978 0 5.824-.568 8.444-1.591-8.677-3.39-14.844-11.835-14.844-21.697z" fill="#569acc"/></g></g><g><path d="m373.189 129.011h-236.273c-2.629 0-4.761-2.131-4.761-4.761v-86.958c0-2.629 2.131-4.761 4.761-4.761h236.273c2.629 0 4.761 2.131 4.761 4.761v86.959c0 2.629-2.132 4.76-4.761 4.76z" fill="#dbf1d0"/></g><g><path d="m373.189 129.011h-236.273c-2.629 0-4.761-2.131-4.761-4.761v-86.958c0-2.629 2.131-4.761 4.761-4.761h236.273c2.629 0 4.761 2.131 4.761 4.761v86.959c0 2.629-2.132 4.76-4.761 4.76z" fill="#dbf1d0"/></g><g><path d="m158.133 124.251v-86.959c0-2.629 2.131-4.761 4.761-4.761h-25.977c-2.629 0-4.761 2.132-4.761 4.761v86.958c0 2.629 2.131 4.761 4.761 4.761h25.977c-2.63 0-4.761-2.131-4.761-4.76z" fill="#c1e9af"/></g><g><path d="m373.189 321.967h-236.273c-2.629 0-4.761-2.131-4.761-4.761v-119.118c0-2.629 2.131-4.761 4.761-4.761h236.273c2.629 0 4.761 2.131 4.761 4.761v119.119c0 2.629-2.132 4.76-4.761 4.76z" fill="#fac600"/></g><g><path d="m158.133 317.206v-119.118c0-2.629 2.131-4.761 4.761-4.761h-25.977c-2.629 0-4.761 2.132-4.761 4.761v119.119c0 2.629 2.131 4.761 4.761 4.761h25.977c-2.63-.001-4.761-2.132-4.761-4.762z" fill="#e8b800"/></g><g><g><path d="m341.459 236.158h-172.813c-4.142 0-7.5-3.358-7.5-7.5s3.358-7.5 7.5-7.5h172.813c4.143 0 7.5 3.358 7.5 7.5s-3.357 7.5-7.5 7.5z" fill="#ca6e59"/></g><g><path d="m341.459 265.147h-172.813c-4.142 0-7.5-3.358-7.5-7.5s3.358-7.5 7.5-7.5h172.813c4.143 0 7.5 3.358 7.5 7.5s-3.357 7.5-7.5 7.5z" fill="#ca6e59"/></g><g><path d="m304.325 294.136h-98.546c-4.142 0-7.5-3.358-7.5-7.5s3.358-7.5 7.5-7.5h98.546c4.143 0 7.5 3.358 7.5 7.5s-3.357 7.5-7.5 7.5z" fill="#ca6e59"/></g></g><g><g><path d="m341.459 73.776h-172.813c-4.142 0-7.5-3.358-7.5-7.5s3.358-7.5 7.5-7.5h172.813c4.143 0 7.5 3.358 7.5 7.5s-3.357 7.5-7.5 7.5z" fill="#68ca44"/></g><g><path d="m301.863 102.766h-93.622c-4.142 0-7.5-3.358-7.5-7.5s3.358-7.5 7.5-7.5h93.622c4.143 0 7.5 3.358 7.5 7.5s-3.357 7.5-7.5 7.5z" fill="#68ca44"/></g></g><g><path d="m373.189 479.469h-236.273c-2.629 0-4.761-2.131-4.761-4.761v-86.959c0-2.629 2.131-4.761 4.761-4.761h236.273c2.629 0 4.761 2.131 4.761 4.761v86.959c0 2.629-2.132 4.761-4.761 4.761z" fill="#dff6fd"/></g><g><path d="m158.133 474.708v-86.958c0-2.629 2.131-4.761 4.761-4.761h-25.977c-2.629 0-4.761 2.131-4.761 4.761v86.958c0 2.629 2.131 4.761 4.761 4.761h25.977c-2.63 0-4.761-2.132-4.761-4.761z" fill="#c8effe"/></g><g><g><path d="m464.908 279.905c-2.414 0-4.68-1.162-6.089-3.122l-25.331-35.229c-1.643-2.284-1.869-5.296-.585-7.8 1.283-2.504 3.86-4.079 6.674-4.079h50.663c2.813 0 5.391 1.575 6.674 4.079 1.284 2.504 1.058 5.516-.585 7.8l-25.332 35.229c-1.409 1.961-3.675 3.122-6.089 3.122z" fill="#fac600"/></g></g><path d="m456.411 241.555c-1.643-2.284-1.869-5.296-.585-7.8 1.283-2.504 3.86-4.079 6.674-4.079h-22.923c-2.813 0-5.391 1.575-6.674 4.079-1.284 2.504-1.058 5.516.585 7.8l25.331 35.229c1.409 1.96 3.675 3.122 6.089 3.122s4.68-1.162 6.089-3.122l5.373-7.472z" fill="#e8b800"/><g><g><path d="m72.394 390.924h-50.663c-2.813 0-5.391-1.575-6.674-4.079s-1.058-5.516.585-7.8l25.331-35.229c1.409-1.96 3.675-3.122 6.089-3.122s4.68 1.162 6.089 3.122l25.332 35.229c1.643 2.284 1.868 5.296.585 7.8-1.284 2.504-3.861 4.079-6.674 4.079z" fill="#fac600"/></g></g><path d="m31.826 386.845c-1.283-2.504-1.058-5.516.585-7.8l23.036-32.037-2.295-3.192c-1.409-1.96-3.676-3.122-6.089-3.122-2.414 0-4.68 1.162-6.089 3.122l-25.331 35.229c-1.643 2.284-1.868 5.296-.585 7.8 1.284 2.504 3.861 4.079 6.674 4.079h16.768c-2.813 0-5.391-1.575-6.674-4.079z" fill="#e8b800"/><g><g><path d="m206.91 452.96h-37.28c-1.707 0-3.091-1.384-3.091-3.091v-37.281c0-1.707 1.384-3.091 3.091-3.091h37.281c1.707 0 3.091 1.384 3.091 3.091v37.281c-.001 1.707-1.385 3.091-3.092 3.091z" fill="#4fc123"/></g><g><path d="m183.887 449.869v-37.281c0-1.707 1.384-3.091 3.091-3.091h-17.348c-1.707 0-3.091 1.384-3.091 3.091v37.281c0 1.707 1.384 3.091 3.091 3.091h17.348c-1.707 0-3.091-1.384-3.091-3.091z" fill="#47a920"/></g><g><g><path d="m343.566 424.418h-102.824c-4.142 0-7.5-3.358-7.5-7.5s3.358-7.5 7.5-7.5h102.825c4.143 0 7.5 3.358 7.5 7.5s-3.358 7.5-7.501 7.5z" fill="#01c0fa"/></g><g><path d="m343.566 450.919h-102.824c-4.142 0-7.5-3.358-7.5-7.5s3.358-7.5 7.5-7.5h102.825c4.143 0 7.5 3.358 7.5 7.5s-3.358 7.5-7.501 7.5z" fill="#01c0fa"/></g></g></g></g></svg>