<svg width="500" height="490" viewBox="0 0 500 490" fill="none" xmlns="http://www.w3.org/2000/svg">
<path d="M474.485 227.636L349.732 243.307L362.26 343.037L487.013 327.366L474.485 227.636Z" fill="#FAFAFA"/>
<path d="M474.506 227.68L473.902 227.768L472.156 228.01L465.379 228.9L439.852 232.195L349.784 243.662L350.069 243.3C353.804 272.956 358.087 307.006 362.624 343.023L362.217 342.704L486.973 327.107L486.709 327.437C483.008 297.396 479.932 272.517 477.79 255.085C476.692 246.375 475.901 239.543 475.33 234.864C475.055 232.535 474.836 230.745 474.693 229.526C474.55 228.307 474.495 227.669 474.495 227.669C474.495 227.669 474.594 228.263 474.748 229.449C474.902 230.635 475.143 232.425 475.451 234.721C476.055 239.378 476.934 246.188 478.054 254.855L487.314 327.349V327.656H487.006L362.272 343.44H361.91V343.078C357.406 307.061 353.123 273.033 349.432 243.344V243.025H349.762L440.061 231.854L465.543 228.746L472.266 227.933L473.979 227.746L474.506 227.68Z" fill="#E0E0E0"/>
<path d="M470.807 234.474L354.816 249.045L365.767 336.22L481.758 321.65L470.807 234.474Z" fill="#EBEBEB"/>
<path d="M365.743 336.257L399.453 276.976L428.802 307.731L443.542 287.477L481.734 321.692L365.743 336.257Z" fill="#E0E0E0"/>
<path d="M434.371 265.861C434.596 267.667 434.28 269.499 433.463 271.126C432.647 272.752 431.367 274.1 429.785 275C428.202 275.899 426.389 276.309 424.573 276.178C422.758 276.046 421.022 275.38 419.586 274.263C418.149 273.145 417.076 271.627 416.502 269.9C415.928 268.173 415.879 266.314 416.361 264.559C416.843 262.804 417.835 261.231 419.21 260.04C420.586 258.848 422.284 258.091 424.09 257.864C425.29 257.713 426.508 257.801 427.675 258.121C428.841 258.442 429.933 258.989 430.888 259.731C431.843 260.474 432.642 261.398 433.239 262.449C433.837 263.501 434.222 264.66 434.371 265.861V265.861Z" fill="#E0E0E0"/>
<path d="M72.5818 82.6486L66.8921 80.6165L60.6533 58.8903L64.6954 47.5329C64.6954 47.5329 56.0949 43.8643 51.8332 59.099C47.5714 74.3337 47.7911 70.1488 47.7911 70.1488C47.7911 70.1488 29.1184 63.5585 26.9216 64.6569C25.3728 65.4367 18.2443 83.8019 14.4658 93.7863C12.5656 98.8169 13.9935 104.627 18.2772 107.505C18.8714 107.912 19.5133 108.244 20.1884 108.494C24.8456 110.152 49.9769 114.843 49.9769 114.843L59.8624 118.346L72.5818 82.6486Z" fill="#EBEBEB"/>
<path d="M89.9803 85.3282L72.6147 122.992L62.8719 119.521L76.4591 81.396L89.9803 85.3282Z" fill="#EBEBEB"/>
<path d="M141.484 35.9666C141.602 33.0265 140.816 30.1208 139.232 27.6408C137.769 25.1457 135.555 23.1772 132.906 22.017C131.493 21.4426 129.979 21.1583 128.455 21.181C126.93 21.2036 125.425 21.5327 124.031 22.1488C122.384 22.8929 120.941 24.0233 119.824 25.444C119.264 23.8938 118.367 22.4871 117.198 21.325C116.109 20.2567 114.815 19.4206 113.393 18.8674C111.971 18.3142 110.452 18.0554 108.928 18.1067C106.052 18.2847 103.306 19.3604 101.074 21.1822C98.7193 22.9527 96.9698 25.4081 96.0654 28.2119C94.9595 31.8028 95.0404 35.6546 96.2961 39.1959C97.8427 42.8262 100.234 46.0346 103.271 48.5542C108.159 52.8379 114.628 58.275 114.628 58.275C114.628 58.275 121.548 54.8041 127.611 52.4865C131.336 51.1851 134.695 49.0121 137.409 46.1487C139.819 43.2763 141.247 39.7084 141.484 35.9666V35.9666Z" fill="#F5F5F5"/>
<path d="M171.789 46.2368C171.468 45.0744 170.796 44.039 169.867 43.2711C168.992 42.4791 167.888 41.9866 166.714 41.8652C165.715 41.7772 164.715 42.0226 163.871 42.5632C163.026 43.1037 162.385 43.9089 162.046 44.8528C161.46 44.0829 160.642 43.5213 159.713 43.2505C158.783 42.9796 157.792 43.0138 156.884 43.348C155.781 43.7799 154.843 44.5487 154.203 45.5448C153.503 46.5268 153.12 47.6997 153.105 48.9059C153.139 50.4269 153.659 51.8972 154.588 53.1017C155.642 54.3272 156.976 55.2805 158.476 55.8807C160.915 56.9791 164.122 58.2532 164.122 58.2532C164.122 58.2532 166.385 56.0564 168.516 54.3759C169.806 53.4003 170.845 52.1314 171.547 50.6743C172.094 49.2577 172.179 47.7044 171.789 46.2368Z" fill="#F5F5F5"/>
<path d="M355.534 8.02852L313.48 152.215L457.666 194.269L499.72 50.0824L355.534 8.02852Z" fill="#FAFAFA"/>
<path d="M457.668 194.267C457.668 194.267 457.723 194.026 457.855 193.575C457.986 193.125 458.173 192.477 458.415 191.587C458.92 189.819 459.678 187.194 460.612 183.833C462.578 177.055 465.455 167.126 469.102 154.494L499.451 50.0152L499.615 50.3118L355.462 8.2982L355.814 8.10049L313.712 152.287L313.548 151.979L417.961 182.558L447.266 191.17L454.955 193.465L456.943 194.059L457.624 194.267L456.965 194.092L454.988 193.531L447.299 191.335L418.016 182.855L313.372 152.473L313.141 152.408L313.207 152.166C325.454 110.218 339.876 60.7905 355.254 7.94672L355.341 7.67212L355.616 7.74901L499.769 49.8065L500 49.8834L499.934 50.1141C487.27 93.3688 476.703 129.429 469.3 154.681C465.598 167.28 462.709 177.176 460.71 183.931C459.711 187.293 458.953 189.874 458.437 191.62L457.844 193.586L457.668 194.267Z" fill="#263238"/>
<path d="M489.174 54.056L360.361 16.4861L322.791 145.299L451.604 182.869L489.174 54.056Z" fill="#EBEBEB"/>
<path d="M451.594 182.877C451.594 182.877 451.649 182.657 451.758 182.262C451.868 181.866 452.044 181.251 452.275 180.471L454.263 173.551C456.009 167.488 458.579 158.613 461.842 147.333L488.928 53.9693L489.104 54.2769L360.273 16.7667L360.625 16.58L323.016 145.367L322.851 145.07L416.127 172.398L442.301 180.087L449.21 182.13L450.99 182.657C451.396 182.778 451.594 182.855 451.594 182.855L451.011 182.701L449.254 182.196L442.367 180.219L416.214 172.662L322.708 145.542L322.477 145.477L322.543 145.235L360.075 16.4042L360.163 16.1296L360.438 16.2065L489.236 53.8155L489.477 53.8924L489.411 54.1231C478.087 92.7756 468.641 124.981 462.028 147.553C458.733 158.8 456.119 167.642 454.34 173.672L452.308 180.515L451.78 182.273C451.66 182.712 451.594 182.877 451.594 182.877Z" fill="#263238"/>
<path d="M388.765 85.0742L380.957 112.019C380.272 114.384 381.634 116.858 383.999 117.543L428.594 130.465C430.96 131.151 433.433 129.789 434.119 127.423L441.926 100.479C442.612 98.1131 441.25 95.6397 438.884 94.9542L394.29 82.032C391.924 81.3466 389.451 82.7086 388.765 85.0742Z" fill="#455A64"/>
<g opacity="0.3">
<path opacity="0.3" d="M388.765 85.0742L380.957 112.019C380.272 114.384 381.634 116.858 383.999 117.543L428.594 130.465C430.96 131.151 433.433 129.789 434.119 127.423L441.926 100.479C442.612 98.1131 441.25 95.6397 438.884 94.9542L394.29 82.032C391.924 81.3466 389.451 82.7086 388.765 85.0742Z" fill="black"/>
</g>
<path d="M426.836 98.5753C426.877 98.3418 426.944 98.1135 427.034 97.8942C427.22 97.389 427.44 96.7959 427.715 95.994C428.577 93.6809 429.245 91.3002 429.714 88.8764C430.436 85.2989 429.965 81.5833 428.374 78.2989C427.363 76.442 425.837 74.9165 423.98 73.9053C421.937 72.8369 419.777 72.0076 417.544 71.4339C413.007 70.1268 408.262 69.7314 404.495 71.3461C402.724 72.1083 401.161 73.2834 399.936 74.7731C398.859 76.077 397.979 77.5312 397.322 79.0897C396.407 81.3819 395.719 83.7586 395.268 86.1854C395.103 86.9872 394.972 87.6462 394.862 88.1625C394.828 88.3988 394.769 88.6309 394.686 88.8545C394.654 88.6212 394.654 88.3848 394.686 88.1515C394.741 87.6902 394.84 87.0531 394.972 86.1414C395.328 83.669 395.962 81.2446 396.861 78.914C397.51 77.3012 398.391 75.7915 399.475 74.4326C400.738 72.8535 402.367 71.6056 404.22 70.7969C406.296 69.9104 408.543 69.494 410.799 69.5776C413.157 69.6567 415.496 70.0256 417.763 70.676C420.052 71.2645 422.264 72.1198 424.354 73.2243C426.323 74.3103 427.928 75.9533 428.967 77.9474C430.601 81.3656 431.042 85.233 430.219 88.9314C429.717 91.3724 428.981 93.7595 428.022 96.0599C427.693 96.8727 427.429 97.4988 427.231 97.9272C427.131 98.161 426.998 98.3793 426.836 98.5753V98.5753Z" fill="#263238"/>
<path d="M382.109 82.9409L374.301 109.885C373.616 112.251 374.978 114.724 377.344 115.41L421.938 128.332C424.304 129.018 426.777 127.656 427.463 125.29L435.27 98.3454C435.956 95.9798 434.594 93.5064 432.228 92.8209L387.634 79.8987C385.268 79.2133 382.795 80.5753 382.109 82.9409Z" fill="#455A64"/>
<path d="M421.97 128.353C422.553 128.46 423.148 128.486 423.738 128.43C424.45 128.322 425.126 128.052 425.716 127.639C426.504 127.066 427.08 126.247 427.352 125.31C428.593 120.917 430.362 114.744 432.537 107.066L434.272 101.025C434.558 99.9812 434.909 98.8828 435.162 97.8394C435.255 97.3005 435.241 96.7485 435.12 96.215C435 95.6816 434.775 95.1772 434.459 94.7309C433.794 93.7945 432.788 93.1557 431.658 92.9515L428.099 91.919L420.663 89.7222L387.568 80.1662C386.546 79.8669 385.447 79.9754 384.503 80.469C383.559 80.9626 382.843 81.8029 382.505 82.8133L381.879 84.9442C381.044 87.8 380.231 90.6229 379.429 93.3909C377.815 98.8828 376.266 104.254 374.783 109.34C374.566 109.931 374.451 110.555 374.442 111.185C374.467 111.791 374.616 112.386 374.882 112.931C375.145 113.468 375.52 113.943 375.982 114.322C376.445 114.701 376.984 114.976 377.562 115.128L384.57 117.171L397.135 120.862L415.325 126.233L420.268 127.727L421.542 128.133C421.689 128.175 421.832 128.23 421.97 128.298C421.817 128.279 421.666 128.246 421.52 128.199L420.224 127.858L415.259 126.475L397.015 121.301L384.438 117.742L377.408 115.71C376.752 115.537 376.14 115.226 375.614 114.798C375.087 114.37 374.658 113.835 374.355 113.228C374.043 112.607 373.874 111.924 373.86 111.229C373.864 110.54 373.982 109.857 374.212 109.208C375.684 104.122 377.221 98.784 378.814 93.2481C379.616 90.4801 380.429 87.6573 381.264 84.8014C381.472 84.0875 381.659 83.3845 381.901 82.6046C382.156 81.8389 382.602 81.1509 383.197 80.6056C383.8 80.0489 384.535 79.6557 385.333 79.4635C386.131 79.2712 386.965 79.2863 387.755 79.5072L420.828 89.1181L428.253 91.3149L431.812 92.3474C433.06 92.6037 434.166 93.3214 434.909 94.3575C435.615 95.3795 435.887 96.6391 435.667 97.8613C435.392 98.9597 435.052 100.058 434.744 101.157C434.129 103.254 433.547 105.265 432.976 107.187C430.713 114.875 428.879 121.048 427.594 125.376C427.29 126.353 426.668 127.2 425.825 127.782C425.209 128.201 424.501 128.464 423.76 128.55C423.157 128.642 422.539 128.574 421.97 128.353V128.353Z" fill="#263238"/>
<path d="M390.699 100.398C390.611 100.959 390.359 101.481 389.975 101.899C389.592 102.317 389.093 102.612 388.542 102.747C387.991 102.883 387.412 102.852 386.879 102.659C386.345 102.467 385.88 102.12 385.543 101.664C385.205 101.208 385.01 100.663 384.982 100.096C384.953 99.5292 385.093 98.9668 385.384 98.4794C385.674 97.992 386.102 97.6013 386.614 97.3564C387.126 97.1116 387.699 97.0235 388.26 97.1033C388.638 97.1569 389.001 97.2851 389.329 97.4803C389.657 97.6756 389.942 97.9341 390.169 98.2407C390.396 98.5473 390.56 98.8959 390.651 99.2664C390.742 99.6368 390.758 100.022 390.699 100.398V100.398Z" fill="#455A64"/>
<path d="M343.802 93.1495L343.647 94.2368L387.783 100.542L387.938 99.4545L343.802 93.1495Z" fill="#455A64"/>
<path d="M438.095 346.845C438.095 346.845 430.724 342.913 423.815 360.301C416.907 377.688 414.622 387.552 414.622 387.552C414.622 387.552 412.711 391.242 410.107 389.188C407.504 387.134 403.638 381.005 399.684 382.598C395.729 384.191 394.642 389.024 396.103 395.845C397.564 402.666 400.189 417.747 400.42 419.109C400.65 420.471 400.057 422.514 398.069 421.404C396.081 420.295 384.152 409.322 379.276 415.264C374.399 421.207 381.571 439.583 382.318 441.626C383.065 443.669 382.746 444.569 381.802 445.174C380.857 445.778 377.211 441.703 373.696 438.715C370.181 435.727 365.579 432.883 363.052 436.518C360.526 440.154 360.943 454.433 376.584 476.148L384.482 485.737L396.828 483.881C422.992 478.301 432.877 468.031 433.47 463.616C434.063 459.2 428.747 458.211 424.134 458.058C419.521 457.904 414.084 458.475 413.798 457.399C413.512 456.322 413.886 455.411 415.797 454.422C417.708 453.433 435.349 444.646 435.744 436.958C436.139 429.269 419.938 429.39 417.708 428.873C415.479 428.357 416.434 426.435 417.5 425.578C418.565 424.721 430.68 415.33 436.326 411.299C441.972 407.268 444.542 403.006 442.576 399.063C440.61 395.12 433.701 397.218 430.395 396.987C427.089 396.756 428.198 392.736 428.198 392.736C428.198 392.736 433.13 383.883 439.698 366.375C446.267 348.866 437.963 346.823 437.963 346.823" fill="#FF725E"/>
<path d="M384.13 485.869C389.007 473.029 395.894 455.345 403.561 435.837C411.228 416.33 418.17 398.678 423.112 385.871L428.956 370.691C429.637 368.912 430.175 367.528 430.549 366.572C430.735 366.111 430.867 365.76 430.977 365.474C431.087 365.188 431.131 365.123 431.131 365.123C431.131 365.123 431.131 365.243 431.01 365.496L430.626 366.594C430.274 367.572 429.769 368.967 429.11 370.757C427.781 374.36 425.815 379.544 423.387 385.981C418.51 398.821 411.623 416.494 403.956 435.991C396.29 455.487 389.348 473.161 384.405 485.979" fill="#263238"/>
<path d="M404.78 391.407C404.955 391.657 405.092 391.931 405.187 392.22C405.417 392.747 405.725 393.516 406.098 394.483C406.856 396.405 407.823 399.085 408.833 402.073C409.844 405.06 410.701 407.663 411.382 409.761L412.161 412.068C412.276 412.347 412.361 412.638 412.414 412.936C412.252 412.683 412.115 412.414 412.008 412.134C411.777 411.607 411.469 410.827 411.096 409.86C410.371 407.927 409.437 405.236 408.427 402.248C407.416 399.261 406.527 396.669 405.824 394.626C405.516 393.725 405.242 392.945 405.033 392.319C404.915 392.025 404.83 391.72 404.78 391.407V391.407Z" fill="#263238"/>
<path d="M413.567 412.947C413.567 412.837 418.971 410.607 425.727 407.949C432.482 405.291 438.007 403.237 438.051 403.347C438.095 403.456 432.647 405.697 425.88 408.344C419.114 410.991 413.611 413.056 413.567 412.947Z" fill="#263238"/>
<path d="M400.442 442.373C400.735 442.288 401.037 442.24 401.342 442.23L403.836 441.999C405.923 441.801 408.822 441.527 411.997 441.098C415.171 440.67 418.049 440.209 420.125 439.846L422.585 439.429C422.883 439.352 423.189 439.315 423.497 439.319C423.214 439.437 422.919 439.525 422.618 439.583C422.047 439.725 421.212 439.923 420.18 440.143C418.115 440.571 415.248 441.098 412.052 441.516C408.855 441.933 405.955 442.175 403.858 442.296C402.759 442.351 401.946 442.395 401.353 442.395C401.049 442.418 400.744 442.41 400.442 442.373V442.373Z" fill="#263238"/>
<path d="M388.195 424.579C388.401 424.773 388.586 424.991 388.744 425.227C389.084 425.655 389.557 426.325 390.128 427.072C391.292 428.632 392.863 430.817 394.576 433.245C396.29 435.672 397.871 437.869 398.915 439.484C399.464 440.286 399.903 440.945 400.2 441.406C400.367 441.634 400.507 441.881 400.617 442.142C400.405 441.949 400.217 441.732 400.057 441.494L398.717 439.66C397.619 438.089 395.993 435.903 394.324 433.487C392.654 431.07 391.028 428.851 389.93 427.237L388.656 425.326C388.466 425.101 388.311 424.849 388.195 424.579V424.579Z" fill="#263238"/>
<path d="M373.3 449.084C373.564 449.332 373.8 449.608 374.003 449.908L375.783 452.269C377.276 454.268 379.308 457.047 381.538 460.134C383.768 463.22 385.767 466.021 387.195 468.075C387.865 469.042 388.425 469.865 388.875 470.503C389.095 470.793 389.283 471.106 389.436 471.436C389.181 471.176 388.946 470.897 388.733 470.601C388.271 469.975 387.634 469.184 386.953 468.251C385.459 466.241 383.427 463.462 381.198 460.375C378.968 457.289 376.969 454.488 375.541 452.445L373.871 450.007C373.651 449.719 373.46 449.41 373.3 449.084V449.084Z" fill="#263238"/>
<path d="M389.205 470.788C389.564 470.687 389.932 470.62 390.303 470.59L393.445 470.184C396.092 469.843 399.75 469.36 403.77 468.712C407.79 468.064 411.458 467.394 414.04 466.889L417.148 466.296C417.527 466.203 417.913 466.144 418.301 466.12C417.946 466.263 417.579 466.374 417.203 466.449C416.478 466.636 415.435 466.889 414.128 467.174C411.513 467.757 407.889 468.481 403.858 469.129C399.826 469.778 396.169 470.228 393.5 470.48C392.171 470.612 391.094 470.711 390.347 470.755C389.968 470.801 389.586 470.812 389.205 470.788V470.788Z" fill="#263238"/>
<path d="M374.508 76.2229H113.991C106.985 76.2229 101.305 81.9028 101.305 88.9093V473.809C101.305 480.815 106.985 486.495 113.991 486.495H374.508C381.515 486.495 387.195 480.815 387.195 473.809V88.9093C387.195 81.9028 381.515 76.2229 374.508 76.2229Z" fill="#263238"/>
<path d="M378.045 105.495H110.18V448.128H378.045V105.495Z" fill="white"/>
<path d="M254.95 468.361C256.304 462.454 252.613 456.567 246.706 455.213C240.799 453.859 234.913 457.55 233.559 463.457C232.205 469.364 235.896 475.251 241.803 476.605C247.71 477.959 253.596 474.268 254.95 468.361Z" fill="#455A64"/>
<path d="M285.956 88.0308H202.533C201.793 88.0308 201.193 88.6307 201.193 89.3708V91.2271C201.193 91.9672 201.793 92.5671 202.533 92.5671H285.956C286.696 92.5671 287.296 91.9672 287.296 91.2271V89.3708C287.296 88.6307 286.696 88.0308 285.956 88.0308Z" fill="#455A64"/>
<path d="M236.748 423.261C236.75 423.752 236.606 424.233 236.335 424.643C236.063 425.052 235.676 425.372 235.223 425.562C234.77 425.751 234.27 425.802 233.788 425.708C233.306 425.613 232.862 425.377 232.514 425.031C232.166 424.684 231.928 424.242 231.832 423.76C231.735 423.278 231.783 422.778 231.971 422.324C232.159 421.87 232.477 421.482 232.885 421.208C233.294 420.935 233.774 420.789 234.265 420.789C234.922 420.789 235.552 421.049 236.017 421.512C236.482 421.976 236.745 422.604 236.748 423.261V423.261Z" fill="#263238"/>
<path d="M246.721 423.261C246.723 423.752 246.579 424.234 246.307 424.644C246.035 425.054 245.648 425.374 245.194 425.563C244.74 425.752 244.24 425.802 243.757 425.707C243.275 425.611 242.831 425.375 242.484 425.027C242.136 424.679 241.899 424.236 241.804 423.753C241.708 423.271 241.758 422.771 241.948 422.317C242.137 421.862 242.457 421.475 242.867 421.203C243.276 420.931 243.758 420.787 244.25 420.789C244.904 420.792 245.531 421.053 245.994 421.516C246.457 421.979 246.718 422.606 246.721 423.261V423.261Z" fill="#263238"/>
<path d="M256.695 423.261C256.697 423.752 256.553 424.234 256.281 424.644C256.009 425.054 255.621 425.374 255.167 425.563C254.713 425.752 254.213 425.802 253.731 425.707C253.248 425.611 252.805 425.375 252.457 425.027C252.109 424.679 251.873 424.236 251.777 423.753C251.682 423.271 251.732 422.771 251.921 422.317C252.11 421.862 252.43 421.475 252.84 421.203C253.25 420.931 253.731 420.787 254.223 420.789C254.878 420.792 255.505 421.053 255.968 421.516C256.431 421.979 256.692 422.606 256.695 423.261V423.261Z" fill="#263238"/>
<path d="M146.24 134.207H133.62C133.491 134.207 133.369 134.156 133.278 134.065C133.187 133.975 133.136 133.852 133.136 133.724C133.136 133.596 133.187 133.473 133.278 133.382C133.369 133.291 133.491 133.24 133.62 133.24H146.24C146.368 133.24 146.491 133.291 146.582 133.382C146.673 133.473 146.723 133.596 146.723 133.724C146.723 133.852 146.673 133.975 146.582 134.065C146.491 134.156 146.368 134.207 146.24 134.207Z" fill="#263238"/>
<path d="M138.518 138.238C138.419 138.235 138.323 138.2 138.244 138.139L132.576 134.119C132.514 134.074 132.464 134.014 132.429 133.945C132.395 133.877 132.378 133.801 132.378 133.724C132.377 133.646 132.395 133.568 132.432 133.499C132.468 133.43 132.522 133.371 132.587 133.328L138.42 129.341C138.527 129.273 138.656 129.248 138.781 129.273C138.906 129.297 139.016 129.369 139.09 129.473C139.125 129.525 139.149 129.583 139.161 129.644C139.174 129.706 139.174 129.769 139.161 129.83C139.149 129.891 139.125 129.95 139.09 130.001C139.055 130.053 139.01 130.098 138.958 130.132L133.696 133.735L138.804 137.359C138.907 137.434 138.976 137.546 138.996 137.672C139.017 137.797 138.987 137.926 138.914 138.029C138.87 138.093 138.811 138.146 138.742 138.182C138.673 138.219 138.596 138.238 138.518 138.238V138.238Z" fill="#263238"/>
<path d="M349.981 134.251H337.361C337.233 134.251 337.11 134.2 337.019 134.109C336.928 134.019 336.877 133.896 336.877 133.768C336.88 133.641 336.932 133.521 337.023 133.433C337.113 133.345 337.234 133.295 337.361 133.295H349.981C350.107 133.295 350.227 133.345 350.315 133.434C350.404 133.522 350.454 133.642 350.454 133.768C350.454 133.894 350.404 134.015 350.316 134.106C350.228 134.196 350.108 134.248 349.981 134.251V134.251Z" fill="#263238"/>
<path d="M344.896 138.238C344.817 138.237 344.739 138.218 344.668 138.181C344.598 138.145 344.537 138.093 344.489 138.03C344.421 137.922 344.396 137.793 344.421 137.668C344.445 137.543 344.517 137.433 344.621 137.36L349.882 133.768L344.775 130.132C344.715 130.099 344.663 130.054 344.623 129.999C344.582 129.944 344.553 129.882 344.538 129.815C344.523 129.749 344.523 129.68 344.536 129.613C344.55 129.546 344.578 129.483 344.617 129.428C344.657 129.373 344.708 129.326 344.767 129.292C344.826 129.258 344.892 129.236 344.959 129.229C345.027 129.222 345.096 129.229 345.16 129.251C345.225 129.272 345.285 129.306 345.335 129.352L351.003 133.383C351.069 133.425 351.122 133.484 351.157 133.554C351.191 133.623 351.207 133.701 351.201 133.779C351.2 133.855 351.181 133.93 351.145 133.997C351.108 134.064 351.056 134.121 350.992 134.163L345.159 138.15C345.082 138.205 344.99 138.236 344.896 138.238V138.238Z" fill="#263238"/>
<path d="M283.737 142.566C283.737 142.709 266.163 142.818 244.448 142.818C222.732 142.818 205.158 142.709 205.158 142.566C205.158 142.423 222.732 142.313 244.448 142.313C266.163 142.313 283.737 142.423 283.737 142.566Z" fill="#E0E0E0"/>
<path d="M257.343 145.751C257.343 145.883 251.576 145.993 244.448 145.993C237.319 145.993 231.541 145.883 231.541 145.751C231.541 145.619 237.319 145.499 244.448 145.499C251.576 145.499 257.343 145.608 257.343 145.751Z" fill="#E0E0E0"/>
<path d="M347.828 172.223C347.828 172.376 327.574 172.508 302.586 172.508C277.597 172.508 257.343 172.376 257.343 172.223C257.343 172.069 277.597 171.937 302.586 171.937C327.574 171.937 347.828 172.069 347.828 172.223Z" fill="#263238"/>
<path d="M347.829 182.888C347.829 183.042 324.18 183.174 295.018 183.174C265.855 183.174 242.196 183.042 242.196 182.888C242.196 182.734 265.844 182.602 295.018 182.602C324.191 182.602 347.829 182.712 347.829 182.888Z" fill="#263238"/>
<path d="M347.829 192.795C347.829 192.949 324.18 193.081 295.018 193.081C265.855 193.081 242.196 192.949 242.196 192.795C242.196 192.642 265.844 192.51 295.018 192.51C324.191 192.51 347.829 192.598 347.829 192.795Z" fill="#263238"/>
<path d="M347.829 202.703C347.829 202.857 324.18 202.989 295.018 202.989C265.855 202.989 242.196 202.857 242.196 202.703C242.196 202.549 265.844 202.417 295.018 202.417C324.191 202.417 347.829 202.549 347.829 202.703Z" fill="#263238"/>
<path d="M347.829 212.611C347.829 212.775 324.18 212.896 295.018 212.896C265.855 212.896 242.196 212.775 242.196 212.611C242.196 212.446 265.811 212.369 295.018 212.369C324.224 212.369 347.829 212.457 347.829 212.611Z" fill="#263238"/>
<path d="M347.829 222.518C347.829 222.683 324.18 222.804 295.018 222.804C265.855 222.804 242.196 222.683 242.196 222.518C242.196 222.353 265.811 222.254 295.018 222.254C324.224 222.254 347.829 222.364 347.829 222.518Z" fill="#263238"/>
<path d="M347.829 232.437C347.829 232.59 324.18 232.722 295.018 232.722C265.855 232.722 242.196 232.59 242.196 232.437C242.196 232.283 265.811 232.14 295.018 232.14C324.224 232.14 347.829 232.272 347.829 232.437Z" fill="#263238"/>
<path d="M347.829 241.74C347.829 241.894 324.18 242.026 295.018 242.026C265.855 242.026 242.196 241.894 242.196 241.74C242.196 241.586 265.844 241.454 295.018 241.454C324.191 241.454 347.829 241.575 347.829 241.74Z" fill="#263238"/>
<path d="M295.018 252.296C295.018 252.449 283.188 252.581 268.656 252.581C254.124 252.581 242.24 252.449 242.24 252.296C242.24 252.142 254.059 252.01 268.656 252.01C283.254 252.01 295.018 252.142 295.018 252.296Z" fill="#263238"/>
<path d="M347.829 289.18C347.829 289.344 324.18 289.465 295.018 289.465C265.855 289.465 242.196 289.344 242.196 289.18C242.196 289.015 265.844 288.894 295.018 288.894C324.191 288.894 347.829 289.026 347.829 289.18Z" fill="#263238"/>
<path d="M347.829 299.933C347.829 300.098 324.18 300.219 295.018 300.219C265.855 300.219 242.196 300.098 242.196 299.933C242.196 299.768 265.844 299.647 295.018 299.647C324.191 299.647 347.829 299.779 347.829 299.933Z" fill="#263238"/>
<path d="M347.829 310.39C347.829 310.543 324.18 310.675 295.018 310.675C265.855 310.675 242.196 310.543 242.196 310.39C242.196 310.236 265.811 310.126 295.018 310.126C324.224 310.126 347.829 310.236 347.829 310.39Z" fill="#263238"/>
<path d="M347.829 320.846C347.829 321 324.18 321.132 295.018 321.132C265.855 321.132 242.196 321 242.196 320.846C242.196 320.692 265.844 320.561 295.018 320.561C324.191 320.561 347.829 320.681 347.829 320.846Z" fill="#263238"/>
<path d="M295.018 330.995C295.018 331.16 283.188 331.281 268.656 331.281C254.124 331.281 242.24 331.16 242.24 330.995C242.24 330.831 254.059 330.71 268.656 330.71C283.254 330.71 295.018 330.842 295.018 330.995Z" fill="#263238"/>
<path d="M240.307 160.437H252.631L252.751 164.138H252.235C252.134 163.303 251.795 162.513 251.258 161.865C250.51 161.423 249.638 161.238 248.775 161.338H247.567V172.475C247.567 173.321 247.699 173.837 247.962 174.035C248.489 174.314 249.08 174.45 249.676 174.43V174.837H243.338V174.43C243.942 174.46 244.54 174.303 245.052 173.98C245.354 173.447 245.474 172.83 245.392 172.223V161.338H244.173C243.298 161.231 242.413 161.408 241.647 161.843C241.076 162.47 240.731 163.271 240.669 164.117H240.131L240.307 160.437Z" fill="#263238"/>
<path d="M301.355 387.87C302.208 388.425 303.205 388.719 304.222 388.716C304.945 388.72 305.66 388.576 306.325 388.294C306.99 388.012 307.59 387.597 308.089 387.074C308.587 386.552 308.974 385.933 309.225 385.256C309.477 384.579 309.587 383.857 309.55 383.136C309.92 382.874 310.24 382.546 310.494 382.17C310.144 382.32 309.774 382.42 309.396 382.466C309.786 382.228 310.079 381.858 310.22 381.423C309.85 381.644 309.445 381.8 309.022 381.884C308.739 381.586 308.367 381.388 307.961 381.322C307.555 381.256 307.139 381.325 306.776 381.518C306.413 381.711 306.123 382.018 305.952 382.392C305.78 382.766 305.736 383.185 305.826 383.587C305.082 383.55 304.354 383.357 303.69 383.02C303.025 382.683 302.44 382.21 301.971 381.631C301.73 382.043 301.655 382.531 301.761 382.996C301.867 383.462 302.146 383.869 302.542 384.136C302.246 384.123 301.957 384.044 301.696 383.905C301.69 384.342 301.838 384.766 302.113 385.105C302.387 385.445 302.773 385.677 303.201 385.761C302.923 385.828 302.633 385.828 302.355 385.761C302.475 386.133 302.708 386.458 303.021 386.692C303.333 386.927 303.711 387.058 304.101 387.068C303.719 387.376 303.279 387.605 302.808 387.743C302.337 387.88 301.843 387.924 301.355 387.87V387.87Z" fill="#FF725E"/>
<path d="M329.024 380.533C330.353 380.533 330.507 380.533 331.034 380.533C331.353 380.539 331.668 380.599 331.968 380.709C332.184 380.788 332.379 380.916 332.539 381.082C332.702 381.245 332.829 381.439 332.912 381.653C333.017 381.95 333.073 382.261 333.077 382.576C333.077 383.103 333.077 383.268 333.077 384.597C333.077 385.926 333.077 386.08 333.077 386.607C333.074 386.925 333.018 387.241 332.912 387.541C332.829 387.755 332.702 387.949 332.539 388.112C332.379 388.278 332.184 388.406 331.968 388.485C331.667 388.59 331.352 388.646 331.034 388.65C330.507 388.65 330.353 388.65 329.024 388.65C327.695 388.65 327.53 388.65 327.003 388.65C326.688 388.646 326.377 388.591 326.08 388.485C325.866 388.401 325.672 388.274 325.509 388.112C325.347 387.949 325.22 387.755 325.136 387.541C325.024 387.242 324.965 386.926 324.96 386.607C324.96 386.08 324.96 385.926 324.96 384.597C324.96 383.268 324.96 383.103 324.96 382.576C324.966 382.261 325.025 381.949 325.136 381.653C325.22 381.439 325.347 381.245 325.509 381.082C325.672 380.92 325.866 380.793 326.08 380.709C326.376 380.598 326.688 380.539 327.003 380.533C327.53 380.533 327.684 380.533 329.024 380.533V380.533ZM329.024 379.643C327.662 379.643 327.497 379.643 326.97 379.643C326.553 379.654 326.14 379.735 325.751 379.885C325.418 380.006 325.118 380.201 324.872 380.456C324.618 380.704 324.419 381.004 324.29 381.335C324.132 381.746 324.043 382.18 324.026 382.62C324.026 383.147 324.026 383.312 324.026 384.674C324.026 386.036 324.026 386.201 324.026 386.728C324.04 387.14 324.118 387.548 324.257 387.936C324.389 388.269 324.587 388.572 324.839 388.826C325.088 389.077 325.387 389.272 325.718 389.397C326.108 389.542 326.52 389.62 326.937 389.628C327.464 389.628 327.629 389.628 328.991 389.628C330.353 389.628 330.518 389.628 331.045 389.628C331.458 389.619 331.866 389.541 332.253 389.397C332.587 389.273 332.891 389.078 333.143 388.826C333.395 388.574 333.59 388.27 333.714 387.936C333.858 387.549 333.936 387.141 333.945 386.728C333.945 386.201 333.945 386.025 333.945 384.674C333.945 383.323 333.945 383.147 333.945 382.62C333.937 382.203 333.859 381.791 333.714 381.401C333.587 381.069 333.391 380.769 333.139 380.519C332.888 380.269 332.586 380.075 332.253 379.951C331.867 379.802 331.459 379.721 331.045 379.709C330.518 379.709 330.342 379.709 328.991 379.709" fill="#FF725E"/>
<path d="M329.024 382.071C328.518 382.071 328.023 382.221 327.602 382.502C327.181 382.783 326.853 383.183 326.66 383.651C326.466 384.118 326.415 384.633 326.514 385.129C326.613 385.626 326.856 386.082 327.214 386.44C327.572 386.798 328.028 387.041 328.525 387.14C329.021 387.239 329.536 387.188 330.003 386.995C330.471 386.801 330.871 386.473 331.152 386.052C331.433 385.631 331.583 385.136 331.583 384.63C331.583 383.951 331.314 383.3 330.834 382.82C330.354 382.34 329.703 382.071 329.024 382.071V382.071ZM329.024 386.289C328.693 386.291 328.369 386.194 328.092 386.012C327.816 385.829 327.6 385.569 327.473 385.263C327.345 384.958 327.311 384.621 327.375 384.296C327.439 383.971 327.598 383.673 327.832 383.439C328.067 383.204 328.365 383.045 328.69 382.981C329.015 382.917 329.351 382.951 329.657 383.079C329.963 383.206 330.223 383.422 330.406 383.698C330.588 383.975 330.685 384.299 330.683 384.63C330.68 385.069 330.504 385.489 330.194 385.8C329.883 386.11 329.463 386.286 329.024 386.289" fill="#FF725E"/>
<path d="M332.286 381.961C332.286 382.121 332.222 382.275 332.109 382.388C331.996 382.501 331.842 382.565 331.682 382.565C331.524 382.562 331.373 382.497 331.262 382.384C331.151 382.271 331.089 382.119 331.089 381.961C331.089 381.883 331.104 381.806 331.134 381.734C331.164 381.662 331.208 381.596 331.263 381.541C331.318 381.486 331.383 381.443 331.455 381.413C331.527 381.383 331.604 381.368 331.682 381.368C331.84 381.368 331.992 381.43 332.105 381.541C332.218 381.652 332.283 381.803 332.286 381.961" fill="#FF725E"/>
<path d="M351.31 388.782H352.98V384.597H354.144L354.276 383.191H352.98V382.389C352.98 382.06 353.046 381.928 353.364 381.928H354.276V380.478H353.112C351.871 380.478 351.31 381.027 351.31 382.071V383.169H350.443V384.586H351.31V388.782Z" fill="#FF725E"/>
<path d="M303.75 409.871C303.75 410.025 290.932 410.157 275.115 410.157C259.298 410.157 246.491 410.025 246.491 409.871C246.491 409.717 259.309 409.586 275.115 409.586C290.921 409.586 303.75 409.706 303.75 409.871Z" fill="#E0E0E0"/>
<path d="M354.43 403.775C354.43 403.929 330.265 404.061 300.466 404.061C270.666 404.061 246.491 403.929 246.491 403.775C246.491 403.621 270.655 403.49 300.466 403.49C330.276 403.49 354.43 403.621 354.43 403.775Z" fill="#E0E0E0"/>
<path d="M211.793 130.844L0.241333 156.295L33.7449 434.784L245.297 409.333L211.793 130.844Z" fill="#FAFAFA"/>
<path d="M245.26 409.355C244.997 407.158 231.52 295.946 211.529 130.89L211.814 131.121L0.296567 156.582L0.549197 156.263C12.9501 259.864 24.4942 355.94 33.9514 434.761L33.6877 434.552L245.26 409.355L33.7427 435.024H33.512V434.794C23.9889 356.006 12.4228 259.929 0 156.351V156.065H0.285583L211.814 130.659H212.078V130.923C231.761 295.924 244.997 407.103 245.26 409.355Z" fill="#263238"/>
<path d="M206.764 139.927L7.78625 163.865L36.2926 400.815L235.271 376.877L206.764 139.927Z" fill="#EBEBEB"/>
<path d="M235.177 376.908C234.902 374.712 223.545 281.052 206.432 139.985L206.718 140.215L7.83146 164.149L8.08409 163.831C18.5847 251.362 28.3714 332.874 36.5215 400.788L36.2579 400.579L235.177 376.908L36.2469 401.062H36.0053V400.82C27.8222 332.907 18.0136 251.439 7.44702 163.875V163.589H7.73261L206.619 139.71H206.871V139.963C223.754 281.03 234.913 374.712 235.177 376.908Z" fill="#263238"/>
<path d="M62.7623 419.317C61.7503 419.441 60.7245 419.261 59.8148 418.801C58.905 418.341 58.1522 417.621 57.6516 416.733C57.1511 415.845 56.9253 414.828 57.0028 413.812C57.0804 412.795 57.4578 411.825 58.0873 411.023C58.7168 410.221 59.5701 409.624 60.5392 409.307C61.5082 408.99 62.5494 408.968 63.531 409.244C64.5125 409.519 65.3903 410.08 66.0532 410.854C66.7161 411.629 67.1342 412.582 67.2547 413.595C67.3792 414.589 67.2073 415.598 66.7605 416.494L67.8589 418.263C67.8822 418.304 67.8928 418.352 67.8892 418.4C67.8856 418.447 67.868 418.493 67.8387 418.53C67.8093 418.568 67.7695 418.596 67.7242 418.611C67.6789 418.626 67.6302 418.627 67.5843 418.614L65.6511 418.021C64.8498 418.748 63.8382 419.202 62.7623 419.317V419.317ZM61.587 409.564C60.4043 409.765 59.3441 410.413 58.6255 411.374C57.907 412.335 57.5849 413.535 57.7259 414.726C57.8669 415.918 58.4602 417.01 59.3832 417.776C60.3062 418.543 61.4883 418.925 62.6854 418.845C63.684 418.728 64.6172 418.288 65.3435 417.593C65.3722 417.562 65.4089 417.539 65.4496 417.528C65.4903 417.516 65.5334 417.516 65.5742 417.527L67.057 417.977L66.2881 416.67C66.2689 416.635 66.2589 416.595 66.2589 416.555C66.2589 416.515 66.2689 416.475 66.2881 416.44C66.7374 415.603 66.914 414.647 66.7934 413.705C66.7266 413.09 66.5385 412.494 66.24 411.952C65.9415 411.41 65.5385 410.933 65.0543 410.548C64.5701 410.163 64.0144 409.877 63.4192 409.708C62.8241 409.54 62.2013 409.49 61.587 409.564V409.564Z" fill="#263238"/>
<path d="M48.7028 421.064H48.571C48.3184 420.943 42.5079 418.186 42.1564 415.231C42.0579 414.554 42.1618 413.862 42.4552 413.244C42.7487 412.625 43.2184 412.108 43.8054 411.755C44.3924 411.403 45.0704 411.232 45.7542 411.265C46.438 411.297 47.097 411.53 47.6484 411.936C48.0895 411.43 48.6681 411.062 49.3139 410.878C49.9597 410.694 50.645 410.701 51.2868 410.899C51.9286 411.097 52.4993 411.476 52.9296 411.992C53.36 412.507 53.6316 413.137 53.7115 413.803C54.063 416.758 49.0763 420.811 48.8676 420.987C48.8221 421.029 48.7644 421.056 48.7028 421.064V421.064Z" fill="#FF725E"/>
<path d="M48.7028 421.064H48.571C48.3184 420.943 42.5079 418.186 42.1564 415.231C42.0579 414.554 42.1618 413.862 42.4552 413.244C42.7487 412.625 43.2184 412.108 43.8054 411.755C44.3924 411.403 45.0704 411.232 45.7542 411.265C46.438 411.297 47.097 411.53 47.6484 411.936C48.0895 411.43 48.6681 411.062 49.3139 410.878C49.9597 410.694 50.645 410.701 51.2868 410.899C51.9286 411.097 52.4993 411.476 52.9296 411.992C53.36 412.507 53.6316 413.137 53.7115 413.803C54.063 416.758 49.0763 420.811 48.8676 420.987C48.8221 421.029 48.7644 421.056 48.7028 421.064V421.064ZM45.2429 411.815C44.4619 411.912 43.7502 412.311 43.2611 412.928C42.7721 413.544 42.5449 414.328 42.6287 415.11C42.9253 417.571 47.7582 420.064 48.6369 420.504C49.3838 419.877 53.4918 416.297 53.1953 413.836C53.0988 413.055 52.6993 412.344 52.0829 411.855C51.4664 411.366 50.6825 411.138 49.9001 411.222C49.4994 411.266 49.112 411.391 48.7623 411.592C48.4126 411.792 48.1081 412.063 47.868 412.386C47.8228 412.431 47.7616 412.457 47.6978 412.457C47.634 412.457 47.5728 412.431 47.5275 412.386C47.2109 412.13 46.8442 411.941 46.451 411.833C46.0577 411.726 45.6463 411.701 45.2429 411.76V411.815Z" fill="#263238"/>
<path d="M234.189 398.47H234.035L229.641 396.042L225.907 399.447C225.867 399.472 225.821 399.484 225.775 399.484C225.728 399.484 225.683 399.472 225.643 399.447C225.6 399.43 225.561 399.402 225.532 399.365C225.504 399.329 225.485 399.285 225.478 399.239L224.171 388.387C224.165 388.318 224.186 388.25 224.229 388.197C224.272 388.144 224.334 388.109 224.402 388.101L232.871 387.079C232.939 387.073 233.007 387.094 233.06 387.137C233.113 387.18 233.148 387.242 233.156 387.31L234.463 398.151C234.469 398.199 234.462 398.248 234.442 398.292C234.423 398.337 234.392 398.375 234.353 398.404L234.189 398.47ZM229.564 395.438C229.614 395.422 229.668 395.422 229.718 395.438L233.881 397.701L232.662 387.618L224.709 388.573L225.918 398.657L229.422 395.471C229.466 395.45 229.515 395.439 229.564 395.438V395.438Z" fill="#263238"/>
<path d="M123.438 173.046C122.174 169.806 120.428 166.599 117.605 164.578C114.782 162.557 111.015 161.579 108.192 163.403C106.356 162.003 104.049 161.369 101.755 161.634C98.4565 162.109 95.3172 163.358 92.5947 165.281C89.1721 167.851 86.353 171.139 84.3348 174.914C81.5998 179.867 82.0611 185.898 82.5993 191.543C83.6757 203.003 84.7741 214.46 85.8945 225.912C85.8109 226.299 85.8334 226.701 85.9597 227.076C86.0859 227.452 86.3111 227.786 86.6116 228.043C86.912 228.301 87.2765 228.473 87.6665 228.54C88.0565 228.608 88.4575 228.569 88.8272 228.427C102.691 226.808 116.454 224.413 130.05 221.255C126.217 205.427 129.325 188.204 123.438 173.046Z" fill="#263238"/>
<path d="M171.119 332.907C166.604 316.288 159.674 287.148 159.674 287.148L134.63 212.127C130.072 212.215 125.47 212.127 125.47 212.127C125.47 212.127 123.174 204.439 112.673 206.569L95.099 208.689C95.099 208.689 88.5965 211.754 86.6084 216.114C84.6203 220.475 84.3128 223.715 81.7755 225.385C79.2382 227.054 69.5284 239.664 70.3302 242.553C71.1321 245.442 67.6611 252.713 68.3641 260.413C69.0671 268.112 70.5609 279.085 70.5609 279.085C70.5609 279.085 65.4314 284.05 68.5069 290.553C68.5069 290.553 66.2442 298.373 68.5728 304.502L72.0437 310.488C72.0437 310.488 67.3975 327.063 68.43 335.642C69.4625 344.22 73.208 396.306 73.208 396.306L147.58 387.222L177.896 376.238C177.896 376.238 175.644 349.525 171.119 332.907Z" fill="#FF725E"/>
<g opacity="0.3">
<path opacity="0.3" d="M120.922 214.621C121.592 212.424 120.582 210.557 118.659 209.304C116.953 208.414 115.033 208.014 113.113 208.151C106.588 208.074 99.7342 208.568 94.2202 212.039C92.6203 212.942 91.3157 214.289 90.4637 215.917C89.7058 217.564 90.3319 218.871 91.1996 220.783L98.3172 214.115L120.922 214.621Z" fill="black"/>
</g>
<path d="M91.3973 172.409L103.161 165.281L106.544 165.138C113.947 163.919 120.428 171.234 121.482 177.22C122.658 183.876 123.822 192.049 123.591 197.145C123.119 207.371 115.551 209.513 115.551 209.513C115.551 209.513 116.089 212.204 116.649 215.51C116.913 216.919 116.888 218.367 116.577 219.766C116.266 221.165 115.675 222.487 114.84 223.652C114.005 224.817 112.942 225.801 111.717 226.544C110.491 227.287 109.127 227.775 107.708 227.977V227.977C104.962 228.367 102.171 227.665 99.9356 226.023C97.6998 224.38 96.1962 221.928 95.747 219.19L88.6074 176.352C88.4912 175.465 88.7138 174.566 89.2309 173.835C89.748 173.104 90.5215 172.595 91.3973 172.409V172.409Z" fill="#9E5F58"/>
<path d="M118.736 184.393C118.777 184.729 118.685 185.067 118.48 185.336C118.275 185.605 117.973 185.783 117.638 185.832C117.476 185.863 117.308 185.862 117.146 185.828C116.984 185.794 116.831 185.728 116.695 185.634C116.559 185.54 116.443 185.42 116.354 185.28C116.265 185.14 116.205 184.984 116.177 184.821C116.136 184.485 116.228 184.147 116.433 183.878C116.639 183.609 116.941 183.431 117.275 183.382C117.438 183.351 117.605 183.352 117.767 183.386C117.929 183.42 118.083 183.486 118.219 183.58C118.355 183.674 118.471 183.794 118.56 183.934C118.649 184.074 118.709 184.23 118.736 184.393V184.393Z" fill="#263238"/>
<path d="M119.626 181.306C119.494 181.493 118.429 180.878 117.045 181.043C115.661 181.207 114.716 182.009 114.552 181.856C114.387 181.702 114.552 181.471 115.002 181.098C115.555 180.611 116.246 180.307 116.979 180.23C117.699 180.151 118.425 180.301 119.055 180.658C119.527 180.944 119.725 181.229 119.626 181.306Z" fill="#263238"/>
<path d="M112.739 193.18C113.442 192.871 114.179 192.649 114.936 192.521C115.287 192.444 115.617 192.334 115.65 192.092C115.638 191.719 115.511 191.359 115.287 191.06L113.936 188.479C112.718 186.3 111.667 184.03 110.795 181.691C112.201 183.761 113.435 185.943 114.486 188.215C114.936 189.127 115.375 189.984 115.793 190.818C116.063 191.222 116.184 191.708 116.133 192.191C116.095 192.322 116.028 192.442 115.936 192.543C115.845 192.644 115.732 192.723 115.606 192.773C115.415 192.847 115.216 192.895 115.013 192.916C114.27 193.102 113.505 193.191 112.739 193.18Z" fill="#263238"/>
<path d="M115.529 209.491C110.805 210.096 106.007 209.377 101.667 207.415C101.667 207.415 106.061 214.006 115.946 211.908L115.529 209.491Z" fill="#794742"/>
<path d="M112.52 196.585C112.22 196.282 111.847 196.061 111.437 195.944C111.028 195.826 110.595 195.816 110.18 195.915C109.88 195.987 109.597 196.12 109.35 196.305C109.102 196.49 108.895 196.724 108.741 196.991C108.583 197.245 108.506 197.54 108.52 197.838C108.533 198.136 108.637 198.423 108.818 198.661C109.068 198.885 109.38 199.029 109.713 199.074C110.046 199.119 110.384 199.063 110.685 198.914C111.319 198.61 111.883 198.181 112.344 197.65C112.488 197.523 112.607 197.371 112.695 197.2C112.737 197.117 112.754 197.024 112.742 196.932C112.73 196.84 112.691 196.753 112.629 196.684" fill="#794742"/>
<path d="M108.741 194.597C108.961 194.597 109.137 196.069 110.542 196.991C111.948 197.914 113.541 197.573 113.574 197.782C113.607 197.991 113.245 198.112 112.574 198.211C111.69 198.316 110.797 198.11 110.048 197.628C109.334 197.166 108.826 196.446 108.631 195.618C108.532 194.992 108.653 194.597 108.741 194.597Z" fill="#263238"/>
<path d="M118.473 176.418C118.264 176.77 117.265 176.55 116.111 176.66C114.958 176.77 114.013 177.11 113.75 176.803C113.64 176.66 113.75 176.32 114.145 175.979C114.673 175.548 115.321 175.291 116.001 175.243C116.678 175.176 117.359 175.326 117.946 175.672C118.385 175.946 118.561 176.254 118.473 176.418Z" fill="#263238"/>
<path d="M102.557 186.37C102.606 186.702 102.783 187.003 103.049 187.208C103.315 187.413 103.651 187.506 103.985 187.468C104.31 187.43 104.606 187.265 104.812 187.011C105.017 186.756 105.114 186.432 105.083 186.106C105.034 185.774 104.858 185.473 104.592 185.268C104.325 185.063 103.99 184.97 103.656 185.008C103.331 185.047 103.034 185.211 102.829 185.465C102.624 185.72 102.526 186.044 102.557 186.37V186.37Z" fill="#263238"/>
<path d="M100.701 183.975C100.887 184.129 101.799 183.261 103.128 183.053C104.457 182.844 105.633 183.393 105.753 183.196C105.874 182.998 105.611 182.833 105.116 182.58C104.456 182.258 103.712 182.147 102.985 182.262C102.268 182.369 101.603 182.699 101.085 183.207C100.712 183.591 100.613 183.921 100.701 183.975Z" fill="#263238"/>
<path d="M101.228 181.076C101.525 181.361 102.425 180.889 103.568 180.702C104.71 180.515 105.709 180.592 105.885 180.23C105.962 180.065 105.753 179.769 105.292 179.538C104.669 179.267 103.979 179.188 103.311 179.309C102.642 179.43 102.024 179.747 101.536 180.219C101.184 180.603 101.052 180.944 101.228 181.076Z" fill="#263238"/>
<path d="M93.9676 192.883C93.8797 192.136 92.8692 190.467 92.0674 190.434C90.0573 190.346 86.5754 190.895 87.0477 195.926C87.7617 202.791 94.5058 200.649 94.4948 200.451C94.4838 200.254 94.2641 195.465 93.9676 192.883Z" fill="#9E5F58"/>
<path d="M91.5293 198.09C91.5293 198.09 91.4194 198.178 91.2327 198.298C90.9578 198.45 90.6352 198.489 90.332 198.408C89.8604 198.174 89.4594 197.819 89.17 197.379C88.8805 196.939 88.713 196.43 88.6844 195.904C88.6081 195.313 88.6644 194.713 88.8492 194.147C88.8916 193.926 88.9867 193.719 89.1263 193.543C89.2659 193.367 89.4459 193.227 89.651 193.136C89.7842 193.089 89.9294 193.088 90.063 193.134C90.1966 193.18 90.3108 193.27 90.3869 193.389C90.4968 193.575 90.4748 193.718 90.5078 193.729C90.5407 193.74 90.6396 193.597 90.5078 193.323C90.4628 193.152 90.3523 193.006 90.2002 192.916C90.0997 192.854 89.9877 192.812 89.8708 192.793C89.7538 192.774 89.6343 192.779 89.5192 192.806C89.2518 192.9 89.0118 193.059 88.8202 193.268C88.6286 193.476 88.4914 193.729 88.4208 194.004C88.199 194.63 88.1275 195.3 88.2121 195.959C88.2397 196.574 88.4497 197.166 88.8156 197.661C89.1814 198.156 89.6864 198.531 90.2661 198.738C90.4597 198.777 90.6596 198.77 90.8503 198.719C91.0409 198.667 91.2169 198.572 91.3645 198.441C91.5403 198.233 91.5622 198.09 91.5293 198.09Z" fill="#794742"/>
<path d="M90.98 190.401L93.012 191.906C99.2619 183.514 110.828 163.216 110.202 164.446C106.592 163.748 102.864 163.967 99.3607 165.083C93.9786 166.95 83.9832 171.487 85.1914 178C86.3997 184.514 90.98 190.401 90.98 190.401Z" fill="#263238"/>
<g opacity="0.3">
<path opacity="0.3" d="M139.573 308.38C141.528 307.6 142.33 305.084 144.252 304.217C145.176 303.904 146.144 303.745 147.119 303.744C149.013 303.575 150.849 303.007 152.507 302.077C154.165 301.148 155.608 299.877 156.74 298.35C157.872 296.823 158.668 295.073 159.075 293.216C159.482 291.359 159.491 289.437 159.102 287.576C154.291 289.421 149.393 291.31 145.394 294.573C141.396 297.835 138.398 302.734 138.749 307.929" fill="black"/>
</g>
<path d="M137.969 289.257L143.461 280.634L144.021 263.873V245.464L142.791 236.38L134.685 212.061C134.685 212.061 145.669 212.468 147.866 216.85C150.063 221.233 163.661 258.677 163.661 258.677C163.661 258.677 166.725 267.234 166.956 268.98C167.187 270.727 168.834 273.956 167.582 276.757C166.33 279.558 159.674 287.082 159.674 287.082L157.477 289.992C157.706 290.81 157.769 291.665 157.663 292.508C157.477 292.881 155.071 297.319 152.171 299.241C150.689 300.229 147.866 299.505 147.778 299.384L137.969 289.257Z" fill="#FF725E"/>
<path d="M81.2812 247.814C81.308 247.985 81.308 248.159 81.2812 248.33C81.2043 248.737 81.1165 249.22 81.0176 249.802C80.776 251.065 80.4355 252.911 80.062 255.195C79.3151 259.754 78.5023 266.091 77.8652 273.121C77.2281 280.151 77.0085 286.543 76.8767 291.168C76.8107 293.364 76.7668 295.265 76.7229 296.66C76.7229 297.253 76.7229 297.758 76.7229 298.153C76.729 298.328 76.7067 298.502 76.657 298.67C76.6406 298.498 76.6406 298.325 76.657 298.153C76.657 297.747 76.657 297.253 76.657 296.66C76.657 295.364 76.6021 293.485 76.657 291.168C76.657 286.532 76.8986 280.129 77.4808 273.077C78.0629 266.025 78.9416 259.677 79.7984 255.129C80.2158 252.845 80.6222 251.01 80.8968 249.747L81.2702 248.308C81.1714 247.979 81.2812 247.803 81.2812 247.814Z" fill="#263238"/>
<path d="M83.6646 223.144C83.6162 223.284 83.5497 223.417 83.4669 223.54L82.8298 224.638L80.3584 228.724C78.1616 232.261 75.1191 237.193 71.5713 243.003L71.4944 242.652C73.553 244.007 75.7653 245.113 78.0848 245.947C80.6454 246.844 83.1017 248.015 85.411 249.44C87.6993 250.855 89.4561 252.987 90.4087 255.503C91.1364 257.851 91.5501 260.285 91.6389 262.741C92.0481 266.854 91.9781 271.001 91.4302 275.098C91.0495 277.87 90.2067 280.558 88.9369 283.051C88.5839 283.717 88.1876 284.359 87.7506 284.973C87.6052 285.197 87.4437 285.41 87.2673 285.61C87.2673 285.61 87.8714 284.698 88.7392 282.941C89.9288 280.426 90.7111 277.738 91.0568 274.977C91.5385 270.907 91.5643 266.795 91.1337 262.719C91.0318 260.314 90.6183 257.933 89.9035 255.635C88.9935 253.231 87.3135 251.195 85.1255 249.846C82.8458 248.449 80.4228 247.3 77.898 246.419C75.5304 245.564 73.2737 244.428 71.1759 243.036L70.9672 242.882L71.099 242.685L80.0838 228.537C81.1822 226.857 82.05 225.506 82.687 224.528L83.401 223.43C83.4776 223.325 83.566 223.229 83.6646 223.144Z" fill="#263238"/>
<path d="M92.1552 279.371C92.1552 279.371 93.704 264.609 94.352 257.513C95.0001 250.417 94.1982 247.012 93.9017 242.992C93.6051 238.972 90.7822 219.772 90.7822 219.772L95.4284 216.861C95.4284 216.861 100.25 223.133 105.819 222.353C115.551 221.002 116.331 214.456 116.331 214.456L120.955 214.621C120.955 214.621 120.406 234.974 120.417 239.972C120.417 246.562 120.702 261.313 121.263 265.97C121.823 270.628 124.854 282.82 124.854 282.82L92.1552 279.371Z" fill="#E0E0E0"/>
<g opacity="0.3">
<path opacity="0.3" d="M75.7893 310.598C72.4655 322.644 71.8912 335.283 74.1087 347.581C77.7883 368.242 81.7975 395.274 81.7975 395.274L147.185 387.409C153.775 384.993 159.52 382.917 159.52 382.917C159.52 382.917 147.8 313.421 140.122 307.347C128.787 298.362 75.7893 310.598 75.7893 310.598Z" fill="black"/>
</g>
<path d="M92.1553 279.371C92.1553 279.371 73.922 306.611 74.0098 319.374C74.0977 332.138 89.9475 394.296 89.9475 394.296L141.418 388.112C141.418 388.112 146.965 332.456 146.185 321.945C145.405 311.433 124.404 281.117 124.404 281.117L92.1553 279.371Z" fill="#263238"/>
<path d="M118.714 307.072C120.705 305.482 122.584 303.757 124.338 301.91C125.612 300.306 126.436 299.373 126.436 299.373C126.436 299.373 131.665 297.802 133.587 295.594C135.509 293.386 138.661 290.19 138.661 290.19L144.867 296.682C144.867 296.682 141.286 302.481 141.001 304.37C140.346 306.816 139.52 309.213 138.53 311.543L126.623 304.425C126.623 304.425 124.097 307.973 122.471 308.358C121.142 308.698 118.813 309.665 118.714 307.072Z" fill="#9E5F58"/>
<path d="M71.2748 294.946C71.2748 294.946 68.408 301.141 68.7595 303.217C69.111 305.293 78.2716 312.696 78.2716 312.696L85.1585 304.228C85.1585 304.228 88.9809 305.04 90.3979 304.447C91.8148 303.854 92.5946 302.58 92.4299 301.855C92.2651 301.13 88.937 301.108 87.6519 301.053C86.3667 300.998 79.0185 297.945 76.5801 298.659C76.5801 298.659 76.8986 294.814 75.1521 294.474C73.8406 294.332 72.514 294.494 71.2748 294.946V294.946Z" fill="#9E5F58"/>
<path d="M128.029 301.767C128.172 301.767 128.029 302.712 127.392 303.656C126.755 304.601 126.041 305.128 125.942 305.007C125.843 304.887 126.359 304.217 126.919 303.349C127.48 302.481 127.875 301.712 128.029 301.767Z" fill="#794742"/>
<path d="M125.47 212.017C125.611 212.077 125.744 212.155 125.865 212.248L126.963 212.973L130.962 215.763L144.615 225.55L144.889 225.736L144.637 225.978C142.45 227.966 140.402 230.102 138.508 232.371C133.695 238.246 129.351 244.49 125.514 251.043C124.02 253.548 122.855 255.613 122.054 257.041C121.68 257.7 121.384 258.249 121.142 258.677C121.04 258.873 120.923 259.061 120.79 259.237C120.844 259.023 120.925 258.816 121.032 258.622C121.219 258.227 121.493 257.667 121.867 256.931C122.603 255.47 123.712 253.383 125.162 250.835C128.904 244.175 133.219 237.854 138.057 231.942C139.971 229.653 142.045 227.502 144.263 225.506V225.934L130.72 216.049L126.81 213.138L125.788 212.336C125.568 212.138 125.459 212.039 125.47 212.017Z" fill="#263238"/>
<path d="M155.489 338.849C155.489 338.849 155.577 338.981 155.686 339.255L155.884 339.761L156.016 340.09L156.082 340.255C156.082 340.255 156.148 340.343 156.082 340.255C156.016 340.167 156.082 340.255 155.983 340.255C155.884 340.255 155.983 340.332 155.983 340.321C155.708 339.222 155.247 337.685 154.698 335.763C153.599 331.907 152.084 326.58 150.469 320.682C148.854 314.783 147.437 309.423 146.493 305.524C146.021 303.58 145.658 301.998 145.394 300.9C145.246 300.335 145.154 299.758 145.12 299.175C145.321 299.72 145.487 300.278 145.614 300.845L146.855 305.425C147.954 309.39 149.382 314.684 150.985 320.528C152.589 326.371 154.05 331.775 155.049 335.653C155.555 337.597 155.961 339.168 156.148 340.288V340.409C156.148 340.409 156.148 340.409 156.148 340.486C156.148 340.563 156.038 340.486 156.038 340.486C156.038 340.486 155.972 340.387 155.939 340.343L155.873 340.156L155.763 339.816C155.763 339.629 155.664 339.453 155.621 339.288C155.557 339.149 155.512 339.001 155.489 338.849V338.849Z" fill="#263238"/>
<path d="M90.6286 275.351C90.5737 275.494 89.7389 275.351 88.7723 274.9C87.8057 274.45 87.0698 274.077 87.1247 273.934C87.1796 273.791 88.0144 273.989 88.981 274.373C89.9476 274.758 90.6945 275.197 90.6286 275.351Z" fill="#263238"/>
<path d="M129.545 270.452C128.949 271.16 128.133 271.647 127.227 271.836C126.378 272.204 125.428 272.269 124.536 272.023C125.357 271.712 126.202 271.469 127.062 271.298C127.862 270.94 128.693 270.657 129.545 270.452Z" fill="#263238"/>
<path d="M93.9786 207.316C93.9786 207.316 93.8687 207.569 93.5063 207.909C92.9744 208.373 92.343 208.707 91.661 208.887C90.6432 209.176 89.5608 209.141 88.5635 208.788C87.3388 208.303 86.3482 207.365 85.7979 206.168C85.2476 204.971 85.1799 203.608 85.6088 202.363C85.9907 201.372 86.6698 200.524 87.553 199.935C88.1379 199.546 88.8019 199.291 89.4971 199.188C89.9914 199.122 90.266 199.188 90.266 199.188C89.3796 199.393 88.5406 199.766 87.7946 200.287C87.0219 200.864 86.4341 201.654 86.1031 202.56C85.7413 203.677 85.8158 204.89 86.3118 205.954C86.7931 207.024 87.6656 207.869 88.7502 208.316C89.6475 208.656 90.6244 208.729 91.5621 208.525C92.4383 208.282 93.2591 207.872 93.9786 207.316V207.316Z" fill="#E0E0E0"/>
<g opacity="0.3">
<path opacity="0.3" d="M121.197 258.502C121.197 258.502 127.084 248.495 131.017 244.277C134.949 240.06 140.012 236.589 145.713 235.699C144.67 233.083 143.116 230.701 141.144 228.691C141.144 228.691 126.579 245.837 121.197 258.502Z" fill="black"/>
</g>
<path d="M159.663 287.06C159.525 287.342 159.355 287.607 159.157 287.85L157.576 290.047V289.948C157.631 290.366 157.696 290.816 157.762 291.299C157.762 291.541 157.828 291.783 157.861 292.046C157.864 292.341 157.784 292.63 157.631 292.881C157.017 293.944 156.311 294.951 155.522 295.891C154.619 297.047 153.647 298.147 152.611 299.186C152.305 299.487 151.94 299.722 151.54 299.877C151.139 300.031 150.711 300.103 150.282 300.087C149.402 300.087 148.529 299.934 147.701 299.636V299.636L138.464 290.355C138.169 290.072 137.936 289.73 137.781 289.352C137.626 288.973 137.552 288.567 137.563 288.158C137.57 287.352 137.73 286.554 138.035 285.807C138.658 284.29 139.702 282.983 141.045 282.04C141.603 281.657 142.204 281.34 142.835 281.095L142.681 281.216L146.57 274.318V274.516L142.066 252.186L140.803 245.65C140.671 244.925 140.572 244.343 140.496 243.904C140.446 243.702 140.42 243.496 140.419 243.289C140.489 243.482 140.544 243.68 140.583 243.882C140.693 244.321 140.825 244.903 140.99 245.617C141.341 247.199 141.825 249.396 142.418 252.12C143.593 257.721 145.23 265.487 147.108 274.395V274.505V274.593C145.878 276.79 144.571 279.118 143.231 281.502V281.579H143.132C142.549 281.816 141.993 282.114 141.473 282.468C140.221 283.344 139.245 284.56 138.661 285.972C138.387 286.65 138.241 287.372 138.233 288.103C138.213 288.437 138.264 288.771 138.383 289.084C138.503 289.396 138.687 289.68 138.925 289.915V289.915L148.053 299.142L147.965 299.087C149.502 299.614 151.359 299.856 152.358 298.768C153.391 297.773 154.363 296.717 155.269 295.605C156.06 294.692 156.773 293.715 157.4 292.683C157.538 292.483 157.615 292.246 157.62 292.002L157.532 291.266C157.532 290.794 157.444 290.355 157.4 289.937V289.882L159.058 287.752C159.243 287.507 159.445 287.276 159.663 287.06Z" fill="#263238"/>
<path d="M155.236 291.596C153.55 289.61 151.714 287.756 149.744 286.049C147.652 284.49 145.449 283.084 143.154 281.842C143.923 281.983 144.665 282.246 145.351 282.622C147.044 283.425 148.636 284.424 150.096 285.599C151.547 286.78 152.852 288.129 153.984 289.619C154.51 290.203 154.933 290.871 155.236 291.596V291.596Z" fill="#263238"/>
<path d="M159.849 271.99C157.498 271.718 155.119 271.785 152.787 272.187C150.497 272.776 148.304 273.69 146.273 274.9C146.726 274.348 147.281 273.889 147.91 273.549C149.378 272.655 150.991 272.023 152.677 271.682C154.361 271.314 156.098 271.247 157.806 271.484C158.513 271.52 159.207 271.691 159.849 271.99V271.99Z" fill="#263238"/>
<g opacity="0.3">
<path opacity="0.3" d="M89.9695 255.041C88.4976 251.746 85.5759 249.549 82.3686 248.045C79.1613 246.54 75.8331 245.54 72.483 243.585V243.882C73.2451 245.613 74.5223 247.066 76.1407 248.045C77.7004 249.143 79.4359 249.868 81.0285 250.846C85.9995 253.897 89.6507 258.696 91.2656 264.301C91.5628 261.156 91.1189 257.984 89.9695 255.041V255.041Z" fill="black"/>
</g>
<path d="M115.529 391.528C115.375 391.528 113.519 377.161 111.377 359.4C109.235 341.639 107.643 327.228 107.796 327.206C107.95 327.184 109.817 341.573 111.948 359.334C114.079 377.095 115.683 391.506 115.529 391.528Z" fill="#455A64"/>
<path d="M114.233 314.52C114.376 314.608 112.673 317.2 110.806 320.528C108.939 323.856 107.577 326.635 107.434 326.569C108.971 322.183 111.273 318.103 114.233 314.52Z" fill="#455A64"/>
<path d="M111.674 253.394C111.308 254.062 110.841 254.669 110.29 255.195C107.795 257.89 104.842 260.121 101.569 261.786C100.914 262.176 100.203 262.462 99.4596 262.631C99.3828 262.478 102.513 260.984 105.874 258.414C109.235 255.843 111.542 253.273 111.674 253.394Z" fill="#455A64"/>
<path d="M76.8216 286.302C76.2936 286.37 75.7613 286.4 75.2289 286.39C73.9837 286.492 72.7761 286.867 71.6921 287.488C70.6152 288.119 69.6922 288.982 68.99 290.014C68.4408 290.805 68.2102 291.376 68.1223 291.343C68.1458 290.792 68.3248 290.259 68.6386 289.806C69.2905 288.637 70.2421 287.662 71.3955 286.983C72.5545 286.318 73.8709 285.976 75.207 285.994C75.7633 285.945 76.3224 286.051 76.8216 286.302V286.302Z" fill="#263238"/>
<path d="M73.3947 277.328C73.4936 277.46 72.9004 278.042 72.0766 278.635C71.2529 279.228 70.5059 279.602 70.4181 279.481C70.3302 279.36 70.9123 278.767 71.7361 278.174C72.5599 277.581 73.3068 277.174 73.3947 277.328Z" fill="#263238"/>
<path d="M62.905 259.237C62.9345 259.757 62.8092 260.275 62.5448 260.724C62.2805 261.173 61.8891 261.533 61.42 261.76C60.9509 261.987 60.4252 262.069 59.9091 261.997C59.3931 261.925 58.91 261.702 58.5208 261.356C58.1316 261.009 57.8537 260.556 57.7222 260.051C57.5908 259.547 57.6117 259.015 57.7823 258.523C57.9529 258.031 58.2655 257.6 58.6807 257.285C59.0959 256.971 59.5951 256.786 60.1151 256.755C60.4618 256.733 60.8094 256.779 61.1378 256.892C61.4662 257.005 61.769 257.183 62.0285 257.413C62.288 257.644 62.4991 257.924 62.6496 258.238C62.8 258.551 62.8869 258.89 62.905 259.237V259.237Z" fill="#455A64"/>
<path d="M128.325 338.453C128.357 338.974 128.234 339.492 127.971 339.942C127.708 340.393 127.317 340.755 126.849 340.983C126.38 341.212 125.854 341.296 125.337 341.225C124.821 341.155 124.336 340.932 123.946 340.587C123.556 340.241 123.277 339.787 123.144 339.283C123.012 338.779 123.032 338.246 123.202 337.753C123.372 337.26 123.685 336.829 124.1 336.514C124.516 336.198 125.015 336.013 125.535 335.982C126.233 335.94 126.919 336.177 127.442 336.64C127.965 337.104 128.283 337.756 128.325 338.453V338.453Z" fill="#455A64"/>
<path d="M40.3769 241.74C40.4758 241.619 45.0231 245.474 50.5151 250.351C56.0071 255.228 60.4006 259.27 60.2798 259.391C60.159 259.512 55.6336 255.657 50.1306 250.78C44.6277 245.903 40.2671 241.85 40.3769 241.74Z" fill="#455A64"/>
<path d="M166.033 325.613C165.492 325.777 164.937 325.891 164.375 325.954L159.805 326.668C155.95 327.239 150.612 327.997 144.713 328.799L143.703 328.93H143.802C138.793 331.709 134.29 334.17 131.016 335.916L127.15 337.959C126.687 338.227 126.202 338.455 125.7 338.64C126.12 338.311 126.568 338.02 127.04 337.773L130.83 335.576C134.048 333.73 138.518 331.182 143.527 328.436L144.538 328.293C150.436 327.492 155.785 326.8 159.652 326.327L164.243 325.8C164.834 325.69 165.432 325.628 166.033 325.613V325.613Z" fill="#455A64"/>
<path d="M40.9152 234.414C37.6505 234.703 34.3715 234.799 31.0955 234.699C27.8232 234.798 24.5479 234.703 21.2869 234.414C24.5483 234.131 27.8232 234.036 31.0955 234.128C34.3715 234.035 37.6501 234.131 40.9152 234.414V234.414Z" fill="#455A64"/>
<path d="M36.7412 237.204C34.4351 237.486 32.1099 237.581 29.7884 237.489C27.4632 237.582 25.1344 237.486 22.8246 237.204C25.1338 236.915 27.4632 236.819 29.7884 236.918C32.1099 236.82 34.4356 236.915 36.7412 237.204V237.204Z" fill="#455A64"/>
<path d="M195.229 323.12C191.838 323.646 188.42 323.98 184.992 324.12C181.578 324.444 178.15 324.584 174.722 324.537C178.112 324.011 181.53 323.681 184.959 323.548C188.371 323.217 191.8 323.074 195.229 323.12V323.12Z" fill="#455A64"/>
<path d="M191.373 326.173C189.445 326.552 187.484 326.74 185.519 326.734C183.561 326.926 181.589 326.926 179.631 326.734C181.564 326.363 183.529 326.179 185.497 326.184C187.451 325.992 189.419 325.988 191.373 326.173Z" fill="#455A64"/>
<path d="M463.325 486.495C463.325 486.66 363.579 486.781 240.559 486.781C117.539 486.781 17.772 486.66 17.772 486.495C17.772 486.33 117.495 486.209 240.559 486.209C363.623 486.209 463.325 486.341 463.325 486.495Z" fill="#263238"/>
</svg>
