<?xml version="1.0"?>
<svg xmlns="http://www.w3.org/2000/svg" xmlns:xlink="http://www.w3.org/1999/xlink" xmlns:svgjs="http://svgjs.com/svgjs" version="1.1" width="512" height="512" x="0" y="0" viewBox="0 0 512 512" style="enable-background:new 0 0 512 512" xml:space="preserve" class=""><g><g xmlns="http://www.w3.org/2000/svg"><g><path d="m284.716 17.851 54.264 109.952c4.665 9.451 13.681 16.002 24.111 17.518l121.339 17.632c26.266 3.817 36.754 36.095 17.747 54.621l-87.802 85.586c-7.547 7.357-10.991 17.956-9.21 28.344l20.727 120.849c4.487 26.16-22.971 46.109-46.463 33.758l-108.529-57.057c-9.329-4.905-20.474-4.905-29.803 0l-108.527 57.055c-23.493 12.351-50.95-7.598-46.463-33.758l20.727-120.849c1.782-10.388-1.662-20.988-9.21-28.344l-87.802-85.585c-19.006-18.526-8.518-50.804 17.747-54.621l121.339-17.632c10.43-1.516 19.447-8.066 24.111-17.518l54.264-109.952c11.747-23.8 45.687-23.8 57.433.001z" fill="#f25c54" data-original="#fee45a" style="" class=""/><path d="m414.38 303.162c-7.555 7.349-10.998 17.956-9.21 28.337l20.721 120.853c4.492 26.158-22.972 46.109-46.458 33.754l-2.6-1.367c15.531-3.824 27.556-19.036 24.442-37.187l-21.061-122.796c-1.809-10.556 1.686-21.328 9.364-28.8l89.216-86.976c14.102-13.742 12.221-34.936-.206-46.88l5.838.853c26.272 3.813 36.755 36.088 17.751 54.619z" fill="#fed402" data-original="#fed402" style="" class=""/></g><path d="m367.617 307.372c-1.103-29.428-7.047-56.094-15.222-84.101-.014 0-172.749 0-172.749 0v133.225 95.174h148.808s0-51.928 0-52.63c.003-8.704 5.242-20.629 11.145-26.481 20.879-20.7 29.103-36.228 28.018-65.187z" fill="#fed2a4" data-original="#fed2a4" style="" class=""/><path d="m339.602 372.56c-5.901 5.85-11.143 17.775-11.143 26.477v42.285h-20.597s0-50.658 0-51.358c0-8.702 5.242-20.628 11.143-26.477 20.875-20.7 29.103-27.157 28.012-56.116-1.102-29.433-7.044-56.095-15.221-84.096h20.597c8.177 28.001 14.119 54.664 15.221 84.096 1.091 28.96-7.137 44.49-28.012 65.189z" fill="#ffbd86" data-original="#ffbd86" style="" class=""/><g><path d="m355.757 456.448v40.429c0 8.352-6.771 15.123-15.123 15.123h-169.271c-8.352 0-15.123-6.771-15.123-15.123v-40.429c0-8.352 6.771-15.123 15.123-15.123h169.271c8.352 0 15.123 6.771 15.123 15.123z" fill="#455a64" data-original="#60b7ff" style="" class=""/><path d="m355.76 456.447v40.428c0 8.359-6.775 15.125-15.125 15.125h-20.398c8.349 0 15.125-6.765 15.125-15.125v-40.428c0-8.349-6.775-15.125-15.125-15.125h20.398c8.349 0 15.125 6.776 15.125 15.125z" fill="#2672fe" data-original="#26a6fe" style="" class=""/></g><g fill="#f6a96c"><path d="m220.532 194.919v54.413c0 12.997-10.536 23.534-23.534 23.534-12.997 0-23.534-10.536-23.534-23.534v-54.413c0-12.997 10.536-23.534 23.534-23.534 12.998 0 23.534 10.537 23.534 23.534z" fill="#f6a96c" data-original="#f6a96c" style="" class=""/><path d="m313.85 194.919v54.413c0 12.997-10.536 23.534-23.534 23.534-12.997 0-23.534-10.536-23.534-23.534v-54.413c0-12.997 10.536-23.534 23.534-23.534 12.997 0 23.534 10.537 23.534 23.534z" fill="#f6a96c" data-original="#f6a96c" style="" class=""/><path d="m355.566 217.132v48.228c0 11.52-9.339 20.858-20.858 20.858-11.52 0-20.858-9.339-20.858-20.858v-48.228c0-11.52 9.339-20.858 20.858-20.858 11.52-.001 20.858 9.338 20.858 20.858z" fill="#f6a96c" data-original="#f6a96c" style="" class=""/><path d="m267.6 183.866v54.413c0 12.997-10.536 23.534-23.534 23.534-12.997 0-23.534-10.536-23.534-23.534v-54.413c0-12.997 10.536-23.534 23.534-23.534 12.997 0 23.534 10.536 23.534 23.534z" fill="#f6a96c" data-original="#f6a96c" style="" class=""/></g><path d="m220.532 194.924v54.406c0 12.997-10.535 23.532-23.532 23.532-3.635 0-7.085-.824-10.164-2.297 7.899-3.8 13.357-11.884 13.357-21.235v-54.406c0-6.498-2.636-12.389-6.89-16.652-1.874-1.864-4.058-3.429-6.467-4.593 3.079-1.473 6.529-2.297 10.164-2.297 6.498 0 12.379 2.636 16.642 6.89 4.254 4.263 6.89 10.154 6.89 16.652z" fill="#ea9b58" data-original="#ea9b58" style="" class=""/><path d="m313.849 194.924v54.406c0 12.997-10.535 23.532-23.532 23.532-3.635 0-7.085-.824-10.164-2.297 7.899-3.8 13.357-11.884 13.357-21.235v-54.406c0-6.498-2.636-12.389-6.89-16.652-1.874-1.864-4.058-3.429-6.467-4.593 3.079-1.473 6.529-2.297 10.164-2.297 6.498 0 12.379 2.636 16.642 6.89 4.254 4.263 6.89 10.154 6.89 16.652z" fill="#ea9b58" data-original="#ea9b58" style="" class=""/><path d="m355.563 217.127v48.238c0 11.513-9.341 20.854-20.854 20.854-3.697 0-7.168-.958-10.175-2.647 6.375-3.563 10.69-10.381 10.69-18.207v-48.238c0-5.757-2.327-10.968-6.107-14.747-1.359-1.359-2.894-2.523-4.583-3.46 3.007-1.689 6.478-2.647 10.175-2.647 5.757 0 10.968 2.338 14.747 6.107 3.77 3.779 6.107 8.99 6.107 14.747z" fill="#ea9b58" data-original="#ea9b58" style="" class=""/><path d="m267.603 183.863v54.416c0 12.997-10.535 23.532-23.532 23.532h-.01c-3.635 0-7.085-.824-10.164-2.297 7.909-3.8 13.367-11.874 13.367-21.235v-54.416c0-6.498-2.636-12.379-6.89-16.642-1.874-1.874-4.068-3.429-6.478-4.593 3.079-1.473 6.529-2.297 10.164-2.297h.01c12.998.001 23.533 10.536 23.533 23.532z" fill="#ea9b58" data-original="#ea9b58" style="" class=""/><path d="m230.34 336.828c2.476-20.68-10.306-38.205-17.021-43.514-1.31-1.036-6.242-4.733-7.49-6.353-1.443-1.873-.143-4.589 2.221-4.642 1.34-.03 2.67-.121 3.974-.017 9.151.729 36.647 5.967 53.996-6.673 9.158-6.672 11.581-14.871 10.666-23.762-.346-3.365-2.753-6.15-6.135-6.15h-86.527c-6.421 0-12.59 2.292-17.43 6.4-9.511 8.082-17.053 23.985-19.666 35.887-1.679 7.651-2.668 15.606-2.638 23.448.112 29.912 15.485 51.626 35.356 72.563l4.266 4.578h46.686z" fill="#fed2a4" data-original="#fed2a4" style="" class=""/><path d="m276.854 254.322c.138 4.232-.744 8.681-2.75 12.42-.922 1.719-2.224 3.499-3.553 4.912-1.287 1.37-2.781 2.698-4.531 3.975-17.353 12.636-44.849 7.404-53.994 6.673-1.527-.12-4.471-.405-5.763.68-1.085.911-1.302 2.859-.436 3.976.94 1.211 2.26 2.175 3.41 3.144.709.598 1.449 1.156 2.176 1.731 6.442 5.096 11.246 11.577 14.633 19.109 1.736 3.862 3.045 7.921 3.815 12.087.416 2.249.674 4.527.759 6.813.023.605.043 6.98-.284 6.98-.004 0-5.077 0-5.077 0-9.464 0-17.518-6.735-19.371-16.004-2.276-11.4-6.478-20.473-12.492-25.694-1.37-1.195-2.101-2.956-2.101-4.778v-10.742c0-4.006 3.043-7.346 7.028-7.747.023-.002.045-.005.067-.007 8.403-.845 16.786-1.854 25.138-3.131 4.655-.711 9.31-1.504 13.923-2.482 11.678-2.471 27.579-8.712 32.8-20.525h.299c2.111 0 3.841 1.081 4.923 2.719.021.031.041.052.052.083 1.09 1.884 1.276 3.633 1.329 5.808z" fill="#ffbd86" data-original="#ffbd86" style="" class=""/></g></g></svg>
