<svg width="1100" height="220" viewBox="0 0 1100 220" fill="none" xmlns="http://www.w3.org/2000/svg">
<path d="M332.592 124.896L322.872 96.168C322.152 94.344 321.384 92.208 320.568 89.76C319.752 87.264 318.936 84.576 318.12 81.696C317.4 84.624 316.632 87.336 315.816 89.832C315 92.328 314.232 94.488 313.512 96.312L303.864 124.896H332.592ZM371.256 165H352.392C350.28 165 348.576 164.52 347.28 163.56C345.984 162.552 345 161.28 344.328 159.744L338.136 141.456H298.248L292.056 159.744C291.528 161.088 290.568 162.312 289.176 163.416C287.832 164.472 286.152 165 284.136 165H265.128L305.736 60.096H330.648L371.256 165ZM397.815 101.856C400.119 97.824 402.759 94.656 405.735 92.352C408.759 90.048 412.215 88.896 416.103 88.896C419.463 88.896 422.199 89.688 424.311 91.272L422.871 107.688C422.631 108.744 422.223 109.464 421.647 109.848C421.119 110.232 420.375 110.424 419.415 110.424C419.031 110.424 418.527 110.4 417.903 110.352C417.279 110.304 416.631 110.256 415.959 110.208C415.287 110.112 414.591 110.04 413.871 109.992C413.199 109.896 412.575 109.848 411.999 109.848C408.735 109.848 406.119 110.712 404.151 112.44C402.231 114.168 400.599 116.568 399.255 119.64V165H376.935V90.336H390.183C391.287 90.336 392.199 90.432 392.919 90.624C393.687 90.816 394.311 91.128 394.791 91.56C395.319 91.944 395.703 92.472 395.943 93.144C396.231 93.816 396.471 94.632 396.663 95.592L397.815 101.856ZM476.343 92.856C470.103 92.856 464.535 97.08 459.639 105.528C454.743 113.88 452.295 122.232 452.295 130.584C452.295 148.056 456.807 156.792 465.831 156.792C472.263 156.792 477.495 152.616 481.527 144.264C485.559 135.816 487.575 126.36 487.575 115.896C487.575 100.536 483.831 92.856 476.343 92.856ZM464.103 79.896C465.159 79.896 466.119 80.232 466.983 80.904C467.943 81.48 468.423 82.104 468.423 82.776C458.727 89.496 452.919 98.856 450.999 110.856C453.015 105.48 455.463 100.824 458.343 96.888C461.319 92.952 464.391 89.976 467.559 87.96C473.607 84.216 479.511 82.344 485.271 82.344C491.031 82.344 495.927 85.176 499.959 90.84C503.991 96.504 506.007 104.088 506.007 113.592C506.007 124.248 503.847 134.04 499.527 142.968C494.727 153.048 487.911 160.008 479.079 163.848C474.087 166.056 468.615 167.16 462.663 167.16C454.311 167.16 447.015 163.944 440.775 157.512C434.631 150.984 431.559 141.672 431.559 129.576C431.559 117.384 434.535 106.68 440.487 97.464C446.439 88.152 454.311 82.296 464.103 79.896ZM541.386 98.4C542.826 97.056 544.314 95.808 545.85 94.656C547.386 93.504 549.018 92.544 550.746 91.776C552.522 90.96 554.418 90.336 556.434 89.904C558.498 89.424 560.73 89.184 563.13 89.184C567.21 89.184 570.81 89.904 573.93 91.344C577.098 92.736 579.762 94.704 581.922 97.248C584.082 99.744 585.714 102.744 586.818 106.248C587.922 109.704 588.474 113.472 588.474 117.552V165H566.154V117.552C566.154 113.904 565.314 111.072 563.634 109.056C561.954 106.992 559.482 105.96 556.218 105.96C553.77 105.96 551.466 106.488 549.306 107.544C547.194 108.552 545.13 109.944 543.114 111.72V165H520.794V90.336H534.618C537.402 90.336 539.226 91.584 540.09 94.08L541.386 98.4Z" fill="#FF5D8F"/>
<path d="M748.431 60.096L716.031 165H693.999L674.271 99.984C673.887 98.976 673.527 97.872 673.191 96.672C672.855 95.424 672.519 94.128 672.183 92.784C671.847 94.128 671.511 95.424 671.175 96.672C670.839 97.872 670.479 98.976 670.095 99.984L650.079 165H628.047L595.647 60.096H616.095C618.207 60.096 619.959 60.576 621.351 61.536C622.791 62.496 623.727 63.768 624.159 65.352L638.559 120.072C638.991 121.8 639.423 123.696 639.855 125.76C640.287 127.776 640.719 129.888 641.151 132.096C642.015 127.584 643.071 123.576 644.319 120.072L661.311 65.352C661.743 64.008 662.655 62.808 664.047 61.752C665.487 60.648 667.215 60.096 669.231 60.096H676.431C678.543 60.096 680.247 60.6 681.543 61.608C682.839 62.568 683.823 63.816 684.495 65.352L701.343 120.072C702.591 123.432 703.647 127.248 704.511 131.52C704.895 129.36 705.279 127.344 705.663 125.472C706.095 123.552 706.527 121.752 706.959 120.072L721.359 65.352C721.743 63.96 722.655 62.736 724.095 61.68C725.535 60.624 727.263 60.096 729.279 60.096H748.431ZM800.765 92.856C794.525 92.856 788.957 97.08 784.061 105.528C779.165 113.88 776.717 122.232 776.717 130.584C776.717 148.056 781.229 156.792 790.253 156.792C796.685 156.792 801.917 152.616 805.949 144.264C809.981 135.816 811.997 126.36 811.997 115.896C811.997 100.536 808.253 92.856 800.765 92.856ZM788.525 79.896C789.581 79.896 790.541 80.232 791.405 80.904C792.365 81.48 792.845 82.104 792.845 82.776C783.149 89.496 777.341 98.856 775.421 110.856C777.437 105.48 779.885 100.824 782.765 96.888C785.741 92.952 788.813 89.976 791.981 87.96C798.029 84.216 803.933 82.344 809.693 82.344C815.453 82.344 820.349 85.176 824.381 90.84C828.413 96.504 830.429 104.088 830.429 113.592C830.429 124.248 828.269 134.04 823.949 142.968C819.149 153.048 812.333 160.008 803.501 163.848C798.509 166.056 793.037 167.16 787.085 167.16C778.733 167.16 771.437 163.944 765.197 157.512C759.053 150.984 755.981 141.672 755.981 129.576C755.981 117.384 758.957 106.68 764.909 97.464C770.861 88.152 778.733 82.296 788.525 79.896ZM866.096 101.856C868.4 97.824 871.04 94.656 874.016 92.352C877.04 90.048 880.496 88.896 884.384 88.896C887.744 88.896 890.48 89.688 892.592 91.272L891.152 107.688C890.912 108.744 890.504 109.464 889.928 109.848C889.4 110.232 888.656 110.424 887.696 110.424C887.312 110.424 886.808 110.4 886.184 110.352C885.56 110.304 884.912 110.256 884.24 110.208C883.568 110.112 882.872 110.04 882.152 109.992C881.48 109.896 880.856 109.848 880.28 109.848C877.016 109.848 874.4 110.712 872.432 112.44C870.512 114.168 868.88 116.568 867.536 119.64V165H845.216V90.336H858.464C859.568 90.336 860.48 90.432 861.2 90.624C861.968 90.816 862.592 91.128 863.072 91.56C863.6 91.944 863.984 92.472 864.224 93.144C864.512 93.816 864.752 94.632 864.944 95.592L866.096 101.856ZM922.521 57.216V117.624H925.833C927.225 117.624 928.281 117.432 929.001 117.048C929.721 116.616 930.441 115.92 931.161 114.96L945.273 93.936C946.137 92.736 947.121 91.848 948.225 91.272C949.329 90.648 950.745 90.336 952.473 90.336H972.921L953.625 116.904C951.801 119.304 949.641 121.272 947.145 122.808C948.249 123.624 949.257 124.584 950.169 125.688C951.081 126.744 951.945 127.944 952.761 129.288L973.785 165H953.625C951.945 165 950.505 164.736 949.305 164.208C948.105 163.632 947.097 162.648 946.281 161.256L932.169 134.832C931.497 133.632 930.801 132.864 930.081 132.528C929.361 132.144 928.281 131.952 926.841 131.952H922.521V165H900.201V57.216H922.521ZM1028.09 106.68C1027.51 107.592 1026.89 108.24 1026.21 108.624C1025.59 109.008 1024.77 109.2 1023.77 109.2C1022.71 109.2 1021.65 108.984 1020.6 108.552C1019.54 108.072 1018.39 107.568 1017.14 107.04C1015.94 106.512 1014.57 106.032 1013.04 105.6C1011.5 105.12 1009.75 104.88 1007.78 104.88C1004.95 104.88 1002.77 105.432 1001.23 106.536C999.742 107.592 998.998 109.08 998.998 111C998.998 112.392 999.478 113.544 1000.44 114.456C1001.45 115.368 1002.77 116.184 1004.4 116.904C1006.03 117.576 1007.88 118.224 1009.94 118.848C1012.01 119.472 1014.12 120.168 1016.28 120.936C1018.44 121.704 1020.55 122.616 1022.61 123.672C1024.68 124.68 1026.53 125.952 1028.16 127.488C1029.79 128.976 1031.09 130.8 1032.05 132.96C1033.05 135.12 1033.56 137.712 1033.56 140.736C1033.56 144.432 1032.89 147.84 1031.54 150.96C1030.2 154.08 1028.18 156.768 1025.49 159.024C1022.85 161.28 1019.57 163.032 1015.63 164.28C1011.74 165.528 1007.25 166.152 1002.17 166.152C999.622 166.152 997.078 165.912 994.534 165.432C991.99 164.952 989.518 164.304 987.118 163.488C984.766 162.672 982.582 161.712 980.566 160.608C978.55 159.456 976.822 158.232 975.382 156.936L980.566 148.728C981.142 147.768 981.862 147.024 982.726 146.496C983.638 145.92 984.79 145.632 986.182 145.632C987.478 145.632 988.63 145.92 989.638 146.496C990.694 147.072 991.822 147.696 993.022 148.368C994.222 149.04 995.614 149.664 997.198 150.24C998.83 150.816 1000.87 151.104 1003.32 151.104C1005.05 151.104 1006.51 150.936 1007.71 150.6C1008.91 150.216 1009.87 149.712 1010.59 149.088C1011.31 148.464 1011.84 147.768 1012.17 147C1012.51 146.232 1012.68 145.44 1012.68 144.624C1012.68 143.136 1012.17 141.912 1011.17 140.952C1010.16 139.992 1008.84 139.176 1007.21 138.504C1005.57 137.784 1003.7 137.136 1001.59 136.56C999.526 135.936 997.414 135.24 995.254 134.472C993.094 133.704 990.958 132.792 988.846 131.736C986.782 130.632 984.934 129.264 983.302 127.632C981.67 125.952 980.35 123.912 979.342 121.512C978.334 119.112 977.83 116.208 977.83 112.8C977.83 109.632 978.43 106.632 979.63 103.8C980.878 100.92 982.726 98.4 985.174 96.24C987.622 94.08 990.694 92.376 994.39 91.128C998.086 89.832 1002.41 89.184 1007.35 89.184C1010.04 89.184 1012.63 89.424 1015.13 89.904C1017.67 90.384 1020.05 91.056 1022.25 91.92C1024.46 92.784 1026.48 93.816 1028.3 95.016C1030.13 96.168 1031.73 97.44 1033.13 98.832L1028.09 106.68Z" fill="#465C8B"/>
<path d="M1041.74 153.696C1041.74 151.968 1042.05 150.36 1042.68 148.872C1043.35 147.384 1044.24 146.088 1045.34 144.984C1046.49 143.88 1047.84 143.016 1049.37 142.392C1050.91 141.72 1052.59 141.384 1054.41 141.384C1056.19 141.384 1057.84 141.72 1059.38 142.392C1060.92 143.016 1062.26 143.88 1063.41 144.984C1064.56 146.088 1065.45 147.384 1066.08 148.872C1066.75 150.36 1067.08 151.968 1067.08 153.696C1067.08 155.424 1066.75 157.056 1066.08 158.592C1065.45 160.08 1064.56 161.376 1063.41 162.48C1062.26 163.584 1060.92 164.448 1059.38 165.072C1057.84 165.696 1056.19 166.008 1054.41 166.008C1052.59 166.008 1050.91 165.696 1049.37 165.072C1047.84 164.448 1046.49 163.584 1045.34 162.48C1044.24 161.376 1043.35 160.08 1042.68 158.592C1042.05 157.056 1041.74 155.424 1041.74 153.696Z" fill="#808080"/>
<path d="M47.9712 89.9968C58.5678 116.317 67.4552 137.852 67.9679 137.852C69.3352 137.852 78.2227 113.412 78.2227 109.993C78.2227 108.455 72.4117 92.5604 65.2334 74.6147L52.244 42.1414H40.622H29L47.9712 89.9968Z" fill="#465C8B"/>
<path d="M121.805 44.1924C121.463 45.3888 111.038 72.5638 98.903 104.353L76.8553 162.293L80.4445 170.667C84.5464 180.751 89.161 181.777 92.5793 173.231C93.9466 170.326 97.5357 161.609 100.612 154.26C109.329 133.238 122.831 120.932 137.529 120.761C150.348 120.761 142.657 112.728 127.958 111.019C123.173 110.506 119.242 109.481 119.242 108.968C119.242 106.917 132.06 76.3239 133.085 76.3239C133.598 76.3239 138.555 87.6041 144.024 101.448C149.493 115.463 155.133 129.478 156.5 132.725L159.064 138.707L164.704 123.837L170.344 108.968L157.013 75.9821L143.853 42.996L133.256 42.4833C125.736 42.1415 122.318 42.6542 121.805 44.1924Z" fill="#FF5D8F"/>
<path d="M204.185 66.4109C199.057 79.9129 188.803 106.575 181.454 125.717L168.293 160.583L171.37 169.813C173.933 176.991 175.301 178.871 178.206 178.871C181.454 178.871 185.043 170.838 209.483 110.506L237 42.1413H225.378H213.756L204.185 66.4109Z" fill="#465C8B"/>
</svg>
