<svg width="1100" height="220" fill="none" xmlns="http://www.w3.org/2000/svg"><path d="M331.592 124.896l-9.72-28.728c-.72-1.824-1.488-3.96-2.304-6.408a212.028 212.028 0 01-2.448-8.064 113.36 113.36 0 01-2.304 8.136c-.816 2.496-1.584 4.656-2.304 6.48l-9.648 28.584h28.728zM370.256 165h-18.864c-2.112 0-3.816-.48-5.112-1.44a9.654 9.654 0 01-2.952-3.816l-6.192-18.288h-39.888l-6.192 18.288c-.528 1.344-1.488 2.568-2.88 3.672-1.344 1.056-3.024 1.584-5.04 1.584h-19.008l40.608-104.904h24.912L370.256 165zm26.559-63.144c2.304-4.032 4.944-7.2 7.92-9.504 3.024-2.304 6.48-3.456 10.368-3.456 3.36 0 6.096.792 8.208 2.376l-1.44 16.416c-.24 1.056-.648 1.776-1.224 2.16-.528.384-1.272.576-2.232.576-.384 0-.888-.024-1.512-.072-.624-.048-1.272-.096-1.944-.144a27.883 27.883 0 00-2.088-.216 13.293 13.293 0 00-1.872-.144c-3.264 0-5.88.864-7.848 2.592-1.92 1.728-3.552 4.128-4.896 7.2V165h-22.32V90.336h13.248c1.104 0 2.016.096 2.736.288.768.192 1.392.504 1.872.936.528.384.912.912 1.152 1.584.288.672.528 1.488.72 2.448l1.152 6.264zm78.528-9c-6.24 0-11.808 4.224-16.704 12.672-4.896 8.352-7.344 16.704-7.344 25.056 0 17.472 4.512 26.208 13.536 26.208 6.432 0 11.664-4.176 15.696-12.528 4.032-8.448 6.048-17.904 6.048-28.368 0-15.36-3.744-23.04-11.232-23.04zm-12.24-12.96c1.056 0 2.016.336 2.88 1.008.96.576 1.44 1.2 1.44 1.872-9.696 6.72-15.504 16.08-17.424 28.08 2.016-5.376 4.464-10.032 7.344-13.968 2.976-3.936 6.048-6.912 9.216-8.928 6.048-3.744 11.952-5.616 17.712-5.616s10.656 2.832 14.688 8.496c4.032 5.664 6.048 13.248 6.048 22.752 0 10.656-2.16 20.448-6.48 29.376-4.8 10.08-11.616 17.04-20.448 20.88-4.992 2.208-10.464 3.312-16.416 3.312-8.352 0-15.648-3.216-21.888-9.648-6.144-6.528-9.216-15.84-9.216-27.936 0-12.192 2.976-22.896 8.928-32.112 5.952-9.312 13.824-15.168 23.616-17.568zM540.386 98.4a54.227 54.227 0 014.464-3.744 25.19 25.19 0 014.896-2.88 27.256 27.256 0 015.688-1.872c2.064-.48 4.296-.72 6.696-.72 4.08 0 7.68.72 10.8 2.16 3.168 1.392 5.832 3.36 7.992 5.904 2.16 2.496 3.792 5.496 4.896 9 1.104 3.456 1.656 7.224 1.656 11.304V165h-22.32v-47.448c0-3.648-.84-6.48-2.52-8.496-1.68-2.064-4.152-3.096-7.416-3.096-2.448 0-4.752.528-6.912 1.584-2.112 1.008-4.176 2.4-6.192 4.176V165h-22.32V90.336h13.824c2.784 0 4.608 1.248 5.472 3.744l1.296 4.32z" fill="#F25C54"/><path d="M747.431 60.096L715.031 165h-22.032l-19.728-65.016a38.438 38.438 0 01-1.08-3.312 223.142 223.142 0 01-1.008-3.888c-.336 1.344-.672 2.64-1.008 3.888a38.438 38.438 0 01-1.08 3.312L649.079 165h-22.032l-32.4-104.904h20.448c2.112 0 3.864.48 5.256 1.44 1.44.96 2.376 2.232 2.808 3.816l14.4 54.72c.432 1.728.864 3.624 1.296 5.688.432 2.016.864 4.128 1.296 6.336.864-4.512 1.92-8.52 3.168-12.024l16.992-54.72c.432-1.344 1.344-2.544 2.736-3.6 1.44-1.104 3.168-1.656 5.184-1.656h7.2c2.112 0 3.816.504 5.112 1.512 1.296.96 2.28 2.208 2.952 3.744l16.848 54.72c1.248 3.36 2.304 7.176 3.168 11.448a234.2 234.2 0 011.152-6.048c.432-1.92.864-3.72 1.296-5.4l14.4-54.72c.384-1.392 1.296-2.616 2.736-3.672 1.44-1.056 3.168-1.584 5.184-1.584h19.152zm52.334 32.76c-6.24 0-11.808 4.224-16.704 12.672-4.896 8.352-7.344 16.704-7.344 25.056 0 17.472 4.512 26.208 13.536 26.208 6.432 0 11.664-4.176 15.696-12.528 4.032-8.448 6.048-17.904 6.048-28.368 0-15.36-3.744-23.04-11.232-23.04zm-12.24-12.96c1.056 0 2.016.336 2.88 1.008.96.576 1.44 1.2 1.44 1.872-9.696 6.72-15.504 16.08-17.424 28.08 2.016-5.376 4.464-10.032 7.344-13.968 2.976-3.936 6.048-6.912 9.216-8.928 6.048-3.744 11.952-5.616 17.712-5.616s10.656 2.832 14.688 8.496c4.032 5.664 6.048 13.248 6.048 22.752 0 10.656-2.16 20.448-6.48 29.376-4.8 10.08-11.616 17.04-20.448 20.88-4.992 2.208-10.464 3.312-16.416 3.312-8.352 0-15.648-3.216-21.888-9.648-6.144-6.528-9.216-15.84-9.216-27.936 0-12.192 2.976-22.896 8.928-32.112 5.952-9.312 13.824-15.168 23.616-17.568zm77.571 21.96c2.304-4.032 4.944-7.2 7.92-9.504 3.024-2.304 6.48-3.456 10.368-3.456 3.36 0 6.096.792 8.208 2.376l-1.44 16.416c-.24 1.056-.648 1.776-1.224 2.16-.528.384-1.272.576-2.232.576-.384 0-.888-.024-1.512-.072-.624-.048-1.272-.096-1.944-.144a27.883 27.883 0 00-2.088-.216 13.293 13.293 0 00-1.872-.144c-3.264 0-5.88.864-7.848 2.592-1.92 1.728-3.552 4.128-4.896 7.2V165h-22.32V90.336h13.248c1.104 0 2.016.096 2.736.288.768.192 1.392.504 1.872.936.528.384.912.912 1.152 1.584.288.672.528 1.488.72 2.448l1.152 6.264zm56.425-44.64v60.408h3.312c1.392 0 2.448-.192 3.168-.576.72-.432 1.44-1.128 2.16-2.088l14.112-21.024c.864-1.2 1.848-2.088 2.952-2.664 1.104-.624 2.52-.936 4.248-.936h20.448l-19.296 26.568c-1.824 2.4-3.984 4.368-6.48 5.904a17.11 17.11 0 013.024 2.88 26.667 26.667 0 012.592 3.6L972.785 165h-20.16c-1.68 0-3.12-.264-4.32-.792-1.2-.576-2.208-1.56-3.024-2.952l-14.112-26.424c-.672-1.2-1.368-1.968-2.088-2.304-.72-.384-1.8-.576-3.24-.576h-4.32V165h-22.32V57.216h22.32zm105.569 49.464c-.58.912-1.2 1.56-1.88 1.944-.62.384-1.44.576-2.44.576-1.06 0-2.12-.216-3.17-.648-1.06-.48-2.21-.984-3.46-1.512-1.2-.528-2.57-1.008-4.1-1.44-1.54-.48-3.29-.72-5.26-.72-2.83 0-5.01.552-6.55 1.656-1.488 1.056-2.232 2.544-2.232 4.464 0 1.392.48 2.544 1.44 3.456 1.012.912 2.332 1.728 3.962 2.448 1.63.672 3.48 1.32 5.54 1.944 2.07.624 4.18 1.32 6.34 2.088s4.27 1.68 6.33 2.736a22.223 22.223 0 015.55 3.816c1.63 1.488 2.93 3.312 3.89 5.472 1 2.16 1.51 4.752 1.51 7.776 0 3.696-.67 7.104-2.02 10.224-1.34 3.12-3.36 5.808-6.05 8.064-2.64 2.256-5.92 4.008-9.86 5.256-3.89 1.248-8.38 1.872-13.46 1.872a41.09 41.09 0 01-7.636-.72 54.258 54.258 0 01-7.416-1.944 42.865 42.865 0 01-6.552-2.88c-2.016-1.152-3.744-2.376-5.184-3.672l5.184-8.208c.576-.96 1.296-1.704 2.16-2.232.912-.576 2.064-.864 3.456-.864 1.296 0 2.448.288 3.456.864 1.056.576 2.184 1.2 3.384 1.872 1.2.672 2.592 1.296 4.176 1.872 1.632.576 3.672.864 6.122.864 1.73 0 3.19-.168 4.39-.504 1.2-.384 2.16-.888 2.88-1.512.72-.624 1.25-1.32 1.58-2.088.34-.768.51-1.56.51-2.376 0-1.488-.51-2.712-1.51-3.672-1.01-.96-2.33-1.776-3.96-2.448-1.64-.72-3.51-1.368-5.62-1.944a138.997 138.997 0 01-6.336-2.088 57.089 57.089 0 01-6.408-2.736 23.402 23.402 0 01-5.544-4.104c-1.632-1.68-2.952-3.72-3.96-6.12s-1.512-5.304-1.512-8.712c0-3.168.6-6.168 1.8-9 1.248-2.88 3.096-5.4 5.544-7.56 2.448-2.16 5.52-3.864 9.216-5.112 3.696-1.296 8.02-1.944 12.96-1.944 2.69 0 5.28.24 7.78.72 2.54.48 4.92 1.152 7.12 2.016 2.21.864 4.23 1.896 6.05 3.096a27.836 27.836 0 014.83 3.816l-5.04 7.848z" fill="#455A64"/><path d="M1040.74 153.696c0-1.728.31-3.336.94-4.824a13.044 13.044 0 012.66-3.888 12.674 12.674 0 014.03-2.592c1.54-.672 3.22-1.008 5.04-1.008 1.78 0 3.43.336 4.97 1.008 1.54.624 2.88 1.488 4.03 2.592 1.15 1.104 2.04 2.4 2.67 3.888.67 1.488 1 3.096 1 4.824 0 1.728-.33 3.36-1 4.896a11.599 11.599 0 01-2.67 3.888 12.565 12.565 0 01-4.03 2.592c-1.54.624-3.19.936-4.97.936-1.82 0-3.5-.312-5.04-.936a12.674 12.674 0 01-4.03-2.592c-1.1-1.104-1.99-2.4-2.66-3.888-.63-1.536-.94-3.168-.94-4.896z" fill="#FCAD38"/><path d="M46.971 89.997c10.597 26.32 19.484 47.855 19.997 47.855 1.367 0 10.255-24.44 10.255-27.859 0-1.538-5.811-17.433-12.99-35.378L51.244 42.14H28l18.971 47.856z" fill="#455A64"/><path d="M120.805 44.192c-.342 1.197-10.767 28.372-22.902 60.161l-22.048 57.94 3.59 8.374c4.101 10.084 8.716 11.11 12.134 2.564 1.368-2.905 4.957-11.622 8.033-18.971 8.717-21.022 22.219-33.328 36.917-33.499 12.819 0 5.128-8.033-9.571-9.742-4.785-.513-8.716-1.538-8.716-2.051 0-2.051 12.818-32.644 13.843-32.644.513 0 5.47 11.28 10.939 25.124 5.469 14.015 11.109 28.03 12.476 31.277l2.564 5.982 5.64-14.87 5.64-14.869-13.331-32.986-13.16-32.986-10.597-.513c-7.52-.341-10.938.171-11.451 1.71z" fill="#F25C54"/><path d="M203.185 66.41c-5.128 13.503-15.382 40.165-22.731 59.307l-13.161 34.866 3.077 9.23c2.563 7.178 3.931 9.058 6.836 9.058 3.248 0 6.837-8.033 31.277-68.365L236 42.141h-23.244l-9.571 24.27z" fill="#455A64"/></svg>