<svg width="500" height="375" viewBox="0 0 500 375" fill="none" xmlns="http://www.w3.org/2000/svg">
<path d="M500 328.4H0V328.65H500V328.4Z" fill="#E0E0E0"/>
<path d="M135.57 338.99H101.17V339.24H135.57V338.99Z" fill="#E0E0E0"/>
<path d="M93.84 339.11H74.48V339.36H93.84V339.11Z" fill="#E0E0E0"/>
<path d="M214.24 338.53H175V338.78H214.24V338.53Z" fill="#E0E0E0"/>
<path d="M314.56 334.97H198.78V335.22H314.56V334.97Z" fill="#E0E0E0"/>
<path d="M413.67 335.1H360.68V335.35H413.67V335.1Z" fill="#E0E0E0"/>
<path d="M237 283.8H43.91C42.3973 283.797 40.9475 283.195 39.8788 282.124C38.8102 281.054 38.21 279.603 38.21 278.09V6.66C38.2231 5.15603 38.8292 3.71798 39.8964 2.65822C40.9637 1.59846 42.4059 1.00258 43.91 1H237C238.514 1 239.967 1.60159 241.038 2.67242C242.108 3.74325 242.71 5.19561 242.71 6.71V278.09C242.71 279.604 242.108 281.057 241.038 282.128C239.967 283.198 238.514 283.8 237 283.8V283.8ZM43.91 1.2C42.4636 1.20265 41.0774 1.77907 40.0556 2.80273C39.0338 3.82639 38.46 5.21365 38.46 6.66V278.09C38.46 279.536 39.0338 280.924 40.0556 281.947C41.0774 282.971 42.4636 283.547 43.91 283.55H237C238.447 283.547 239.834 282.971 240.858 281.948C241.881 280.925 242.457 279.537 242.46 278.09V6.66C242.457 5.21273 241.881 3.82549 240.858 2.80212C239.834 1.77874 238.447 1.20264 237 1.2H43.91Z" fill="#E0E0E0"/>
<path d="M453.31 283.8H260.21C258.696 283.797 257.246 283.195 256.175 282.125C255.105 281.054 254.503 279.604 254.5 278.09V6.66C254.516 5.15511 255.124 3.71708 256.193 2.65759C257.262 1.59811 258.705 1.00255 260.21 1H453.31C454.812 1.0052 456.252 1.60225 457.317 2.66173C458.382 3.72121 458.987 5.15775 459 6.66V278.09C459 279.601 458.401 281.05 457.335 282.121C456.268 283.191 454.821 283.795 453.31 283.8V283.8ZM260.21 1.2C258.763 1.20264 257.375 1.77874 256.352 2.80212C255.329 3.82549 254.753 5.21273 254.75 6.66V278.09C254.753 279.537 255.329 280.925 256.352 281.948C257.375 282.971 258.763 283.547 260.21 283.55H453.31C454.757 283.547 456.145 282.971 457.168 281.948C458.191 280.925 458.767 279.537 458.77 278.09V6.66C458.767 5.21273 458.191 3.82549 457.168 2.80212C456.145 1.77874 454.757 1.20264 453.31 1.2H260.21Z" fill="#E0E0E0"/>
<path d="M213.74 230.61C213.19 230.61 212.64 230.61 212.08 230.66C208.596 230.906 205.209 231.92 202.162 233.629C199.116 235.338 196.485 237.7 194.459 240.545C192.433 243.391 191.061 246.649 190.442 250.087C189.823 253.525 189.973 257.057 190.88 260.43C193.463 270.503 194.711 280.872 194.59 291.27V321.55C194.59 322.611 195.011 323.628 195.762 324.379C196.512 325.129 197.529 325.55 198.59 325.55H294.71V230.61H213.74Z" fill="#E6E6E6"/>
<path d="M318.35 254.28C318.314 248.157 315.908 242.286 311.637 237.9C307.365 233.513 301.561 230.951 295.441 230.752C289.321 230.552 283.362 232.731 278.815 236.831C274.267 240.931 271.484 246.633 271.05 252.74C270.884 255.331 271.141 257.932 271.81 260.44C274.402 270.512 275.652 280.881 275.53 291.28V321.56C275.53 322.621 275.951 323.638 276.702 324.389C277.452 325.139 278.469 325.56 279.53 325.56H309.88C310.941 325.56 311.958 325.139 312.708 324.389C313.459 323.638 313.88 322.621 313.88 321.56V289.5C313.793 279.749 315.024 270.031 317.54 260.61C318.095 258.546 318.367 256.417 318.35 254.28V254.28Z" fill="#F0F0F0"/>
<path d="M262.06 267.9H175.79V325.53H262.06V267.9Z" fill="#E6E6E6"/>
<path d="M122.4 174.61H202C204.36 174.6 206.699 175.055 208.882 175.951C211.066 176.847 213.051 178.165 214.723 179.83C216.396 181.495 217.723 183.474 218.628 185.654C219.534 187.833 220 190.17 220 192.53V280.93H104.49V192.53C104.49 187.779 106.377 183.223 109.735 179.862C113.094 176.502 117.649 174.613 122.4 174.61V174.61Z" fill="#E0E0E0"/>
<path d="M144.1 174.61H225.46C227.699 174.61 229.916 175.051 231.985 175.908C234.053 176.765 235.933 178.021 237.516 179.604C239.099 181.187 240.355 183.067 241.212 185.135C242.069 187.204 242.51 189.421 242.51 191.66V280.92H127V191.67C126.999 189.426 127.44 187.204 128.3 185.131C129.159 183.058 130.419 181.175 132.008 179.59C133.597 178.005 135.483 176.749 137.558 175.894C139.633 175.04 141.856 174.603 144.1 174.61V174.61Z" fill="#F0F0F0"/>
<path d="M181.43 262.64H260.95C262.329 262.64 263.652 263.188 264.627 264.163C265.602 265.138 266.15 266.461 266.15 267.84V280.91C266.15 282.289 265.602 283.612 264.627 284.587C263.652 285.562 262.329 286.11 260.95 286.11H181.43C181.019 286.11 180.625 285.947 180.334 285.656C180.043 285.365 179.88 284.971 179.88 284.56V264.19C179.88 263.779 180.043 263.385 180.334 263.094C180.625 262.803 181.019 262.64 181.43 262.64V262.64Z" fill="#E0E0E0"/>
<path d="M96 230.61C95.45 230.61 94.9 230.61 94.34 230.66C90.8556 230.906 87.4687 231.92 84.4223 233.629C81.3758 235.338 78.7451 237.7 76.7189 240.545C74.6926 243.391 73.321 246.649 72.7022 250.087C72.0835 253.525 72.233 257.057 73.14 260.43C75.7233 270.503 76.9707 280.872 76.85 291.27V321.55C76.85 322.611 77.2714 323.628 78.0216 324.379C78.7717 325.129 79.7891 325.55 80.85 325.55H176.96V230.61H96Z" fill="#E6E6E6"/>
<path d="M200.59 254.28C200.554 248.157 198.148 242.286 193.876 237.9C189.605 233.513 183.801 230.951 177.681 230.752C171.561 230.552 165.602 232.731 161.055 236.831C156.507 240.931 153.724 246.633 153.29 252.74C153.124 255.331 153.38 257.932 154.05 260.44C156.641 270.512 157.892 280.881 157.77 291.28V321.56C157.77 322.621 158.191 323.638 158.941 324.389C159.692 325.139 160.709 325.56 161.77 325.56H192.12C193.181 325.56 194.198 325.139 194.948 324.389C195.698 323.638 196.12 322.621 196.12 321.56V289.5C196.032 279.749 197.264 270.031 199.78 260.61C200.335 258.546 200.607 256.417 200.59 254.28V254.28Z" fill="#F0F0F0"/>
<path d="M293 328.41H97.6699C96.9061 328.41 96.1736 328.107 95.6334 327.566C95.0933 327.026 94.7899 326.294 94.7899 325.53H295.87C295.87 326.292 295.568 327.023 295.03 327.563C294.492 328.103 293.762 328.407 293 328.41V328.41Z" fill="#E0E0E0"/>
<path d="M143.34 47.46H85.87V107.02H143.34V47.46Z" fill="#E0E0E0"/>
<path d="M146.62 47.46H90.59V107.02H146.62V47.46Z" fill="#F0F0F0"/>
<path d="M141.92 102.32V52.1499H95.28V102.32H141.92Z" fill="#FAFAFA"/>
<path d="M118.6 64.5601L105.85 86.6501H131.36L118.6 64.5601Z" fill="#F0F0F0"/>
<path d="M219.95 72.54H162.48V132.1H219.95V72.54Z" fill="#E0E0E0"/>
<path d="M223.22 72.54H167.19V132.1H223.22V72.54Z" fill="#F0F0F0"/>
<path d="M218.52 127.41V77.24H171.88V127.41H218.52Z" fill="#FAFAFA"/>
<path d="M200.92 111.27L206.45 101.69C207.027 100.687 207.33 99.5509 207.328 98.3943C207.327 97.2377 207.023 96.1017 206.444 95.1C205.866 94.0984 205.035 93.2663 204.033 92.6871C203.032 92.108 201.897 91.8021 200.74 91.8H189.67C188.513 91.8008 187.377 92.1061 186.375 92.6852C185.374 93.2644 184.542 94.097 183.965 95.0994C183.387 96.1017 183.083 97.2385 183.084 98.3954C183.085 99.5524 183.391 100.689 183.97 101.69L189.5 111.27C190.078 112.273 190.91 113.106 191.913 113.686C192.915 114.265 194.052 114.57 195.21 114.57C196.368 114.57 197.505 114.265 198.508 113.686C199.51 113.106 200.342 112.273 200.92 111.27Z" fill="#F0F0F0"/>
<path d="M353.07 186.45H337.36V323.66H353.07V186.45Z" fill="#E6E6E6"/>
<path d="M428.51 323.66H341.5V328.39H428.51V323.66Z" fill="#E6E6E6"/>
<path d="M353.06 323.67H432.65V186.46H353.06V323.67Z" fill="#F0F0F0"/>
<path d="M361.55 282.4H424.17V257.9H361.55V282.4Z" fill="#E6E6E6"/>
<path d="M361.55 314.47H424.17V289.97H361.55V314.47Z" fill="#E6E6E6"/>
<path d="M401.92 268.47H383.79C382.912 268.47 382.2 269.182 382.2 270.06V270.24C382.2 271.118 382.912 271.83 383.79 271.83H401.92C402.798 271.83 403.51 271.118 403.51 270.24V270.06C403.51 269.182 402.798 268.47 401.92 268.47Z" fill="#F0F0F0"/>
<path d="M401.92 300.54H383.79C382.912 300.54 382.2 301.252 382.2 302.13V302.31C382.2 303.188 382.912 303.9 383.79 303.9H401.92C402.798 303.9 403.51 303.188 403.51 302.31V302.13C403.51 301.252 402.798 300.54 401.92 300.54Z" fill="#F0F0F0"/>
<path d="M361.55 218.52H424.17V194.02H361.55V218.52Z" fill="#E6E6E6"/>
<path d="M361.55 250.34H424.17V225.84H361.55V250.34Z" fill="#E6E6E6"/>
<path d="M401.92 204.59H383.79C382.912 204.59 382.2 205.302 382.2 206.18V206.36C382.2 207.238 382.912 207.95 383.79 207.95H401.92C402.798 207.95 403.51 207.238 403.51 206.36V206.18C403.51 205.302 402.798 204.59 401.92 204.59Z" fill="#F0F0F0"/>
<path d="M401.92 236.4H383.79C382.912 236.4 382.2 237.112 382.2 237.99V238.17C382.2 239.048 382.912 239.76 383.79 239.76H401.92C402.798 239.76 403.51 239.048 403.51 238.17V237.99C403.51 237.112 402.798 236.4 401.92 236.4Z" fill="#F0F0F0"/>
<path d="M412.17 146.81H397.42C397.42 146.81 399.98 155.65 399.98 160.81C399.98 165.97 388.76 186.41 404.8 186.41C420.84 186.41 409.61 166.02 409.61 160.81C409.61 155.6 412.17 146.81 412.17 146.81Z" fill="#F0F0F0"/>
<path d="M373.78 158.69C373.77 160.072 373.351 161.421 372.576 162.565C371.801 163.71 370.704 164.599 369.424 165.121C368.144 165.643 366.739 165.775 365.384 165.499C364.029 165.224 362.787 164.553 361.813 163.572C360.839 162.591 360.177 161.344 359.911 159.987C359.645 158.631 359.786 157.226 360.318 155.95C360.849 154.674 361.746 153.583 362.896 152.816C364.046 152.049 365.398 151.64 366.78 151.64C368.641 151.653 370.421 152.402 371.733 153.722C373.044 155.043 373.78 156.829 373.78 158.69V158.69Z" fill="#F0F0F0"/>
<path d="M385.85 162.05C385.85 163.444 385.437 164.807 384.662 165.967C383.887 167.126 382.786 168.03 381.498 168.563C380.21 169.097 378.792 169.237 377.425 168.965C376.057 168.693 374.801 168.021 373.815 167.035C372.829 166.049 372.157 164.793 371.885 163.425C371.613 162.058 371.753 160.64 372.287 159.352C372.82 158.064 373.724 156.963 374.883 156.188C376.043 155.413 377.406 155 378.8 155C380.67 155 382.463 155.743 383.785 157.065C385.107 158.387 385.85 160.18 385.85 162.05V162.05Z" fill="#F0F0F0"/>
<path d="M396.16 159.33C396.16 160.724 395.747 162.087 394.972 163.247C394.197 164.406 393.096 165.31 391.808 165.843C390.52 166.377 389.102 166.517 387.735 166.245C386.367 165.973 385.111 165.301 384.125 164.315C383.139 163.329 382.468 162.073 382.196 160.705C381.924 159.338 382.063 157.92 382.597 156.632C383.13 155.344 384.034 154.243 385.193 153.468C386.353 152.694 387.716 152.28 389.11 152.28C390.98 152.28 392.773 153.023 394.095 154.345C395.417 155.667 396.16 157.46 396.16 159.33Z" fill="#F0F0F0"/>
<path d="M354.11 162.18V170.18C354.11 179.1 362.74 186.4 373.28 186.4H382.8C393.35 186.4 401.98 179.1 401.98 170.18V162.18H354.11Z" fill="#E6E6E6"/>
<path d="M323.36 121C318.048 121 312.953 118.89 309.197 115.133C305.44 111.377 303.33 106.282 303.33 100.97C303.33 95.6577 305.44 90.5629 309.197 86.8066C312.953 83.0502 318.048 80.9399 323.36 80.9399H325.82V121H323.36Z" fill="#E0E0E0"/>
<path d="M345.332 105.554C347.853 94.7828 341.164 84.0077 330.393 81.4872C319.621 78.9668 308.846 85.6554 306.326 96.4268C303.805 107.198 310.494 117.973 321.265 120.494C332.037 123.014 342.812 116.325 345.332 105.554Z" fill="#F0F0F0"/>
<path d="M326.72 103.48C326.057 103.48 325.421 103.216 324.952 102.748C324.483 102.279 324.22 101.643 324.22 100.98C324.22 100.317 324.483 99.6809 324.952 99.2121C325.421 98.7433 326.057 98.4799 326.72 98.4799C332.453 98.4746 337.95 96.1954 342.005 92.1423C346.06 88.0892 348.342 82.5931 348.35 76.8599V43.6099C348.35 42.9468 348.613 42.3109 349.082 41.8421C349.551 41.3733 350.187 41.1099 350.85 41.1099C351.513 41.1099 352.149 41.3733 352.618 41.8421C353.087 42.3109 353.35 42.9468 353.35 43.6099V76.8599C353.339 83.9184 350.53 90.6847 345.538 95.6749C340.546 100.665 333.779 103.472 326.72 103.48V103.48Z" fill="#E0E0E0"/>
<path d="M374.49 76.79H327.21L332.49 33.47H369.21L374.49 76.79Z" fill="#F0F0F0"/>
<path d="M250 373.56C357.082 373.56 443.89 368.492 443.89 362.24C443.89 355.988 357.082 350.92 250 350.92C142.917 350.92 56.11 355.988 56.11 362.24C56.11 368.492 142.917 373.56 250 373.56Z" fill="#F5F5F5"/>
<path d="M401.29 272.69L399.58 259.4C399.323 257.422 398.355 255.605 396.858 254.288C395.36 252.971 393.435 252.243 391.44 252.24H347.14C345.146 252.242 343.219 251.517 341.721 250.201C340.223 248.885 339.255 247.068 339 245.09L329.81 173.81C329.659 172.654 329.757 171.479 330.096 170.364C330.436 169.249 331.01 168.219 331.78 167.343C332.549 166.468 333.497 165.766 334.559 165.286C335.622 164.806 336.774 164.559 337.94 164.56H378C379.166 164.56 380.319 164.311 381.382 163.83C382.444 163.349 383.391 162.647 384.161 161.77C384.93 160.894 385.504 159.863 385.844 158.748C386.183 157.632 386.281 156.456 386.13 155.3L384.43 142C384.175 140.022 383.207 138.205 381.709 136.889C380.211 135.573 378.284 134.848 376.29 134.85H332C330.006 134.849 328.081 134.122 326.584 132.804C325.088 131.486 324.123 129.668 323.87 127.69L315.35 61.69C315.095 59.7113 314.128 57.8932 312.63 56.5754C311.132 55.2577 309.205 54.5306 307.21 54.53H294.05C292.883 54.5304 291.73 54.7794 290.667 55.2604C289.605 55.7414 288.657 56.4434 287.886 57.3196C287.116 58.1958 286.542 59.226 286.201 60.3417C285.86 61.4575 285.761 62.633 285.91 63.79L293.91 125.57C294.059 126.727 293.96 127.903 293.619 129.018C293.279 130.134 292.704 131.164 291.934 132.04C291.164 132.917 290.215 133.619 289.153 134.1C288.09 134.581 286.937 134.83 285.77 134.83H178.5C176.506 134.829 174.581 134.102 173.084 132.784C171.588 131.466 170.623 129.648 170.37 127.67L161.85 61.67C161.597 59.6921 160.632 57.8741 159.136 56.5563C157.639 55.2384 155.714 54.5109 153.72 54.51H140.56C139.393 54.5104 138.24 54.7594 137.178 55.2404C136.115 55.7214 135.167 56.4234 134.396 57.2996C133.626 58.1757 133.052 59.206 132.711 60.3217C132.37 61.4375 132.271 62.613 132.42 63.77L140.42 125.55C140.569 126.707 140.47 127.883 140.129 128.998C139.789 130.114 139.214 131.144 138.444 132.02C137.674 132.897 136.725 133.599 135.663 134.08C134.6 134.561 133.447 134.81 132.28 134.81H92.19C91.0239 134.809 89.871 135.057 88.8081 135.537C87.7453 136.016 86.7971 136.717 86.0267 137.593C85.2563 138.468 84.6815 139.498 84.3407 140.613C83.9998 141.728 83.9007 142.903 84.05 144.06L85.77 157.35C86.0232 159.33 86.9895 161.149 88.488 162.467C89.9866 163.785 91.9143 164.512 93.91 164.51H138.2C140.194 164.508 142.121 165.233 143.619 166.549C145.117 167.865 146.085 169.682 146.34 171.66L155.54 242.94C155.689 244.097 155.59 245.272 155.249 246.387C154.909 247.502 154.334 248.532 153.563 249.407C152.793 250.283 151.845 250.984 150.782 251.464C149.719 251.943 148.566 252.191 147.4 252.19H107.34C106.173 252.19 105.02 252.439 103.958 252.92C102.895 253.401 101.947 254.103 101.176 254.98C100.406 255.856 99.8315 256.886 99.4907 258.002C99.1499 259.117 99.0508 260.293 99.2 261.45L100.92 274.74C101.173 276.718 102.138 278.536 103.634 279.854C105.131 281.172 107.056 281.899 109.05 281.9H153.35C155.344 281.898 157.271 282.623 158.769 283.939C160.267 285.255 161.235 287.072 161.49 289.05L170 355.05C170.255 357.029 171.222 358.847 172.72 360.165C174.218 361.482 176.145 362.209 178.14 362.21H191.3C192.467 362.21 193.62 361.961 194.683 361.48C195.745 360.999 196.694 360.297 197.464 359.42C198.234 358.544 198.809 357.514 199.149 356.398C199.49 355.283 199.589 354.107 199.44 352.95L191.44 291.17C191.303 290.018 191.412 288.85 191.759 287.743C192.107 286.636 192.685 285.616 193.457 284.749C194.228 283.882 195.174 283.189 196.233 282.715C197.292 282.241 198.44 281.998 199.6 282H306.84C308.83 281.992 310.755 282.707 312.257 284.014C313.758 285.32 314.733 287.128 315 289.1L323.51 355.1C323.765 357.079 324.732 358.897 326.23 360.215C327.728 361.532 329.655 362.259 331.65 362.26H344.81C345.976 362.26 347.129 362.011 348.191 361.53C349.254 361.049 350.201 360.347 350.971 359.47C351.74 358.594 352.314 357.563 352.654 356.448C352.993 355.332 353.091 354.157 352.94 353L344.94 291.22C344.791 290.063 344.89 288.888 345.231 287.773C345.572 286.658 346.146 285.628 346.917 284.753C347.687 283.877 348.635 283.176 349.698 282.696C350.761 282.217 351.914 281.969 353.08 281.97H393.14C394.309 281.971 395.466 281.723 396.531 281.241C397.597 280.76 398.547 280.056 399.319 279.178C400.09 278.299 400.666 277.266 401.005 276.147C401.345 275.028 401.442 273.849 401.29 272.69V272.69ZM185.51 245.09L176.32 173.81C176.171 172.654 176.27 171.48 176.61 170.366C176.95 169.251 177.524 168.222 178.293 167.347C179.063 166.471 180.01 165.77 181.071 165.29C182.133 164.809 183.285 164.56 184.45 164.56H291.69C293.684 164.558 295.611 165.283 297.109 166.599C298.607 167.915 299.575 169.732 299.83 171.71L309 243C309.149 244.157 309.05 245.332 308.709 246.447C308.369 247.562 307.794 248.592 307.023 249.467C306.253 250.343 305.305 251.044 304.242 251.524C303.179 252.003 302.026 252.251 300.86 252.25H193.65C191.655 252.249 189.728 251.522 188.23 250.205C186.732 248.887 185.765 247.069 185.51 245.09V245.09Z" fill="#FF725E"/>
<path opacity="0.4" d="M401.29 272.69L399.58 259.4C399.323 257.422 398.355 255.605 396.858 254.288C395.36 252.971 393.435 252.243 391.44 252.24H347.14C345.146 252.242 343.219 251.517 341.721 250.201C340.223 248.885 339.255 247.068 339 245.09L329.81 173.81C329.659 172.654 329.757 171.479 330.096 170.364C330.436 169.249 331.01 168.219 331.78 167.343C332.549 166.468 333.497 165.766 334.559 165.286C335.622 164.806 336.774 164.559 337.94 164.56H378C379.166 164.56 380.319 164.311 381.382 163.83C382.444 163.349 383.391 162.647 384.161 161.77C384.93 160.894 385.504 159.863 385.844 158.748C386.183 157.632 386.281 156.456 386.13 155.3L384.43 142C384.175 140.022 383.207 138.205 381.709 136.889C380.211 135.573 378.284 134.848 376.29 134.85H332C330.006 134.849 328.081 134.122 326.584 132.804C325.088 131.486 324.123 129.668 323.87 127.69L315.35 61.69C315.095 59.7113 314.128 57.8932 312.63 56.5754C311.132 55.2577 309.205 54.5306 307.21 54.53H294.05C292.883 54.5304 291.73 54.7794 290.667 55.2604C289.605 55.7414 288.657 56.4434 287.886 57.3196C287.116 58.1958 286.542 59.226 286.201 60.3417C285.86 61.4575 285.761 62.633 285.91 63.79L293.91 125.57C294.059 126.727 293.96 127.903 293.619 129.018C293.279 130.134 292.704 131.164 291.934 132.04C291.164 132.917 290.215 133.619 289.153 134.1C288.09 134.581 286.937 134.83 285.77 134.83H178.5C176.506 134.829 174.581 134.102 173.084 132.784C171.588 131.466 170.623 129.648 170.37 127.67L161.85 61.67C161.597 59.6921 160.632 57.8741 159.136 56.5563C157.639 55.2384 155.714 54.5109 153.72 54.51H140.56C139.393 54.5104 138.24 54.7594 137.178 55.2404C136.115 55.7214 135.167 56.4234 134.396 57.2996C133.626 58.1757 133.052 59.206 132.711 60.3217C132.37 61.4375 132.271 62.613 132.42 63.77L140.42 125.55C140.569 126.707 140.47 127.883 140.129 128.998C139.789 130.114 139.214 131.144 138.444 132.02C137.674 132.897 136.725 133.599 135.663 134.08C134.6 134.561 133.447 134.81 132.28 134.81H92.19C91.0239 134.809 89.871 135.057 88.8081 135.537C87.7453 136.016 86.7971 136.717 86.0267 137.593C85.2563 138.468 84.6815 139.498 84.3407 140.613C83.9998 141.728 83.9007 142.903 84.05 144.06L85.77 157.35C86.0232 159.33 86.9895 161.149 88.488 162.467C89.9866 163.785 91.9143 164.512 93.91 164.51H138.2C140.194 164.508 142.121 165.233 143.619 166.549C145.117 167.865 146.085 169.682 146.34 171.66L155.54 242.94C155.689 244.097 155.59 245.272 155.249 246.387C154.909 247.502 154.334 248.532 153.563 249.407C152.793 250.283 151.845 250.984 150.782 251.464C149.719 251.943 148.566 252.191 147.4 252.19H107.34C106.173 252.19 105.02 252.439 103.958 252.92C102.895 253.401 101.947 254.103 101.176 254.98C100.406 255.856 99.8315 256.886 99.4907 258.002C99.1499 259.117 99.0508 260.293 99.2 261.45L100.92 274.74C101.173 276.718 102.138 278.536 103.634 279.854C105.131 281.172 107.056 281.899 109.05 281.9H153.35C155.344 281.898 157.271 282.623 158.769 283.939C160.267 285.255 161.235 287.072 161.49 289.05L170 355.05C170.255 357.029 171.222 358.847 172.72 360.165C174.218 361.482 176.145 362.209 178.14 362.21H191.3C192.467 362.21 193.62 361.961 194.683 361.48C195.745 360.999 196.694 360.297 197.464 359.42C198.234 358.544 198.809 357.514 199.149 356.398C199.49 355.283 199.589 354.107 199.44 352.95L191.44 291.17C191.303 290.018 191.412 288.85 191.759 287.743C192.107 286.636 192.685 285.616 193.457 284.749C194.228 283.882 195.174 283.189 196.233 282.715C197.292 282.241 198.44 281.998 199.6 282H306.84C308.83 281.992 310.755 282.707 312.257 284.014C313.758 285.32 314.733 287.128 315 289.1L323.51 355.1C323.765 357.079 324.732 358.897 326.23 360.215C327.728 361.532 329.655 362.259 331.65 362.26H344.81C345.976 362.26 347.129 362.011 348.191 361.53C349.254 361.049 350.201 360.347 350.971 359.47C351.74 358.594 352.314 357.563 352.654 356.448C352.993 355.332 353.091 354.157 352.94 353L344.94 291.22C344.791 290.063 344.89 288.888 345.231 287.773C345.572 286.658 346.146 285.628 346.917 284.753C347.687 283.877 348.635 283.176 349.698 282.696C350.761 282.217 351.914 281.969 353.08 281.97H393.14C394.309 281.971 395.466 281.723 396.531 281.241C397.597 280.76 398.547 280.056 399.319 279.178C400.09 278.299 400.666 277.266 401.005 276.147C401.345 275.028 401.442 273.849 401.29 272.69V272.69ZM185.51 245.09L176.32 173.81C176.171 172.654 176.27 171.48 176.61 170.366C176.95 169.251 177.524 168.222 178.293 167.347C179.063 166.471 180.01 165.77 181.071 165.29C182.133 164.809 183.285 164.56 184.45 164.56H291.69C293.684 164.558 295.611 165.283 297.109 166.599C298.607 167.915 299.575 169.732 299.83 171.71L309 243C309.149 244.157 309.05 245.332 308.709 246.447C308.369 247.562 307.794 248.592 307.023 249.467C306.253 250.343 305.305 251.044 304.242 251.524C303.179 252.003 302.026 252.251 300.86 252.25H193.65C191.655 252.249 189.728 251.522 188.23 250.205C186.732 248.887 185.765 247.069 185.51 245.09V245.09Z" fill="black"/>
<path d="M212.45 320.71L211.45 313.11L212.45 312.98L213.45 320.58L212.45 320.71ZM352.75 218.51L349.23 191.26L350.23 191.14L353.74 218.38L352.75 218.51ZM186.43 119.07L185 108.13L186 108L187.42 119L186.43 119.07ZM184.15 101.4L181.75 82.83L182.75 82.7L185.14 101.27L184.15 101.4Z" fill="#FF725E"/>
<path opacity="0.3" d="M212.45 320.71L211.45 313.11L212.45 312.98L213.45 320.58L212.45 320.71ZM352.75 218.51L349.23 191.26L350.23 191.14L353.74 218.38L352.75 218.51ZM186.43 119.07L185 108.13L186 108L187.42 119L186.43 119.07ZM184.15 101.4L181.75 82.83L182.75 82.7L185.14 101.27L184.15 101.4Z" fill="black"/>
<path d="M416 272.69L414.28 259.4C414.025 257.421 413.058 255.603 411.56 254.285C410.062 252.968 408.135 252.241 406.14 252.24H361.84C359.848 252.239 357.923 251.513 356.427 250.198C354.931 248.882 353.965 247.066 353.71 245.09L344.51 173.81C344.362 172.654 344.463 171.479 344.804 170.365C345.146 169.25 345.721 168.221 346.491 167.346C347.261 166.471 348.208 165.77 349.27 165.29C350.332 164.809 351.484 164.561 352.65 164.56H392.71C393.877 164.56 395.03 164.311 396.093 163.83C397.155 163.349 398.104 162.647 398.874 161.77C399.644 160.894 400.219 159.864 400.559 158.748C400.9 157.633 400.999 156.457 400.85 155.3L399.08 142C398.827 140.023 397.862 138.206 396.365 136.89C394.868 135.574 392.943 134.849 390.95 134.85H346.65C344.655 134.849 342.728 134.122 341.23 132.805C339.732 131.487 338.765 129.669 338.51 127.69L330 61.69C329.745 59.7113 328.778 57.8932 327.28 56.5755C325.782 55.2578 323.855 54.5307 321.86 54.53H308.7C307.533 54.5304 306.38 54.7794 305.318 55.2604C304.255 55.7414 303.307 56.4434 302.536 57.3196C301.766 58.1958 301.192 59.2261 300.851 60.3418C300.51 61.4575 300.411 62.633 300.56 63.79L308.56 125.57C308.709 126.727 308.61 127.903 308.269 129.018C307.929 130.134 307.354 131.164 306.584 132.04C305.814 132.917 304.865 133.619 303.803 134.1C302.74 134.581 301.587 134.83 300.42 134.83H193.16C191.166 134.835 189.238 134.115 187.737 132.802C186.235 131.49 185.262 129.677 185 127.7L176.49 61.7C176.235 59.7213 175.268 57.9032 173.77 56.5855C172.272 55.2678 170.345 54.5407 168.35 54.54H155.21C154.044 54.5402 152.891 54.7891 151.829 55.2702C150.766 55.7513 149.819 56.4535 149.049 57.3299C148.28 58.2063 147.706 59.2368 147.367 60.3525C147.027 61.4682 146.929 62.6436 147.08 63.8L155.08 125.58C155.229 126.737 155.13 127.913 154.789 129.028C154.449 130.144 153.874 131.174 153.104 132.05C152.334 132.927 151.385 133.629 150.323 134.11C149.26 134.591 148.107 134.84 146.94 134.84H106.85C105.684 134.839 104.531 135.087 103.468 135.567C102.405 136.046 101.457 136.747 100.687 137.623C99.9163 138.498 99.3415 139.528 99.0007 140.643C98.6598 141.758 98.5608 142.934 98.7101 144.09L100.42 157.38C100.675 159.359 101.642 161.177 103.14 162.495C104.638 163.812 106.565 164.539 108.56 164.54H152.86C154.854 164.538 156.781 165.263 158.279 166.579C159.777 167.895 160.745 169.712 161 171.69L170.19 243C170.341 244.156 170.243 245.331 169.904 246.446C169.564 247.561 168.99 248.591 168.221 249.467C167.451 250.342 166.503 251.044 165.441 251.524C164.378 252.004 163.226 252.251 162.06 252.25H122C120.834 252.25 119.681 252.499 118.619 252.98C117.556 253.461 116.609 254.164 115.839 255.04C115.07 255.916 114.496 256.947 114.157 258.063C113.817 259.178 113.719 260.354 113.87 261.51L115.58 274.8C115.835 276.779 116.802 278.597 118.3 279.915C119.798 281.232 121.725 281.959 123.72 281.96H168C169.993 281.959 171.918 282.684 173.415 284C174.912 285.316 175.877 287.133 176.13 289.11L184.65 355.11C184.905 357.089 185.872 358.907 187.37 360.225C188.868 361.542 190.795 362.269 192.79 362.27H206C207.167 362.27 208.32 362.021 209.383 361.54C210.445 361.059 211.394 360.357 212.164 359.481C212.934 358.604 213.509 357.574 213.849 356.458C214.19 355.343 214.289 354.167 214.14 353.01L206.14 291.23C205.991 290.074 206.09 288.898 206.431 287.783C206.772 286.668 207.346 285.638 208.117 284.763C208.887 283.887 209.835 283.186 210.898 282.707C211.961 282.227 213.114 281.979 214.28 281.98H321.5C323.493 281.981 325.417 282.707 326.913 284.023C328.409 285.338 329.375 287.154 329.63 289.13L338.15 355.13C338.403 357.108 339.368 358.926 340.864 360.244C342.361 361.562 344.286 362.289 346.28 362.29H359.44C360.607 362.29 361.76 362.041 362.823 361.56C363.885 361.079 364.834 360.377 365.604 359.501C366.374 358.624 366.949 357.594 367.289 356.478C367.63 355.363 367.729 354.187 367.58 353.03L359.58 291.25C359.431 290.094 359.53 288.92 359.87 287.806C360.21 286.691 360.784 285.662 361.553 284.787C362.323 283.911 363.27 283.21 364.331 282.73C365.393 282.249 366.545 282 367.71 282H407.78C408.958 282.012 410.125 281.77 411.202 281.292C412.278 280.813 413.239 280.108 414.019 279.224C414.798 278.341 415.379 277.3 415.721 276.173C416.063 275.045 416.158 273.858 416 272.69V272.69ZM200.22 245.09L191 173.81C190.852 172.654 190.953 171.479 191.294 170.365C191.636 169.25 192.211 168.221 192.981 167.346C193.751 166.471 194.698 165.77 195.76 165.29C196.822 164.809 197.974 164.561 199.14 164.56H306.35C308.344 164.56 310.269 165.286 311.767 166.602C313.265 167.917 314.233 169.733 314.49 171.71L323.68 243C323.829 244.156 323.73 245.33 323.39 246.444C323.05 247.559 322.476 248.588 321.707 249.463C320.937 250.339 319.99 251.04 318.929 251.52C317.867 252.001 316.715 252.25 315.55 252.25H208.31C206.314 252.252 204.387 251.525 202.888 250.207C201.39 248.889 200.423 247.07 200.17 245.09H200.22Z" fill="#FF725E"/>
<path opacity="0.3" d="M416 272.69L414.28 259.4C414.025 257.421 413.058 255.603 411.56 254.285C410.062 252.968 408.135 252.241 406.14 252.24H361.84C359.848 252.239 357.923 251.513 356.427 250.198C354.931 248.882 353.965 247.066 353.71 245.09L344.51 173.81C344.362 172.654 344.463 171.479 344.804 170.365C345.146 169.25 345.721 168.221 346.491 167.346C347.261 166.471 348.208 165.77 349.27 165.29C350.332 164.809 351.484 164.561 352.65 164.56H392.71C393.877 164.56 395.03 164.311 396.093 163.83C397.155 163.349 398.104 162.647 398.874 161.77C399.644 160.894 400.219 159.864 400.559 158.748C400.9 157.633 400.999 156.457 400.85 155.3L399.08 142C398.827 140.023 397.862 138.206 396.365 136.89C394.868 135.574 392.943 134.849 390.95 134.85H346.65C344.655 134.849 342.728 134.122 341.23 132.805C339.732 131.487 338.765 129.669 338.51 127.69L330 61.69C329.745 59.7113 328.778 57.8932 327.28 56.5755C325.782 55.2578 323.855 54.5307 321.86 54.53H308.7C307.533 54.5304 306.38 54.7794 305.318 55.2604C304.255 55.7414 303.307 56.4434 302.536 57.3196C301.766 58.1958 301.192 59.2261 300.851 60.3418C300.51 61.4575 300.411 62.633 300.56 63.79L308.56 125.57C308.709 126.727 308.61 127.903 308.269 129.018C307.929 130.134 307.354 131.164 306.584 132.04C305.814 132.917 304.865 133.619 303.803 134.1C302.74 134.581 301.587 134.83 300.42 134.83H193.16C191.166 134.835 189.238 134.115 187.737 132.802C186.235 131.49 185.262 129.677 185 127.7L176.49 61.7C176.235 59.7213 175.268 57.9032 173.77 56.5855C172.272 55.2678 170.345 54.5407 168.35 54.54H155.21C154.044 54.5402 152.891 54.7891 151.829 55.2702C150.766 55.7513 149.819 56.4535 149.049 57.3299C148.28 58.2063 147.706 59.2368 147.367 60.3525C147.027 61.4682 146.929 62.6436 147.08 63.8L155.08 125.58C155.229 126.737 155.13 127.913 154.789 129.028C154.449 130.144 153.874 131.174 153.104 132.05C152.334 132.927 151.385 133.629 150.323 134.11C149.26 134.591 148.107 134.84 146.94 134.84H106.85C105.684 134.839 104.531 135.087 103.468 135.567C102.405 136.046 101.457 136.747 100.687 137.623C99.9163 138.498 99.3415 139.528 99.0007 140.643C98.6598 141.758 98.5608 142.934 98.7101 144.09L100.42 157.38C100.675 159.359 101.642 161.177 103.14 162.495C104.638 163.812 106.565 164.539 108.56 164.54H152.86C154.854 164.538 156.781 165.263 158.279 166.579C159.777 167.895 160.745 169.712 161 171.69L170.19 243C170.341 244.156 170.243 245.331 169.904 246.446C169.564 247.561 168.99 248.591 168.221 249.467C167.451 250.342 166.503 251.044 165.441 251.524C164.378 252.004 163.226 252.251 162.06 252.25H122C120.834 252.25 119.681 252.499 118.619 252.98C117.556 253.461 116.609 254.164 115.839 255.04C115.07 255.916 114.496 256.947 114.157 258.063C113.817 259.178 113.719 260.354 113.87 261.51L115.58 274.8C115.835 276.779 116.802 278.597 118.3 279.915C119.798 281.232 121.725 281.959 123.72 281.96H168C169.993 281.959 171.918 282.684 173.415 284C174.912 285.316 175.877 287.133 176.13 289.11L184.65 355.11C184.905 357.089 185.872 358.907 187.37 360.225C188.868 361.542 190.795 362.269 192.79 362.27H206C207.167 362.27 208.32 362.021 209.383 361.54C210.445 361.059 211.394 360.357 212.164 359.481C212.934 358.604 213.509 357.574 213.849 356.458C214.19 355.343 214.289 354.167 214.14 353.01L206.14 291.23C205.991 290.074 206.09 288.898 206.431 287.783C206.772 286.668 207.346 285.638 208.117 284.763C208.887 283.887 209.835 283.186 210.898 282.707C211.961 282.227 213.114 281.979 214.28 281.98H321.5C323.493 281.981 325.417 282.707 326.913 284.023C328.409 285.338 329.375 287.154 329.63 289.13L338.15 355.13C338.403 357.108 339.368 358.926 340.864 360.244C342.361 361.562 344.286 362.289 346.28 362.29H359.44C360.607 362.29 361.76 362.041 362.823 361.56C363.885 361.079 364.834 360.377 365.604 359.501C366.374 358.624 366.949 357.594 367.289 356.478C367.63 355.363 367.729 354.187 367.58 353.03L359.58 291.25C359.431 290.094 359.53 288.92 359.87 287.806C360.21 286.691 360.784 285.662 361.553 284.787C362.323 283.911 363.27 283.21 364.331 282.73C365.393 282.249 366.545 282 367.71 282H407.78C408.958 282.012 410.125 281.77 411.202 281.292C412.278 280.813 413.239 280.108 414.019 279.224C414.798 278.341 415.379 277.3 415.721 276.173C416.063 275.045 416.158 273.858 416 272.69V272.69ZM200.22 245.09L191 173.81C190.852 172.654 190.953 171.479 191.294 170.365C191.636 169.25 192.211 168.221 192.981 167.346C193.751 166.471 194.698 165.77 195.76 165.29C196.822 164.809 197.974 164.561 199.14 164.56H306.35C308.344 164.56 310.269 165.286 311.767 166.602C313.265 167.917 314.233 169.733 314.49 171.71L323.68 243C323.829 244.156 323.73 245.33 323.39 246.444C323.05 247.559 322.476 248.588 321.707 249.463C320.937 250.339 319.99 251.04 318.929 251.52C317.867 252.001 316.715 252.25 315.55 252.25H208.31C206.314 252.252 204.387 251.525 202.888 250.207C201.39 248.889 200.423 247.07 200.17 245.09H200.22Z" fill="black"/>
<path d="M359.44 359.36H346.28C344.985 359.358 343.736 358.886 342.764 358.03C341.792 357.174 341.165 355.994 341 354.71L332.48 288.71C332.131 286.039 330.822 283.587 328.798 281.81C326.775 280.032 324.174 279.051 321.48 279.05H214.26C212.684 279.048 211.126 279.383 209.69 280.031C208.253 280.68 206.972 281.627 205.931 282.81C204.89 283.993 204.113 285.385 203.652 286.892C203.192 288.399 203.058 289.987 203.26 291.55L211.26 353.33C211.357 354.081 211.292 354.844 211.071 355.568C210.849 356.292 210.475 356.96 209.974 357.528C209.473 358.096 208.857 358.551 208.167 358.861C207.476 359.172 206.727 359.332 205.97 359.33H192.8C191.504 359.331 190.251 358.859 189.278 358.003C188.304 357.147 187.676 355.966 187.51 354.68L179 288.68C178.647 286.011 177.337 283.561 175.314 281.784C173.291 280.008 170.692 279.026 168 279.02H123.7C122.405 279.017 121.155 278.543 120.182 277.688C119.209 276.833 118.58 275.654 118.41 274.37L116.7 261.08C116.603 260.33 116.668 259.568 116.889 258.844C117.11 258.121 117.483 257.453 117.983 256.885C118.482 256.318 119.097 255.863 119.787 255.552C120.476 255.24 121.224 255.079 121.98 255.08H162.05C163.626 255.08 165.183 254.744 166.618 254.095C168.054 253.446 169.335 252.499 170.376 251.316C171.416 250.134 172.193 248.743 172.654 247.236C173.115 245.73 173.25 244.143 173.05 242.58L163.85 171.31C163.501 168.638 162.193 166.185 160.169 164.406C158.146 162.627 155.544 161.644 152.85 161.64H108.55C107.257 161.639 106.008 161.167 105.037 160.314C104.065 159.46 103.438 158.282 103.27 157L101.55 143.7C101.453 142.949 101.518 142.186 101.74 141.462C101.961 140.738 102.335 140.07 102.836 139.502C103.337 138.934 103.953 138.479 104.643 138.168C105.334 137.858 106.083 137.698 106.84 137.7H146.9C148.476 137.702 150.034 137.367 151.47 136.719C152.907 136.07 154.188 135.123 155.229 133.94C156.27 132.757 157.047 131.365 157.508 129.858C157.968 128.351 158.102 126.763 157.9 125.2L149.9 63.4199C149.803 62.6698 149.868 61.9076 150.089 61.1843C150.31 60.461 150.683 59.7932 151.183 59.2254C151.682 58.6576 152.297 58.2028 152.987 57.8915C153.676 57.5802 154.424 57.4194 155.18 57.4199H168.34C169.635 57.4233 170.885 57.8965 171.858 58.7516C172.831 59.6068 173.461 60.7858 173.63 62.0699L182.14 128.07C182.492 130.74 183.801 133.191 185.824 134.968C187.847 136.745 190.447 137.726 193.14 137.73H300.4C301.976 137.732 303.534 137.397 304.97 136.749C306.407 136.1 307.688 135.153 308.729 133.97C309.77 132.787 310.547 131.395 311.008 129.888C311.468 128.381 311.602 126.793 311.4 125.23L303.4 63.4499C303.303 62.6998 303.368 61.9376 303.589 61.2143C303.81 60.491 304.183 59.8232 304.683 59.2554C305.182 58.6876 305.797 58.2328 306.487 57.9215C307.176 57.6102 307.924 57.4494 308.68 57.4499H321.84C323.135 57.4554 324.384 57.9293 325.356 58.7841C326.328 59.6388 326.959 60.8167 327.13 62.0999L335.64 128.1C335.99 130.771 337.298 133.223 339.322 135C341.346 136.778 343.947 137.758 346.64 137.76H391C392.294 137.764 393.543 138.237 394.514 139.092C395.485 139.948 396.113 141.127 396.28 142.41L398 155.67C398.097 156.421 398.032 157.184 397.811 157.908C397.589 158.632 397.215 159.3 396.714 159.868C396.214 160.436 395.597 160.891 394.907 161.201C394.216 161.512 393.467 161.672 392.71 161.67H352.6C351.025 161.67 349.467 162.006 348.032 162.655C346.596 163.304 345.315 164.251 344.275 165.434C343.234 166.616 342.457 168.007 341.996 169.514C341.535 171.02 341.4 172.607 341.6 174.17L350.8 245.45C351.15 248.121 352.458 250.573 354.482 252.35C356.506 254.128 359.107 255.108 361.8 255.11H406.1C407.396 255.111 408.647 255.584 409.62 256.439C410.594 257.295 411.223 258.475 411.39 259.76L413.1 273.05C413.197 273.8 413.132 274.562 412.911 275.286C412.69 276.009 412.317 276.677 411.818 277.244C411.318 277.812 410.703 278.267 410.014 278.578C409.324 278.89 408.576 279.05 407.82 279.05H367.75C366.173 279.045 364.614 279.377 363.176 280.025C361.738 280.672 360.455 281.62 359.413 282.803C358.371 283.987 357.595 285.38 357.135 286.889C356.676 288.397 356.545 289.986 356.75 291.55L364.75 353.33C364.844 354.08 364.777 354.842 364.554 355.565C364.331 356.287 363.957 356.954 363.457 357.521C362.956 358.089 362.342 358.543 361.653 358.855C360.964 359.167 360.216 359.329 359.46 359.33L359.44 359.36ZM214.26 278.82H321.5C324.251 278.826 326.907 279.831 328.973 281.648C331.039 283.466 332.374 285.972 332.73 288.7L341.25 354.7C341.407 355.918 342 357.038 342.92 357.852C343.839 358.667 345.022 359.121 346.25 359.13H359.41C360.129 359.126 360.84 358.969 361.494 358.67C362.148 358.371 362.73 357.935 363.203 357.393C363.676 356.852 364.028 356.215 364.237 355.527C364.445 354.838 364.504 354.113 364.41 353.4L356.41 291.62C356.204 290.023 356.341 288.4 356.811 286.859C357.282 285.319 358.076 283.897 359.139 282.687C360.203 281.478 361.512 280.509 362.98 279.846C364.447 279.182 366.04 278.839 367.65 278.84H407.71C408.429 278.836 409.14 278.679 409.794 278.38C410.448 278.081 411.03 277.645 411.503 277.103C411.976 276.561 412.328 275.925 412.537 275.237C412.745 274.548 412.804 273.823 412.71 273.11L410.99 259.82C410.833 258.602 410.24 257.482 409.321 256.668C408.401 255.853 407.218 255.399 405.99 255.39H361.69C358.939 255.382 356.285 254.376 354.22 252.559C352.154 250.742 350.818 248.237 350.46 245.51L341.26 174.23C341.054 172.633 341.191 171.01 341.661 169.469C342.132 167.929 342.926 166.507 343.989 165.297C345.053 164.088 346.362 163.119 347.83 162.456C349.297 161.792 350.89 161.449 352.5 161.45H392.56C393.279 161.446 393.99 161.289 394.644 160.99C395.298 160.691 395.88 160.255 396.353 159.713C396.826 159.171 397.178 158.535 397.387 157.847C397.595 157.158 397.654 156.433 397.56 155.72L396 142.41C395.839 141.194 395.245 140.076 394.326 139.262C393.408 138.449 392.227 137.993 391 137.98H346.7C343.948 137.974 341.291 136.97 339.223 135.152C337.156 133.335 335.819 130.829 335.46 128.1L326.95 62.0999C326.791 60.8827 326.197 59.764 325.279 58.9499C324.36 58.1359 323.178 57.6813 321.95 57.6699H308.7C307.981 57.6753 307.272 57.8332 306.619 58.1331C305.965 58.4331 305.383 58.8682 304.911 59.4098C304.438 59.9514 304.086 60.5871 303.877 61.2749C303.668 61.9628 303.608 62.687 303.7 63.3999L311.7 125.18C311.913 126.785 311.779 128.418 311.308 129.967C310.837 131.517 310.039 132.947 308.968 134.162C307.897 135.377 306.578 136.348 305.1 137.01C303.622 137.672 302.02 138.01 300.4 138H193.16C190.408 137.994 187.751 136.99 185.683 135.172C183.616 133.355 182.279 130.849 181.92 128.12L173.41 62.1199C173.251 60.9027 172.657 59.784 171.739 58.9699C170.82 58.1559 169.638 57.7013 168.41 57.6899H155.21C154.491 57.6937 153.781 57.8505 153.127 58.1499C152.473 58.4493 151.89 58.8845 151.417 59.4264C150.944 59.9684 150.592 60.6048 150.384 61.2933C150.176 61.9818 150.116 62.7068 150.21 63.4199L158.21 125.2C158.42 126.804 158.284 128.434 157.811 129.981C157.339 131.528 156.54 132.956 155.47 134.168C154.399 135.381 153.081 136.35 151.605 137.011C150.128 137.672 148.528 138.009 146.91 138H106.85C106.131 138.005 105.422 138.163 104.769 138.463C104.115 138.763 103.533 139.198 103.061 139.74C102.588 140.281 102.236 140.917 102.027 141.605C101.818 142.293 101.758 143.017 101.85 143.73L103.52 157C103.679 158.217 104.273 159.336 105.192 160.15C106.111 160.964 107.293 161.419 108.52 161.43H152.82C155.573 161.436 158.229 162.44 160.297 164.258C162.364 166.075 163.702 168.581 164.06 171.31L173.25 242.59C173.458 244.187 173.322 245.809 172.853 247.35C172.384 248.89 171.591 250.313 170.528 251.522C169.465 252.732 168.157 253.701 166.689 254.364C165.222 255.028 163.63 255.371 162.02 255.37H122C121.281 255.374 120.571 255.531 119.917 255.83C119.263 256.129 118.68 256.564 118.207 257.106C117.734 257.648 117.382 258.285 117.174 258.973C116.966 259.662 116.906 260.387 117 261.1L118.71 274.39C118.869 275.607 119.463 276.726 120.382 277.54C121.301 278.354 122.483 278.809 123.71 278.82H168C170.751 278.826 173.407 279.831 175.473 281.648C177.539 283.466 178.874 285.972 179.23 288.7L187.75 354.7C187.907 355.918 188.5 357.038 189.42 357.852C190.339 358.667 191.522 359.121 192.75 359.13H206C206.719 359.126 207.43 358.969 208.084 358.67C208.738 358.371 209.32 357.935 209.793 357.393C210.266 356.852 210.618 356.215 210.827 355.527C211.035 354.838 211.094 354.113 211 353.4L203 291.62C202.794 290.023 202.931 288.4 203.401 286.859C203.872 285.319 204.666 283.897 205.729 282.687C206.793 281.478 208.102 280.509 209.57 279.846C211.037 279.182 212.63 278.839 214.24 278.84L214.26 278.82ZM315.55 255.37H208.31C205.558 255.364 202.901 254.36 200.833 252.542C198.766 250.725 197.429 248.219 197.07 245.49L187.87 174.21C187.664 172.613 187.801 170.99 188.271 169.449C188.742 167.909 189.536 166.487 190.599 165.277C191.663 164.068 192.972 163.099 194.44 162.436C195.907 161.772 197.5 161.429 199.11 161.43H306.35C309.103 161.436 311.759 162.44 313.827 164.258C315.894 166.075 317.232 168.581 317.59 171.31L326.78 242.59C326.986 244.186 326.85 245.809 326.38 247.348C325.91 248.888 325.117 250.309 324.054 251.519C322.992 252.728 321.684 253.697 320.217 254.361C318.751 255.025 317.16 255.369 315.55 255.37V255.37ZM199.11 161.68C197.535 161.68 195.977 162.016 194.542 162.665C193.106 163.314 191.825 164.261 190.785 165.444C189.744 166.626 188.967 168.017 188.506 169.524C188.045 171.03 187.91 172.617 188.11 174.18L197.31 245.46C197.662 248.13 198.971 250.581 200.994 252.358C203.017 254.135 205.617 255.116 208.31 255.12H315.55C317.126 255.122 318.684 254.787 320.12 254.139C321.557 253.49 322.838 252.543 323.879 251.36C324.92 250.177 325.697 248.785 326.158 247.278C326.618 245.771 326.752 244.183 326.55 242.62L317.36 171.35C317.011 168.678 315.703 166.225 313.679 164.446C311.656 162.667 309.054 161.684 306.36 161.68H199.11Z" fill="#FF725E"/>
<path d="M275.92 320.84L283.77 325.43L295.62 307.95L287.77 303.35L275.92 320.84Z" fill="#E4897B"/>
<path d="M284.05 325.17L277.6 317.24C277.491 317.102 277.335 317.008 277.162 316.977C276.989 316.946 276.81 316.979 276.66 317.07L269.66 321.27C269.487 321.382 269.34 321.53 269.227 321.703C269.115 321.876 269.041 322.071 269.009 322.274C268.977 322.478 268.988 322.686 269.041 322.885C269.095 323.085 269.19 323.27 269.32 323.43C271.62 326.15 272.87 327.35 275.71 330.84C277.45 332.99 280.84 337.61 283.26 340.57C285.68 343.53 288.73 341.3 287.99 339.85C284.67 333.35 284.54 329.85 284.59 326.7C284.598 326.142 284.407 325.599 284.05 325.17Z" fill="#263238"/>
<path d="M287 330.14H286.81C285.53 329.94 284.17 327.7 283.48 326.39C283.465 326.363 283.459 326.331 283.463 326.301C283.466 326.27 283.48 326.241 283.5 326.218C283.521 326.195 283.549 326.178 283.579 326.172C283.61 326.165 283.641 326.168 283.67 326.18C284.09 326.36 287.79 327.99 288.02 329.18C288.04 329.287 288.032 329.398 287.997 329.501C287.962 329.604 287.901 329.697 287.82 329.77C287.716 329.884 287.589 329.976 287.448 330.039C287.307 330.103 287.155 330.137 287 330.14V330.14ZM284 326.62C285.05 328.51 286.13 329.7 286.9 329.82C287.037 329.844 287.177 329.832 287.309 329.787C287.44 329.741 287.557 329.663 287.65 329.56C287.692 329.519 287.725 329.469 287.744 329.413C287.763 329.358 287.768 329.298 287.76 329.24C287.57 328.44 285.24 327.21 284 326.62Z" fill="#FF725E"/>
<path d="M286.56 327C285.53 326.992 284.511 326.785 283.56 326.39C283.536 326.38 283.516 326.364 283.502 326.342C283.488 326.321 283.48 326.296 283.48 326.27C283.475 326.243 283.479 326.216 283.489 326.191C283.5 326.166 283.518 326.145 283.54 326.13C283.63 326.07 285.65 324.7 287.08 324.98C287.283 325.018 287.477 325.097 287.649 325.213C287.821 325.328 287.967 325.477 288.08 325.65C288.39 326.12 288.27 326.42 288.08 326.58C287.645 326.908 287.102 327.059 286.56 327V327ZM283.93 326.23C285.16 326.72 287.42 326.89 287.88 326.38C287.88 326.33 288.05 326.19 287.8 325.82C287.712 325.679 287.595 325.558 287.457 325.465C287.319 325.372 287.164 325.309 287 325.28C285.899 325.285 284.827 325.631 283.93 326.27V326.23Z" fill="#FF725E"/>
<path d="M263.6 183.13L263.98 184.65L264.41 186.29C264.7 187.39 265.03 188.5 265.36 189.61C266.027 191.83 266.73 194.047 267.47 196.26C268.25 198.46 269 200.68 269.85 202.87C270.26 203.96 270.67 205.07 271.1 206.16L271.61 207.47C271.717 207.696 271.851 207.908 272.01 208.1C273.257 209.355 274.771 210.313 276.44 210.9C278.487 211.732 280.597 212.401 282.75 212.9C284.97 213.42 287.25 213.85 289.56 214.21C291.87 214.57 294.24 214.85 296.56 215.1L296.64 219.81C291.653 220.329 286.627 220.329 281.64 219.81C279.03 219.548 276.45 219.049 273.93 218.32C272.555 217.911 271.216 217.386 269.93 216.75C268.455 216.037 267.105 215.092 265.93 213.95C265.25 213.273 264.661 212.51 264.18 211.68C264.045 211.464 263.921 211.24 263.81 211.01L263.58 210.54L263.18 209.71C262.64 208.6 262.1 207.49 261.6 206.36C260.6 204.1 259.6 201.83 258.72 199.51C257.84 197.19 256.99 194.85 256.23 192.51C255.86 191.31 255.51 190.1 255.23 188.88L254.75 187.02C254.61 186.37 254.48 185.81 254.34 185.02L263.6 183.13Z" fill="#E4897B"/>
<path d="M260.63 173.22C264.38 174.17 267.01 189.61 267.01 189.61L256.67 196.61C256.67 196.61 246.76 181.04 249.67 176.91C252.65 172.65 255.16 171.82 260.63 173.22Z" fill="#FF725E"/>
<path opacity="0.2" d="M260.63 173.22C264.38 174.17 267.01 189.61 267.01 189.61L256.67 196.61C256.67 196.61 246.76 181.04 249.67 176.91C252.65 172.65 255.16 171.82 260.63 173.22Z" fill="black"/>
<path d="M261 178.83L253 180.69L252.23 188.54C253.591 191.315 255.093 194.018 256.73 196.64L263 192.38C262.67 188.77 262 181.27 261 178.83Z" fill="#FF725E"/>
<path opacity="0.3" d="M261 178.83L253 180.69L252.23 188.54C253.591 191.315 255.093 194.018 256.73 196.64L263 192.38C262.67 188.77 262 181.27 261 178.83Z" fill="black"/>
<path d="M295.18 215L301.63 208.46L302.48 217.67C302.48 217.67 297.64 220.95 294.29 219.19L295.18 215Z" fill="#E4897B"/>
<path d="M309.22 207.47L309.51 215.23L302.48 217.66L301.63 208.45L309.22 207.47Z" fill="#E4897B"/>
<path d="M262.97 338.83H272.07L275 317.75H265.89L262.97 338.83Z" fill="#E4897B"/>
<path d="M272.67 336.11L263.67 331.3C263.516 331.216 263.337 331.19 263.165 331.229C262.994 331.268 262.843 331.368 262.74 331.51L257.91 338.1C257.795 338.271 257.717 338.464 257.681 338.667C257.646 338.87 257.653 339.078 257.703 339.278C257.753 339.478 257.844 339.665 257.971 339.827C258.098 339.99 258.258 340.124 258.44 340.22C261.61 341.84 263.23 342.46 267.2 344.57C269.64 345.87 275.76 349.46 279.14 351.26C282.52 353.06 284.46 349.81 283.22 348.76C277.65 344.06 274.95 340.23 273.78 337.32C273.569 336.795 273.175 336.365 272.67 336.11V336.11Z" fill="#263238"/>
<path d="M222.45 137.67C222.22 147.67 209.98 143.54 208.61 155.06C207.84 161.53 200 162.2 198.61 168.06C197.25 173.73 202.78 177.85 198.61 184.91C193.03 194.36 189.91 210.84 221.22 212.55C244.5 213.82 252.69 190.17 248.74 175.64C244.79 161.11 242.59 158.87 246.92 154.87C251.25 150.87 258.19 148.87 255.97 136.65C254.25 127.2 250.07 128.31 250.07 128.31C249.86 123.09 223 115.42 222.45 137.67Z" fill="#263238"/>
<path d="M295.62 307.95L289.51 316.96L281.65 312.37L287.76 303.35L295.62 307.95Z" fill="#CE6F64"/>
<path d="M265.89 317.76H275L273.48 328.62H264.38L265.89 317.76Z" fill="#CE6F64"/>
<path d="M260.63 173.22C260.63 173.22 264.97 174.75 256.28 228.15H219.28C219.9 213.15 219.91 203.83 212.72 172.95C217.897 171.885 223.144 171.196 228.42 170.89C234.009 170.489 239.62 170.489 245.21 170.89C252.45 171.55 260.63 173.22 260.63 173.22Z" fill="#FF725E"/>
<path opacity="0.2" d="M260.63 173.22C260.63 173.22 264.97 174.75 256.28 228.15H219.28C219.9 213.15 219.91 203.83 212.72 172.95C217.897 171.885 223.144 171.196 228.42 170.89C234.009 170.489 239.62 170.489 245.21 170.89C252.45 171.55 260.63 173.22 260.63 173.22Z" fill="black"/>
<path d="M230.12 152C231.18 157.4 232.24 167.29 228.46 170.9C228.46 170.9 229.94 176.38 239.97 176.38C249.63 176.38 245.25 170.9 245.25 170.9C239.25 169.46 239.38 164.99 240.43 160.79L230.12 152Z" fill="#E4897B"/>
<path d="M234.32 155.58L240.42 160.78C240.163 161.763 239.992 162.767 239.91 163.78C237.6 163.45 234.44 160.92 234.2 158.51C234.065 157.534 234.106 156.542 234.32 155.58V155.58Z" fill="#CE6F64"/>
<path d="M229.49 137.76C228.49 146.76 227.81 150.5 231.49 155.86C237.01 163.92 248.26 163.24 251.96 154.76C255.29 147.13 256.44 133.76 248.38 128.65C246.609 127.518 244.578 126.858 242.48 126.732C240.381 126.607 238.286 127.02 236.393 127.933C234.499 128.846 232.871 130.229 231.663 131.949C230.455 133.669 229.707 135.669 229.49 137.76V137.76Z" fill="#E4897B"/>
<path d="M229.44 143.06C230.71 145.42 250.15 134.67 247.94 128.9C245.73 123.13 239.94 125.22 239.94 125.22C239.94 125.22 229.67 127.56 227.94 132.89C226.21 138.22 229.44 143.06 229.44 143.06Z" fill="#263238"/>
<path d="M225.7 144.09C225.88 145.822 226.713 147.42 228.03 148.56C229.79 150.05 231.54 148.72 231.78 146.56C232 144.63 231.35 141.56 229.24 140.86C227.13 140.16 225.5 142 225.7 144.09Z" fill="#E4897B"/>
<path d="M256.28 228.15C256.28 228.15 313.82 233.69 313.22 261.44C312.6 290.31 291.87 316.31 291.87 316.31L281 310.16C281 310.16 293 284.75 292.38 267.44C291.88 252.64 236.7 249.8 236.7 249.8L229.09 228.15H256.28Z" fill="#FF725E"/>
<path opacity="0.6" d="M256.28 228.15C256.28 228.15 313.82 233.69 313.22 261.44C312.6 290.31 291.87 316.31 291.87 316.31L281 310.16C281 310.16 293 284.75 292.38 267.44C291.88 252.64 236.7 249.8 236.7 249.8L229.09 228.15H256.28Z" fill="#FAFAFA"/>
<path d="M276.33 244.42L277.49 256.22C285.54 258.74 291.73 262.22 292.34 266.88C293.7 256.44 286.42 250.27 276.33 244.42Z" fill="#FF725E"/>
<path opacity="0.4" d="M276.33 244.42L277.49 256.22C285.54 258.74 291.73 262.22 292.34 266.88C293.7 256.44 286.42 250.27 276.33 244.42Z" fill="#FAFAFA"/>
<path d="M246.52 228.15C246.52 228.15 286 241.23 287 257.42C288.84 287.23 275.73 326.52 275.73 326.52H263.27C263.27 326.52 263.97 300.45 265.46 273.44C267.32 239.51 207.46 272.97 219.32 228.15H246.52Z" fill="#FF725E"/>
<path opacity="0.6" d="M246.52 228.15C246.52 228.15 286 241.23 287 257.42C288.84 287.23 275.73 326.52 275.73 326.52H263.27C263.27 326.52 263.97 300.45 265.46 273.44C267.32 239.51 207.46 272.97 219.32 228.15H246.52Z" fill="#FAFAFA"/>
<path d="M242.51 142.65C242.38 143.37 242.66 144.02 243.13 144.11C243.6 144.2 244.13 143.67 244.22 142.95C244.31 142.23 244.07 141.57 243.6 141.49C243.13 141.41 242.64 141.92 242.51 142.65Z" fill="#263238"/>
<path d="M250.67 144.11C250.55 144.83 250.82 145.48 251.3 145.57C251.78 145.66 252.3 145.14 252.39 144.41C252.48 143.68 252.24 143.04 251.76 142.95C251.28 142.86 250.8 143.38 250.67 144.11Z" fill="#263238"/>
<path d="M251.55 143L253.37 142.81C253.37 142.81 252.24 144 251.55 143Z" fill="#263238"/>
<path d="M248.29 145C248.634 146.736 249.209 148.417 250 150C249.583 150.191 249.129 150.29 248.67 150.29C248.211 150.29 247.757 150.191 247.34 150L248.29 145Z" fill="#DE5753"/>
<path d="M243.22 151.94H243.16C241.707 151.257 240.569 150.044 239.98 148.55C239.974 148.533 239.971 148.515 239.973 148.497C239.974 148.479 239.979 148.461 239.987 148.445C239.996 148.429 240.008 148.415 240.022 148.404C240.036 148.393 240.052 148.385 240.07 148.38C240.086 148.374 240.104 148.371 240.121 148.371C240.139 148.372 240.156 148.376 240.172 148.384C240.188 148.391 240.202 148.402 240.214 148.415C240.226 148.428 240.234 148.443 240.24 148.46C240.804 149.872 241.873 151.023 243.24 151.69C243.273 151.705 243.298 151.733 243.311 151.766C243.324 151.8 243.324 151.837 243.31 151.87C243.301 151.887 243.288 151.903 243.272 151.915C243.257 151.927 243.239 151.935 243.22 151.94V151.94Z" fill="#263238"/>
<path d="M241.6 139.41C241.561 139.41 241.523 139.401 241.488 139.384C241.453 139.366 241.423 139.341 241.4 139.31C241.373 139.287 241.351 139.258 241.335 139.225C241.32 139.192 241.312 139.156 241.312 139.12C241.312 139.084 241.32 139.048 241.335 139.016C241.351 138.983 241.373 138.954 241.4 138.93C241.883 138.485 242.466 138.163 243.099 137.989C243.732 137.815 244.397 137.795 245.04 137.93C245.11 137.949 245.17 137.994 245.207 138.057C245.243 138.12 245.254 138.195 245.235 138.265C245.216 138.335 245.171 138.395 245.108 138.432C245.045 138.469 244.97 138.479 244.9 138.46C244.342 138.349 243.765 138.374 243.219 138.532C242.673 138.691 242.172 138.978 241.76 139.37C241.712 139.399 241.656 139.413 241.6 139.41V139.41Z" fill="#263238"/>
<path d="M255.13 140.86C255.077 140.856 255.026 140.839 254.982 140.809C254.938 140.779 254.903 140.738 254.88 140.69C254.667 140.165 254.334 139.697 253.906 139.326C253.479 138.954 252.969 138.688 252.42 138.55C252.347 138.538 252.282 138.497 252.239 138.437C252.196 138.378 252.178 138.303 252.19 138.23C252.205 138.159 252.246 138.097 252.306 138.056C252.365 138.015 252.439 137.998 252.51 138.01C253.151 138.158 253.747 138.459 254.247 138.888C254.747 139.316 255.136 139.859 255.38 140.47C255.396 140.503 255.406 140.538 255.407 140.575C255.409 140.611 255.403 140.647 255.39 140.681C255.377 140.715 255.357 140.746 255.331 140.772C255.305 140.797 255.274 140.817 255.24 140.83C255.207 140.851 255.169 140.861 255.13 140.86V140.86Z" fill="#263238"/>
<path d="M276.08 339.35C275.01 339.35 273.56 338.23 272.75 337.51C272.726 337.492 272.707 337.467 272.698 337.438C272.689 337.41 272.69 337.379 272.7 337.35C272.709 337.321 272.726 337.296 272.749 337.276C272.772 337.257 272.8 337.244 272.83 337.24C273.2 337.24 276.45 336.94 277.13 337.83C277.203 337.924 277.25 338.035 277.266 338.153C277.281 338.271 277.266 338.39 277.22 338.5C277.165 338.693 277.062 338.868 276.92 339.01C276.778 339.152 276.603 339.255 276.41 339.31C276.302 339.334 276.191 339.348 276.08 339.35V339.35ZM273.22 337.52C274.54 338.62 275.68 339.18 276.33 339.01C276.475 338.97 276.606 338.892 276.711 338.785C276.816 338.678 276.892 338.545 276.93 338.4C276.968 338.344 276.988 338.278 276.988 338.21C276.988 338.142 276.968 338.076 276.93 338.02C276.45 337.44 274.35 337.45 273.22 337.52V337.52Z" fill="#FF725E"/>
<path d="M272.85 337.55C272.823 337.552 272.795 337.545 272.772 337.531C272.749 337.517 272.73 337.495 272.72 337.47C272.708 337.447 272.701 337.421 272.701 337.395C272.701 337.369 272.708 337.343 272.72 337.32C272.77 337.23 274 334.94 275.26 334.64C275.411 334.596 275.571 334.589 275.725 334.618C275.88 334.648 276.025 334.714 276.15 334.81C276.291 334.883 276.401 335.003 276.461 335.149C276.522 335.296 276.528 335.459 276.48 335.61C276.21 336.53 273.96 337.52 272.86 337.55H272.85ZM275.53 334.91H275.32C274.42 335.12 273.48 336.59 273.12 337.18C274.17 337.02 275.97 336.18 276.18 335.49C276.18 335.38 276.23 335.21 275.97 335.03C275.839 334.945 275.686 334.903 275.53 334.91V334.91Z" fill="#FF725E"/>
<path d="M243.38 141.49L245.21 141.3C245.21 141.3 244.07 142.5 243.38 141.49Z" fill="#263238"/>
<path d="M218.76 226L218.47 229.31C218.34 229.57 218.64 229.83 219.07 229.83H256.46C256.8 229.83 257.07 229.67 257.09 229.46L257.43 226.15C257.43 225.92 257.16 225.72 256.8 225.72H219.36C219.245 225.714 219.13 225.736 219.025 225.785C218.92 225.834 218.829 225.908 218.76 226V226Z" fill="#263238"/>
<path d="M223.79 230.17H222.79C222.59 230.17 222.44 230.07 222.45 229.94L222.92 225.64C222.92 225.51 223.11 225.41 223.31 225.41H224.31C224.51 225.41 224.66 225.51 224.65 225.64L224.18 229.94C224.16 230.07 224 230.17 223.79 230.17Z" fill="#FF725E"/>
<path opacity="0.6" d="M223.79 230.17H222.79C222.59 230.17 222.44 230.07 222.45 229.94L222.92 225.64C222.92 225.51 223.11 225.41 223.31 225.41H224.31C224.51 225.41 224.66 225.51 224.65 225.64L224.18 229.94C224.16 230.07 224 230.17 223.79 230.17Z" fill="#FAFAFA"/>
<path d="M253.65 230.17H252.65C252.45 230.17 252.3 230.07 252.32 229.94L252.79 225.64C252.79 225.51 252.97 225.41 253.17 225.41H254.17C254.37 225.41 254.52 225.51 254.5 225.64L254.03 229.94C254 230.07 253.85 230.17 253.65 230.17Z" fill="#FF725E"/>
<path opacity="0.6" d="M253.65 230.17H252.65C252.45 230.17 252.3 230.07 252.32 229.94L252.79 225.64C252.79 225.51 252.97 225.41 253.17 225.41H254.17C254.37 225.41 254.52 225.51 254.5 225.64L254.03 229.94C254 230.07 253.85 230.17 253.65 230.17Z" fill="#FAFAFA"/>
<path d="M238.72 230.17H237.72C237.52 230.17 237.36 230.07 237.38 229.94L237.85 225.64C237.85 225.51 238.04 225.41 238.24 225.41H239.24C239.44 225.41 239.59 225.51 239.58 225.64L239.11 229.94C239.09 230.07 238.92 230.17 238.72 230.17Z" fill="#FF725E"/>
<path opacity="0.6" d="M238.72 230.17H237.72C237.52 230.17 237.36 230.07 237.38 229.94L237.85 225.64C237.85 225.51 238.04 225.41 238.24 225.41H239.24C239.44 225.41 239.59 225.51 239.58 225.64L239.11 229.94C239.09 230.07 238.92 230.17 238.72 230.17Z" fill="#FAFAFA"/>
<path d="M221.46 187.29L216.69 191.35C217.69 196.75 218.39 201.25 218.83 205.25C219.72 201.24 222 190.36 221.46 187.29Z" fill="#FF725E"/>
<path opacity="0.3" d="M221.46 187.29L216.69 191.35C217.69 196.75 218.39 201.25 218.83 205.25C219.72 201.24 222 190.36 221.46 187.29Z" fill="black"/>
<path d="M322.51 202.6H257.64L248.24 240.91H313.11L322.51 202.6Z" fill="#FAFAFA"/>
<path d="M289.64 233.78L249.97 243.03L224.51 235.89L224.77 233.78H289.64Z" fill="#FAFAFA"/>
<path d="M218.28 186.12C217.51 188.67 216.67 191.3 215.92 193.9C215.17 196.5 214.38 199.12 213.7 201.73C213.02 204.34 212.37 206.94 211.87 209.49C211.63 210.76 211.4 212.03 211.25 213.23C211.143 214.073 211.086 214.921 211.08 215.77C211.3 216.451 211.677 217.071 212.18 217.58C212.939 218.404 213.78 219.148 214.69 219.8C216.772 221.283 218.969 222.597 221.26 223.73C223.61 224.94 226.07 226.04 228.58 227.06C231.09 228.08 233.65 229.06 236.16 230.06L235 234.58C232.13 234.13 229.4 233.49 226.62 232.8C223.84 232.11 221.13 231.2 218.4 230.2C215.579 229.169 212.861 227.877 210.28 226.34C208.846 225.482 207.505 224.477 206.28 223.34C204.741 221.951 203.575 220.197 202.89 218.24C202.702 217.644 202.571 217.031 202.5 216.41V215.93V215.57V214.93C202.5 214.09 202.5 213.29 202.5 212.5C202.58 210.94 202.75 209.5 202.97 208C203.38 205.08 203.97 202.26 204.59 199.48C205.867 193.947 207.426 188.484 209.26 183.11L218.28 186.12Z" fill="#E4897B"/>
<path d="M212.76 173C209.06 174.13 203.39 188.67 203.39 188.67L217.76 198.94C217.76 198.94 224.22 186.51 222.66 181.72C221 176.69 217 171.67 212.76 173Z" fill="#FF725E"/>
<path opacity="0.2" d="M212.76 173C209.06 174.13 203.39 188.67 203.39 188.67L217.76 198.94C217.76 198.94 224.22 186.51 222.66 181.72C221 176.69 217 171.67 212.76 173Z" fill="black"/>
<path d="M234.29 230.34L242.93 228.15L238.81 236.44C238.81 236.44 232.98 236.69 231.05 233.44L234.29 230.34Z" fill="#E4897B"/>
<path d="M249.9 231.3L246.08 238.06L238.81 236.44L242.93 228.15L249.9 231.3Z" fill="#E4897B"/>
<path d="M324.51 202.6H259.64L250.24 240.91H315.11L324.51 202.6Z" fill="#263238"/>
<path d="M315.11 240.91L314.85 243.03H249.97L250.23 240.91H315.11Z" fill="#263238"/>
<path d="M246.39 132.42C255.13 135.92 255.85 140.95 255.39 137.42C254.73 132.35 250.52 128.7 247.5 127.47C245.73 126.73 242.57 130.89 246.39 132.42Z" fill="#263238"/>
<path d="M230.1 137L229.51 137.69C229.418 137.785 229.366 137.912 229.366 138.045C229.366 138.177 229.418 138.305 229.51 138.4L234.23 142.7C234.324 142.786 234.447 142.834 234.575 142.834C234.703 142.834 234.826 142.786 234.92 142.7L235.73 141.95C235.783 141.902 235.826 141.844 235.855 141.778C235.885 141.713 235.9 141.642 235.9 141.57C235.9 141.498 235.885 141.427 235.855 141.362C235.826 141.296 235.783 141.238 235.73 141.19L230.78 136.95C230.681 136.873 230.556 136.835 230.43 136.845C230.305 136.854 230.187 136.909 230.1 137Z" fill="#FF725E"/>
<path opacity="0.3" d="M230.1 137L229.51 137.69C229.418 137.785 229.366 137.912 229.366 138.045C229.366 138.177 229.418 138.305 229.51 138.4L234.23 142.7C234.324 142.786 234.447 142.834 234.575 142.834C234.703 142.834 234.826 142.786 234.92 142.7L235.73 141.95C235.783 141.902 235.826 141.844 235.855 141.778C235.885 141.713 235.9 141.642 235.9 141.57C235.9 141.498 235.885 141.427 235.855 141.362C235.826 141.296 235.783 141.238 235.73 141.19L230.78 136.95C230.681 136.873 230.556 136.835 230.43 136.845C230.305 136.854 230.187 136.909 230.1 137Z" fill="black"/>
<path d="M228.89 170.26C228.99 171.02 229.83 174.77 236.97 176.18C236.97 176.18 234.85 178.49 233.65 184.02C233.65 184.02 221.13 179.11 224.93 171.15C224.96 171.086 225.005 171.03 225.06 170.987C225.116 170.944 225.181 170.914 225.25 170.9L228.73 170.16C228.747 170.156 228.765 170.155 228.782 170.158C228.8 170.16 228.817 170.166 228.831 170.176C228.846 170.185 228.859 170.197 228.869 170.212C228.879 170.226 228.886 170.243 228.89 170.26V170.26Z" fill="#FF725E"/>
<path opacity="0.6" d="M228.89 170.26C228.99 171.02 229.83 174.77 236.97 176.18C236.97 176.18 234.85 178.49 233.65 184.02C233.65 184.02 221.13 179.11 224.93 171.15C224.96 171.086 225.005 171.03 225.06 170.987C225.116 170.944 225.181 170.914 225.25 170.9L228.73 170.16C228.747 170.156 228.765 170.155 228.782 170.158C228.8 170.16 228.817 170.166 228.831 170.176C228.846 170.185 228.859 170.197 228.869 170.212C228.879 170.226 228.886 170.243 228.89 170.26V170.26Z" fill="#FAFAFA"/>
<path d="M244.84 170.84C245.7 171.75 248.05 174.84 242.11 176.26C242.11 176.26 245.72 178.26 246.92 183.79C246.92 183.79 255.81 177.68 247.72 171.04C247.711 171.035 247.7 171.033 247.69 171.033C247.68 171.033 247.669 171.035 247.66 171.04L244.95 170.66C244.929 170.661 244.91 170.668 244.892 170.679C244.874 170.689 244.86 170.704 244.849 170.722C244.838 170.739 244.832 170.759 244.83 170.78C244.829 170.8 244.832 170.821 244.84 170.84V170.84Z" fill="#FF725E"/>
<path opacity="0.6" d="M244.84 170.84C245.7 171.75 248.05 174.84 242.11 176.26C242.11 176.26 245.72 178.26 246.92 183.79C246.92 183.79 255.81 177.68 247.72 171.04C247.711 171.035 247.7 171.033 247.69 171.033C247.68 171.033 247.669 171.035 247.66 171.04L244.95 170.66C244.929 170.661 244.91 170.668 244.892 170.679C244.874 170.689 244.86 170.704 244.849 170.722C244.838 170.739 244.832 170.759 244.83 170.78C244.829 170.8 244.832 170.821 244.84 170.84V170.84Z" fill="#FAFAFA"/>
<path d="M329.71 113.3C328.19 97.5901 314.38 84.8601 298.87 84.8701C283.36 84.8801 272 97.6101 273.55 113.32C274.11 118.418 275.882 123.307 278.717 127.58C281.553 131.852 285.37 135.384 289.85 137.88L289.6 147.88L297.92 141.03C300.042 141.521 302.212 141.773 304.39 141.78C319.9 141.75 331.24 129 329.71 113.3Z" fill="#FF725E"/>
<path opacity="0.6" d="M329.71 113.3C328.19 97.5901 314.38 84.8601 298.87 84.8701C283.36 84.8801 272 97.6101 273.55 113.32C274.11 118.418 275.882 123.307 278.717 127.58C281.553 131.852 285.37 135.384 289.85 137.88L289.6 147.88L297.92 141.03C300.042 141.521 302.212 141.773 304.39 141.78C319.9 141.75 331.24 129 329.71 113.3Z" fill="#FAFAFA"/>
<path d="M304 108.36C297.13 106.29 292.28 98.9402 292.28 98.9402C292.28 98.9402 290.16 98.8202 290.28 100.76C290.502 103.446 291.735 105.948 293.73 107.76L290.51 107.58C289.377 107.516 288.242 107.641 287.15 107.95L286.15 108.24C285.722 108.37 285.325 108.588 284.986 108.879C284.646 109.17 284.37 109.529 284.175 109.932C283.981 110.335 283.872 110.774 283.856 111.221C283.839 111.668 283.916 112.114 284.08 112.53L286.22 118.84C286.929 120.881 288.349 122.599 290.22 123.68C291.804 124.625 293.663 125.002 295.49 124.75C298.71 124.26 303.72 123.51 304.58 123.35L306.89 123.15L306.21 109L304 108.36Z" fill="#FAFAFA"/>
<path d="M316.08 125.06H307.08C306.734 125.048 306.403 124.913 306.148 124.678C305.893 124.443 305.73 124.124 305.69 123.78L304.13 107.68C304.11 107.519 304.125 107.356 304.173 107.201C304.221 107.046 304.302 106.903 304.41 106.782C304.518 106.661 304.65 106.564 304.799 106.498C304.947 106.432 305.108 106.399 305.27 106.4H314.27C314.62 106.41 314.954 106.546 315.211 106.783C315.469 107.02 315.632 107.342 315.67 107.69L317.23 123.78C317.248 123.942 317.232 124.105 317.183 124.26C317.133 124.415 317.051 124.558 316.943 124.679C316.834 124.8 316.701 124.896 316.552 124.962C316.404 125.028 316.243 125.061 316.08 125.06Z" fill="#FF725E"/>
<path d="M183.89 190.22L174.89 181.69C175.02 179.912 175 178.125 174.83 176.35C173.14 158.99 157.88 144.92 140.74 144.93C123.6 144.94 111.08 159.02 112.74 176.38C114.4 193.74 129.68 207.81 146.82 207.8C152.103 207.888 157.3 206.454 161.791 203.671C166.282 200.887 169.878 196.871 172.15 192.1L183.89 190.22Z" fill="#FF725E"/>
<path d="M158.18 165.12C153.49 160.79 146.57 160.8 142.73 165.12C138.04 160.8 131.12 160.8 127.27 165.12C123.42 169.44 124.1 176.46 128.79 180.78L145.79 196.43L159.72 180.77C163.55 176.45 162.87 169.44 158.18 165.12Z" fill="#FF725E"/>
<path opacity="0.6" d="M158.18 165.12C153.49 160.79 146.57 160.8 142.73 165.12C138.04 160.8 131.12 160.8 127.27 165.12C123.42 169.44 124.1 176.46 128.79 180.78L145.79 196.43L159.72 180.77C163.55 176.45 162.87 169.44 158.18 165.12Z" fill="#FAFAFA"/>
</svg>
