<svg width="200" height="200" fill="none" xmlns="http://www.w3.org/2000/svg"><path d="M168.777 103.612c-38.175-22.05-99.91-22.05-137.85 0s-37.741 57.8.434 79.85c38.175 22.051 99.909 22.051 137.854 0 37.945-22.05 37.754-57.8-.438-79.85z" fill="#fff"/><path d="M91.564 164.631c-8.35-4.82-21.842-4.82-30.14 0-8.3 4.819-8.243 12.636.1 17.456 8.341 4.82 21.841 4.824 30.14 0s8.25-12.637-.1-17.456zM176.113 136.537c-8.884-5.132-23.243-5.132-32.071 0-7.809 4.534-8.676 11.553-2.638 16.667-4.867-.303-9.912.625-13.63 2.785-6.507 3.792-6.507 9.939.078 13.73 6.585 3.792 17.179 3.792 23.703 0 5.206-3.036 6.225-7.522 3.128-11.149 7.479 1.081 15.712-.069 21.538-3.47 8.828-5.115 8.781-13.431-.108-18.563z" fill="#E6E6E6"/><path d="M94.796 134.585l-12.337 7.063a11.717 11.717 0 01-11.648-.022l-9.158-5.275a3.517 3.517 0 01-1.757-3.037v-6.242l-1.908 1.102v5.448a4.085 4.085 0 002.052 3.549l10.866 6.264a11.508 11.508 0 0011.47 0l12.429-7.11a4.653 4.653 0 002.268-4.928 4.616 4.616 0 01-2.277 3.188z" fill="#64B4FF"/><path opacity=".1" d="M94.796 134.585l-12.337 7.063a11.717 11.717 0 01-11.648-.022l-9.158-5.275a3.517 3.517 0 01-1.757-3.037v-6.242l-1.908 1.102v5.448a4.085 4.085 0 002.052 3.549l10.866 6.264a11.508 11.508 0 0011.47 0l12.429-7.11a4.653 4.653 0 002.268-4.928 4.616 4.616 0 01-2.277 3.188z" fill="#000"/><path d="M61.653 136.351l9.158 5.275a11.717 11.717 0 0011.648.022l12.337-7.063a4.61 4.61 0 002.269-3.192 4.624 4.624 0 00-2.17-3.146l-10.12-6.073a4.1 4.1 0 01-1.987-3.514v-4.815l-22.9 13.227v6.242a3.518 3.518 0 001.765 3.037z" fill="#64B4FF"/><path opacity=".4" d="M61.653 136.351a3.517 3.517 0 01-1.757-3.037v-6.242l-1.908 1.102v5.448a4.085 4.085 0 002.052 3.549l3.856 2.221v-1.735l-2.243-1.306z" fill="#000"/><path opacity=".3" d="M61.653 136.351l2.234 1.301 23.907-13.669-3.036-1.805a4.092 4.092 0 01-1.987-3.513v-4.82l-22.883 13.227v6.242a3.518 3.518 0 001.765 3.037z" fill="#000"/><path d="M20.12 149.617l-.173-78.25c0-2.221 1.553-4.928 3.47-6.047l97.295-56.013c.958-.556 1.83-.608 2.468-.252l-3.666-2.104c-.637-.408-1.54-.373-2.542.204L19.709 63.151c-1.94 1.119-3.501 3.826-3.47 6.047l.173 78.25c0 1.049.36 1.796.932 2.169.062.042.128.08.196.112l3.596 2.113c-.62-.36-1.015-1.132-1.015-2.225z" fill="#64B4FF"/><path opacity=".3" d="M119.514 6.951c-.637-.408-1.54-.373-2.542.204L19.709 63.151a7.314 7.314 0 00-2.677 2.984l3.744 2.17a7.328 7.328 0 012.668-2.977l97.268-56.021c.958-.556 1.83-.608 2.468-.252l-3.666-2.104z" fill="#fff"/><path opacity=".2" d="M16.217 69.198l.173 78.25c0 1.049.36 1.796.933 2.169.062.042.127.08.195.112l3.618 2.113c-.62-.369-1.002-1.141-1.006-2.234l-.174-78.25a6.816 6.816 0 01.82-3.071l-3.744-2.17a6.828 6.828 0 00-.815 3.08z" fill="#000"/><path d="M124.234 11.31c0-1.092-.39-1.86-1.006-2.233h-.022c-.638-.356-1.51-.304-2.468.251L23.444 65.32c-1.935 1.119-3.497 3.826-3.47 6.047l.147 78.25c0 1.093.386 1.865 1.006 2.234l.052.03h.026c.634.334 1.488.269 2.43-.273l97.276-56c1.931-1.115 3.497-3.826 3.471-6.047l-.148-78.25zm-5.054 81.305l-95.589 55.05-.173-76.307a4.372 4.372 0 011.765-3.036l95.581-55.059.173 76.306a4.36 4.36 0 01-1.757 3.046z" fill="#64B4FF"/><path d="M120.764 13.263l-2.473 1.427.165 73.673a4.35 4.35 0 01-1.766 3.037L23.591 145.03v2.634l95.598-55.05a4.377 4.377 0 001.765-3.037l-.19-76.315z" fill="#64B4FF"/><path opacity=".3" d="M120.764 13.263l-2.473 1.427.165 73.673a4.35 4.35 0 01-1.766 3.037L23.591 145.03v2.634l95.598-55.05a4.377 4.377 0 001.765-3.037l-.19-76.315z" fill="#000"/><path d="M118.465 88.363L118.3 14.69 25.175 68.313a4.373 4.373 0 00-1.766 3.037l.182 73.681L116.7 91.404a4.34 4.34 0 001.766-3.04z" fill="#455A64"/><path d="M34.87 153.577l-.169-73.963a7.282 7.282 0 013.301-5.718l91.932-52.924c.907-.525 1.736-.577 2.334-.239l-3.47-2.008c-.608-.386-1.462-.352-2.408.195L34.467 71.848a7.253 7.253 0 00-3.297 5.714l.165 73.959c0 .989.338 1.701.867 2.065.058.04.12.077.183.109l3.413 1.986c-.563-.347-.928-1.075-.928-2.104z" fill="#64B4FF"/><path opacity=".4" d="M128.806 18.707c-.607-.386-1.462-.351-2.407.195L34.467 71.85a6.94 6.94 0 00-2.53 2.815l3.54 2.043a6.915 6.915 0 012.525-2.811l91.932-52.924c.907-.525 1.736-.577 2.334-.239l-3.462-2.026z" fill="#fff"/><path opacity=".3" d="M31.17 77.562l.165 73.959c0 .989.338 1.701.867 2.065.058.04.12.077.183.109l3.413 1.986c-.58-.347-.945-1.076-.95-2.108l-.147-73.96a6.536 6.536 0 01.776-2.906l-3.54-2.043a6.507 6.507 0 00-.767 2.898z" fill="#fff"/><path d="M34.71 83.9l.16 69.677c0 1.033.369 1.762.95 2.109l.052.03h.026c.599.312 1.406.256 2.295-.26l91.932-52.924a7.274 7.274 0 002.335-2.464 7.278 7.278 0 00.966-3.254l-.156-69.786L34.71 83.9z" fill="#64B4FF"/><path opacity=".5" d="M34.71 83.9l.16 69.677c0 1.033.369 1.762.95 2.109l.052.03h.026c.599.312 1.406.256 2.295-.26l91.932-52.924a7.274 7.274 0 002.335-2.464 7.278 7.278 0 00.966-3.254l-.156-69.786L34.71 83.9z" fill="#fff"/><path d="M129.44 31.678c.867-.49 1.544-.1 1.548.868a3.38 3.38 0 01-1.54 2.663L50.643 80.76c-.867.49-1.548.095-1.548-.868a3.391 3.391 0 011.54-2.668l78.805-45.545z" fill="#64B4FF"/><path opacity=".8" d="M129.44 31.678c.867-.49 1.544-.1 1.548.868a3.38 3.38 0 01-1.54 2.663L50.643 80.76c-.867.49-1.548.095-1.548-.868a3.391 3.391 0 011.54-2.668l78.805-45.545z" fill="#fff"/><path d="M39.07 84.698a.116.116 0 01.103 0c.066.03.07.143 0 .247l-.498.915 1.678-.967c.087-.052.157 0 .157.087a.338.338 0 01-.157.269l-1.678.971.503.339c.056.039.052.152 0 .256a.36.36 0 01-.104.108.126.126 0 01-.117 0l-.742-.503a.12.12 0 01-.03-.035.309.309 0 010-.06.336.336 0 010-.066.294.294 0 01.03-.073l.737-1.358a.282.282 0 01.117-.13zM43.312 82.247a.108.108 0 01.117 0l.742.499a.136.136 0 01.03.039.312.312 0 010 .056.337.337 0 010 .065.291.291 0 01-.03.074l-.737 1.358a.36.36 0 01-.113.126.125.125 0 01-.109 0c-.06-.03-.065-.14 0-.248l.5-.915-1.68.972c-.086.047-.156 0-.156-.091a.35.35 0 01.156-.27l1.68-.967-.504-.338c-.056-.04-.052-.156 0-.256a.313.313 0 01.104-.104zM46.418 80.455a.785.785 0 01.516-.126.335.335 0 01.152-.242c.083-.044.152 0 .148.1v.398a.357.357 0 01-.148.256l-.338.213c-.083.048-.152 0-.156-.083a.347.347 0 01.121-.251.647.647 0 00-.282.09 1.436 1.436 0 00-.65 1.124c0 .434.294.577.654.37.273-.172.478-.433.582-.738a.316.316 0 01.134-.17.13.13 0 01.074-.021c.078 0 .104.095.065.204-.16.443-.467.819-.868 1.067-.529.304-.963.056-.963-.551a2.116 2.116 0 01.96-1.64z" fill="#64B4FF"/><g opacity=".7" fill="#fff"><path opacity=".7" d="M39.07 84.698a.116.116 0 01.103 0c.066.03.07.143 0 .247l-.498.915 1.678-.967c.087-.052.157 0 .157.087a.338.338 0 01-.157.269l-1.678.971.503.339c.056.039.052.152 0 .256a.36.36 0 01-.104.108.126.126 0 01-.117 0l-.742-.503a.12.12 0 01-.03-.035.309.309 0 010-.06.336.336 0 010-.066.294.294 0 01.03-.073l.737-1.358a.282.282 0 01.117-.13zM43.312 82.247a.108.108 0 01.117 0l.742.499a.136.136 0 01.03.039.312.312 0 010 .056.337.337 0 010 .065.291.291 0 01-.03.074l-.737 1.358a.36.36 0 01-.113.126.125.125 0 01-.109 0c-.06-.03-.065-.14 0-.248l.5-.915-1.68.972c-.086.047-.156 0-.156-.091a.35.35 0 01.156-.27l1.68-.967-.504-.338c-.056-.04-.052-.156 0-.256a.313.313 0 01.104-.104zM46.418 80.455a.785.785 0 01.516-.126.335.335 0 01.152-.242c.083-.044.152 0 .148.1v.398a.357.357 0 01-.148.256l-.338.213c-.083.048-.152 0-.156-.083a.347.347 0 01.121-.251.647.647 0 00-.282.09 1.436 1.436 0 00-.65 1.124c0 .434.294.578.654.37.273-.172.478-.433.582-.738a.316.316 0 01.134-.17.13.13 0 01.074-.021c.078 0 .104.095.065.204-.16.443-.467.819-.868 1.067-.529.304-.963.056-.963-.551a2.116 2.116 0 01.96-1.64z"/></g><path d="M74.216 119.962l54.434-31.408a.947.947 0 011.419.82v6.833a2.362 2.362 0 01-1.185 2.047l-54.438 31.464a.949.949 0 01-1.423-.82v-6.876a2.369 2.369 0 011.193-2.06zM129.049 47.75v-6.862a.94.94 0 00-.946-.942.945.945 0 00-.472.126L74.212 70.72a2.369 2.369 0 00-1.189 2.052v7.058a.95.95 0 001.423.82l53.423-30.843a2.359 2.359 0 001.18-2.056z" fill="#64B4FF"/><path d="M110.643 56.726v1.072l-34.505 19.92-.004-1.067 34.509-19.925zM110.634 54.752l.005 1.063-34.51 19.925v-1.067l34.505-19.92zM95.516 61.255l.004 1.072-19.395 11.196-.004-1.067 19.395-11.201z" fill="#fff"/><path d="M124.212 46.792l.005 1.067-6.139 3.544-.004-1.071 6.138-3.54z" fill="#64B4FF"/><path d="M124.516 44.514c1.262-.728 2.291-.147 2.295 1.302a5.035 5.035 0 01-2.282 3.956l-6.75 3.904c-1.267.733-2.295.148-2.299-1.301a5.015 5.015 0 012.282-3.952l6.754-3.909zm-.282 3.345v-1.067l-6.16 3.54v1.067l6.16-3.54z" fill="#fff"/><path d="M104.821 98.97l23.352-13.5a3.792 3.792 0 001.896-3.28V54.492a1.426 1.426 0 00-.71-1.23 1.42 1.42 0 00-1.42.002l-23.356 13.483a3.782 3.782 0 00-1.892 3.28v27.71a1.425 1.425 0 002.13 1.232z" fill="#64B4FF"/><path d="M114.768 72.222l.777-.434a.106.106 0 00.05-.066.111.111 0 00-.011-.082.106.106 0 00-.028-.034.106.106 0 00-.124-.01l-.776.435a.113.113 0 00-.01.184.112.112 0 00.066.024.137.137 0 00.056-.017zM110.882 74.451l.776-.433a.113.113 0 00.052-.067.11.11 0 00-.16-.124l-.777.433a.115.115 0 00-.053.067.114.114 0 00.01.085c.01.016.024.03.041.038.016.01.035.014.054.014.02 0 .039-.004.057-.013zM106.999 76.681l.777-.434a.11.11 0 00.022-.142.112.112 0 00-.135-.049l-.777.434a.111.111 0 00-.05.068.116.116 0 00.011.084.108.108 0 00.096.052.136.136 0 00.056-.013zM108.938 75.566l.777-.434a.117.117 0 00.034-.027.108.108 0 00.023-.083.09.09 0 00-.014-.041.113.113 0 00-.152-.04l-.776.434a.117.117 0 00-.051.068.112.112 0 00.052.124c.017.009.036.013.055.012l.052-.013zM112.825 73.323l.777-.433a.108.108 0 00.049-.066.106.106 0 00-.01-.082.104.104 0 00-.148-.043l-.776.434a.102.102 0 00-.048.052.106.106 0 00.033.129.106.106 0 00.067.022.12.12 0 00.056-.013zM124.481 66.647l.777-.434a.111.111 0 00.05-.068.116.116 0 00-.078-.138.11.11 0 00-.085.011l-.776.434a.106.106 0 00-.045.054.111.111 0 00.035.13.112.112 0 00.066.024.093.093 0 00.056-.013zM118.651 69.992l.777-.434a.099.099 0 00.033-.026.096.096 0 00.021-.038.103.103 0 00.003-.043.114.114 0 00-.014-.04.105.105 0 00-.028-.035.1.1 0 00-.039-.02.11.11 0 00-.085.011l-.776.434a.117.117 0 00-.051.068.112.112 0 00.012.084.104.104 0 00.04.041c.016.01.035.015.055.015a.125.125 0 00.052-.017zM122.538 67.762l.776-.434a.106.106 0 00.05-.066.102.102 0 00-.011-.081.104.104 0 00-.147-.043l-.781.433a.114.114 0 00-.049.125c.007.023.02.044.039.06a.113.113 0 00.067.023c.02 0 .039-.005.056-.017zM126.368 65.55a.086.086 0 00.053 0l.78-.434a.117.117 0 00.051-.068.112.112 0 00-.012-.084.103.103 0 00-.066-.054.108.108 0 00-.085.01l-.777.434a.111.111 0 00-.05.069.116.116 0 00.011.083.106.106 0 00.095.044zM120.594 68.877l.777-.434a.105.105 0 00.052-.065.101.101 0 00.004-.042.098.098 0 00-.013-.04.102.102 0 00-.027-.035.108.108 0 00-.124-.01l-.777.435a.112.112 0 00-.043.152.12.12 0 00.04.04c.017.01.036.016.055.016.02.001.04-.005.056-.017zM128.802 70.226a.106.106 0 00-.032-.077.108.108 0 00-.076-.031.112.112 0 00-.113.108v.868a.112.112 0 00.113.108.108.108 0 00.076-.032.106.106 0 00.032-.076v-.868zM128.802 68.04a.106.106 0 00-.032-.077.108.108 0 00-.076-.032.112.112 0 00-.113.108v.868a.112.112 0 00.113.109.107.107 0 00.076-.032.106.106 0 00.032-.077v-.867zM128.802 72.412a.113.113 0 00-.031-.078.115.115 0 00-.077-.034.113.113 0 00-.113.112v.868a.113.113 0 00.113.113.115.115 0 00.077-.035.113.113 0 00.031-.078v-.868zM128.802 74.599a.107.107 0 00-.108-.113.113.113 0 00-.113.113v.867a.113.113 0 00.113.113.115.115 0 00.077-.034.113.113 0 00.031-.079V74.6zM128.802 76.794a.106.106 0 00-.032-.077.108.108 0 00-.076-.032.112.112 0 00-.113.108v.869a.112.112 0 00.113.108.108.108 0 00.076-.032.106.106 0 00.032-.076v-.868zM128.694 78.859a.112.112 0 00-.113.108v.868a.114.114 0 00.113.113.107.107 0 00.078-.034.107.107 0 00.03-.08v-.867a.106.106 0 00-.032-.076.108.108 0 00-.076-.032zM128.802 65.858a.113.113 0 00-.031-.079.115.115 0 00-.077-.034.113.113 0 00-.113.113v.867a.113.113 0 00.113.113.114.114 0 00.077-.034.113.113 0 00.031-.079v-.867zM119.349 86.854l-.772.434a.118.118 0 00-.034.027.108.108 0 00-.023.083.09.09 0 00.014.041.112.112 0 00.095.057.088.088 0 00.057 0l.776-.434a.11.11 0 00.037-.067.116.116 0 00-.014-.075.114.114 0 00-.136-.049v-.017zM107.75 93.552l-.773.433a.111.111 0 00-.05.069.116.116 0 00.011.083c.01.017.023.032.04.042a.11.11 0 00.056.015.083.083 0 00.052 0l.776-.434a.106.106 0 00.05-.066.106.106 0 00-.011-.082.103.103 0 00-.024-.039.107.107 0 00-.127-.022zM109.671 92.437l-.776.434a.111.111 0 00-.05.068.107.107 0 00.106.136.137.137 0 00.057 0l.772-.434a.11.11 0 00-.025-.201.112.112 0 00-.084.01v-.013zM125.158 83.505l-.776.434a.106.106 0 00-.045.054.111.111 0 00.035.13.113.113 0 00.066.024.094.094 0 00.056 0l.773-.434a.11.11 0 00.041-.15.113.113 0 00-.067-.051.11.11 0 00-.083.01v-.017zM113.541 90.203l-.772.433a.114.114 0 00-.044.152.116.116 0 00.096.057.087.087 0 00.056 0l.777-.434a.108.108 0 00.049-.066.106.106 0 00-.01-.082.117.117 0 00-.024-.039.111.111 0 00-.128-.022zM123.223 84.602l-.776.434a.111.111 0 00-.05.068.107.107 0 00.011.084.11.11 0 00.095.056h.057l.772-.433a.111.111 0 00.05-.068.116.116 0 00-.011-.084.109.109 0 00-.062-.06.11.11 0 00-.086.004zM115.48 89.088l-.777.434a.115.115 0 00-.05.068.116.116 0 00.011.084.105.105 0 00.096.052.117.117 0 00.052 0l.776-.434a.117.117 0 00.051-.068.112.112 0 00-.012-.084.104.104 0 00-.062-.058.11.11 0 00-.085.006zM127.093 82.39l-.772.434a.105.105 0 00-.034.027.1.1 0 00-.021.04.108.108 0 00-.003.043.121.121 0 00.014.042c.011.016.025.029.041.038.017.009.036.014.055.014a.12.12 0 00.056 0l.777-.434a.119.119 0 00.041-.027.101.101 0 00.026-.041.116.116 0 00.007-.049.112.112 0 00-.016-.047.113.113 0 00-.033-.035.113.113 0 00-.138.008v-.013zM121.284 85.739l-.772.434a.112.112 0 00-.043.152c.011.016.025.03.043.038.017.01.037.014.056.014h.052l.777-.434a.116.116 0 00.068-.068.134.134 0 00.006-.049.127.127 0 00-.015-.047.116.116 0 00-.08-.054.113.113 0 00-.092.027v-.013zM111.606 91.322l-.776.434a.106.106 0 00-.05.066.106.106 0 00.01.081.105.105 0 00.096.057.12.12 0 00.056 0l.773-.434a.117.117 0 00.034-.028.108.108 0 00.023-.083.12.12 0 00-.014-.041.126.126 0 00-.027-.035.11.11 0 00-.082-.029.11.11 0 00-.043.012zM105.429 85.683a.108.108 0 00-.077.031.11.11 0 00-.032.077v.868a.108.108 0 00.109.108.112.112 0 00.112-.108v-.868a.112.112 0 00-.112-.108zM105.442 87.869a.11.11 0 00-.077.034.11.11 0 00-.032.079v.867a.108.108 0 00.109.108.11.11 0 00.079-.032.11.11 0 00.033-.08v-.868a.112.112 0 00-.112-.108zM105.403 79.119a.108.108 0 00-.077.032.11.11 0 00-.032.077v.867a.108.108 0 10.217 0v-.867a.106.106 0 00-.032-.077.107.107 0 00-.076-.032zM105.459 92.246a.104.104 0 00-.108.108v.868c0 .03.011.059.033.08a.11.11 0 00.079.033.11.11 0 00.077-.035.11.11 0 00.032-.078v-.868a.108.108 0 00-.109-.108h-.004zM105.411 81.305a.113.113 0 00-.113.113v.868a.114.114 0 00.113.113.113.113 0 00.109-.113v-.868a.124.124 0 00-.007-.043.096.096 0 00-.024-.036.109.109 0 00-.035-.025.112.112 0 00-.043-.009zM105.42 83.496a.11.11 0 00-.077.032.109.109 0 00-.031.076v.868a.112.112 0 00.189.077.11.11 0 00.032-.077v-.867a.113.113 0 00-.113-.109zM105.45 90.06a.112.112 0 00-.112.108v.868a.112.112 0 00.112.108.108.108 0 00.077-.032.11.11 0 00.032-.076v-.868a.108.108 0 00-.109-.108zM106.492 76.395a.102.102 0 00-.109 0l-1.301.742a.108.108 0 00-.057.095v1.475a.108.108 0 00.057.095.083.083 0 00.052 0 .085.085 0 00.056 0l1.302-.742a.11.11 0 00.056-.095V76.49a.108.108 0 00-.056-.095zm-.165.286V77.9l-1.059.629v-1.223l1.059-.625zM117.727 69.875a.104.104 0 00-.113 0l-1.301.741a.103.103 0 00-.041.04.11.11 0 00-.016.056v1.475c0 .02.006.038.016.055.009.017.024.03.041.04a.087.087 0 00.056 0 .083.083 0 00.052 0l1.302-.742a.115.115 0 00.052-.095V69.97a.113.113 0 00-.048-.096zm-.165.286v1.223l-1.063.612v-1.22l1.063-.615zM127.462 66.114a.128.128 0 00.112 0l1.302-.742a.113.113 0 00.041-.04.117.117 0 00.015-.056V63.78a.117.117 0 00-.015-.055.113.113 0 00-.041-.04.124.124 0 00-.109 0l-1.301.741a.115.115 0 00-.052.096V66a.114.114 0 00.008.063c.008.02.022.037.04.05zm1.227-2.126v1.223l-1.067.616v-1.223l1.067-.616zM106.491 93.43a.1.1 0 00-.108 0l-1.301.742a.113.113 0 00-.057.096v1.479a.113.113 0 00.057.095h.052a.12.12 0 00.056 0l1.301-.742a.11.11 0 00.042-.042.116.116 0 00.015-.057v-1.475a.113.113 0 00-.057-.096zm-.164.287v1.223l-1.063.612v-1.22l1.063-.615zM117.727 86.91a.131.131 0 00-.113 0l-1.301.742a.113.113 0 00-.057.095v1.48a.112.112 0 00.057.095.118.118 0 00.056 0 .117.117 0 00.052 0l1.302-.742a.12.12 0 00.052-.1v-1.474a.111.111 0 00-.013-.054.113.113 0 00-.035-.042zm-.165.287v1.223l-1.063.611v-1.219l1.063-.615zM128.854 80.742a.099.099 0 00-.108 0l-1.302.741a.115.115 0 00-.052.095v1.476a.115.115 0 00.052.095.1.1 0 00.113 0l1.302-.742a.11.11 0 00.056-.095v-1.475a.11.11 0 00-.061-.095zm-.165.286v1.219l-1.063.62v-1.223l1.063-.616zM128.16 60.448l.004 1.072-23.017 13.196-.005-1.072 23.018-13.196zM128.156 58.474l.004 1.067-23.022 13.197V71.67l23.018-13.197zM114.248 64.174l.004 1.072-9.118 5.275-.005-1.072 9.119-5.275z" fill="#fff"/><path d="M69.14 73.618L40.402 90.103a2.833 2.833 0 00-1.427 2.468l.091 41.277a.95.95 0 001.423.82l28.653-16.515a2.85 2.85 0 001.418-2.464v-41.25a.946.946 0 00-1.418-.82z" fill="#64B4FF"/><path d="M52.348 87.205l.833-.477a.12.12 0 00.073-.124.122.122 0 00-.194-.084l-.838.499a.115.115 0 00-.055.07.118.118 0 00.012.09.113.113 0 00.1.057.152.152 0 00.07-.03zM48.184 89.608l.833-.477a.118.118 0 00-.117-.204l-.833.478a.121.121 0 00-.044.16.117.117 0 00.104.06c.02.001.04-.005.057-.017zM44.023 91.999l.825-.456a.12.12 0 00.055-.071.118.118 0 00-.012-.09.118.118 0 00-.116-.061.118.118 0 00-.044.014l-.833.482a.115.115 0 00-.055.07.116.116 0 00.055.133c.019.01.04.015.06.013a.135.135 0 00.066-.034zM46.106 90.806l.833-.482a.118.118 0 00.043-.16.126.126 0 00-.165-.044l-.828.477a.118.118 0 00-.06.134.118.118 0 00.116.088.153.153 0 00.06-.013zM50.266 88.415l.833-.477a.118.118 0 00-.117-.204l-.833.478a.115.115 0 00-.055.07.116.116 0 00.011.09.118.118 0 00.105.06c.02.001.04-.005.056-.017zM62.75 81.253l.834-.481a.118.118 0 00.043-.16.121.121 0 00-.16-.044l-.833.477a.118.118 0 00-.017.198.117.117 0 00.073.023.139.139 0 00.06-.013zM56.508 84.832l.833-.477a.117.117 0 00-.117-.204l-.833.477a.117.117 0 00-.043.16.117.117 0 00.104.062c.02 0 .04-.006.056-.018zM60.669 82.433l.833-.477a.122.122 0 00.013-.2.118.118 0 00-.13-.008l-.834.477a.126.126 0 00-.043.165.12.12 0 00.104.056c.02 0 .039-.004.057-.013zM64.772 80.073c.02.006.041.006.061 0l.833-.477a.117.117 0 00.043-.16.122.122 0 00-.164-.044l-.829.478a.117.117 0 00.056.22v-.017zM58.59 83.64l.834-.478a.117.117 0 00.054-.073.12.12 0 00-.044-.124.119.119 0 00-.132-.007l-.828.477a.116.116 0 00-.06.133.117.117 0 00.116.089.16.16 0 00.06-.018zM67.406 85.084a.121.121 0 00-.239 0v.937a.121.121 0 00.239 0v-.937zM67.406 82.746a.122.122 0 10-.239 0v.932a.122.122 0 10.239 0v-.932zM67.406 87.426a.122.122 0 10-.239 0v.933a.122.122 0 10.239 0v-.933zM67.406 89.765a.121.121 0 00-.239 0v.937a.121.121 0 00.239 0v-.937zM67.406 92.107a.122.122 0 10-.239 0v.937a.122.122 0 00.239 0v-.937zM67.262 94.328a.118.118 0 00-.117.117v.938a.122.122 0 00.197.07.121.121 0 00.042-.07v-.938a.118.118 0 00-.036-.084.117.117 0 00-.086-.033zM67.406 80.403a.121.121 0 00-.239 0v.937a.121.121 0 00.239 0v-.937zM57.255 102.896l-.829.477a.125.125 0 00-.043.165.128.128 0 00.044.042c.019.01.039.015.06.014a.134.134 0 00.056 0l.833-.481a.127.127 0 00.035-.03.12.12 0 00.009-.131.118.118 0 00-.03-.038.116.116 0 00-.089-.031.126.126 0 00-.047.013zM44.813 110.071l-.829.477a.118.118 0 00-.017.198.114.114 0 00.074.023c.02.005.04.005.06 0l.83-.481a.125.125 0 00.034-.03.118.118 0 00.009-.131.124.124 0 00-.028-.038.11.11 0 00-.04-.024.108.108 0 00-.047-.007.121.121 0 00-.046.013zM46.887 108.895l-.829.482a.125.125 0 00-.035.03.118.118 0 00-.009.131c.01.018.026.034.044.044.019.011.04.016.06.016a.134.134 0 00.057 0l.829-.477a.122.122 0 00.043-.165.11.11 0 00-.027-.039.11.11 0 00-.04-.026.126.126 0 00-.047-.008.124.124 0 00-.046.012zM63.475 99.308l-.841.478a.125.125 0 00-.044.164.122.122 0 00.104.057.134.134 0 00.057 0l.833-.482a.118.118 0 00.043-.16.125.125 0 00-.152-.057zM51.034 106.483l-.829.478a.12.12 0 00-.043.164.123.123 0 00.104.057.134.134 0 00.056 0l.829-.482a.116.116 0 00.043-.16.117.117 0 00-.071-.055.12.12 0 00-.09.011v-.013zM61.402 100.506l-.829.477a.122.122 0 00-.053.071.117.117 0 00.114.15.09.09 0 00.056 0l.833-.477a.126.126 0 00.035-.031.12.12 0 00-.112-.189.135.135 0 00-.044.016v-.017zM53.09 105.286l-.829.482a.115.115 0 00-.058.117c.002.015.007.03.015.043a.117.117 0 00.104.061.134.134 0 00.057 0l.833-.477a.122.122 0 00.022-.211.116.116 0 00-.047-.02.126.126 0 00-.097.022v-.017zM65.549 98.111l-.829.482a.117.117 0 00-.043.16.117.117 0 00.104.06c.02.004.04.004.06 0l.83-.476a.124.124 0 00.067-.074.122.122 0 00-.092-.157.122.122 0 00-.097.022v-.017zM59.328 101.699l-.829.481a.115.115 0 00-.058.117.118.118 0 00.059.088c.018.011.039.017.06.016a.134.134 0 00.057 0l.833-.477a.135.135 0 00.041-.029.124.124 0 00.015-.144.117.117 0 00-.034-.037.133.133 0 00-.047-.021.126.126 0 00-.05.001.13.13 0 00-.047.022v-.017zM48.96 107.681l-.828.477a.116.116 0 00-.06.135.12.12 0 00.045.065.12.12 0 00.075.021.09.09 0 00.057 0l.828-.477a.117.117 0 00-.028-.215.116.116 0 00-.089.011v-.017zM42.345 101.638a.122.122 0 00-.117.121v.937a.118.118 0 00.117.118.118.118 0 00.117-.118v-.937a.122.122 0 00-.117-.121zM42.353 103.985a.117.117 0 00-.117.117v.937a.118.118 0 00.117.117.117.117 0 00.117-.117v-.915a.118.118 0 00-.066-.129.11.11 0 00-.05-.01zM42.314 94.61a.118.118 0 00-.117.117v.937a.118.118 0 00.2.083.117.117 0 00.034-.083v-.937a.117.117 0 00-.117-.117zM42.375 108.67a.122.122 0 00-.117.121v.937a.118.118 0 00.201.082.117.117 0 00.033-.086v-.937a.121.121 0 00-.121-.117h.004zM42.323 96.953a.117.117 0 00-.117.117v.937a.122.122 0 00.117.121.126.126 0 00.121-.121v-.937a.121.121 0 00-.121-.117zM42.336 99.295a.126.126 0 00-.121.122v.937a.12.12 0 00.121.117.122.122 0 00.117-.122v-.937a.117.117 0 00-.117-.117zM42.366 106.327a.118.118 0 00-.084.033.11.11 0 00-.025.039.11.11 0 00-.008.045v.937a.123.123 0 00.117.122.124.124 0 00.084-.037.123.123 0 00.033-.085v-.937a.118.118 0 00-.117-.117zM43.481 91.69a.113.113 0 00-.117 0l-1.375.795a.117.117 0 00-.06.104v1.579a.125.125 0 00.06.104.108.108 0 00.117 0l1.38-.794a.122.122 0 00.056-.104V91.79a.118.118 0 00-.06-.1zm-.173.309V93.3l-1.141.66v-1.302l1.14-.66zM55.528 84.707a.112.112 0 00-.117 0l-1.375.793a.118.118 0 00-.061.104v1.601a.117.117 0 00.06.104.109.109 0 00.118 0l1.375-.794a.117.117 0 00.06-.104v-1.579a.117.117 0 00-.06-.125zm-.173.308v1.3l-1.137.66v-1.301l1.136-.66zM65.948 80.698a.095.095 0 00.056 0 .1.1 0 00.061 0l1.375-.794a.117.117 0 00.061-.104v-1.579a.118.118 0 00-.06-.104.113.113 0 00-.118 0l-1.375.794a.118.118 0 00-.06.104v1.583a.11.11 0 00.06.1zm1.301-2.273v1.301l-1.136.66v-1.302l1.136-.659zM43.481 109.941a.11.11 0 00-.058-.016.11.11 0 00-.059.016l-1.375.794a.116.116 0 00-.06.104v1.579a.125.125 0 00.06.104.11.11 0 00.117 0l1.38-.794a.12.12 0 00.056-.104v-1.583a.115.115 0 00-.017-.058.115.115 0 00-.044-.042zm-.173.308v1.301l-1.141.66v-1.302l1.14-.659zM55.528 102.957a.11.11 0 00-.117 0l-1.375.794a.116.116 0 00-.061.104v1.57c0 .021.005.042.016.06.01.019.026.034.045.044a.11.11 0 00.117 0l1.375-.794a.116.116 0 00.06-.104v-1.583a.117.117 0 00-.06-.091zm-.173.308v1.301l-1.137.659v-1.301l1.136-.659zM67.436 96.346a.113.113 0 00-.117 0l-1.375.793a.117.117 0 00-.061.105v1.583a.118.118 0 00.06.1.095.095 0 00.057 0c.02.006.041.006.06 0l1.376-.794a.116.116 0 00.06-.104v-1.58a.117.117 0 00-.06-.103zm-.174.307v1.302l-1.136.655v-1.302l1.136-.655zM67.501 104.093l.004 1.072-25.243 14.697-.004-1.067L67.5 104.093zM67.497 102.119l.004 1.063-25.248 14.702v-1.067l25.244-14.698zM67.501 108.119l.004 1.067-25.243 14.702-.004-1.072L67.5 108.119zM67.497 106.141l.004 1.067-25.248 14.702v-1.068l25.244-14.701zM56.899 118.4l.004 1.072-14.64 8.52-.005-1.068 14.64-8.524zM67.497 110.249l.004 1.063-25.248 14.701v-1.067l25.244-14.697zM48.804 110.739l.004 1.072-6.559 3.856-.004-1.067 6.559-3.861z" fill="#fff"/><path d="M75.153 115.893L98.51 102.41a3.794 3.794 0 001.892-3.28V71.42a1.426 1.426 0 00-2.13-1.232L74.919 83.67a3.795 3.795 0 00-1.896 3.284v27.707a1.423 1.423 0 002.13 1.232z" fill="#64B4FF"/><path d="M87.26 103.898l.005 1.071-11.725 6.746-.005-1.067 11.726-6.75zM98.549 95.474v1.067L75.53 109.737l-.005-1.067L98.55 95.473zM92.883 96.359l.004 1.067-17.36 10.094-.005-1.071 17.361-10.09z" fill="#fff"/><path d="M91.36 89.08l3.649-2.11-3.64 6.296-.009-4.187z" fill="#E0E0E0"/><path d="M94.978 77.423l.03 9.548-3.648 2.108.009 4.186 3.64-6.294-3.64 6.294-12.91 7.458-.04-13.74 16.56-9.56z" fill="#fff"/><path d="M133.257 22.846c0-1.033-.369-1.735-.954-2.108h-.022c-.603-.339-1.427-.287-2.334.238L38.015 73.9a7.285 7.285 0 00-3.301 5.718v4.286l98.552-56.885-.009-4.173z" fill="#64B4FF"/><path opacity=".3" d="M133.257 22.846c0-1.033-.369-1.735-.954-2.108h-.022c-.603-.339-1.427-.287-2.334.238L38.015 73.9a7.285 7.285 0 00-3.301 5.718v4.286l98.552-56.885-.009-4.173z" fill="#000"/><g opacity=".5" fill="#fff"><path opacity=".5" d="M39.078 76.894c.499-.287.907-.057.907.516a1.99 1.99 0 01-.898 1.557c-.5.29-.907.057-.907-.516a1.974 1.974 0 01.898-1.557zM41.547 75.493c.494-.287.902-.057.902.516a1.97 1.97 0 01-.898 1.557c-.5.29-.903.056-.907-.516a1.986 1.986 0 01.903-1.557zM44.01 74.048c.5-.286.903-.056.907.516a1.986 1.986 0 01-.902 1.558c-.5.286-.903.056-.907-.517a1.988 1.988 0 01.903-1.557z"/></g><path d="M39.078 76.894c.499-.287.907-.057.907.516a1.99 1.99 0 01-.898 1.557c-.5.29-.907.057-.907-.516a1.974 1.974 0 01.898-1.557zM41.547 75.493c.494-.287.902-.057.902.516a1.97 1.97 0 01-.898 1.557c-.5.29-.903.056-.907-.516a1.986 1.986 0 01.903-1.557zM44.01 74.048c.5-.286.903-.056.907.516a1.986 1.986 0 01-.902 1.558c-.5.286-.903.056-.907-.517a1.987 1.987 0 01.903-1.557z" fill="#64B4FF"/><path opacity=".3" d="M133.257 22.846c0-1.033-.368-1.735-.954-2.108h-.022l-3.47-2.009c-.608-.386-1.462-.351-2.408.195L34.467 71.848a5.58 5.58 0 00-.36.23l-.109.083c-.078.056-.16.117-.238.182l-.122.108c-.074.061-.143.126-.217.196l-.112.117c-.074.07-.144.143-.209.217l-.108.121c-.035.04-.135.16-.204.243l-.091.117c-.07.091-.135.187-.2.278l-.074.108c-.073.105-.138.213-.208.326a.715.715 0 01-.047.073c-.078.14-.157.278-.226.434-.043.087-.082.174-.122.26-.02.04-.04.08-.056.122-.035.078-.07.156-.1.234l-.065.152-.078.221-.056.174-.065.204-.052.2c0 .06-.03.125-.044.186-.013.06-.03.143-.043.217-.013.074 0 .112-.03.169-.03.056 0 .165-.03.247v.512l.164 73.96c0 .989.338 1.7.868 2.064.058.041.119.077.182.109l3.414 1.987.052.03h.026c.599.312 1.406.256 2.295-.26l91.932-52.924a7.293 7.293 0 003.301-5.718l-.178-73.981z" fill="#fff"/><path d="M173.124 68.521v-1.618a2.197 2.197 0 00-1.006-1.735l-29.13-16.823a.709.709 0 00-.734-.056l-.984.71s.642.4.642.435h.065v2.286l30.193 17.43.954-.629z" fill="#64B4FF"/><path opacity=".7" d="M173.124 68.521v-1.618a2.197 2.197 0 00-1.006-1.735l-29.13-16.823a.709.709 0 00-.734-.056l-.984.71s.642.4.642.435h.065v2.286l30.193 17.43.954-.629z" fill="#fff"/><path d="M172.165 69.115l-30.193-17.43-.056 20.71a2.205 2.205 0 001.002 1.735l28.683 16.546-.26.33.482.685.98-.707a.712.712 0 00.265-.616l.06-21.86-.963.608z" fill="#37474F"/><path d="M171.163 65.858a2.226 2.226 0 011.007 1.735v1.518l-31.152-17.985v-1.519c0-.638.456-.893 1.011-.572l29.134 16.823z" fill="#64B4FF"/><path opacity=".5" d="M171.163 65.858a2.226 2.226 0 011.007 1.735v1.518l-31.152-17.985v-1.519c0-.638.456-.893 1.011-.572l29.134 16.823z" fill="#fff"/><path d="M172.165 69.115l-.065 21.96c0 .637-.434.893-1.011.572L141.955 74.83a2.206 2.206 0 01-1.002-1.735l.061-21.96 31.151 17.981z" fill="#455A64"/><path d="M151.243 75.202l-.004.915-8.646-4.989v-.92l8.65 4.994zM170.591 72.746v.92l-22.255-12.85.005-.915 22.25 12.845zM151.286 59.624l-.004.915-8.646-4.993.004-.915 8.646 4.993z" fill="#64B4FF"/><g opacity=".5" fill="#fff"><path opacity=".5" d="M151.243 75.202l-.004.915-8.646-4.989v-.92l8.65 4.994zM170.591 72.746v.92l-22.255-12.85.005-.915 22.25 12.845zM151.286 59.624l-.004.915-8.646-4.993.004-.915 8.646 4.993zM151.26 69.528l-.004.915-8.646-4.993v-.916l8.65 4.994zM148.666 64.07v.916l-6.047-3.488.004-.92 6.043 3.492zM159.42 81.908v.911l-11.127-6.42.004-.915 11.123 6.424zM162.205 79.54l-.004.92-13.895-8.026v-.915l13.899 8.02zM155.221 65.593l-.004.915-6.885-3.973.004-.92 6.885 3.978zM165.285 75.644l-.004.915-16.962-9.79.004-.92 16.962 9.795zM170.565 82.655l-.005.915-22.25-12.85v-.915l22.255 12.85z"/></g><path d="M24.806 141.735v-1.605a2.22 2.22 0 011.006-1.736l29.135-16.823a.696.696 0 01.733-.052l.985.712s-.642.399-.642.433c0 .035-.027 0-.066 0v2.287L25.76 142.329l-.954-.594z" fill="#64B4FF"/><path opacity=".3" d="M24.806 141.735v-1.605a2.22 2.22 0 011.006-1.736l29.135-16.823a.696.696 0 01.733-.052l.985.712s-.642.399-.642.433c0 .035-.027 0-.066 0v2.287L25.76 142.329l-.954-.594z" fill="#fff"/><path d="M25.76 142.329l30.189-17.43.06 20.709a2.218 2.218 0 01-1.002 1.736L26.33 163.906l.264.33-.481.685-.98-.707a.723.723 0 01-.269-.62l-.057-21.859.954.594z" fill="#37474F"/><path d="M26.771 139.071a2.204 2.204 0 00-1.006 1.735v1.519l31.147-17.986v-1.518c0-.638-.434-.894-1.007-.573l-29.134 16.823z" fill="#64B4FF"/><path opacity=".1" d="M26.771 139.071a2.204 2.204 0 00-1.006 1.735v1.519l31.147-17.986v-1.518c0-.638-.434-.894-1.007-.573l-29.134 16.823z" fill="#fff"/><path d="M25.76 142.329l.061 21.959c0 .638.434.894 1.015.573l29.13-16.819a2.203 2.203 0 001.006-1.735l-.065-21.959-31.147 17.981z" fill="#455A64"/><path d="M27.387 159.729v.919l8.65-4.993-.004-.919-8.646 4.993zM27.37 154.055l.004.915 8.646-4.993-.005-.915-8.645 4.993zM27.37 150.155l.004.915 6.043-3.492-.005-.915-6.042 3.492zM33.434 158.046l.005.915 11.122-6.425v-.911l-11.127 6.421zM33.46 154.115l.005.916 13.899-8.021-.005-.92-13.899 8.025zM32.953 144.493l.004.916 6.885-3.974-.005-.919-6.884 3.977zM33.473 148.207l.005.915 16.962-9.795-.005-.915-16.962 9.795zM33.46 152.467l.005.92 22.254-12.85-.004-.915-22.255 12.845zM32.927 142.849l.004.92 22.25-12.849-.004-.916-22.25 12.845zM27.34 144.151l.004.915 8.645-4.993v-.915l-8.65 4.993z" fill="#64B4FF"/><g opacity=".5" fill="#fff"><path opacity=".5" d="M27.387 159.729v.919l8.65-4.993-.004-.919-8.646 4.993zM27.37 154.055l.004.915 8.646-4.993-.005-.915-8.645 4.993zM27.37 150.155l.004.915 6.043-3.492-.004-.916-6.043 3.493zM33.434 158.046l.005.915 11.122-6.425v-.911l-11.127 6.421zM33.46 154.115l.005.916 13.899-8.021-.005-.92-13.899 8.025zM32.953 144.493l.004.916 6.885-3.974-.005-.919-6.884 3.977zM33.473 148.207l.005.915 16.962-9.795-.005-.915-16.962 9.795zM33.46 152.467l.005.919 22.254-12.849-.004-.915-22.255 12.845zM32.927 142.849l.004.92 22.25-12.849-.004-.916-22.25 12.845zM27.34 144.151l.004.915 8.645-4.993v-.915l-8.65 4.993z"/></g><path d="M105.581 129.84l-.035-12.854a1.866 1.866 0 01.867-1.479l17.734-10.256a.612.612 0 01.59-.065l-1.106-.663a.604.604 0 00-.594.065l-17.756 10.255a1.878 1.878 0 00-.867 1.479l.034 12.854a.59.59 0 00.265.542l1.106.664a.61.61 0 01-.238-.542z" fill="#455A64"/><path d="M125.006 105.742a.593.593 0 00-.208-.512l-.026-.026h-.035a.604.604 0 00-.59.065l-17.76 10.255a1.86 1.86 0 00-.867 1.479l.034 12.854a.604.604 0 00.243.546.594.594 0 00.621-.052l17.76-10.255a1.893 1.893 0 00.867-1.483l-.039-12.871z" fill="#455A64"/><path opacity=".3" d="M105.581 129.84l-.035-12.854a1.866 1.866 0 01.867-1.479l17.734-10.256a.612.612 0 01.59-.065l-1.106-.663a.604.604 0 00-.594.065l-17.756 10.255a1.878 1.878 0 00-.867 1.479l.034 12.854a.59.59 0 00.265.542l1.106.664a.61.61 0 01-.238-.542z" fill="#000"/><path d="M113.294 116.951v.972l-3.61 3.692 3.618-.486.005.971-4.573.564v-1.006l4.56-4.707zM117.922 111.09l-3.327 12.963-.885.516 3.327-12.967.885-.512zM118.239 114.097l4.568-.564.004 1.006-4.555 4.707-.004-.972 3.622-3.7-3.631.495-.004-.972z" fill="#F5F5F5"/><path d="M120.547 72.477l4.472 3.519.009 3.44-14.871 8.585-.009-3.44 2.833-5.627 2.547 1.974-.903 2.798 1.306-2.486 4.616-8.763z" fill="#fff"/><path d="M115.662 74.191c.699-.403 1.271-.078 1.271.724a2.788 2.788 0 01-1.262 2.17c-.699.403-1.271.078-1.271-.725a2.775 2.775 0 011.262-2.169zM58.539 87.496l4.789 3.77.013 3.683-15.934 9.196-.008-3.683 3.036-6.03 2.724 2.117-.963 2.994 1.397-2.66 4.946-9.387z" fill="#fff"/><path d="M53.307 89.374c.75-.434 1.358-.087 1.362.777a2.989 2.989 0 01-1.353 2.342c-.75.434-1.358.087-1.363-.776a2.968 2.968 0 011.354-2.343z" fill="#fff"/><path d="M151.26 69.528l-.004.915-8.646-4.993v-.916l8.65 4.994zM148.666 64.07v.916l-6.047-3.488.004-.92 6.043 3.492zM159.42 81.908v.911l-11.127-6.42.004-.915 11.123 6.424zM162.205 79.54l-.004.92-13.895-8.026v-.915l13.899 8.02zM155.221 65.593l-.004.915-6.885-3.973.004-.92 6.885 3.978zM165.285 75.644l-.004.915-16.962-9.79.004-.92 16.962 9.795zM170.565 82.654l-.005.916-22.25-12.85v-.915l22.255 12.85z" fill="#64B4FF"/><path d="M147.829 11.537c-1.336-.773-2.464-.395-2.82.802a4.007 4.007 0 00-1.445-1.605c-1.045-.603-1.895-.117-1.9 1.085v.55l-1.405-.81c-.733-.435-1.328-.083-1.332.763a2.914 2.914 0 001.323 2.286l11.895 6.867c.733.434 1.332.087 1.332-.755a2.911 2.911 0 00-1.323-2.29l-1.406-.811v-1.016a6.44 6.44 0 00-2.919-5.067zM164.483 29.813c-3.519-2.03-6.508-1.037-7.436 2.121a10.41 10.41 0 00-3.8-4.23c-2.759-1.592-5.002-.312-5.011 2.855v1.453l-3.7-2.134c-1.93-1.12-3.501-.221-3.505 2-.004 2.22 1.553 4.919 3.47 6.034l31.356 18.103c1.93 1.114 3.505.22 3.509-2 .005-2.221-1.557-4.924-3.47-6.039l-3.7-2.134v-2.677c.008-4.91-3.44-10.884-7.713-13.352z" fill="#E6E6E6"/><path d="M158.561 36.15l3.783 6.92-2.286-1.319-.018 5.11-3.019-1.744.013-5.11-2.286-1.319 3.813-2.537zM160.058 47.577l-.005 1.956-3.023-1.743.008-1.957 3.02 1.744zM160.058 50.319l-.005.976-3.023-1.744.008-.976 3.02 1.744zM160.058 51.954l-.005.59-3.023-1.748.008-.59 3.02 1.748z" fill="#455A64"/><g opacity=".5" fill="#fff"><path opacity=".5" d="M158.561 36.15l3.783 6.92-2.286-1.319-.018 5.11-3.019-1.744.013-5.11-2.286-1.319 3.813-2.537zM160.058 47.577l-.005 1.956-3.023-1.743.008-1.957 3.02 1.744zM160.058 50.319l-.005.976-3.023-1.744.008-.976 3.02 1.744zM160.058 51.954l-.005.59-3.023-1.748.008-.59 3.02 1.748z"/></g><path d="M64.495 2.795c3.518-2.03 6.507-1.036 7.435 2.122a10.468 10.468 0 013.8-4.234c2.755-1.588 5.002-.313 5.01 2.854v1.458l3.701-2.139c1.93-1.115 3.5-.217 3.505 2.004.005 2.221-1.553 4.92-3.47 6.035l-31.36 18.098c-1.93 1.115-3.505.225-3.51-1.996-.004-2.22 1.553-4.923 3.471-6.038l3.7-2.139v-2.677c-.004-4.906 3.445-10.884 7.718-13.348z" fill="#E6E6E6"/><path d="M70.039 29.075l3.782-6.919-2.281 1.319-.018-5.115-3.019 1.748.013 5.11-2.286 1.32 3.809 2.537zM71.54 17.649l-.005-1.957-3.023 1.744.004 1.957 3.024-1.744zM71.54 14.907l-.005-.98-3.023 1.748.004.976 3.024-1.744zM71.54 13.272l-.005-.59-3.023 1.744.004.594 3.024-1.748z" fill="#455A64"/><g opacity=".5" fill="#fff"><path opacity=".5" d="M70.039 29.075l3.782-6.919-2.281 1.319-.018-5.115-3.019 1.748.013 5.11-2.286 1.32 3.809 2.537zM71.54 17.649l-.005-1.957-3.023 1.744.004 1.957 3.024-1.744zM71.54 14.907l-.005-.98-3.023 1.748.004.976 3.024-1.744zM71.54 13.272l-.005-.59-3.023 1.744.004.594 3.024-1.748z"/></g><path d="M17.15 55.147l-.265.33 2.537 1.475-.533-1.983a4.742 4.742 0 01-1.74.178zM27.21 40.562l1.986-.546-2.542-1.475-.174.434a4.77 4.77 0 01.73 1.587zM23.843 43.977a1.956 1.956 0 00-.035-.23c0-.044 0-.083-.03-.126-.03-.044-.03-.126-.048-.187-.017-.06-.035-.078-.048-.121a1.142 1.142 0 00-.125-.27 1.503 1.503 0 00-.078-.142c0-.035-.053-.065-.074-.096a1.34 1.34 0 00-.091-.117l-.087-.087c-.035-.03-.065-.065-.104-.095l-.096-.07a2.035 2.035 0 00-2.004-.065c.018.144.029.29.03.434v.477c0 .079 0 .157-.03.239-.03.082-.026.173-.043.26-.018.087 0 .122-.035.178-.035.056-.026.113-.043.17-.018.056-.04.156-.061.234-.012.045-.026.09-.043.134a4.768 4.768 0 01-.087.265l-.04.108a5.177 5.177 0 01-.142.36.39.39 0 010 .044 6.96 6.96 0 01-.148.316l-.052.1c-.052.1-.104.2-.16.295 0 .022 0 .039-.03.06l-.209.335-.065.095a4.62 4.62 0 01-.16.239l-.092.121c-.052.065-.1.13-.151.191l-.126.156-.126.143c-.074.078-.143.157-.221.235l-.17.169-.112.104c-.061.056-.122.113-.187.165l-.113.09c-.065.057-.134.105-.204.157l-.1.074-.312.195c-.098.058-.2.11-.303.156l-.074.04-.07.025a2.09 2.09 0 00.946 1.657c.067.038.136.07.208.096h.052c.06.022.12.04.183.052h.047c.08.015.162.025.243.03h.352c.057-.004.113-.013.169-.026l.13-.026.143-.043.234-.078.16-.065.079-.035.3-.156c.104-.06.208-.13.312-.2l.1-.074.095-.069.113-.082.108-.096.104-.087.083-.073.113-.104c.047-.044.09-.092.138-.14.048-.047.148-.151.217-.233.07-.083.087-.091.126-.144.043-.046.087-.098.13-.156.048-.06.1-.121.148-.186l.09-.126.166-.234.06-.096c.074-.113.143-.221.208-.338l.035-.056c.052-.1.109-.196.156-.295l.053-.1c.052-.104.1-.213.147-.317v-.043c.052-.122.1-.243.143-.36l.04-.109c.034-.087.06-.178.09-.265l.04-.134.064-.234.04-.17c0-.06.025-.12.034-.182 0-.086.035-.173.048-.26l.026-.234v-.117-.365a3.516 3.516 0 000-.373c.039-.034.03-.073.026-.112zM12.625 52.54l-.638.173-.282-.16-.855 2.195 2.824 1.644 1.029-2.642-2.078-1.21zM21.917 36.363l2.117 1.228 1.774-2.221-2.824-1.64-1.51 1.883.287.169.156.581z" fill="#E0E0E0"/><path d="M13.974 52.171l-1.35.369 2.079 1.21a4.737 4.737 0 01-.73-1.579zM22.29 37.751c.38-.104.772-.166 1.167-.182H24.025l-2.117-1.228.382 1.41zM14.047 47.872c.04-.16.079-.325.122-.49l.065-.243c.13-.451.282-.898.456-1.34l-2.811-1.645c0 .044-.035.083-.048.126-.013.044-.048.135-.074.204l-.13.36-.026.078c-.022.056-.035.113-.057.174-.039.134-.082.264-.121.399-.01.038-.021.076-.035.113 0 .043 0 .086-.03.13-.043.165-.087.33-.122.494 0 .048-.026.096-.034.143-.017.063-.03.127-.04.191l2.825 1.644c0-.112.026-.225.06-.338zM17.11 41.586c.239-.3.486-.581.742-.867l.078-.087.282-.286.117-.122c.17-.165.343-.325.516-.481l-2.824-1.64c-.173.152-.347.316-.516.481l-.048.044-.234.238-.121.126c-.13.143-.265.286-.39.434-.144.16-.283.33-.434.499l2.832 1.661zM13.965 48.21l-2.824-1.644-1.987 1.753 2.824 1.64 1.987-1.749z" fill="#E0E0E0"/><path d="M11.978 49.959l-2.824-1.64.009 2.755 2.542 1.479.282.16-.009-2.754zM19.366 37.166l-2.824-1.644-.52 2.59 2.823 1.64.521-2.586z" fill="#E0E0E0"/><path d="M21.76 35.782l-.286-.17-2.538-1.474-2.394 1.384 2.824 1.644 2.395-1.384zM13.64 44.35l-2.824-1.645 1.04 1.45 2.825 1.643-1.041-1.448zM17.11 41.586l-2.824-1.644-1.783-.16 2.824 1.64 1.783.164z" fill="#E0E0E0"/><path d="M15.327 41.421l-2.824-1.64-1.687 2.925 2.824 1.644 1.687-2.929zM27.218 44.523l1.987-1.735v-2.755l-1.987.547a4.772 4.772 0 00-.729-1.58l.174-.433.867-2.2-1.7-.971-1.805 2.195H23.461a5.208 5.208 0 00-1.171.16l-.378-1.396-.156-.582-2.394 1.384-.52 2.603c-.174.156-.348.317-.517.481l-.117.122-.282.286-.078.087c-.256.278-.503.56-.742.867l-1.757-.182-1.688 2.928 1.042 1.45c-.174.442-.326.889-.456 1.34l-.065.243c-.043.165-.082.33-.121.49a5.78 5.78 0 00-.074.338L12 49.946V52.7l.638-.173 1.349-.369c.143.567.39 1.102.729 1.579l-1.041 2.668 1.7.967 1.51-1.882.264-.33a4.742 4.742 0 001.735-.178l.534 1.983 2.395-1.384.52-2.603a13.923 13.923 0 001.736-1.83l1.787.16 1.687-2.924-1.04-1.445c.309-.782.549-1.59.715-2.416zm-3.366.434l-.026.234c0 .087-.03.174-.048.26-.017.087-.022.122-.035.183l-.039.169-.065.234-.04.135c-.03.086-.055.177-.09.264l-.04.108a7.815 7.815 0 01-.142.36v.044c-.048.104-.096.212-.148.317l-.052.1c-.048.1-.104.195-.156.294l-.035.057a5.447 5.447 0 01-.208.338l-.06.096-.166.234-.09.126c-.048.065-.1.126-.148.186-.048.061-.087.109-.13.156-.044.048-.083.096-.126.144a20.37 20.37 0 01-.217.234 2.056 2.056 0 01-.139.139l-.113.104-.082.074a6.693 6.693 0 01-.325.264l-.096.07-.1.073c-.104.07-.208.14-.312.2-.122.07-.248.134-.377.19l-.16.066-.235.078-.143.043-.135.026a1.15 1.15 0 01-.169.026h-.36a2.178 2.178 0 01-.243-.03h-.052a1.12 1.12 0 01-.182-.052h-.06a1.292 1.292 0 01-.21-.096 2.091 2.091 0 01-.945-1.657 3.884 3.884 0 01-.026-.46 7.218 7.218 0 013.275-5.674c.14-.08.285-.153.434-.217a2.034 2.034 0 012.004.065l.096.07c.039.03.07.065.104.095l.087.087c.032.037.063.077.09.117.022.03.053.06.074.096.03.046.055.094.079.143.022.034.043.07.06.108.026.052.044.109.065.16.022.053.03.079.048.122.018.044.03.126.048.187.017.06 0 .082.03.126.016.075.028.152.035.23v.117c.007.124.007.248 0 .373.006.151.004.303-.004.455v.009z" fill="#E0E0E0"/><path opacity=".2" d="M17.15 55.147l-.265.33 2.537 1.475-.533-1.983a4.742 4.742 0 01-1.74.178zM27.21 40.562l1.986-.546-2.542-1.475-.174.434a4.77 4.77 0 01.73 1.587zM23.843 43.977a1.956 1.956 0 00-.035-.23c0-.044 0-.083-.03-.126-.03-.044-.03-.126-.048-.187-.017-.06-.035-.078-.048-.121a1.142 1.142 0 00-.125-.27 1.503 1.503 0 00-.078-.142c0-.035-.053-.065-.074-.096a1.34 1.34 0 00-.091-.117l-.087-.087c-.035-.03-.065-.065-.104-.095l-.096-.07a2.035 2.035 0 00-2.004-.065c.018.144.029.29.03.434v.477c0 .079 0 .157-.03.239-.03.082-.026.173-.043.26-.018.087 0 .122-.035.178-.035.056-.026.113-.043.17-.018.056-.04.156-.061.234-.012.045-.026.09-.043.134a4.768 4.768 0 01-.087.265l-.04.108a5.177 5.177 0 01-.142.36.39.39 0 010 .044 6.96 6.96 0 01-.148.316l-.052.1c-.052.1-.104.2-.16.295 0 .022 0 .039-.03.06l-.209.335-.065.095a4.62 4.62 0 01-.16.239l-.092.121c-.052.065-.1.13-.151.191l-.126.156-.126.143c-.074.078-.143.157-.221.235l-.17.169-.112.104c-.061.056-.122.113-.187.165l-.113.09c-.065.057-.134.105-.204.157l-.1.074-.312.195c-.098.058-.2.11-.303.156l-.074.04-.07.025a2.09 2.09 0 00.946 1.657c.067.038.136.07.208.096h.052c.06.022.12.04.183.052h.047c.08.015.162.025.243.03h.352c.057-.004.113-.013.169-.026l.13-.026.143-.043.234-.078.16-.065.079-.035.3-.156c.104-.06.208-.13.312-.2l.1-.074.095-.069.113-.082.108-.096.104-.087.083-.073.113-.104c.047-.044.09-.092.138-.14.048-.047.148-.151.217-.233.07-.083.087-.091.126-.144.043-.046.087-.098.13-.156.048-.06.1-.121.148-.186l.09-.126.166-.234.06-.096c.074-.113.143-.221.208-.338l.035-.056c.052-.1.109-.196.156-.295l.053-.1c.052-.104.1-.213.147-.317v-.043c.052-.122.1-.243.143-.36l.04-.109c.034-.087.06-.178.09-.265l.04-.134.064-.234.04-.17c0-.06.025-.12.034-.182 0-.086.035-.173.048-.26l.026-.234v-.117-.365a3.516 3.516 0 000-.373c.039-.034.03-.073.026-.112zM12.625 52.54l-.638.173-.282-.16-.855 2.195 2.824 1.644 1.029-2.642-2.078-1.21z" fill="#000"/><path opacity=".2" d="M13.974 52.171l-1.35.369 2.079 1.21a4.737 4.737 0 01-.73-1.579zM22.29 37.751c.38-.104.772-.166 1.167-.182H24.025l-2.117-1.228.382 1.41zM14.047 47.872c.04-.16.079-.325.122-.49l.065-.243c.13-.451.282-.898.456-1.34l-2.811-1.645c0 .044-.035.083-.048.126-.013.044-.048.135-.074.204l-.13.36-.026.078c-.022.056-.035.113-.057.174-.039.134-.082.264-.121.399-.01.038-.021.076-.035.113 0 .043 0 .086-.03.13-.043.165-.087.33-.122.494 0 .048-.026.096-.034.143-.017.063-.03.127-.04.191l2.825 1.644c0-.112.026-.225.06-.338zM11.978 49.959l-2.824-1.64.009 2.755 2.542 1.479.282.16-.009-2.754zM19.366 37.166l-2.824-1.644-.52 2.59 2.823 1.64.521-2.586z" fill="#000"/><path opacity=".2" d="M13.64 44.35l-2.824-1.645 1.04 1.45 2.825 1.643-1.041-1.448zM17.11 41.586l-2.824-1.644-1.783-.16 2.824 1.64 1.783.164z" fill="#000"/><path opacity=".2" d="M21.917 36.363l2.117 1.228 1.774-2.221-2.824-1.64-1.51 1.883.287.169.156.581zM17.11 41.586c.239-.3.486-.581.742-.867l.078-.087.282-.286.117-.122c.17-.165.343-.325.516-.481l-2.824-1.64c-.173.152-.347.316-.516.481l-.048.044-.234.238-.121.126c-.13.143-.265.286-.39.434-.144.16-.283.33-.434.499l2.832 1.661zM13.965 48.21l-2.824-1.644-1.987 1.753 2.824 1.64 1.987-1.749z" fill="#fff"/><path opacity=".2" d="M21.76 35.782l-.286-.17-2.538-1.474-2.394 1.384 2.824 1.644 2.395-1.384zM15.327 41.421l-2.824-1.64-1.687 2.925 2.824 1.644 1.687-2.929z" fill="#fff"/><path d="M37.04 45.59l-.187.234 1.796 1.041-.378-1.4c-.4.115-.817.158-1.232.125zM44.15 35.274l1.405-.386-1.8-1.041-.122.312c.24.337.415.715.516 1.115zM41.768 37.69c0-.056 0-.112-.026-.164a.629.629 0 000-.087c0-.048-.022-.091-.035-.135a.465.465 0 00-.035-.082.924.924 0 00-.043-.117l-.044-.078a.737.737 0 00-.108-.17l-.06-.082-.066-.06s-.043-.048-.07-.07l-.069-.048a1.436 1.436 0 00-1.418-.043c.007.107.007.214 0 .321v.256a.54.54 0 000 .082v.165c0 .052-.022.126-.03.187l-.027.126a.994.994 0 01-.03.121c0 .056-.026.108-.043.165a.821.821 0 01-.03.095c0 .065-.04.126-.061.187l-.026.078-.105.256v.026a3.61 3.61 0 01-.108.225.57.57 0 01-.035.074c-.034.07-.074.14-.112.209v.039a4.37 4.37 0 01-.148.238c-.052.078-.03.043-.043.07l-.117.164-.066.087-.104.135-.09.112-.092.1c-.048.057-.1.113-.152.165l-.1.1-.078.07c-.043.043-.086.077-.13.116l-.078.065-.147.109-.07.052c-.075.052-.149.1-.22.143l-.213.109-.057.026h-.048a1.474 1.474 0 00.668 1.17c.047.03.096.053.148.07h.035l.125.035h.035c.058.005.116.005.174 0h.251l.122-.022h.095l.104-.03.16-.056.114-.048h.052c.073-.034.144-.071.212-.113a2.75 2.75 0 00.221-.139l.074-.052.065-.052.078-.056.078-.065.074-.065.06-.053.079-.073.1-.096.152-.164.09-.105c.032-.034.061-.07.087-.108.039-.043.075-.088.109-.135l.065-.086.113-.17.048-.065c.047-.078.1-.156.143-.238l.026-.044c.039-.065.073-.134.112-.208 0 0 0-.043.035-.07.035-.025.074-.147.104-.225v-.03c.04-.083.074-.17.104-.252a.573.573 0 01.03-.078c0-.06.04-.126.062-.186l.03-.096c0-.056.03-.113.043-.165 0-.043 0-.082.03-.121.01-.042.017-.084.022-.126 0-.06.026-.126.035-.187v-.164a.596.596 0 000-.083v-.256a2.68 2.68 0 000-.269l-.03-.06zM33.829 43.746l-.451.122-.195-.113-.608 1.553 1.996 1.163.733-1.87-1.475-.855zM40.406 32.303l1.496.867 1.258-1.57-2-1.163-1.067 1.336.2.118.113.412z" fill="#E0E0E0"/><path d="M34.788 43.486l-.959.26 1.47.868a3.261 3.261 0 01-.511-1.128zM40.67 33.292c.27-.076.548-.12.829-.13h.043c.058-.005.116-.005.174 0h.186l-1.496-.868.264.998zM34.831 40.445c.026-.117.056-.23.087-.347 0-.06.03-.117.048-.173.09-.317.195-.634.32-.95l-2-1.163-.034.091-.052.143-.091.256v.052c0 .018-.026.083-.04.126-.012.044-.06.187-.086.282l-.026.078v.096c-.03.117-.06.23-.087.347a.905.905 0 01-.026.104l-.026.134 2 1.163c-.026-.082-.004-.16.013-.239zM37.005 36.016c.169-.212.342-.412.524-.607l.052-.061.204-.208.083-.083a9.03 9.03 0 01.364-.342l-2-1.159a19.09 19.09 0 00-.399.37l-.165.173-.086.086-.278.308-.295.356 1.995 1.167zM34.779 40.684l-2-1.163-1.405 1.237 2 1.162 1.405-1.236zM33.373 41.92l-2-1.162.005 1.947 1.805 1.05.195.113-.005-1.948zM38.6 32.871l-1.999-1.163-.369 1.831 2 1.158.369-1.826z" fill="#E0E0E0"/><path d="M40.293 31.89l-.2-.117-1.796-1.045-1.696.98 2 1.163 1.692-.98zM34.55 37.95l-2-1.162.737 1.024 2 1.163-.738-1.024zM37.005 35.994l-2-1.158-1.258-.117 1.995 1.163 1.263.112z" fill="#E0E0E0"/><path opacity=".2" d="M37.04 45.59l-.187.234 1.796 1.041-.378-1.4c-.4.115-.817.158-1.232.125zM44.15 35.274l1.405-.386-1.8-1.041-.122.312c.24.337.415.715.516 1.115zM41.768 37.69c0-.056 0-.112-.026-.164a.629.629 0 000-.087c0-.048-.022-.091-.035-.135a.465.465 0 00-.035-.082.924.924 0 00-.043-.117l-.044-.078a.737.737 0 00-.108-.17l-.06-.082-.066-.06s-.043-.048-.07-.07l-.069-.048a1.436 1.436 0 00-1.418-.043c.007.107.007.214 0 .321v.256a.54.54 0 000 .082v.165c0 .052-.022.126-.03.187l-.027.126a.994.994 0 01-.03.121c0 .056-.026.108-.043.165a.821.821 0 01-.03.095c0 .065-.04.126-.061.187l-.026.078-.105.256v.026a3.61 3.61 0 01-.108.225.57.57 0 01-.035.074c-.034.07-.074.14-.112.209v.039a4.37 4.37 0 01-.148.238c-.052.078-.03.043-.043.07l-.117.164-.066.087-.104.135-.09.112-.092.1c-.048.057-.1.113-.152.165l-.1.1-.078.07c-.043.043-.086.077-.13.116l-.078.065-.147.109-.07.052c-.075.052-.149.1-.22.143l-.213.109-.057.026h-.048a1.474 1.474 0 00.668 1.17c.047.03.096.053.148.07h.035l.125.035h.035c.058.005.116.005.174 0h.251l.122-.022h.095l.104-.03.16-.056.114-.048h.052c.073-.034.144-.071.212-.113a2.75 2.75 0 00.221-.139l.074-.052.065-.052.078-.056.078-.065.074-.065.06-.053.079-.073.1-.096.152-.164.09-.105c.032-.034.061-.07.087-.108.039-.043.075-.088.109-.135l.065-.086.113-.17.048-.065c.047-.078.1-.156.143-.238l.026-.044c.039-.065.073-.134.112-.208 0 0 0-.043.035-.07.035-.025.074-.147.104-.225v-.03c.04-.083.074-.17.104-.252a.573.573 0 01.03-.078c0-.06.04-.126.062-.186l.03-.096c0-.056.03-.113.043-.165 0-.043 0-.082.03-.121.01-.042.017-.084.022-.126 0-.06.026-.126.035-.187v-.164a.596.596 0 000-.083v-.256a2.68 2.68 0 000-.269l-.03-.06zM33.829 43.746l-.451.122-.195-.113-.608 1.553 1.996 1.163.733-1.87-1.475-.855z" fill="#000"/><path opacity=".2" d="M34.788 43.486l-.959.26 1.47.868a3.261 3.261 0 01-.511-1.128zM40.67 33.292c.27-.076.548-.12.829-.13h.043c.058-.005.116-.005.174 0h.186l-1.496-.868.264.998zM34.831 40.445c.026-.117.056-.23.087-.347 0-.06.03-.117.048-.173.09-.317.195-.634.32-.95l-2-1.163-.034.091-.052.143-.091.256v.052c0 .018-.026.083-.04.126-.012.044-.06.187-.086.282l-.026.078v.096c-.03.117-.06.23-.087.347a.905.905 0 01-.026.104l-.026.134 2 1.163c-.026-.082-.004-.16.013-.239zM33.373 41.92l-2-1.162.005 1.947 1.805 1.05.195.113-.005-1.948zM38.6 32.871l-1.999-1.163-.369 1.831 2 1.158.369-1.826zM34.55 37.95l-2-1.162.737 1.024 2 1.163-.738-1.024zM37.005 35.994l-2-1.158-1.258-.117 1.995 1.163 1.263.112z" fill="#000"/><path d="M35.742 35.882l-1.995-1.163-1.198 2.07 2 1.162 1.193-2.07z" fill="#E0E0E0"/><path opacity=".2" d="M40.406 32.303l1.496.867 1.258-1.57-2-1.163-1.067 1.336.2.118.113.412zM37.005 36.016c.169-.212.342-.412.524-.607l.052-.061.204-.208.083-.083a9.03 9.03 0 01.364-.342l-2-1.159a19.09 19.09 0 00-.399.37l-.165.173-.086.086-.278.308-.295.356 1.995 1.167zM34.779 40.684l-2-1.163-1.405 1.237 2 1.162 1.405-1.236z" fill="#fff"/><path opacity=".2" d="M40.293 31.89l-.2-.117-1.796-1.045-1.696.98 2 1.163 1.692-.98zM35.742 35.882l-1.995-1.163-1.198 2.07 2 1.162 1.193-2.07z" fill="#fff"/><path d="M44.154 38.077l1.405-1.241v-1.948l-1.405.386a3.332 3.332 0 00-.517-1.119l.122-.312.607-1.558-1.201-.685-1.258 1.57h-.187a1.142 1.142 0 00-.173 0h-.044c-.28.011-.558.055-.828.13l-.265-.989-.108-.433-1.697.98-.368 1.826a9.106 9.106 0 00-.365.343l-.082.082-.204.209-.052.06a10.13 10.13 0 00-.525.608l-1.263-.117-1.193 2.069.738 1.024c-.126.316-.23.633-.321.95 0 .056-.035.117-.048.173-.013.057-.06.23-.086.347-.026.117-.04.156-.053.239l-1.405 1.236v1.948l.434-.121.958-.26c.099.4.273.778.512 1.114l-.728 1.87 1.206.685 1.067-1.332.186-.234c.415.033.833-.01 1.232-.126l.378 1.402 1.696-.977.364-1.83c.449-.395.86-.83 1.228-1.302l1.262.113 1.193-2.069-.733-1.024c.223-.546.397-1.11.52-1.687zm-2.382.299v.165c0 .056-.022.126-.035.186a1.301 1.301 0 01-.021.126c0 .04 0 .078-.03.122-.031.043-.031.108-.044.164l-.03.096c0 .06-.04.126-.061.187a.573.573 0 00-.03.078c-.03.082-.066.169-.105.251v.03c-.03.079-.07.152-.104.226-.034.074-.026.048-.034.07a3 3 0 01-.113.208l-.026.043c-.044.083-.096.16-.143.239l-.048.065-.113.169-.065.087a1.63 1.63 0 01-.109.134 1.054 1.054 0 01-.086.109l-.091.104-.152.165-.1.095-.078.074-.06.052c-.075.065-.153.13-.23.186l-.066.052-.074.052c-.069.048-.143.096-.22.14-.086.05-.175.094-.265.134l-.113.048-.165.056-.104.03h-.096l-.121.022h-.3a1.118 1.118 0 01-.173 0h-.039l-.126-.035h-.043a.654.654 0 01-.148-.07 1.476 1.476 0 01-.668-1.17 2.528 2.528 0 010-.321 5.119 5.119 0 012.321-4.017c.1-.058.205-.109.313-.152a1.436 1.436 0 011.418.043l.07.048c.026 0 .047.047.069.07l.065.06.06.082a.735.735 0 01.11.17l.043.078a.934.934 0 01.043.117.465.465 0 01.035.082c0 .044.021.087.034.135a.627.627 0 010 .086c0 .053 0 .109.026.165v.078c.005.09.005.18 0 .27.013.104.02.21.022.316zM183.392 93.387l.169.208-1.605.928.339-1.249a3.07 3.07 0 001.097.113zM177.041 84.168l-1.258-.342 1.605-.933.113.282c-.213.3-.369.637-.46.993zM179.167 86.338c.003-.05.01-.1.022-.148v-.078c.012-.04.022-.08.03-.121 0-.026 0-.048.03-.074a.998.998 0 01.044-.104c0-.022.026-.044.034-.07l.052-.087a.365.365 0 01.048-.06.418.418 0 01.057-.074l.056-.056.061-.061.065-.043a1.27 1.27 0 011.262-.04v.517a.453.453 0 000 .073v.148l.026.165c0 .039 0 .078.022.113l.026.108c0 .048.026.1.043.148l.026.086c0 .052.035.109.057.165a.402.402 0 000 .07l.091.225v.026c.03.07.06.135.095.204.035.07.022.039.031.06l.099.187a.127.127 0 010 .04l.13.212.044.06.1.148.06.078.091.122.083.095.078.091.139.148.087.086.069.066.117.104.074.056.13.1.061.047c.064.045.13.086.199.122.062.037.126.07.191.1h.091a1.302 1.302 0 01-.598 1.045l-.131.061h-.034l-.113.03h-.03a.915.915 0 01-.157 0H181.713a.709.709 0 01-.091-.026l-.147-.047-.104-.044-.048-.022c-.061-.03-.126-.06-.191-.1-.065-.038-.13-.077-.195-.12l-.061-.048-.065-.048-.069-.052-.07-.057-.065-.056h.022l-.07-.065a.757.757 0 01-.086-.087c-.048-.048-.096-.095-.139-.147l-.078-.091c-.031-.03-.057-.066-.083-.096l-.095-.121-.057-.078-.104-.148-.039-.06-.13-.213-.022-.04c-.034-.06-.069-.12-.099-.186a.45.45 0 01-.031-.06c-.034-.066-.065-.135-.095-.2v-.03a2.363 2.363 0 01-.091-.226l-.026-.07c0-.056-.039-.108-.057-.164l-.026-.087-.039-.147-.026-.109v-.113c0-.056-.021-.108-.03-.165v-.147-.074a1.261 1.261 0 010-.23 2.374 2.374 0 010-.238l-.039-.078zM186.251 91.738l.403.113.178-.104.542 1.388-1.787 1.037-.651-1.67 1.315-.764zM180.382 81.522l-1.337.777-1.123-1.406 1.787-1.037.95 1.193-.178.104-.099.37z" fill="#E0E0E0"/><path d="M185.401 91.508l.867.23-1.301.764c.207-.3.354-.637.434-.993zM180.143 82.407a3.066 3.066 0 00-.738-.117h-.36l1.337-.776-.239.893zM185.357 88.793c0-.104-.047-.208-.074-.312 0-.052-.03-.1-.043-.152a13.489 13.489 0 00-.286-.868l1.783-1.037.03.078.048.13.078.226.022.052.03.109c.026.086.056.169.078.256.01.022.017.045.022.069v.082c.026.105.052.209.074.313l.026.09c.009.04.016.081.021.122l-1.765 1.055c0-.066-.026-.144-.044-.213zM183.418 84.82a9.746 9.746 0 00-.468-.539l-.048-.056-.178-.182-.078-.074a5.692 5.692 0 00-.325-.308l1.783-1.037.329.304.031.03.143.152.078.078a9.65 9.65 0 01.512.59l-1.779 1.041zM185.405 89.005l1.783-1.036 1.254 1.106-1.783 1.032-1.254-1.102zM186.659 90.107l1.783-1.032-.005 1.735-1.605.937-.178.104.005-1.744zM181.995 82.03l1.783-1.037.326 1.631-1.783 1.037-.326-1.631z" fill="#E0E0E0"/><path d="M180.481 81.154l.178-.105 1.605-.932 1.514.876-1.783 1.037-1.514-.876zM185.609 86.567l1.787-1.036-.659.91-1.783 1.037.655-.91zM183.418 84.82l1.783-1.037 1.128-.105-1.787 1.037-1.124.104z" fill="#E0E0E0"/><path d="M184.542 84.715l1.787-1.037 1.067 1.853-1.787 1.036-1.067-1.852z" fill="#E0E0E0"/><path d="M177.484 88.199l-.655.915 1.067 1.848 1.128-.1a8.39 8.39 0 001.093 1.154l.325 1.636 1.514.867.339-1.25c.356.104.727.142 1.097.114l.169.208.955 1.188 1.071-.611-.651-1.67c.217-.299.373-.636.46-.994l.868.23.403.113v-1.735l-1.266-1.106c0-.074-.031-.144-.048-.213-.017-.07-.048-.208-.074-.312-.026-.105-.03-.1-.043-.152a13.514 13.514 0 00-.287-.868l.656-.91-1.072-1.836-1.124.104a9.31 9.31 0 00-.468-.538l-.048-.056-.178-.182-.078-.074a5.378 5.378 0 00-.325-.308l-.325-1.631-1.514-.868-.1.369-.239.868a3.066 3.066 0 00-.737-.118h-.36l-1.124-1.405-1.071.616.538 1.388.112.282c-.213.3-.368.637-.459.993l-1.259-.342v1.735l1.254 1.106c.106.528.258 1.044.456 1.545zm1.661-1.558a2.374 2.374 0 010-.238v-.07c.003-.05.01-.099.022-.147v-.078c.012-.04.022-.08.03-.122 0-.026 0-.047.031-.074a.993.993 0 01.043-.104c0-.021.026-.043.035-.07l.052-.086a.315.315 0 01.047-.06.54.54 0 01.057-.074l.056-.057.061-.06.065-.044a1.272 1.272 0 011.262-.039c.092.04.187.083.282.135a4.565 4.565 0 012.07 3.587v.286a1.307 1.307 0 01-.599 1.046l-.13.06h-.039l-.113.031h-.035a.903.903 0 01-.156 0H181.77a.695.695 0 01-.091-.026l-.148-.048-.104-.043a2.554 2.554 0 01-.239-.121c-.065-.035-.13-.079-.195-.122l-.061-.048-.065-.047-.204-.165-.034-.035-.07-.065a.758.758 0 01-.086-.087 2.058 2.058 0 01-.139-.147l-.078-.091c-.031-.03-.057-.066-.083-.096l-.095-.121-.057-.078-.104-.148-.039-.06-.13-.213-.022-.04c-.034-.06-.069-.12-.099-.186a.274.274 0 01-.031-.06c-.034-.066-.065-.135-.095-.2v-.03a2.354 2.354 0 01-.091-.226l-.026-.07c0-.056-.039-.108-.057-.164l-.026-.087-.039-.147-.026-.109v-.113c0-.039-.021-.108-.03-.165-.009-.056 0-.1 0-.147a2.433 2.433 0 01-.061-.317z" fill="#E0E0E0"/><path opacity=".2" d="M183.392 93.387l.169.208-1.605.928.339-1.249a3.07 3.07 0 001.097.113zM177.041 84.168l-1.258-.342 1.605-.933.113.282c-.213.3-.369.637-.46.993zM179.167 86.338c.003-.05.01-.1.022-.148v-.078c.012-.04.022-.08.03-.121 0-.026 0-.048.03-.074a.998.998 0 01.044-.104c0-.022.026-.044.034-.07l.052-.087a.365.365 0 01.048-.06.418.418 0 01.057-.074l.056-.056.061-.061.065-.043a1.27 1.27 0 011.262-.04v.517a.453.453 0 000 .073v.148l.026.165c0 .039 0 .078.022.113l.026.108c0 .048.026.1.043.148l.026.086c0 .052.035.109.057.165a.402.402 0 000 .07l.091.225v.026c.03.07.06.135.095.204.035.07.022.039.031.06l.099.187a.127.127 0 010 .04l.13.212.044.06.1.148.06.078.091.122.083.095.078.091.139.148.087.086.069.066.117.104.074.056.13.1.061.047c.064.045.13.086.199.122.062.037.126.07.191.1h.091a1.302 1.302 0 01-.598 1.045l-.131.061h-.034l-.113.03h-.03a.915.915 0 01-.157 0H181.713a.709.709 0 01-.091-.026l-.147-.047-.104-.044-.048-.022c-.061-.03-.126-.06-.191-.1-.065-.038-.13-.077-.195-.12l-.061-.048-.065-.048-.069-.052-.07-.057-.065-.056h.022l-.07-.065a.757.757 0 01-.086-.087c-.048-.048-.096-.095-.139-.147l-.078-.091c-.031-.03-.057-.066-.083-.096l-.095-.121-.057-.078-.104-.148-.039-.06-.13-.213-.022-.04c-.034-.06-.069-.12-.099-.186a.45.45 0 01-.031-.06c-.034-.066-.065-.135-.095-.2v-.03a2.363 2.363 0 01-.091-.226l-.026-.07c0-.056-.039-.108-.057-.164l-.026-.087-.039-.147-.026-.109v-.113c0-.056-.021-.108-.03-.165v-.147-.074a1.261 1.261 0 010-.23 2.374 2.374 0 010-.238l-.039-.078zM186.251 91.738l.403.113.178-.104.542 1.388-1.787 1.037-.651-1.67 1.315-.764z" fill="#000"/><path opacity=".2" d="M185.401 91.508l.867.23-1.301.764c.207-.3.354-.637.434-.993zM180.143 82.407a3.066 3.066 0 00-.738-.117h-.36l1.337-.776-.239.893zM185.357 88.793c0-.104-.047-.208-.074-.312 0-.052-.03-.1-.043-.152a13.489 13.489 0 00-.286-.868l1.783-1.037.03.078.048.13.078.226.022.052.03.109c.026.086.056.169.078.256.01.022.017.045.022.069v.082c.026.105.052.209.074.313l.026.09c.009.04.016.081.021.122l-1.765 1.055c0-.066-.026-.144-.044-.213zM186.659 90.107l1.783-1.032-.005 1.735-1.605.937-.178.104.005-1.744zM181.995 82.03l1.783-1.037.326 1.631-1.783 1.037-.326-1.631z" fill="#000"/><path opacity=".2" d="M185.609 86.567l1.787-1.036-.659.91-1.783 1.037.655-.91zM183.418 84.82l1.783-1.037 1.128-.105-1.787 1.037-1.124.104z" fill="#000"/><path opacity=".2" d="M180.382 81.522l-1.337.777-1.123-1.406 1.787-1.037.95 1.193-.178.104-.099.37zM183.418 84.82a9.746 9.746 0 00-.468-.539l-.048-.056-.178-.182-.078-.074a5.692 5.692 0 00-.325-.308l1.783-1.037.329.304.031.03.143.152.078.078a9.65 9.65 0 01.512.59l-1.779 1.041zM185.405 89.005l1.783-1.036 1.254 1.106-1.783 1.032-1.254-1.102z" fill="#fff"/><path opacity=".2" d="M180.481 81.154l.178-.105 1.605-.932 1.514.876-1.783 1.037-1.514-.876zM184.542 84.715l1.787-1.037 1.067 1.853-1.787 1.036-1.067-1.852z" fill="#fff"/><path d="M191.04 105.16l.113.144-1.106.646.23-.868c.247.074.506.1.763.078zM186.654 98.788l-.867-.239 1.11-.646.078.195a2.047 2.047 0 00-.321.69zM188.121 100.28a.557.557 0 010-.1v-.056c0-.026 0-.057.021-.083a.318.318 0 01.022-.052l.026-.069.026-.048s.022-.043.035-.06l.034-.044.039-.052.04-.035a.188.188 0 01.043-.043l.043-.03a.872.872 0 01.868-.03v.511a.867.867 0 00.022.113v.156c0 .026 0 .065.03.1a.31.31 0 000 .061.438.438 0 00.039.112v.048l.065.161.065.138.022.044.069.13v.026c.026.048.057.095.087.143l.03.044.07.104.043.052a.545.545 0 00.061.082l.056.07.057.06.095.104.061.061.048.043.082.074.048.039.091.07.043.03.135.087.134.069h.061a.908.908 0 01-.412.725l-.091.043h-.026l-.078.022h-.026a.46.46 0 01-.105 0h-.351l-.104-.035-.069-.03h-.035l-.13-.07-.139-.086-.044-.031.083-.026-.048-.039-.052-.039-.043-.039-.035-.03-.048-.048-.065-.061-.095-.1-.048-.078-.056-.065-.065-.082-.039-.057-.074-.104-.026-.039-.091-.147v-.026c-.026-.044-.048-.087-.07-.13a.162.162 0 010-.044.766.766 0 01-.065-.139c-.026-.052-.043-.104-.065-.156-.022-.052 0-.034 0-.047l-.039-.118v-.056l-.026-.104a.457.457 0 010-.074v-.078-.113a.902.902 0 010-.104v-.052-.156-.165c0-.052-.134-.035-.134-.052zM193.027 104.019l.278.078.121-.069.373.959-1.232.716-.451-1.154.911-.53zM188.962 96.953l-.924.538-.776-.972 1.236-.716.659.824-.125.07-.07.256z" fill="#E0E0E0"/><path d="M192.433 103.859l.594.165-.911.525c.149-.208.256-.442.317-.69zM188.802 97.564a2.224 2.224 0 00-.512-.078h-.252l.924-.538-.16.617zM192.407 101.985l-.052-.217c0-.035 0-.069-.031-.108a6.039 6.039 0 00-.199-.586l1.236-.716a.226.226 0 000 .052l.03.091c0 .052.039.104.057.156v.035c0 .026 0 .052.021.078.022.026.039.117.057.174v.108c.021.07.039.143.056.213v.065a.561.561 0 010 .082l-1.232.716c.078-.048.07-.095.057-.143zM191.066 99.235a5.35 5.35 0 00-.325-.373l-.035-.04-.121-.125-.052-.052-.226-.213 1.232-.716.226.213h.021l.104.104.052.056c.057.061.118.126.17.191l.182.221-1.228.734zM192.441 102.128l1.232-.716.868.764-1.232.72-.868-.768z" fill="#E0E0E0"/><path d="M193.309 102.896l1.232-.72-.004 1.206-1.111.646-.121.07.004-1.202zM190.081 97.304l1.232-.716.226 1.128-1.232.716-.226-1.128z" fill="#E0E0E0"/><path d="M189.032 96.697l.125-.07 1.111-.646 1.045.607-1.232.716-1.049-.607zM192.58 100.44l1.236-.715-.455.633-1.236.716.455-.634zM191.066 99.235l1.232-.716.781-.074-1.236.72-.777.07z" fill="#E0E0E0"/><path d="M191.843 99.165l1.236-.72.737 1.28-1.236.716-.737-1.276z" fill="#E0E0E0"/><path d="M186.962 101.573l-.455.633.737 1.28.781-.074c.226.291.478.56.755.803l.226 1.128 1.049.607.23-.868c.248.074.507.1.764.078l.113.144.663.824.742-.434-.434-1.154a1.98 1.98 0 00.317-.69l.594.165.278.074v-1.202l-.868-.768c0-.047-.021-.095-.034-.143l-.052-.217c0-.034 0-.069-.031-.108a6.132 6.132 0 00-.199-.586l.455-.633-.737-1.276-.777.07a5.326 5.326 0 00-.325-.373l-.035-.04-.121-.125-.052-.052-.226-.213-.226-1.127-1.049-.608-.07.256-.16.612a2.224 2.224 0 00-.512-.078h-.252l-.776-.972-.742.434.373.959.078.195a2.024 2.024 0 00-.317.69l-.867-.24v1.207l.867.763c.068.361.167.715.295 1.059zm1.146-1.076v-.165-.052a.557.557 0 010-.1v-.056c0-.026 0-.056.021-.083a.318.318 0 01.022-.052l.026-.069.026-.048s.022-.043.035-.06l.034-.044.039-.052.039-.035a.215.215 0 01.044-.043l.043-.03a.869.869 0 01.868-.03l.195.095a3.146 3.146 0 011.432 2.681.917.917 0 01-.412.724l-.092.044h-.026l-.078.021h-.026a.452.452 0 01-.104 0h-.351l-.104-.035-.07-.03a1.056 1.056 0 01-.165-.082l-.138-.087-.044-.03-.017-.057-.143-.117-.035-.03-.048-.048-.065-.061-.095-.1-.048-.078-.056-.065-.065-.082-.039-.057-.074-.104-.026-.039-.091-.147v-.026c-.026-.044-.048-.087-.07-.13a.162.162 0 010-.044.766.766 0 01-.065-.139c-.026-.052-.043-.104-.065-.156-.022-.052 0-.034 0-.047l-.039-.118v-.056l-.026-.104-.022-.074v-.078-.113a.902.902 0 010-.104 1.819 1.819 0 01-.125-.208z" fill="#E0E0E0"/><path opacity=".2" d="M191.04 105.16l.113.144-1.106.646.23-.868c.247.074.506.1.763.078zM186.654 98.788l-.867-.239 1.11-.646.078.195a2.047 2.047 0 00-.321.69zM188.121 100.28a.557.557 0 010-.1v-.056c0-.026 0-.057.021-.083a.318.318 0 01.022-.052l.026-.069.026-.048s.022-.043.035-.06l.034-.044.039-.052.04-.035a.188.188 0 01.043-.043l.043-.03a.872.872 0 01.868-.03v.511a.867.867 0 00.022.113v.156c0 .026 0 .065.03.1a.31.31 0 000 .061.438.438 0 00.039.112v.048l.065.161.065.138.022.044.069.13v.026c.026.048.057.095.087.143l.03.044.07.104.043.052a.545.545 0 00.061.082l.056.07.057.06.095.104.061.061.048.043.082.074.048.039.091.07.043.03.135.087.134.069h.061a.908.908 0 01-.412.725l-.091.043h-.026l-.078.022h-.026a.46.46 0 01-.105 0h-.351l-.104-.035-.069-.03h-.035l-.13-.07-.139-.086-.044-.031.083-.026-.048-.039-.052-.039-.043-.039-.035-.03-.048-.048-.065-.061-.095-.1-.048-.078-.056-.065-.065-.082-.039-.057-.074-.104-.026-.039-.091-.147v-.026c-.026-.044-.048-.087-.07-.13a.162.162 0 010-.044.766.766 0 01-.065-.139c-.026-.052-.043-.104-.065-.156-.022-.052 0-.034 0-.047l-.039-.118v-.056l-.026-.104a.457.457 0 010-.074v-.078-.113a.902.902 0 010-.104v-.052-.156-.165c0-.052-.134-.035-.134-.052zM193.027 104.019l.278.078.121-.069.373.959-1.232.716-.451-1.154.911-.53z" fill="#000"/><path opacity=".2" d="M192.433 103.859l.594.165-.911.525c.149-.208.256-.442.317-.69zM188.802 97.564a2.224 2.224 0 00-.512-.078h-.252l.924-.538-.16.617zM192.407 101.985l-.052-.217c0-.035 0-.069-.031-.108a6.039 6.039 0 00-.199-.586l1.236-.716a.226.226 0 000 .052l.03.091c0 .052.039.104.057.156v.035c0 .026 0 .052.021.078.022.026.039.117.057.174v.108c.021.07.039.143.056.213v.065a.561.561 0 010 .082l-1.232.716c.078-.048.07-.095.057-.143zM193.309 102.896l1.232-.72-.004 1.206-1.111.646-.121.07.004-1.202zM190.081 97.304l1.232-.716.226 1.128-1.232.716-.226-1.128zM192.58 100.44l1.236-.715-.455.633-1.236.716.455-.634zM191.066 99.235l1.232-.716.781-.074-1.236.72-.777.07z" fill="#000"/><path opacity=".2" d="M188.962 96.953l-.924.538-.776-.972 1.236-.716.659.824-.125.07-.07.256zM191.066 99.235a5.35 5.35 0 00-.325-.373l-.035-.04-.121-.125-.052-.052-.226-.213 1.232-.716.226.213h.021l.104.104.052.056c.057.061.118.126.17.191l.182.221-1.228.734zM192.441 102.128l1.232-.716.868.764-1.232.72-.868-.768z" fill="#fff"/><path opacity=".2" d="M189.032 96.697l.125-.07 1.111-.646 1.045.607-1.232.716-1.049-.607zM191.843 99.165l1.236-.72.737 1.28-1.236.716-.737-1.276z" fill="#fff"/><path d="M180.763 103.599l.096.117-.92.538.191-.72c.206.058.42.08.633.065zM177.111 98.306l-.72-.2.924-.537.06.165a1.733 1.733 0 00-.264.572zM178.334 99.543a.568.568 0 010-.083.158.158 0 010-.043.803.803 0 000-.07v-.043l.026-.06a.192.192 0 01.022-.04l.026-.052.03-.035a.34.34 0 01.03-.043l.031-.03.039-.035.035-.026a.747.747 0 01.728-.022c-.004.055-.004.11 0 .165v.13a.158.158 0 010 .044v.086a1.517 1.517 0 000 .096.354.354 0 000 .065v.06c0 .027 0 .057.022.083a.227.227 0 000 .052c0 .03 0 .06.03.096v.039l.052.13.057.113v.039l.056.104v.021c.022.042.047.083.074.122l.026.035.056.086.035.044.052.069.048.056.043.053.083.086c.014.017.03.033.047.048l.044.039.065.056a.161.161 0 00.043.035c.023.021.048.04.074.057l.035.026.112.073.109.057h.03a.748.748 0 01-.338.603l-.078.034H179.614l-.083-.026-.061-.026h-.026l-.108-.056a1.175 1.175 0 01-.113-.069l-.034-.026-.04-.027-.039-.03-.039-.035-.039-.034-.03-.026-.039-.035-.052-.052-.078-.083-.044-.052-.047-.056a.475.475 0 00-.057-.069l-.03-.048-.061-.083a.193.193 0 000-.034c-.026-.044-.052-.083-.074-.126v-.022l-.06-.104a.103.103 0 000-.035l-.052-.117-.052-.13v-.039c0-.03-.022-.065-.035-.095v-.048a.615.615 0 01-.022-.087.3.3 0 010-.06v-.066-.095-.087-.039-.134-.135c0-.043.031-.017.035-.034zM182.407 102.653l.23.061.1-.057.312.798-1.023.595-.378-.959.759-.438zM179.032 96.78l-.767.446-.647-.807 1.028-.594.547.68-.104.066-.057.208z" fill="#E0E0E0"/><path d="M181.93 102.518l.495.135-.759.434c.124-.171.214-.364.264-.569zM178.894 97.287a1.85 1.85 0 00-.434-.065h-.208l.767-.434-.125.499zM181.891 100.957c0-.057-.026-.117-.043-.178l-.026-.087a4.212 4.212 0 00-.165-.486l1.028-.598a.158.158 0 000 .043l.026.078.048.13a.057.057 0 000 .026.354.354 0 010 .065c0 .048.034.096.047.144v.091c0 .017.031.117.044.178a.226.226 0 010 .052.397.397 0 010 .069l-.92.603c0-.048-.03-.087-.039-.13zM180.776 98.675a5.986 5.986 0 00-.269-.312l-.026-.03-.104-.105-.043-.043-.187-.174 1.024-.598c.065.056.126.117.187.178.03.03.056.06.086.086l.044.048.143.156.147.182-1.002.612z" fill="#E0E0E0"/><path d="M181.917 101.078l1.028-.594.72.633-1.028.599-.72-.638z" fill="#E0E0E0"/><path d="M182.637 101.716l1.028-.599-.004 1.002-.924.538-.1.057v-.998zM179.956 97.07l1.029-.594.186.937-1.024.598-.191-.941z" fill="#E0E0E0"/><path d="M179.089 96.57l.104-.064.92-.534.871.504-1.028.594-.867-.5zM182.039 99.677l1.023-.594-.377.525-1.028.598.382-.529zM180.776 98.675l1.024-.594.646-.061-1.023.599-.647.056z" fill="#E0E0E0"/><path d="M181.423 98.618l1.023-.598.616 1.063-1.023.594-.616-1.059z" fill="#E0E0E0"/><path d="M177.367 100.618l-.378.525.616 1.063.647-.061c.193.245.407.472.642.677l.186.937.868.503.191-.72c.205.059.42.081.633.065l.095.117.547.686.62-.351-.377-.959a1.62 1.62 0 00.265-.573l.494.135.23.06v-.997l-.716-.638c0-.039 0-.078-.026-.121-.026-.044-.026-.118-.043-.178l-.026-.087a4.148 4.148 0 00-.165-.486l.382-.53-.616-1.062-.647.06a5.984 5.984 0 00-.269-.312l-.026-.03-.104-.104-.043-.043-.187-.174-.191-.941-.867-.504-.057.213-.138.508a1.85 1.85 0 00-.434-.066h-.208l-.647-.806-.616.351.313.798.06.165a1.733 1.733 0 00-.264.573l-.72-.2v.998l.72.638c.061.297.147.588.256.871zm.954-.897v-.135-.043a.567.567 0 010-.083.158.158 0 010-.043.803.803 0 000-.07v-.043l.026-.06a.19.19 0 01.022-.04l.026-.052.03-.034a.334.334 0 01.03-.044l.031-.03.039-.035.035-.026a.749.749 0 01.728-.022l.161.078a2.64 2.64 0 011.188 2.061.91.91 0 010 .165.748.748 0 01-.338.603l-.078.035h-.49l-.083-.026-.06-.027a1.227 1.227 0 01-.135-.069 1.175 1.175 0 01-.113-.069l-.034-.026-.039-.026-.117-.1-.031-.026-.039-.035-.052-.052-.078-.082-.043-.052-.048-.057a.374.374 0 00-.057-.069l-.03-.048-.061-.082a.204.204 0 000-.035c-.026-.043-.052-.083-.073-.126v-.022l-.061-.104a.097.097 0 000-.034l-.052-.118-.052-.13v-.039c0-.03-.022-.065-.035-.095v-.048a.79.79 0 01-.022-.087.3.3 0 010-.06v-.065-.096-.087c0-.03-.095-.125-.095-.19z" fill="#E0E0E0"/><path opacity=".2" d="M180.763 103.599l.096.117-.92.538.191-.72c.206.058.42.08.633.065zM177.111 98.306l-.72-.2.924-.537.06.165a1.733 1.733 0 00-.264.572zM178.334 99.543a.568.568 0 010-.083.158.158 0 010-.043.803.803 0 000-.07v-.043l.026-.06a.192.192 0 01.022-.04l.026-.052.03-.035a.34.34 0 01.03-.043l.031-.03.039-.035.035-.026a.747.747 0 01.728-.022c-.004.055-.004.11 0 .165v.13a.158.158 0 010 .044v.086a1.517 1.517 0 000 .096.354.354 0 000 .065v.06c0 .027 0 .057.022.083a.227.227 0 000 .052c0 .03 0 .06.03.096v.039l.052.13.057.113v.039l.056.104v.021c.022.042.047.083.074.122l.026.035.056.086.035.044.052.069.048.056.043.053.083.086c.014.017.03.033.047.048l.044.039.065.056a.161.161 0 00.043.035c.023.021.048.04.074.057l.035.026.112.073.109.057h.03a.748.748 0 01-.338.603l-.078.034H179.614l-.083-.026-.061-.026h-.026l-.108-.056a1.175 1.175 0 01-.113-.069l-.034-.026-.04-.027-.039-.03-.039-.035-.039-.034-.03-.026-.039-.035-.052-.052-.078-.083-.044-.052-.047-.056a.475.475 0 00-.057-.069l-.03-.048-.061-.083a.193.193 0 000-.034c-.026-.044-.052-.083-.074-.126v-.022l-.06-.104a.103.103 0 000-.035l-.052-.117-.052-.13v-.039c0-.03-.022-.065-.035-.095v-.048a.615.615 0 01-.022-.087.3.3 0 010-.06v-.066-.095-.087-.039-.134-.135c0-.043.031-.017.035-.034zM182.407 102.653l.23.061.1-.057.312.798-1.023.595-.378-.959.759-.438z" fill="#000"/><path opacity=".2" d="M181.93 102.518l.495.135-.759.434c.124-.171.214-.364.264-.569zM178.894 97.287a1.85 1.85 0 00-.434-.065h-.208l.767-.434-.125.499zM181.891 100.957c0-.057-.026-.117-.043-.178l-.026-.087a4.212 4.212 0 00-.165-.486l1.028-.598a.158.158 0 000 .043l.026.078.048.13a.057.057 0 000 .026.354.354 0 010 .065c0 .048.034.096.047.144v.091c0 .017.031.117.044.178a.226.226 0 010 .052.397.397 0 010 .069l-.92.603c0-.048-.03-.087-.039-.13zM182.637 101.716l1.028-.599-.004 1.002-.924.538-.1.057v-.998zM179.956 97.07l1.029-.594.186.937-1.024.598-.191-.941z" fill="#000"/><path opacity=".2" d="M182.039 99.677l1.023-.594-.377.525-1.028.598.382-.529zM180.776 98.675l1.024-.594.646-.061-1.023.599-.647.056z" fill="#000"/><path opacity=".2" d="M179.032 96.78l-.767.446-.647-.807 1.028-.594.547.68-.104.066-.057.208zM180.776 98.675a5.986 5.986 0 00-.269-.312l-.026-.03-.104-.105-.043-.043-.187-.174 1.024-.598c.065.056.126.117.187.178.03.03.056.06.086.086l.044.048.143.156.147.182-1.002.612zM181.917 101.078l1.028-.594.72.633-1.028.599-.72-.638z" fill="#fff"/><path opacity=".2" d="M179.089 96.57l.104-.064.92-.534.871.504-1.028.594-.867-.5zM181.423 98.618l1.023-.598.616 1.063-1.023.594-.616-1.059z" fill="#fff"/><path d="M148.332 118.873c-3.037 2.104-6.442 3.562-8.976 6.381-4.724 5.271-4.836 13.748-1.123 19.777 3.713 6.03 10.619 9.648 17.647 10.477 7.375.867 15.118-1.167 20.905-5.822 5.787-4.655 9.483-11.942 9.483-19.374 0-7.431-3.804-14.823-10.025-18.879-5.679-3.7-13.834-4.772-19.521-.52-2.876 2.138-4.798 5.301-7.67 7.448l-.72.512z" fill="#455A64"/><path opacity=".3" d="M148.332 118.873c-3.037 2.104-6.442 3.562-8.976 6.381-4.724 5.271-4.836 13.748-1.123 19.777 3.713 6.03 10.619 9.648 17.647 10.477 7.375.867 15.118-1.167 20.905-5.822 5.787-4.655 9.483-11.942 9.483-19.374 0-7.431-3.804-14.823-10.025-18.879-5.679-3.7-13.834-4.772-19.521-.52-2.876 2.138-4.798 5.301-7.67 7.448l-.72.512z" fill="#fff"/><path opacity=".1" d="M149.568 149.738c0-.052 0-.1.022-.152a7.975 7.975 0 016.464-6.646 25.238 25.238 0 008.277-3.171c1.809-1.093 3.522-2.433 5.548-3.036a9.049 9.049 0 015.978.36 6.943 6.943 0 00-6.941-1.775c1.618-2.477 3.037-5.144 3.596-8.047.56-2.902.165-6.095-1.587-8.476a8.532 8.532 0 00-13.167-.703c-1.735 1.896-2.711 4.568-3.852 6.872-.815 1.657-1.661 3.349-3.01 4.611-2.035 1.904-4.963 2.603-7.071 4.412-2.395 2.06-3.427 5.362-3.436 8.524.033 2.128.336 4.243.902 6.294a24.046 24.046 0 008.655 5.293 9.36 9.36 0 01-.378-4.36z" fill="#000"/><path d="M182.295 129.284a21.69 21.69 0 00-18.494-21.044c-.704.069-1.402.187-2.091.352a21.125 21.125 0 0120.012 20.705c.134 6.911-3.245 13.96-9.045 18.849-4.546 3.831-10.585 6.373-17.218 7.288l.434.052c.599.07 1.197.122 1.796.152 5.896-1.141 11.236-3.57 15.37-7.058 5.917-4.98 9.374-12.203 9.236-19.296z" fill="#fff"/><path d="M141.842 147.426c.217 1.138.34 2.291.369 3.449l.82-.308a2.109 2.109 0 012.273.52l.039.039a.823.823 0 001.419-.542l.112-3.47-5.032.312z" fill="#FFA8A7"/><path d="M145 160.371c-1.696 1.817-4.824 3.405-7.097 1.856l.256.577c2.273 1.549 5.401-.039 7.097-1.856 1.696-1.818.595-3.072 2.126-4.685a5.564 5.564 0 001.301-1.961c-.065-.174-.13-.399-.212-.66a6.94 6.94 0 01-1.362 2.044c-1.51 1.609-.408 2.867-2.109 4.685z" fill="#263238"/><path d="M147.66 151.742a3.256 3.256 0 01-.534-1.236.743.743 0 00-.111-.291.744.744 0 00-.223-.217l-.022.586a.805.805 0 01-.282.594.823.823 0 01-.578.204.823.823 0 01-.558-.256l-.039-.039a2.12 2.12 0 00-1.058-.603 2.1 2.1 0 00-1.215.083l-.833.312a.637.637 0 00-.434.612c.052 2.386-1.059 5.548-2.226 7.283-1.201.499-2.238 2.135-1.709 3.332l.052.121c2.273 1.549 5.401-.039 7.097-1.856 1.697-1.818.599-3.076 2.126-4.685a6.921 6.921 0 001.362-2.044 7.483 7.483 0 00-.815-1.9z" fill="#37474F"/><path d="M144.328 155.182a.29.29 0 00.412-.345.29.29 0 00-.143-.171 3.33 3.33 0 00-3.262 0 15.52 15.52 0 01-.161.56 3.195 3.195 0 013.154-.044zM144.749 153.894a.29.29 0 00.22.016.28.28 0 00.097-.057.29.29 0 00-.053-.475 3.468 3.468 0 00-3.392.03 17.13 17.13 0 01-.117.582 3.231 3.231 0 013.245-.096zM143.872 156.462a.29.29 0 00.389-.124.287.287 0 00-.124-.388 3.305 3.305 0 00-3.193-.034c-.069.203-.147.399-.225.594a3.188 3.188 0 013.153-.048zM139.56 158.783c-1.201.499-2.238 2.134-1.709 3.332l.052.121c2.239 1.527 5.306 0 7.019-1.774-1.431-2.816-4.42-2.113-5.362-1.679zM143.369 157.716a.296.296 0 00.386-.13.29.29 0 00-.121-.386 3.316 3.316 0 00-3.197-.031c-.1.226-.208.434-.313.642a3.226 3.226 0 013.245-.095z" fill="#fff"/><path d="M138.272 154.349a20.91 20.91 0 01-1.054 3.306l.867.048a2.12 2.12 0 011.875 1.392v.057a.823.823 0 001.019.503.804.804 0 00.499-.434l1.505-3.141-4.711-1.731z" fill="#FFA8A7"/><path d="M135.947 167.459c-2.286.976-5.787 1.167-7.24-1.171v.633c1.453 2.334 4.954 2.143 7.24 1.167 2.286-.976 1.787-2.572 3.835-3.431a5.513 5.513 0 001.999-1.263c0-.182.04-.433.074-.685a7.053 7.053 0 01-2.073 1.301c-2.057.89-1.558 2.482-3.835 3.449z" fill="#263238"/><path d="M141.847 160.644a3.312 3.312 0 010-1.345.71.71 0 00-.105-.598l-.242.516a.823.823 0 01-1.233.308.823.823 0 01-.286-.382v-.056a2.126 2.126 0 00-1.874-1.393l-.867-.048a.638.638 0 00-.625.395c-.915 2.2-3.21 4.646-4.976 5.765-1.301-.03-2.906 1.046-2.906 2.356v.13c1.453 2.338 4.954 2.148 7.24 1.171 2.286-.976 1.787-2.572 3.835-3.431a7.074 7.074 0 002.073-1.301 7.678 7.678 0 00-.034-2.087z" fill="#37474F"/><path d="M137.417 162.453a.292.292 0 00.512-.156.287.287 0 00-.06-.208 3.315 3.315 0 00-2.985-1.302 6.284 6.284 0 01-.373.434 3.194 3.194 0 012.906 1.232zM138.32 161.442a.289.289 0 00.408.035.287.287 0 00.043-.399 3.472 3.472 0 00-3.115-1.345 11.26 11.26 0 01-.343.486 3.226 3.226 0 013.007 1.223zM136.48 163.438a.294.294 0 00.362-.01.291.291 0 00.072-.355 3.302 3.302 0 00-2.906-1.301c-.148.152-.295.304-.434.434a3.194 3.194 0 012.906 1.232zM131.609 163.815c-1.302-.03-2.907 1.046-2.907 2.356v.13c1.432 2.303 4.85 2.147 7.136 1.21-.182-3.141-3.197-3.709-4.229-3.696zM135.513 164.379a.291.291 0 00.434-.36 3.3 3.3 0 00-2.915-1.301c-.183.16-.365.316-.543.459a3.231 3.231 0 013.024 1.202z" fill="#fff"/><path d="M151.707 124.603l-11.448 6.382a5.68 5.68 0 00-2.816 5.991l2.222 11.964-1.822 5.787c1.574 2.108 5.184 2.217 5.184 2.217 2.012-4.039 3.47-5.753 4.633-9.136 1.162-3.384 1.904-5.718 1.904-5.718l9.505-2.603a11.276 11.276 0 008.242-9.583c.16-1.44.169-2.42.169-2.42l-15.773-2.881z" fill="#455A64"/><path opacity=".2" d="M151.794 127.822a5.408 5.408 0 001.301 3.471l-8.077 5.054a5.818 5.818 0 00-2.473 3.227l-2.859 9.349 2.581-10.412a4.713 4.713 0 012.1-2.88l7.435-4.611c-.763-1.888-.008-3.198-.008-3.198z" fill="#000"/><path d="M143.161 112.236l-1.605 1.553c-1.644-2.1-3.852-3.523-5.783-6.468-.559-.703-.499-2.109-.867-2.824-.3-.564-.816-1.41-1.033-1.879a.31.31 0 00-.197-.177.312.312 0 00-.263.038c-.551.399-.26 1.35.026 2.356.339 1.171-1.431-.434-1.67-.69-1.123-1.045-2.091-3.609-2.859-3.353-.767.256-.156 1.531-.156 1.531-.707.152-.433 1.276-.433 1.276-.434.737-.3 1.869.555 2.928.624.763 2.308 1.813 3.18 2.334.366.215.677.512.911.867l5.5 8.169a3.34 3.34 0 002.212 1.433 3.327 3.327 0 002.56-.622l2.989-2.234-3.067-4.238z" fill="#FFA8A7"/><path d="M152.466 105.021c-3.036-.134-7.179 4.807-9.509 7.137.178 2.845 3.245 4.719 3.245 4.719a66.985 66.985 0 006.264-4.897v-6.959z" fill="#64B4FF"/><path opacity=".5" d="M152.466 105.021c-3.036-.134-7.179 4.807-9.509 7.137.178 2.845 3.245 4.719 3.245 4.719a66.985 66.985 0 006.264-4.897v-6.959z" fill="#000"/><path d="M167.658 128.382c-2.03 1.952-11.782 2.308-16.758-2.429.477-3.345.317-6.941 0-10.468s-2.39-9.743 1.566-10.463c5.28-1.033 8.733-.951 12.259 1.041 3.757 6.277 3.254 15.669 2.933 22.319z" fill="#64B4FF"/><path d="M167.658 128.382c-2.03 1.952-11.782 2.308-16.758-2.429.477-3.345.317-6.941 0-10.468s-2.39-9.743 1.566-10.463c5.28-1.033 8.733-.951 12.259 1.041 3.757 6.277 3.254 15.669 2.933 22.319z" fill="#64B4FF"/><path opacity=".3" d="M167.658 128.382c-2.03 1.952-11.782 2.308-16.758-2.429.477-3.345.317-6.941 0-10.468s-2.39-9.743 1.566-10.463c5.28-1.033 8.733-.951 12.259 1.041 3.757 6.277 3.254 15.669 2.933 22.319z" fill="#000"/><path d="M162.201 97.044a1.443 1.443 0 00-.707-.742 1.105 1.105 0 00-.209-.078 1.298 1.298 0 00-1.175.395c-.295.316-.494.71-.573 1.136-.077.43-.124.865-.143 1.302a15.415 15.415 0 01-.351 2.26 2.882 2.882 0 01-1.467 1.913l-.047.026a8.916 8.916 0 01-3.419.911v1.301c-.941 1.28-1.206 3.735 1.28 3.002 2.486-.733 4.099-2.386 4.099-4.012 0-.686.035-1.566.052-2.352.022-1.062.044-1.947.044-1.947.231.266.555.435.907.472.159.025.321.016.477-.026a1.772 1.772 0 001.063-.906c.21-.43.325-.901.338-1.38a2.786 2.786 0 00-.169-1.275z" fill="#FFA8A7"/><path d="M161.394 92.558a3.062 3.062 0 00-1.952-1.037l-10.203.946c-1.18 2.495-.239 4.143-.239 4.143-.16 3.804-.291 6.221 1.384 7.019a7.813 7.813 0 003.726.521 8.934 8.934 0 003.419-.911l.052-.026a2.893 2.893 0 001.462-1.922c.173-.741.29-1.493.351-2.252.019-.436.066-.871.143-1.301.079-.426.278-.82.573-1.137a1.294 1.294 0 011.175-.394c.072.018.142.045.209.078.29-1.67.377-3.137-.1-3.727z" fill="#37474F"/><path d="M157.659 92.844a3.502 3.502 0 00.134 2.135c.264.677.48 1.37.647 2.078a3.38 3.38 0 01-.278 2.095 2.469 2.469 0 01-1.627 1.301c-1.097.235-2.169-.403-3.266-.62a4.572 4.572 0 00-3.072.547.542.542 0 01-.523.009.53.53 0 01-.279-.443c-.13-2.17-.13-5.618.195-7.232l8.069.13z" fill="#FFA8A7"/><path d="M149.763 90.866L148.492 90a2.697 2.697 0 00.486 2.494 4.049 4.049 0 002.234 1.302 8.51 8.51 0 002.634.117 19.467 19.467 0 003.795-.69 3.089 3.089 0 001.493-.785 1.978 1.978 0 00.078-2.325 2.968 2.968 0 00-2.1-1.215 8.014 8.014 0 00-2.525.2c-.825.2-1.679.262-2.524.182a2.636 2.636 0 01-2.035-1.35c-.716 1.163-.265 2.937-.265 2.937z" fill="#37474F"/><path d="M152.965 96.731l-1.861 2.252 1.705.603.156-2.855zM154.371 100.705l-1.436.434a.867.867 0 00.967.434.805.805 0 00.469-.868z" fill="#F28F8F"/><path opacity=".3" d="M154.371 100.705l-1.436.434a.867.867 0 00.967.434.805.805 0 00.469-.868z" fill="#000"/><path d="M153.434 101.564a.83.83 0 00.468.031.719.719 0 00.469-.651.862.862 0 00-.556.1.866.866 0 00-.381.52z" fill="#F28F8F"/><path d="M155.494 97.222a.515.515 0 01-.341.456.511.511 0 11.341-.456zM151.217 96.827a.516.516 0 01-.639.469.513.513 0 01.157-1.007.512.512 0 01.482.538zM150.831 94.77l-1.176.72a.74.74 0 01.265-.79.865.865 0 01.911.07zM155.203 94.944l1.089.842a.71.71 0 00-.178-.811.866.866 0 00-.911-.03z" fill="#263238"/><path opacity=".2" d="M158.214 103.169a3.2 3.2 0 00.594-1.215 2.857 2.857 0 01-1.232 1.28l-.047.026a8.916 8.916 0 01-3.419.911v.868a8.581 8.581 0 002.017-.434 4.558 4.558 0 002.087-1.436z" fill="#000"/><path d="M136.329 129.501l13.448 7.752.052.026h.026l.108.031h.265a.795.795 0 00.138 0h.087l.109-.031a.558.558 0 00.095-.039l4.316-2.511-13.881-8.009-4.763 2.781zM149.104 127.367l-2.525 1.483a.257.257 0 000 .434l3.779 2.169a.406.406 0 00.434 0l2.524-1.483a.253.253 0 00.12-.217.254.254 0 00-.12-.217l-3.778-2.169a.435.435 0 00-.434 0z" fill="#E0E0E0"/><path opacity=".4" d="M136.329 129.501l13.448 7.752.052.026h.026l.108.031h.265a.795.795 0 00.138 0h.087l.109-.031a.558.558 0 00.095-.039l4.316-2.511-13.881-8.009-4.763 2.781zM149.104 127.367l-2.525 1.483a.257.257 0 000 .434l3.779 2.169a.406.406 0 00.434 0l2.524-1.483a.253.253 0 00.12-.217.254.254 0 00-.12-.217l-3.778-2.169a.435.435 0 00-.434 0z" fill="#000"/><path d="M150.115 137.483l-1.432-9.11a1.689 1.689 0 00-.815-1.193l-13.912-8.09a.433.433 0 00-.373 0l-.33.165.113.039a.43.43 0 00-.039.247l1.431 9.11a1.682 1.682 0 00.816 1.193l13.916 8.09c.029.016.06.027.091.035v.135l.321-.157a.434.434 0 00.213-.464z" fill="#E0E0E0"/><path opacity=".3" d="M150.115 137.483l-1.432-9.11a1.689 1.689 0 00-.815-1.193l-13.912-8.09a.433.433 0 00-.373 0l-.33.165.113.039a.43.43 0 00-.039.247l1.431 9.11a1.682 1.682 0 00.816 1.193l13.916 8.09c.029.016.06.027.091.035v.135l.321-.157a.434.434 0 00.213-.464z" fill="#000"/><path d="M147.59 127.336l-13.916-8.09a.43.43 0 00-.441.032.436.436 0 00-.184.402l1.432 9.11a1.676 1.676 0 00.811 1.188l13.916 8.091a.433.433 0 00.629-.434l-1.431-9.11a1.672 1.672 0 00-.816-1.189z" fill="#E0E0E0"/><path d="M140.844 127.571a3.065 3.065 0 011.384 1.991c.087.707-.381.972-1.054.581a3.073 3.073 0 01-1.379-1.987c-.091-.711.381-.971 1.049-.585z" fill="#fff"/><path d="M164.114 117.307l1.253 4.303-7.678 5.453-2.581 1.089a4.008 4.008 0 00-1.709 1.362l-2.109 2.911c-.234.49.868 1.302 1.389 1.419a1.892 1.892 0 001.735-.434l1.622-1.492.434-.157a6.802 6.802 0 003.262-2.451l9.032-3.496a3.47 3.47 0 002.082-4.108l-1.496-5.549-5.236 1.15z" fill="#FFA8A7"/><path d="M161.975 111.533l2.226 6.659c3.622.247 5.309-.972 5.808-2.048-1.9-8.646-3.154-10.081-5.639-10.264-2.486-.182-2.395 5.653-2.395 5.653z" fill="#64B4FF"/><path opacity=".5" d="M161.975 111.533l2.226 6.659c3.622.247 5.309-.972 5.808-2.048-1.9-8.646-3.154-10.081-5.639-10.264-2.486-.182-2.395 5.653-2.395 5.653z" fill="#000"/><path d="M133.344 122.894h-.039l.035.031.004-.031z" fill="#455A64"/><path d="M76.516 178.855c-.265.555-1.107 1.072-2.026 1.224a9.248 9.248 0 01-2.777-.178 18.38 18.38 0 00-4.147-.104c-.856.11-1.718.171-2.581.182a4.108 4.108 0 01-2.425-.768 2.493 2.493 0 01-.911-1.549 2.338 2.338 0 00.911 2.087 4.11 4.11 0 002.425.772 22.509 22.509 0 002.581-.186 18.15 18.15 0 014.147.108c.924.126 1.922.39 2.842.239.92-.152 1.76-.664 2.025-1.219l-.064-.608z" fill="#263238"/><path d="M66.442 177.216c.773 0 .49-1.146 1.224-1.909-.3 0-.599.021-.898 0-.664.971-.85 1.909-.326 1.909zM68.048 177.155c.78 0 .576-1.362 1.34-2.169-.174.06-.351.112-.53.156l-.46.082c-.68.972-.88 1.931-.35 1.931z" fill="#fff"/><path d="M75.709 174.539a1.092 1.092 0 00-.404-.629l-4.182-.104a3.545 3.545 0 01-1.735 1.188c-.764.799-.56 2.169-1.34 2.169-.53 0-.33-.958.351-1.921-.243.034-.486.056-.733.073-.733.764-.434 1.909-1.224 1.909-.524 0-.338-.937.326-1.891h-.586c-.178 0-.356 0-.538-.031-1.535 1.219-1.666 2.538-1.466 4.607.264.047.53.075.798.083a22.507 22.507 0 002.581-.182 18.381 18.381 0 014.148.104 9.247 9.247 0 002.776.178c.92-.152 1.761-.668 2.026-1.224l-.798-4.329z" fill="#455A64"/><path d="M65.644 175.289a6.638 6.638 0 00-2.086 0 2.495 2.495 0 00-1.883 1.64c-.061.24-.073.489-.035.733.101.612.426 1.164.911 1.549a3.613 3.613 0 001.627.685c-.2-2.069-.07-3.388 1.466-4.607z" fill="#fff"/><path d="M71.006 172.617v2.013a.827.827 0 00.824.829h2.109a1.358 1.358 0 001.358-1.302l.052-1.527-4.343-.013z" fill="#995C5C"/><path d="M84.936 171.719a1.555 1.555 0 01-1.267.889 2.667 2.667 0 01-1.605-.394c-.725-.46-1.01-1.189-1.505-1.84a10.855 10.855 0 00-1.736-1.709 5.75 5.75 0 01-1.67-1.935 2.476 2.476 0 01-.195-.711c-.062.463.006.935.195 1.362a5.813 5.813 0 001.67 1.939c.64.502 1.223 1.073 1.736 1.705.494.655.78 1.38 1.505 1.839.48.298 1.042.436 1.605.395a1.54 1.54 0 001.267-.889c.086-.367.112-.745.078-1.119 0 .159-.027.317-.078.468z" fill="#263238"/><path d="M80.186 167.299a.502.502 0 00-.1.342.355.355 0 00.225.261.5.5 0 00.252-.001.498.498 0 00.221-.121c.121-.117.23-.247.325-.386a2.449 2.449 0 011.718-.928l-.52-.477c-.33.018-.654.098-.955.234-.49.23-.897.606-1.166 1.076z" fill="#fff"/><path d="M80.298 165.637c-.491.229-.9.605-1.167 1.076a.503.503 0 00-.1.343c.013.059.04.114.08.159.039.046.09.081.146.101a.512.512 0 00.473-.121c.122-.118.231-.249.325-.391a2.462 2.462 0 012.13-.924l-.516-.468a2.596 2.596 0 00-1.37.225z" fill="#fff"/><path d="M81.34 165.112a5.52 5.52 0 00-1.64-1.097 2.172 2.172 0 00-2.256.312 1.943 1.943 0 00-.5 1.692c.03.245.096.485.196.711.136.296.31.572.52.82.2-1.8 1.762-2.642 3.68-2.438z" fill="#fff"/><path d="M84.979 169.954a3.765 3.765 0 00-.412-1.762l-1.015-1.067-.725-.659a2.457 2.457 0 00-1.718.928 2.506 2.506 0 01-.325.386.51.51 0 01-.473.122.354.354 0 01-.225-.261.502.502 0 01.1-.342c.269-.47.676-.846 1.166-1.076.301-.136.625-.216.955-.234l-.122-.109a2.453 2.453 0 00-2.13.924 2.341 2.341 0 01-.325.391.508.508 0 01-.473.121.347.347 0 01-.226-.26.503.503 0 01.1-.343 2.603 2.603 0 012.538-1.301l-.312-.282c-1.918-.204-3.47.637-3.679 2.438.347.407.732.78 1.15 1.115.64.502 1.222 1.076 1.735 1.709.494.65.78 1.379 1.505 1.839.48.298 1.042.436 1.605.395a1.558 1.558 0 001.267-.89c.051-.15.078-.309.078-.468.01-.439-.004-.877-.039-1.314z" fill="#455A64"/><path d="M81.309 166.769l.121 2.169c1.363.79 2.798.36 3.276-.138l.09-2.022-3.487-.009zM83.999 120.044a1.914 1.914 0 01-.209-.741l-.117-1.857-13.218.867a68.493 68.493 0 00-.525 3.349A19.67 19.67 0 0084 120.044z" fill="#995C5C"/><path d="M83.738 112.561l2.816 5.444-2.555 4.282 2.828 4.473 4.269-6.629a3.736 3.736 0 00.433-3.063 52.313 52.313 0 00-2.776-7.552l-5.015 3.045z" fill="#995C5C"/><path d="M81.5 102.05c3.24-.603 5.093.477 7.834 7.809-1.106 2.507-5.878 3.435-5.878 3.435L81.5 102.05z" fill="#EBEBEB"/><path d="M75.43 102.913l-3.535.694c-.78 1.432-1.579 2.777-2.36 4.208-.59 1.076-1.197 2.221-1.15 3.449a3.516 3.516 0 002.118 3.037l-.408 4.828c5.557 1.7 12.346.208 13.838-1.08.434-2.022.825-4.173 1.263-6.199.329-1.307.529-2.642.599-3.987a7.013 7.013 0 00-.933-3.87l-.022-.034a4.337 4.337 0 00-4.338-1.866l-5.071.82z" fill="#fff"/><path d="M84.203 120.383a1.805 1.805 0 01-.204-.339 19.673 19.673 0 01-14.069 1.601c-.997 7.414-1.852 19.955-1.327 28.258.434 9.644 2.212 23.304 2.212 23.304 2.313.694 4.052.269 4.707-.234.772-9.544 2.468-16.125 1.158-22.454.868-4.42 1.44-9.977 1.44-9.977l.669 9.773 2.264 17.179a4.057 4.057 0 004.06-.204c1.649-9.826 2.265-16.485.825-21.356 2.2-16.125 2.29-20.25-1.736-25.551z" fill="#455A64"/><path opacity=".3" d="M79.092 138.611l1.215-5.088c1.414-.235 3.627-1.159 4.772-3.102a9.725 9.725 0 01-5.865 2.069l-1.093 8.073.234 3.44.095-1.249c.104-1.396.319-2.781.642-4.143z" fill="#000"/><path d="M49.116 97.087l3.562 9.206a3.68 3.68 0 002.798 2.294l6.073 1.063a5.47 5.47 0 001.345-2.533 5.536 5.536 0 00-.265-3.18 28.63 28.63 0 01-5.483-.603s-3.848-4.676-5.453-7.088l1.145-3.796a1.301 1.301 0 00-.117-1.033l-.616-1.067a1.301 1.301 0 00-.711-.59l-.89-.3a1.571 1.571 0 00-1.227.092l-1.354.707a.525.525 0 00-.277.469.53.53 0 00.282.455l.507.26.699 1.189a3.744 3.744 0 00-.018 4.455z" fill="#995C5C"/><path d="M71.344 103.547c-2.19.099-5.478.464-8.702.399a5.536 5.536 0 01.265 3.18 5.47 5.47 0 01-1.345 2.533l7.6 1.332a3.271 3.271 0 003.67-2.408c.235-.963.49-1.77.634-2.707a2.033 2.033 0 00-2.121-2.329z" fill="#EBEBEB"/><path d="M71.123 93.404a6.156 6.156 0 01-.694-3.258 3.522 3.522 0 011.71-2.754 2.49 2.49 0 013.058.538 5.682 5.682 0 018.394 5.44c-.078 1.17-.508 2.32-.373 3.47.073.685.347 1.38.165 2.048a2.116 2.116 0 01-1.11 1.258c-.513.264-1.71.195-2.274.312-1.735 1.57-3.904.98-5.266-.434-1.363-1.414-3.61-6.62-3.61-6.62z" fill="#37474F"/><path d="M70.768 94.962l-1.08 1.874 1.18.433-.1-2.307z" fill="#804040"/><path d="M70.642 94.146c.173-1.644.655-3.193 1.735-3.978a8.871 8.871 0 001.228 5.878c.109-.543.388-1.037.798-1.41a1.488 1.488 0 011.531-.325c.355.17.63.47.768.837a1.99 1.99 0 01-2.494 2.633 3.835 3.835 0 002.945 2.985 4.927 4.927 0 002.855-.273l.433 2.216c-1.8 1.922-4.88.629-4.88.629l-.408-2.169c-3.54.209-3.874.152-4.264-1.8a19.306 19.306 0 01-.247-5.223z" fill="#995C5C"/><path opacity=".3" d="M78.494 91.743a6.216 6.216 0 012.82-3.37 5.966 5.966 0 012.277 4.996c-.078 1.172-.508 2.321-.373 3.471.073.685.347 1.38.165 2.047a2.116 2.116 0 01-1.11 1.259c-.513.264-1.71.195-2.274.312a2.946 2.946 0 01-.226.186 17.202 17.202 0 01-1.4-3.596 9.188 9.188 0 01.12-5.305z" fill="#000"/><path d="M79.474 90.515a4.517 4.517 0 018.611-.108c1.067 3.236-1.67 6.676-1.072 10.029.217 1.211.868 2.312 1.076 3.518a5.21 5.21 0 01-2.5 5.433 5.201 5.201 0 01-1.998.671c.772-.868.785-2.169.347-3.219-.438-1.05-1.224-1.926-1.896-2.854-2.72-3.731-3.908-9.054-2.568-13.47z" fill="#37474F"/></svg>