<svg width="1000" height="1000" fill="none" xmlns="http://www.w3.org/2000/svg"><path d="M843.886 518.058c-190.874-110.251-499.548-110.251-689.251 0C-35.069 628.31-34.071 807.06 156.804 917.311c190.874 110.249 499.548 110.249 689.273 0C1035.8 807.06 1034.85 628.31 843.886 518.058z" fill="#F5F5F5"/><path d="M457.821 823.154c-41.754-24.098-109.21-24.098-150.704 0-41.493 24.098-41.211 63.184.499 87.281 41.71 24.098 109.21 24.12 150.704 0 41.493-24.119 41.255-63.183-.499-87.281zm422.743-140.466c-44.421-25.66-116.216-25.66-160.356 0-39.042 22.666-43.38 57.761-13.187 83.334-24.337-1.519-49.563 3.123-68.151 13.925-32.536 18.957-32.536 49.692.39 68.649 32.926 18.958 85.894 18.958 118.516 0 26.028-15.183 31.125-37.611 15.639-55.744 37.394 5.401 78.562-.347 107.692-17.352 44.139-25.573 43.901-67.153-.543-92.812zM642.449 525.303l-32.124-18.502a32.538 32.538 0 00-32.405 0L400.06 609.917l-15.704-9.045-128.797 75.374 14.858 8.545L59.805 806.409a10.843 10.843 0 00-3.93 14.753 10.853 10.853 0 003.93 3.966l32.405 18.675a32.54 32.54 0 0032.535 0l210.396-121.748 24.597 14.186a64.853 64.853 0 0064.789 0l75.655-43.684a14.407 14.407 0 007.219-12.483 14.406 14.406 0 00-7.219-12.483l-35.463-20.41 29.867-17.353 10.368-6.008 137.516-79.798a10.842 10.842 0 00-.021-18.719z" fill="#E6E6E6"/><path d="M473.98 672.927l-61.687 35.312a58.565 58.565 0 01-58.238-.109l-45.788-26.375a17.585 17.585 0 01-8.785-15.183v-31.213l-9.544 5.51v27.243a20.424 20.424 0 002.745 10.25 20.42 20.42 0 007.515 7.492l54.334 31.321a57.54 57.54 0 0057.349 0l62.143-35.55a23.255 23.255 0 0011.344-24.64 23.102 23.102 0 01-11.388 15.942z" fill="#64B4FF"/><path opacity=".1" d="M473.98 672.927l-61.687 35.312a58.565 58.565 0 01-58.238-.109l-45.788-26.375a17.585 17.585 0 01-8.785-15.183v-31.213l-9.544 5.51v27.243a20.424 20.424 0 002.745 10.25 20.42 20.42 0 007.515 7.492l54.334 31.321a57.54 57.54 0 0057.349 0l62.143-35.55a23.255 23.255 0 0011.344-24.64 23.102 23.102 0 01-11.388 15.942z" fill="#000"/><path d="M308.267 681.755l45.788 26.375a58.555 58.555 0 0058.238.109l61.687-35.312a23.108 23.108 0 007.448-6.72 23.108 23.108 0 003.896-9.244 23.093 23.093 0 00-10.845-15.726l-50.603-30.366a20.5 20.5 0 01-9.934-17.569v-24.076l-114.503 66.133v31.213a17.593 17.593 0 008.828 15.183z" fill="#64B4FF"/><path opacity=".4" d="M308.267 681.755a17.585 17.585 0 01-8.785-15.183v-31.213l-9.544 5.51v27.243a20.424 20.424 0 002.745 10.25 20.42 20.42 0 007.515 7.492l19.283 11.106v-8.676l-11.214-6.529z" fill="#000"/><path opacity=".3" d="M308.267 681.755l11.17 6.507 119.535-68.346-15.183-9.023a20.497 20.497 0 01-9.934-17.569v-24.098l-114.416 66.133v31.213a17.593 17.593 0 008.828 15.183z" fill="#000"/><path d="M100.604 748.084l-.868-391.249c0-11.106 7.765-24.64 17.353-30.237L603.558 46.534c4.794-2.777 9.153-3.037 12.342-1.258l-18.329-10.52c-3.188-2.039-7.7-1.865-12.71 1.02L98.543 315.752c-9.695 5.596-17.504 19.131-17.352 30.237l.868 391.249c0 5.249 1.8 8.979 4.663 10.845.31.213.637.402.976.564l17.982 10.563c-3.102-1.8-5.076-5.661-5.076-11.127z" fill="#64B4FF"/><path opacity=".3" d="M597.571 34.756c-3.188-2.039-7.7-1.865-12.71 1.02L98.543 315.752a36.575 36.575 0 00-13.383 14.923l18.719 10.845a36.635 36.635 0 0113.34-14.879L603.558 46.534c4.794-2.777 9.153-3.037 12.342-1.258l-18.329-10.52z" fill="#fff"/><path opacity=".2" d="M81.083 345.99l.867 391.249c0 5.249 1.8 8.979 4.664 10.845.31.213.636.402.976.564l18.09 10.563c-3.102-1.844-5.011-5.705-5.033-11.171l-.867-391.249a34.072 34.072 0 014.099-15.356L85.16 330.589a34.142 34.142 0 00-4.077 15.401z" fill="#000"/><path d="M621.17 56.554c0-5.465-1.952-9.305-5.032-11.17h-.108c-3.189-1.779-7.548-1.518-12.342 1.258L117.219 326.598c-9.674 5.596-17.483 19.131-17.352 30.237l.737 391.249c0 5.466 1.93 9.326 5.032 11.17l.26.152h.131c3.166 1.67 7.439 1.345 12.146-1.367L604.556 478.04c9.652-5.575 17.482-19.131 17.352-30.236l-.738-391.25zm-25.269 406.52L117.956 738.323l-.867-381.532a21.863 21.863 0 018.828-15.183L603.818 66.315l.868 381.532a21.867 21.867 0 01-8.785 15.227z" fill="#64B4FF"/><path d="M603.818 66.315l-12.363 7.136.824 368.366A21.684 21.684 0 01583.451 457L117.956 725.157v13.166l477.989-275.249a21.854 21.854 0 006.005-6.667 21.854 21.854 0 002.823-8.517l-.955-381.575z" fill="#64B4FF"/><path opacity=".3" d="M603.818 66.315l-12.363 7.136.824 368.366A21.684 21.684 0 01583.451 457L117.956 725.157v13.166l477.989-275.249a21.854 21.854 0 006.005-6.667 21.854 21.854 0 002.823-8.517l-.955-381.575z" fill="#000"/><path d="M592.322 441.817l-.824-368.366-465.625 268.114a21.861 21.861 0 00-8.828 15.183l.911 368.409 465.539-268.135a21.686 21.686 0 008.827-15.205z" fill="#455A64"/><path d="M174.351 767.887l-.846-369.819a36.419 36.419 0 0116.506-28.588l459.661-264.621c4.533-2.625 8.676-2.885 11.669-1.193l-17.352-10.043c-3.037-1.93-7.31-1.757-12.038.976L172.334 359.242a36.274 36.274 0 00-16.485 28.566l.824 369.798c0 4.945 1.692 8.502 4.338 10.324.291.202.596.383.911.542l17.071 9.935c-2.82-1.736-4.642-5.38-4.642-10.52z" fill="#64B4FF"/><path opacity=".4" d="M644.032 93.536c-3.036-1.93-7.31-1.757-12.038.977l-459.66 264.729a34.71 34.71 0 00-12.646 14.077l17.7 10.216a34.569 34.569 0 0112.623-14.055l459.661-264.621c4.533-2.625 8.676-2.885 11.669-1.193l-17.309-10.13z" fill="#fff"/><path opacity=".3" d="M155.849 387.808l.824 369.798c0 4.945 1.692 8.502 4.338 10.324.291.202.596.383.911.543l17.071 9.934c-2.907-1.736-4.729-5.38-4.75-10.542l-.738-369.797a32.686 32.686 0 013.883-14.533l-17.7-10.216a32.542 32.542 0 00-3.839 14.489z" fill="#fff"/><path d="M173.548 419.498l.803 348.389c0 5.162 1.844 8.806 4.75 10.541l.26.152h.131c2.993 1.562 7.027 1.28 11.474-1.301l459.66-264.622a36.429 36.429 0 0016.506-28.587l-.781-348.932-492.803 284.36z" fill="#64B4FF"/><path opacity=".5" d="M173.548 419.498l.803 348.389c0 5.162 1.844 8.806 4.75 10.541l.26.152h.131c2.993 1.562 7.027 1.28 11.474-1.301l459.66-264.622a36.429 36.429 0 0016.506-28.587l-.781-348.932-492.803 284.36z" fill="#fff"/><path d="M647.199 158.39c4.338-2.451 7.722-.499 7.743 4.338a16.943 16.943 0 01-7.7 13.318L253.217 403.794c-4.338 2.451-7.744.477-7.744-4.338a16.968 16.968 0 017.7-13.34L647.199 158.39z" fill="#64B4FF"/><path opacity=".8" d="M647.199 158.39c4.338-2.451 7.722-.499 7.743 4.338a16.943 16.943 0 01-7.7 13.318L253.217 403.794c-4.338 2.451-7.744.477-7.744-4.338a16.968 16.968 0 017.7-13.34L647.199 158.39z" fill="#fff"/><path d="M195.347 423.489a.588.588 0 01.521 0c.325.152.347.716 0 1.236l-2.495 4.577 8.394-4.837c.434-.26.781 0 .781.434a1.684 1.684 0 01-.781 1.344l-8.394 4.859 2.516 1.692c.282.195.261.759 0 1.28-.133.215-.31.4-.52.542a.635.635 0 01-.586 0l-3.709-2.516a.591.591 0 01-.152-.174 1.534 1.534 0 010-.303 1.775 1.775 0 010-.326 1.48 1.48 0 01.152-.368l3.687-6.79c.122-.273.327-.501.586-.65zm21.213-12.255a.545.545 0 01.586 0l3.709 2.494a.671.671 0 01.152.195c.009.094.009.189 0 .282.01.109.01.217 0 .326a1.48 1.48 0 01-.152.368l-3.687 6.789a1.803 1.803 0 01-.564.629.626.626 0 01-.543 0c-.303-.151-.325-.694 0-1.236l2.495-4.577-8.394 4.859c-.434.239-.781 0-.781-.455a1.76 1.76 0 01.781-1.345l8.394-4.837-2.516-1.692c-.282-.195-.261-.781 0-1.28.129-.212.308-.391.52-.52zm15.53-8.958a3.922 3.922 0 012.582-.629 1.667 1.667 0 01.759-1.215c.412-.217.759 0 .737.499v1.995a1.775 1.775 0 01-.737 1.28l-1.692 1.063c-.412.239-.759 0-.781-.412a1.74 1.74 0 01.607-1.258c-.498.04-.981.196-1.409.455a7.171 7.171 0 00-3.254 5.618c0 2.169 1.475 2.885 3.275 1.844a7.008 7.008 0 002.907-3.688c.118-.352.356-.651.672-.846a.653.653 0 01.369-.108c.39 0 .52.477.325 1.019a10.472 10.472 0 01-4.338 5.336c-2.646 1.519-4.815.282-4.815-2.754a10.577 10.577 0 014.793-8.199z" fill="#64B4FF"/><path opacity=".7" d="M195.347 423.489a.588.588 0 01.521 0c.325.152.347.716 0 1.236l-2.495 4.577 8.394-4.837c.434-.26.781 0 .781.434a1.684 1.684 0 01-.781 1.344l-8.394 4.859 2.516 1.692c.282.195.261.759 0 1.28-.133.215-.31.4-.52.542a.635.635 0 01-.586 0l-3.709-2.516a.591.591 0 01-.152-.174 1.534 1.534 0 010-.303 1.775 1.775 0 010-.326 1.48 1.48 0 01.152-.368l3.687-6.789c.122-.274.327-.502.586-.651zm21.213-12.255a.545.545 0 01.586 0l3.709 2.494a.685.685 0 01.152.195c.009.094.009.189 0 .282.01.109.01.218 0 .326a1.48 1.48 0 01-.152.368l-3.687 6.79a1.812 1.812 0 01-.564.629.64.64 0 01-.543 0c-.303-.152-.325-.695 0-1.237l2.495-4.576-8.394 4.858c-.434.239-.781 0-.781-.455a1.76 1.76 0 01.781-1.345l8.394-4.837-2.516-1.692c-.282-.195-.261-.781 0-1.28.129-.212.308-.391.52-.52zm15.53-8.958a3.922 3.922 0 012.582-.629 1.667 1.667 0 01.759-1.215c.412-.217.759 0 .737.499v1.995a1.775 1.775 0 01-.737 1.28l-1.692 1.063c-.412.239-.759 0-.781-.412a1.74 1.74 0 01.607-1.258c-.498.04-.981.196-1.409.455a7.171 7.171 0 00-3.254 5.618c0 2.169 1.475 2.885 3.275 1.844a7.008 7.008 0 002.907-3.688c.118-.352.356-.651.672-.846a.653.653 0 01.369-.108c.39 0 .52.477.325 1.019a10.472 10.472 0 01-4.338 5.336c-2.646 1.519-4.815.282-4.815-2.754a10.577 10.577 0 014.793-8.199z" fill="#fff"/><path d="M371.082 599.809l272.169-157.038a4.732 4.732 0 016.461 1.734c.415.72.633 1.536.632 2.366v34.162a11.827 11.827 0 01-5.922 10.238L372.231 648.59a4.754 4.754 0 01-4.736-.004 4.753 4.753 0 01-2.378-4.095v-34.379a11.841 11.841 0 015.965-10.303zm274.165-361.056v-34.314a4.728 4.728 0 00-7.093-4.078L371.06 353.603a11.84 11.84 0 00-5.943 10.259v35.29a4.752 4.752 0 004.746 4.73 4.75 4.75 0 002.368-.63l267.116-154.218a11.825 11.825 0 005.9-10.281z" fill="#64B4FF"/><path d="M553.215 283.63v5.357l-172.524 99.602-.022-5.336 172.546-99.623zm-.044-9.869l.022 5.314-172.546 99.623v-5.335l172.524-99.602zm-75.59 32.514l.022 5.357-96.978 55.983-.021-5.336 96.977-56.004z" fill="#fff"/><path d="M621.062 233.959l.022 5.336-30.692 17.721-.022-5.358 30.692-17.699z" fill="#64B4FF"/><path d="M622.58 222.572c6.312-3.644 11.453-.738 11.475 6.507a25.185 25.185 0 01-11.41 19.781l-33.75 19.522c-6.333 3.665-11.474.737-11.495-6.507a25.088 25.088 0 0111.409-19.76l33.771-19.543zm-1.41 16.723v-5.336l-30.8 17.699v5.336l30.8-17.699z" fill="#fff"/><path d="M524.107 494.85l116.758-67.5a18.954 18.954 0 009.479-16.398V272.459a7.098 7.098 0 00-3.551-6.147 7.09 7.09 0 00-7.099.009l-116.78 67.413a18.942 18.942 0 00-9.457 16.398V488.69a7.107 7.107 0 003.552 6.145 7.112 7.112 0 007.098.015z" fill="#64B4FF"/><path d="M573.842 361.108l3.883-2.169a.543.543 0 00.195-.738.545.545 0 00-.552-.289.544.544 0 00-.207.072l-3.883 2.169a.566.566 0 00-.049.92.562.562 0 00.331.121.718.718 0 00.282-.086zm-19.434 11.148l3.882-2.169a.545.545 0 00.206-.748.546.546 0 00-.748-.206l-3.882 2.169a.563.563 0 00-.217.759.564.564 0 00.477.26.602.602 0 00.282-.065zm-19.413 11.149l3.883-2.169a.562.562 0 00.114-.711.566.566 0 00-.678-.243l-3.883 2.169a.566.566 0 00-.195.759.543.543 0 00.477.26.67.67 0 00.282-.065zm9.696-5.574l3.882-2.169a.545.545 0 00.289-.552.544.544 0 00-.412-.458.562.562 0 00-.419.055l-3.883 2.169a.568.568 0 00-.195.76.524.524 0 00.477.26l.261-.065zm19.434-11.214l3.883-2.169a.547.547 0 00.195-.738.53.53 0 00-.321-.271.515.515 0 00-.417.055l-3.882 2.169a.54.54 0 00.26 1.019.611.611 0 00.282-.065zm58.282-33.381l3.882-2.169a.563.563 0 00.196-.76.542.542 0 00-.759-.216l-3.883 2.169a.561.561 0 00-.05.919.566.566 0 00.332.122.48.48 0 00.282-.065zm-29.152 16.723l3.883-2.169a.53.53 0 00.271-.321.534.534 0 00-.054-.417.542.542 0 00-.552-.288.543.543 0 00-.207.071l-3.883 2.169a.563.563 0 00-.195.76.55.55 0 00.477.282.617.617 0 00.26-.087zm19.435-11.149l3.882-2.169a.54.54 0 00.195-.737.507.507 0 00-.321-.272.515.515 0 00-.416.055l-3.904 2.169a.568.568 0 00-.245.625.566.566 0 00.527.416c.1.001.199-.029.282-.087zm19.152-11.062a.413.413 0 00.26 0l3.905-2.169a.567.567 0 00.195-.759.545.545 0 00-.552-.289.544.544 0 00-.207.072l-3.883 2.169a.566.566 0 00-.195.759.538.538 0 00.477.217zm-28.87 16.636l3.883-2.169a.545.545 0 00.262-.323.543.543 0 00-.045-.414.545.545 0 00-.552-.289.544.544 0 00-.207.072l-3.883 2.169a.562.562 0 00-.217.759.583.583 0 00.477.282.432.432 0 00.282-.087zm41.038 6.746a.542.542 0 00-.542-.542.563.563 0 00-.564.542v4.338a.566.566 0 00.564.542.546.546 0 00.384-.158.546.546 0 00.158-.384v-4.338zm0-10.932a.542.542 0 00-.542-.542.563.563 0 00-.564.542v4.338a.566.566 0 00.564.543.547.547 0 00.384-.159.546.546 0 00.158-.384v-4.338zm0 21.864a.563.563 0 00-.542-.564.565.565 0 00-.564.564v4.338a.567.567 0 00.564.564.566.566 0 00.542-.564v-4.338zm0 10.932a.538.538 0 00-.151-.398.551.551 0 00-.391-.166.565.565 0 00-.564.564v4.338a.567.567 0 00.564.564.566.566 0 00.542-.564v-4.338zm0 10.975a.542.542 0 00-.542-.542.563.563 0 00-.564.542v4.338a.566.566 0 00.564.542.546.546 0 00.384-.158.546.546 0 00.158-.384v-4.338zm-.542 10.325a.563.563 0 00-.564.542v4.338a.567.567 0 00.564.564.551.551 0 00.507-.35.538.538 0 00.035-.214v-4.338a.542.542 0 00-.542-.542zm.542-65.006a.563.563 0 00-.542-.564.565.565 0 00-.564.564v4.338a.567.567 0 00.564.564.566.566 0 00.542-.564v-4.338zm-47.263 104.981l-3.861 2.169a.553.553 0 00-.272.333.539.539 0 00.055.426.571.571 0 00.478.282.44.44 0 00.282 0l3.882-2.169a.566.566 0 00.114-.711.563.563 0 00-.678-.243v-.087zm-57.999 33.49l-3.861 2.169a.562.562 0 00.004.965c.084.05.18.076.278.076a.413.413 0 00.26 0l3.882-2.169a.544.544 0 00.196-.738.55.55 0 00-.759-.303zm9.608-5.575l-3.882 2.169a.564.564 0 00-.196.759.545.545 0 00.478.261.67.67 0 00.282 0l3.86-2.169a.552.552 0 00.207-.749.552.552 0 00-.749-.206v-.065zm77.435-44.66l-3.883 2.169a.566.566 0 00-.05.92.565.565 0 00.332.121c.092.028.19.028.282 0l3.861-2.169a.552.552 0 00.206-.748.545.545 0 00-.748-.206v-.087zm-58.087 33.49l-3.861 2.169a.562.562 0 00-.217.759.583.583 0 00.477.282.44.44 0 00.282 0l3.883-2.169a.543.543 0 00.195-.738.53.53 0 00-.31-.324.535.535 0 00-.449.021zm48.413-28.002l-3.883 2.169a.566.566 0 00.005.965c.084.05.18.076.277.076h.282l3.861-2.169a.564.564 0 00.195-.759.549.549 0 00-.524-.336.524.524 0 00-.213.054zM577.4 445.439l-3.883 2.169a.564.564 0 00-.195.76.517.517 0 00.477.26.6.6 0 00.26 0l3.883-2.169a.567.567 0 00.195-.759.53.53 0 00-.313-.288.541.541 0 00-.424.027zm58.064-33.489l-3.86 2.169a.545.545 0 00-.289.551.532.532 0 00.072.208.561.561 0 00.477.26.61.61 0 00.282 0l3.882-2.169a.563.563 0 10-.564-.954v-.065zm-29.043 16.744l-3.861 2.169a.564.564 0 00-.217.76.601.601 0 00.216.194.595.595 0 00.283.066h.261l3.882-2.169a.552.552 0 00.338-.34.56.56 0 00-.213-.656.553.553 0 00-.473-.076.557.557 0 00-.216.118v-.066zM558.03 456.61l-3.882 2.169a.54.54 0 00-.196.737.52.52 0 00.478.282.606.606 0 00.281 0l3.861-2.169a.545.545 0 00.289-.551.532.532 0 00-.072-.208.577.577 0 00-.325-.289.564.564 0 00-.434.029zm-30.887-28.198a.545.545 0 00-.542.543v4.338a.539.539 0 00.542.542.563.563 0 00.564-.542v-4.338a.561.561 0 00-.564-.543zm.065 10.932a.563.563 0 00-.542.564v4.338a.543.543 0 00.542.543.564.564 0 00.564-.564v-4.338a.561.561 0 00-.564-.543zm-.195-43.749a.539.539 0 00-.542.542v4.338a.543.543 0 101.084 0v-4.338a.545.545 0 00-.542-.542zm.282 65.635a.524.524 0 00-.507.331.524.524 0 00-.035.211v4.338a.563.563 0 00.564.564.56.56 0 00.542-.564v-4.338a.539.539 0 00-.542-.542h-.022zm-.239-54.703a.564.564 0 00-.564.564v4.338a.564.564 0 00.564.564.566.566 0 00.543-.564v-4.338a.538.538 0 00-.33-.521.555.555 0 00-.213-.043zm.044 10.954a.546.546 0 00-.384.158.546.546 0 00-.158.384v4.338a.561.561 0 00.564.542.542.542 0 00.542-.542v-4.338a.566.566 0 00-.564-.542zm.152 32.817a.563.563 0 00-.564.542v4.338a.561.561 0 00.947.384.543.543 0 00.159-.384v-4.338a.539.539 0 00-.542-.542zm5.205-68.324a.494.494 0 00-.542 0l-6.507 3.709a.545.545 0 00-.282.477v7.375a.545.545 0 00.282.477.413.413 0 00.26 0 .44.44 0 00.282 0l6.507-3.709a.545.545 0 00.282-.477v-7.375a.538.538 0 00-.282-.477zm-.824 1.431v6.095l-5.292 3.145v-6.116l5.292-3.124zm57.002-34.032a.522.522 0 00-.564 0l-6.507 3.709a.542.542 0 00-.282.477v7.375a.54.54 0 00.282.477.426.426 0 00.282 0 .413.413 0 00.26 0l6.507-3.709a.563.563 0 00.261-.477v-7.375a.566.566 0 00-.239-.477zm-.824 1.432v6.116l-5.314 3.059v-6.095l5.314-3.08zm49.497-20.237a.654.654 0 00.564 0l6.507-3.709a.572.572 0 00.282-.478v-7.483a.565.565 0 00-.282-.477.607.607 0 00-.542 0l-6.507 3.709a.586.586 0 00-.261.477v7.397a.585.585 0 00.239.564zm6.138-10.629v6.117l-5.335 3.08v-6.117l5.335-3.08zM532.457 467.151a.5.5 0 00-.542 0l-6.507 3.709a.572.572 0 00-.282.478v7.396a.57.57 0 00.282.477h.26a.61.61 0 00.282 0l6.507-3.709a.559.559 0 00.282-.499v-7.375a.565.565 0 00-.282-.477zm-.824 1.432v6.116l-5.314 3.059v-6.095l5.314-3.08zm57.002-34.032a.654.654 0 00-.564 0l-6.507 3.709a.57.57 0 00-.282.477v7.396a.568.568 0 00.282.478.61.61 0 00.282 0 .6.6 0 00.26 0l6.507-3.709a.601.601 0 00.261-.499v-7.375a.588.588 0 00-.239-.477zm-.824 1.431v6.117l-5.314 3.058v-6.095l5.314-3.08zm56.46-32.275a.502.502 0 00-.543 0l-6.507 3.709a.56.56 0 00-.26.477v7.375a.561.561 0 00.26.477.5.5 0 00.564 0l6.507-3.709a.545.545 0 00.282-.477v-7.375a.54.54 0 00-.303-.477zm-.825 1.432v6.095l-5.314 3.101v-6.116l5.314-3.08zM640.8 302.24l.022 5.358-115.089 65.982-.021-5.358L640.8 302.24zm-.021-9.869l.021 5.336-115.11 65.982v-5.336l115.089-65.982zm-69.539 28.501l.021 5.358-45.593 26.375-.021-5.357 45.593-26.376z" fill="#fff"/><path d="M345.704 368.092l-143.698 82.423a14.164 14.164 0 00-7.136 12.342l.455 206.383a4.76 4.76 0 002.379 4.095 4.75 4.75 0 004.736.004l143.264-82.575a14.244 14.244 0 007.093-12.32V372.191a4.732 4.732 0 00-4.728-4.733c-.83 0-1.646.219-2.365.634z" fill="#64B4FF"/><path d="M261.741 436.026l4.165-2.386a.6.6 0 00.337-.368.608.608 0 00-.945-.673l-4.186 2.494a.582.582 0 00-.276.356.59.59 0 00.059.447.564.564 0 00.499.282.765.765 0 00.347-.152zm-20.823 12.016l4.165-2.386a.59.59 0 00.217-.802.591.591 0 00-.803-.217l-4.164 2.386a.608.608 0 00-.217.802.58.58 0 00.52.304c.101.002.2-.029.282-.087zm-20.801 11.952l4.122-2.278a.58.58 0 00.29-.585.571.571 0 00-.074-.217.59.59 0 00-.351-.289.576.576 0 00-.451.05l-4.165 2.408a.58.58 0 00-.29.585.57.57 0 00.594.499.665.665 0 00.325-.173zm10.412-5.965l4.164-2.408a.584.584 0 00.217-.803.627.627 0 00-.824-.216l-4.143 2.386a.579.579 0 00-.299.665.585.585 0 00.581.441.775.775 0 00.304-.065zm20.801-11.952l4.164-2.386a.58.58 0 00.29-.585.582.582 0 00-.658-.507.593.593 0 00-.217.073l-4.165 2.386a.58.58 0 00-.275.356.571.571 0 00.058.446.586.586 0 00.521.304.475.475 0 00.282-.087zm62.424-35.81l4.165-2.408a.58.58 0 00.275-.356.573.573 0 00-.058-.446.61.61 0 00-.803-.217l-4.164 2.386a.579.579 0 00-.266.28.58.58 0 00.18.707c.105.08.235.122.368.119a.703.703 0 00.303-.065zm-31.212 17.894l4.165-2.386a.584.584 0 00.216-.802.586.586 0 00-.802-.217l-4.165 2.386a.58.58 0 00-.29.585c.01.077.035.15.073.217a.589.589 0 00.521.304c.101.002.2-.029.282-.087zm20.801-11.995l4.164-2.385a.61.61 0 00.217-.825.58.58 0 00-.356-.275.589.589 0 00-.446.058l-4.165 2.386a.627.627 0 00-.217.825.613.613 0 00.521.282.67.67 0 00.282-.066zm20.519-11.799a.542.542 0 00.304 0l4.164-2.386a.593.593 0 00.291-.585.582.582 0 00-.074-.218.606.606 0 00-.824-.216l-4.143 2.386a.579.579 0 00-.266.28.593.593 0 00-.034.385.592.592 0 00.582.441v-.087zm-30.909 17.829l4.165-2.386a.578.578 0 00.271-.364.58.58 0 00-.065-.449.607.607 0 00-.155-.172.61.61 0 00-.44-.111.587.587 0 00-.218.077l-4.143 2.386a.583.583 0 00-.086.987c.106.08.235.122.368.119a.783.783 0 00.303-.087zm44.075 7.223a.61.61 0 00-.983-.354.61.61 0 00-.21.354v4.685a.61.61 0 00.983.354.61.61 0 00.21-.354v-4.685zm0-11.691a.608.608 0 10-1.193 0v4.664a.608.608 0 101.193 0v-4.664zm0 23.404a.608.608 0 10-1.193 0v4.663a.607.607 0 101.193 0v-4.663zm0 11.691a.61.61 0 00-.983-.354.61.61 0 00-.21.354v4.685a.61.61 0 00.983.354.61.61 0 00.21-.354v-4.685zm0 11.713a.607.607 0 10-1.193 0v4.685a.61.61 0 00.983.354.61.61 0 00.21-.354v-4.685zm-.716 11.105a.586.586 0 00-.585.586v4.685a.603.603 0 00.596.493.608.608 0 00.597-.493v-4.685a.58.58 0 00-.18-.422.568.568 0 00-.428-.164zm.716-69.626a.61.61 0 00-.983-.353.61.61 0 00-.21.353v4.685a.61.61 0 00.983.354.61.61 0 00.21-.354v-4.685zm-50.755 112.464l-4.143 2.386a.627.627 0 00-.217.825.597.597 0 00.224.208c.091.05.193.075.297.074a.67.67 0 00.282 0l4.164-2.408a.591.591 0 00.291-.585.582.582 0 00-.074-.218.621.621 0 00-.353-.315.604.604 0 00-.471.033zm-62.208 35.876l-4.143 2.386a.587.587 0 00.282 1.106c.1.023.204.023.304 0l4.143-2.407a.597.597 0 00.275-.356.595.595 0 00-.058-.447.6.6 0 00-.341-.314.582.582 0 00-.462.032zm10.368-5.878l-4.143 2.408a.58.58 0 00-.275.356.57.57 0 00.058.446.586.586 0 00.521.304.705.705 0 00.282 0l4.143-2.386a.606.606 0 00.217-.824.597.597 0 00-.336-.327.574.574 0 00-.467.023zm82.944-47.935l-4.208 2.386a.631.631 0 00-.217.824.613.613 0 00.52.282.67.67 0 00.282 0l4.165-2.408a.58.58 0 00.275-.356.571.571 0 00-.058-.446.632.632 0 00-.759-.282zm-62.208 35.875l-4.143 2.386a.608.608 0 00-.217.824.607.607 0 00.521.282.67.67 0 00.282 0l4.143-2.407a.586.586 0 00.216-.803.589.589 0 00-.802-.217v-.065zm51.84-29.889l-4.143 2.386a.605.605 0 00-.217.803.586.586 0 00.521.303c.091.029.19.029.281 0l4.165-2.386a.592.592 0 10-.607-1.019v-.087zm-41.559 23.903l-4.143 2.407a.597.597 0 00-.275.357.57.57 0 00.058.446.589.589 0 00.521.304.743.743 0 00.282 0l4.164-2.386a.595.595 0 00.338-.368.608.608 0 00-.945-.673v-.087zm62.295-35.876l-4.143 2.408a.585.585 0 00-.217.802.58.58 0 00.52.304.969.969 0 00.304 0l4.143-2.386a.6.6 0 00.208-.148.592.592 0 00.13-.22c.027-.082.036-.168.027-.254a.611.611 0 00-.486-.532.592.592 0 00-.486.113v-.087zm-31.104 17.938l-4.143 2.408a.58.58 0 00-.276.356.588.588 0 00.059.446.586.586 0 00.521.304.743.743 0 00.282 0l4.164-2.386a.613.613 0 00.338-.368c.027-.082.036-.168.027-.254a.621.621 0 00-.079-.243.618.618 0 00-.407-.289.593.593 0 00-.486.113v-.087zm-51.84 29.911l-4.143 2.386a.589.589 0 00-.299.677.583.583 0 00.603.429c.092.028.19.028.282 0l4.143-2.386a.587.587 0 00-.586-1.019v-.087zm-33.078-30.215a.605.605 0 00-.585.608v4.685a.585.585 0 101.171 0v-4.685a.607.607 0 00-.586-.608zm.044 11.735a.582.582 0 00-.586.585v4.685a.587.587 0 101.171 0v-4.576a.591.591 0 00-.128-.486.58.58 0 00-.457-.208zm-.196-46.873a.586.586 0 00-.585.586v4.685a.585.585 0 001.171 0v-4.685a.586.586 0 00-.586-.586zm.304 70.298a.605.605 0 00-.415.186.604.604 0 00-.171.422v4.685a.586.586 0 101.172-.022v-4.685a.61.61 0 00-.608-.586h.022zm-.26-58.585a.59.59 0 00-.586.585v4.686a.607.607 0 00.586.607.629.629 0 00.607-.607v-4.686a.604.604 0 00-.607-.585zm.065 11.713a.632.632 0 00-.424.183.632.632 0 00-.183.424v4.685a.604.604 0 00.607.586.605.605 0 00.415-.186.604.604 0 00.171-.422v-4.685a.593.593 0 00-.362-.541.592.592 0 00-.224-.044zm.152 35.159a.554.554 0 00-.421.165.573.573 0 00-.165.421v4.685a.607.607 0 00.586.608.61.61 0 00.585-.608v-4.685a.585.585 0 00-.585-.586zm5.574-73.183a.568.568 0 00-.585 0l-6.876 3.97a.58.58 0 00-.304.52v7.896a.63.63 0 00.304.52.542.542 0 00.585 0l6.898-3.969a.613.613 0 00.282-.521v-7.917a.596.596 0 00-.085-.29.601.601 0 00-.219-.209zm-.867 1.54v6.508l-5.705 3.296v-6.507l5.705-3.297zm61.101-36.461a.568.568 0 00-.586 0l-6.875 3.969a.589.589 0 00-.304.521v8.004a.584.584 0 00.304.52.541.541 0 00.585 0l6.876-3.969a.593.593 0 00.304-.521v-7.895a.59.59 0 00-.304-.629zm-.868 1.54v6.507l-5.682 3.297v-6.507l5.682-3.297zm52.968-21.582c.092.029.19.029.282 0a.493.493 0 00.304 0l6.876-3.969a.577.577 0 00.223-.218.576.576 0 00.08-.303v-7.895a.575.575 0 00-.08-.302.577.577 0 00-.223-.218.564.564 0 00-.586 0l-6.876 3.969a.593.593 0 00-.304.521v7.917a.55.55 0 00.304.498zm6.507-11.365v6.507l-5.683 3.297v-6.507l5.683-3.297zM217.406 549.704a.568.568 0 00-.585 0l-6.876 3.97a.58.58 0 00-.304.52v7.896a.63.63 0 00.304.52.542.542 0 00.585 0l6.898-3.969a.613.613 0 00.282-.521v-7.917a.596.596 0 00-.085-.29.601.601 0 00-.219-.209zm-.867 1.54v6.508l-5.705 3.296v-6.507l5.705-3.297zm61.101-36.461a.559.559 0 00-.586 0l-6.875 3.969a.589.589 0 00-.304.521v7.852a.581.581 0 00.304.52.541.541 0 00.585 0l6.876-3.969a.586.586 0 00.304-.52v-7.917a.594.594 0 00-.304-.456zm-.868 1.54v6.507l-5.682 3.297v-6.507l5.682-3.297zm60.408-34.596a.57.57 0 00-.586 0l-6.876 3.969a.58.58 0 00-.303.521v7.917a.586.586 0 00.303.499c.092.028.19.028.282 0a.508.508 0 00.304 0l6.876-3.969a.596.596 0 00.304-.521v-7.895a.593.593 0 00-.304-.521zm-.868 1.54v6.507l-5.683 3.275v-6.507l5.683-3.275zm1.193 37.199l.022 5.357-126.216 73.487-.022-5.336 126.216-73.508zm-.021-9.869l.021 5.314-126.237 73.508v-5.335l126.216-73.487zm.021 29.998l.022 5.335-126.216 73.509-.022-5.358 126.216-73.486zm-.021-9.891l.021 5.336-126.237 73.508v-5.336l126.216-73.508zM284.494 592l.022 5.358-73.205 42.6-.022-5.336L284.494 592zm52.99-40.755l.021 5.314-126.237 73.508v-5.336l126.216-73.486zm-93.464 2.45l.022 5.358-32.796 19.283-.022-5.336 32.796-19.305z" fill="#fff"/><path d="M375.767 579.464l116.78-67.414a18.932 18.932 0 009.457-16.398V357.095a7.112 7.112 0 00-7.099-7.101 7.124 7.124 0 00-3.551.941l-116.758 67.413a18.984 18.984 0 00-9.479 16.42v138.536a7.118 7.118 0 003.552 6.144 7.11 7.11 0 007.098.016z" fill="#64B4FF"/><path d="M436.304 519.49l.022 5.357-58.629 33.729-.021-5.336 58.628-33.75zm56.438-42.123v5.336l-115.088 65.982-.022-5.336 115.11-65.982zm-28.327 4.425l.022 5.336-86.805 50.473-.022-5.357 86.805-50.452z" fill="#fff"/><path d="M456.802 445.396l18.241-10.542-18.198 31.473-.043-20.931z" fill="#E0E0E0"/><path d="M474.891 387.114l.152 47.741-18.241 10.541.043 20.931 18.198-31.472-18.198 31.472-64.55 37.286-.195-68.693 82.791-47.806z" fill="#fff"/><path d="M666.286 114.229c0-5.162-1.843-8.676-4.772-10.542h-.108c-3.015-1.691-7.136-1.431-11.669 1.193L190.076 369.502a36.422 36.422 0 00-16.506 28.587v21.43l492.76-284.424-.044-20.866z" fill="#64B4FF"/><path opacity=".3" d="M666.286 114.229c0-5.162-1.843-8.676-4.772-10.542h-.108c-3.015-1.691-7.136-1.431-11.669 1.193L190.076 369.502a36.422 36.422 0 00-16.506 28.587v21.43l492.76-284.424-.044-20.866z" fill="#000"/><path opacity=".5" d="M195.391 384.468c2.494-1.432 4.533-.282 4.533 2.581a9.965 9.965 0 01-4.49 7.787c-2.494 1.453-4.533.282-4.533-2.581a9.86 9.86 0 014.49-7.787zm12.341-7.006c2.473-1.432 4.512-.282 4.512 2.581a9.85 9.85 0 01-4.49 7.787c-2.494 1.453-4.512.282-4.533-2.581a9.932 9.932 0 014.511-7.787zm12.32-7.223c2.495-1.431 4.512-.282 4.534 2.581a9.933 9.933 0 01-4.512 7.787c-2.494 1.432-4.512.282-4.533-2.581a9.94 9.94 0 014.511-7.787z" fill="#fff"/><path d="M195.391 384.468c2.494-1.432 4.533-.282 4.533 2.581a9.965 9.965 0 01-4.49 7.787c-2.494 1.453-4.533.282-4.533-2.581a9.86 9.86 0 014.49-7.787zm12.341-7.006c2.473-1.431 4.512-.282 4.512 2.581a9.85 9.85 0 01-4.49 7.787c-2.494 1.453-4.512.282-4.533-2.581a9.932 9.932 0 014.511-7.787zm12.32-7.223c2.495-1.431 4.512-.282 4.534 2.581a9.933 9.933 0 01-4.512 7.787c-2.494 1.432-4.512.282-4.533-2.581a9.94 9.94 0 014.511-7.787z" fill="#64B4FF"/><path opacity=".3" d="M666.286 114.229c0-5.162-1.843-8.676-4.772-10.542h-.108l-17.352-10.042c-3.037-1.93-7.31-1.757-12.038.976L172.334 359.242c-.608.347-1.193.738-1.801 1.15l-.542.412c-.39.282-.802.586-1.193.911l-.607.542c-.369.304-.716.629-1.085.976l-.564.586c-.368.347-.715.716-1.041 1.084-.325.369-.368.412-.542.608-.173.195-.672.802-1.019 1.214l-.456.586c-.347.456-.672.933-.998 1.388l-.368.542c-.369.521-.694 1.063-1.042 1.627a3.41 3.41 0 01-.238.369c-.391.694-.781 1.388-1.128 2.169-.217.434-.412.868-.607 1.301a5.234 5.234 0 00-.282.608c-.174.39-.347.781-.499 1.171l-.326.759-.39 1.106-.282.868-.325 1.019-.261.998c0 .304-.151.629-.216.933-.066.303-.152.716-.217 1.084-.065.369 0 .564-.152.846-.152.282 0 .824-.152 1.237v2.559l.824 369.797c0 4.946 1.692 8.503 4.338 10.325.291.201.596.383.911.542l17.07 9.934.261.152h.13c2.993 1.562 7.028 1.28 11.474-1.301l459.66-264.621a36.444 36.444 0 0016.507-28.588l-.89-369.906z" fill="#fff"/><path d="M865.62 342.606v-8.091a10.975 10.975 0 00-5.032-8.676l-145.65-84.115a3.507 3.507 0 00-1.794-.658 3.509 3.509 0 00-1.872.376L706.348 245s3.21 1.995 3.21 2.169h.326v11.43l150.964 87.152 4.772-3.145z" fill="#64B4FF"/><path opacity=".7" d="M865.62 342.606v-8.091a10.975 10.975 0 00-5.032-8.676l-145.65-84.115a3.507 3.507 0 00-1.794-.658 3.509 3.509 0 00-1.872.376L706.348 245s3.21 1.995 3.21 2.169h.326v11.43l150.964 87.152 4.772-3.145z" fill="#fff"/><path d="M860.826 345.577l-150.964-87.151-.282 103.549a11.023 11.023 0 005.011 8.676l143.416 82.727-1.302 1.648 2.408 3.427 4.902-3.535a3.565 3.565 0 001.323-3.08l.304-109.297-4.816 3.036z" fill="#37474F"/><path d="M855.816 329.288a11.127 11.127 0 015.032 8.676v7.592L705.09 255.628v-7.592c0-3.188 2.278-4.468 5.054-2.863l145.672 84.115z" fill="#64B4FF"/><path opacity=".5" d="M855.816 329.288a11.127 11.127 0 015.032 8.676v7.592L705.09 255.628v-7.592c0-3.188 2.278-4.468 5.054-2.863l145.672 84.115z" fill="#fff"/><path d="M860.826 345.577l-.325 109.796c0 3.189-2.169 4.469-5.054 2.864l-145.672-84.094a11.018 11.018 0 01-5.01-8.676l.303-109.796 155.758 89.906z" fill="#455A64"/><path d="M756.214 376.009l-.022 4.576-43.228-24.943v-4.599l43.25 24.966zm96.739-12.277v4.598l-111.271-64.246.021-4.577 111.25 64.225zm-96.522-65.613l-.022 4.577-43.228-24.966.021-4.576 43.229 24.965z" fill="#64B4FF"/><path opacity=".5" d="M756.214 376.009l-.022 4.576-43.228-24.943v-4.599l43.25 24.966zm96.739-12.277v4.598l-111.271-64.246.021-4.577 111.25 64.225zm-96.522-65.613l-.022 4.577-43.228-24.966.021-4.576 43.229 24.965zm-.13 49.519l-.022 4.577-43.229-24.966v-4.577l43.251 24.966zm-12.971-27.286v4.576l-30.236-17.439.022-4.598 30.214 17.461zm53.77 89.19v4.555l-55.635-32.102.021-4.576 55.614 32.123zm13.925-11.843l-.021 4.598-69.474-40.127v-4.576l69.495 40.105zm-34.921-69.734l-.022 4.577-34.422-19.869.022-4.598 34.422 19.89zm50.322 50.256l-.022 4.577-84.809-48.955.022-4.598 84.809 48.976zm26.397 35.052l-.022 4.576-111.249-64.246v-4.577l111.271 64.247z" fill="#fff"/><path d="M124.03 708.673v-8.026a11.101 11.101 0 015.032-8.676l145.672-84.115a3.45 3.45 0 013.665-.26l4.924 3.557s-3.21 1.996-3.21 2.169c0 .174-.13 0-.326 0v11.431l-150.986 86.891-4.771-2.971z" fill="#64B4FF"/><path opacity=".3" d="M124.03 708.673v-8.026a11.101 11.101 0 015.032-8.676l145.672-84.115a3.45 3.45 0 013.665-.26l4.924 3.557s-3.21 1.996-3.21 2.169c0 .174-.13 0-.326 0v11.431l-150.986 86.891-4.771-2.971z" fill="#fff"/><path d="M128.801 711.644l150.943-87.151.304 103.549a11.1 11.1 0 01-5.011 8.676l-143.394 82.813 1.323 1.649-2.408 3.427-4.902-3.536a3.613 3.613 0 01-1.344-3.101l-.282-109.298 4.771 2.972z" fill="#37474F"/><path d="M133.855 695.355a11.06 11.06 0 00-5.032 8.676v7.591l155.736-89.928v-7.591c0-3.189-2.169-4.468-5.032-2.863l-145.672 84.115z" fill="#64B4FF"/><path opacity=".1" d="M133.855 695.355a11.06 11.06 0 00-5.032 8.676v7.591l155.736-89.928v-7.591c0-3.189-2.169-4.468-5.032-2.863l-145.672 84.115z" fill="#fff"/><path d="M128.801 711.644l.304 109.796c0 3.189 2.169 4.468 5.076 2.863l145.65-84.093a11.045 11.045 0 005.032-8.676l-.325-109.796-155.737 89.906z" fill="#455A64"/><path d="M136.935 798.644v4.598l43.251-24.965-.022-4.599-43.229 24.966zm-.086-28.371l.021 4.577 43.229-24.966-.022-4.577-43.228 24.966zm0-19.5l.021 4.577 30.215-17.461-.022-4.576-30.214 17.46zm30.323 39.455l.021 4.577 55.614-32.124v-4.555l-55.635 32.102zm.13-19.652l.021 4.577 69.496-40.105-.022-4.599-69.495 40.127zm-2.538-48.109l.022 4.577 34.422-19.868-.022-4.598-34.422 19.889zm2.603 18.567l.021 4.577 84.809-48.977-.021-4.576-84.809 48.976zm-.065 21.3l.021 4.599 111.271-64.247-.021-4.577-111.271 64.225zm-2.668-48.087l.021 4.598 111.25-64.246-.022-4.577-111.249 64.225zm-27.937 6.507l.021 4.577 43.229-24.966v-4.577l-43.25 24.966z" fill="#64B4FF"/><path opacity=".5" d="M136.935 798.644v4.598l43.251-24.965-.022-4.599-43.229 24.966zm-.087-28.371l.022 4.577 43.229-24.966-.022-4.577-43.229 24.966zm0-19.5l.022 4.577 30.215-17.461-.022-4.576-30.215 17.46zm30.324 39.455l.021 4.577 55.614-32.124v-4.555l-55.635 32.102zm.13-19.651l.021 4.576 69.496-40.105-.022-4.598-69.495 40.127zm-2.538-48.109l.022 4.576 34.422-19.868-.022-4.598-34.422 19.89zm2.603 18.566l.021 4.577 84.809-48.977-.021-4.576-84.809 48.976zm-.065 21.3l.021 4.599 111.271-64.247-.021-4.577-111.271 64.225zm-2.668-48.087l.021 4.598 111.25-64.246-.022-4.577-111.249 64.225zm-27.937 6.507l.021 4.577 43.229-24.966v-4.576l-43.25 24.965z" fill="#fff"/><path d="M527.902 649.198l-.173-64.269a9.33 9.33 0 014.338-7.396l88.67-51.276a3.034 3.034 0 012.95-.325l-5.531-3.319a3.046 3.046 0 00-2.972.326l-88.778 51.275a9.379 9.379 0 00-4.338 7.397l.173 64.268a2.951 2.951 0 001.323 2.711l5.531 3.319a3.042 3.042 0 01-1.193-2.711z" fill="#455A64"/><path d="M625.031 528.708a3.02 3.02 0 00-1.041-2.559l-.13-.13h-.173a3.036 3.036 0 00-2.95.325l-88.8 51.276a9.33 9.33 0 00-4.338 7.396l.173 64.268a3.043 3.043 0 001.215 2.733 2.966 2.966 0 003.102-.26l88.799-51.276a9.455 9.455 0 004.339-7.418l-.196-64.355z" fill="#455A64"/><path opacity=".3" d="M527.902 649.198l-.173-64.269a9.33 9.33 0 014.338-7.396l88.67-51.276a3.034 3.034 0 012.95-.325l-5.531-3.319a3.046 3.046 0 00-2.972.326l-88.778 51.275a9.379 9.379 0 00-4.338 7.397l.173 64.268a2.951 2.951 0 001.323 2.711l5.531 3.319a3.042 3.042 0 01-1.193-2.711z" fill="#000"/><path d="M566.468 584.756v4.859l-18.047 18.458 18.09-2.429.022 4.858-22.862 2.82v-5.032l22.797-23.534zm23.143-29.304l-16.636 64.811-4.425 2.581 16.636-64.832 4.425-2.56zm1.584 15.032l22.839-2.82.022 5.032-22.775 23.534-.021-4.859 18.111-18.501-18.155 2.472-.021-4.858z" fill="#F5F5F5"/><path d="M602.734 362.387l22.362 17.591.044 17.201-74.354 42.925-.044-17.201 14.164-28.132 12.732 9.869-4.511 13.99 6.528-12.428 23.079-43.815z" fill="#fff"/><path d="M578.311 370.955c3.492-2.017 6.355-.391 6.355 3.622a13.905 13.905 0 01-6.312 10.845c-3.492 2.018-6.355.391-6.355-3.622a13.892 13.892 0 011.863-6.175 13.89 13.89 0 014.449-4.67zm-285.618 66.524l23.946 18.849.065 18.415-79.668 45.983-.044-18.415 15.184-30.149 13.621 10.585-4.815 14.966 6.984-13.296 24.727-46.938z" fill="#fff"/><path d="M266.535 446.871c3.752-2.169 6.789-.434 6.81 3.882a14.936 14.936 0 01-6.767 11.713c-3.752 2.169-6.789.434-6.811-3.882a14.841 14.841 0 016.768-11.713z" fill="#fff"/><path d="M756.301 347.638l-.022 4.577-43.229-24.966v-4.577l43.251 24.966zm-12.971-27.286v4.576l-30.236-17.439.022-4.598 30.214 17.461zm53.77 89.19v4.555l-55.635-32.102.021-4.576 55.614 32.123zm13.925-11.843l-.021 4.598-69.474-40.127v-4.576l69.495 40.105zm-34.921-69.734l-.022 4.576-34.422-19.868.022-4.598 34.422 19.89zm50.321 50.256l-.021 4.577-84.809-48.955.021-4.598 84.809 48.976zm26.398 35.052l-.022 4.576-111.249-64.246v-4.577l111.271 64.247z" fill="#64B4FF"/><path d="M739.144 57.682c-6.681-3.86-12.32-1.973-14.099 4.013a20.037 20.037 0 00-7.223-8.025c-5.227-3.015-9.478-.586-9.5 5.422v2.755l-7.028-4.056c-3.665-2.17-6.637-.412-6.659 3.818a14.561 14.561 0 006.616 11.43l59.475 34.336c3.665 2.169 6.659.434 6.659-3.774a14.533 14.533 0 00-6.616-11.453l-7.028-4.056v-5.075a32.208 32.208 0 00-14.597-25.334zm83.269 91.382c-17.591-10.152-32.536-5.184-37.177 10.606a52.06 52.06 0 00-19.001-21.148c-13.795-7.96-25.009-1.562-25.052 14.272v7.266l-18.502-10.671c-9.652-5.596-17.504-1.106-17.526 9.999-.021 11.106 7.765 24.597 17.352 30.171l156.778 90.514c9.652 5.574 17.525 1.106 17.547-9.999.022-11.106-7.787-24.619-17.352-30.193l-18.502-10.672v-13.383c.044-24.553-17.2-54.421-38.565-66.762z" fill="#E6E6E6"/><path d="M792.806 180.753l18.914 34.596-11.431-6.594-.087 25.551-15.096-8.719.065-25.551-11.431-6.594 19.066-12.689zm7.483 57.132l-.022 9.783-15.118-8.72.043-9.782 15.097 8.719zm0 13.709l-.022 4.88-15.118-8.72.043-4.88 15.097 8.72zm0 8.177l-.022 2.95-15.118-8.742.043-2.949 15.097 8.741z" fill="#455A64"/><path opacity=".5" d="M792.806 180.753l18.914 34.596-11.431-6.594-.087 25.551-15.096-8.719.065-25.551-11.431-6.594 19.066-12.689zm7.483 57.132l-.022 9.783-15.118-8.72.043-9.782 15.097 8.719zm0 13.709l-.022 4.88-15.118-8.72.043-4.88 15.097 8.72zm0 8.177l-.022 2.95-15.118-8.742.043-2.949 15.097 8.741z" fill="#fff"/><path d="M322.474 13.977c17.591-10.151 32.535-5.184 37.177 10.606a52.338 52.338 0 0119.001-21.17c13.773-7.938 25.009-1.561 25.052 14.273v7.288l18.502-10.694c9.652-5.574 17.504-1.084 17.525 10.021.022 11.106-7.765 24.597-17.352 30.171L265.58 144.964c-9.652 5.575-17.525 1.128-17.547-9.977-.022-11.106 7.765-24.619 17.352-30.193L283.887 94.1V80.718c-.022-24.532 17.222-54.421 38.587-66.741z" fill="#E6E6E6"/><path d="M350.194 145.376l18.914-34.596-11.409 6.594-.087-25.573-15.096 8.741.065 25.552-11.431 6.593 19.044 12.689zm7.505-57.132l-.022-9.782-15.118 8.72.022 9.782 15.118-8.72zm0-13.708l-.022-4.902-15.118 8.741.022 4.88 15.118-8.72zm0-8.177l-.022-2.95-15.118 8.72.022 2.97 15.118-8.74z" fill="#455A64"/><path opacity=".5" d="M350.194 145.376l18.914-34.596-11.409 6.594-.087-25.573-15.096 8.741.065 25.552-11.431 6.593 19.044 12.689zm7.505-57.132l-.022-9.782-15.118 8.72.022 9.782 15.118-8.72zm0-13.708l-.022-4.902-15.118 8.741.022 4.88 15.118-8.72zm0-8.177l-.022-2.95-15.118 8.72.022 2.97 15.118-8.74z" fill="#fff"/><path d="M85.746 275.735l-1.323 1.648 12.689 7.375-2.668-9.912a23.718 23.718 0 01-8.698.889zm50.3-72.923l9.934-2.733-12.71-7.375-.868 2.169a23.866 23.866 0 013.644 7.939zm-16.832 17.07a9.89 9.89 0 00-.173-1.149c0-.217 0-.412-.152-.629-.152-.217-.152-.629-.239-.933-.086-.304-.173-.39-.238-.607a5.557 5.557 0 00-.326-.803 4.288 4.288 0 00-.303-.542 7.518 7.518 0 00-.391-.716c0-.173-.26-.325-.368-.477a7.18 7.18 0 00-.456-.586l-.434-.433c-.173-.152-.325-.326-.52-.478l-.477-.347a10.175 10.175 0 00-10.021-.325c.091.719.142 1.444.151 2.169v2.386c0 .39 0 .781-.151 1.193-.152.412-.13.867-.217 1.301-.087.434 0 .608-.174.89-.173.282-.13.564-.217.846-.086.281-.195.78-.303 1.171-.06.228-.132.452-.217.672-.13.456-.282.889-.434 1.323l-.195.543a26.224 26.224 0 01-.716 1.8c.004.072.004.144 0 .217a34.786 34.786 0 01-.738 1.583l-.26.499c-.26.499-.52.998-.802 1.475 0 .108 0 .195-.152.304l-1.041 1.67-.326.477c-.26.412-.52.802-.802 1.193l-.456.607c-.26.326-.499.651-.759.955l-.629.78-.629.716c-.369.391-.716.781-1.106 1.172l-.846.845-.564.521c-.304.282-.607.564-.933.824l-.564.456c-.325.282-.672.52-1.019.781l-.499.368-1.562.976c-.49.29-.997.551-1.518.781l-.369.195-.347.131a10.454 10.454 0 004.729 8.285c.332.19.68.349 1.04.477h.261c.296.113.6.2.911.261h.239a11 11 0 001.214.152h1.757c.285-.023.568-.066.846-.131l.651-.13.716-.217 1.171-.39.803-.325.39-.174 1.497-.781c.52-.303 1.041-.65 1.561-.998l.499-.368.477-.347.564-.412.543-.478.52-.433.412-.369.564-.521c.239-.217.456-.455.694-.694.239-.238.738-.759 1.085-1.171.347-.412.434-.456.629-.716.217-.231.434-.492.651-.781.238-.303.498-.607.737-.932l.456-.629.824-1.172.303-.477c.369-.564.716-1.106 1.042-1.692l.173-.282c.26-.499.542-.976.781-1.475l.26-.499c.26-.52.499-1.062.738-1.583v-.217c.26-.607.499-1.214.715-1.8l.196-.542c.173-.434.303-.89.455-1.323l.195-.673.326-1.171.195-.846c0-.304.13-.607.173-.911 0-.434.174-.868.239-1.301l.13-1.172v-2.407c.034-.622.034-1.244 0-1.866.195-.173.152-.368.13-.564zm-56.091 42.817l-3.188.868-1.41-.803-4.273 10.975 14.12 8.221 5.14-13.209-10.389-6.052zm46.461-80.883l10.585 6.138 8.871-11.105-14.12-8.199-7.549 9.413 1.432.846.781 2.907zm-39.715 79.039l-6.746 1.844 10.39 6.051a23.681 23.681 0 01-3.644-7.895z" fill="#E0E0E0"/><path d="M111.449 188.757a26.015 26.015 0 015.835-.911h2.841l-10.585-6.138 1.909 7.049zM70.238 239.36c.195-.802.39-1.626.607-2.451l.325-1.214a76.223 76.223 0 012.278-6.703l-14.055-8.22c0 .217-.174.412-.239.629-.065.217-.239.672-.369 1.019l-.65 1.8-.13.391c-.11.282-.174.564-.283.868-.195.672-.412 1.323-.607 1.995a5.614 5.614 0 01-.173.564c0 .217 0 .434-.152.651-.217.824-.434 1.648-.608 2.472 0 .239-.13.478-.173.716a8.267 8.267 0 00-.195.955l14.12 8.22c0-.564.13-1.128.304-1.692zm15.313-31.429c1.193-1.497 2.43-2.907 3.71-4.338l.39-.434 1.41-1.431.585-.608a88.387 88.387 0 012.581-2.407l-14.12-8.199a66.543 66.543 0 00-2.581 2.407l-.239.217-1.171 1.193-.608.629c-.65.716-1.323 1.432-1.952 2.169-.715.803-1.41 1.649-2.169 2.495l14.164 8.307zm-15.725 33.121l-14.12-8.221-9.935 8.763 14.12 8.199 9.935-8.741z" fill="#E0E0E0"/><path d="M59.891 249.793l-14.12-8.199.043 13.774 12.71 7.396 1.41.803-.043-13.774zm36.939-63.964l-14.12-8.221-2.603 12.949 14.12 8.199 2.603-12.927z" fill="#E0E0E0"/><path d="M108.803 178.909l-1.432-.845-12.688-7.375-11.973 6.919 14.12 8.221 11.973-6.92zm-40.604 42.839l-14.12-8.221 5.205 7.245 14.12 8.22-5.205-7.244zm17.352-13.817l-14.12-8.221-8.915-.802 14.12 8.199 8.915.824z" fill="#E0E0E0"/><path d="M76.636 207.107l-14.12-8.199-8.438 14.619 14.12 8.221 8.438-14.641zm59.453 15.508l9.934-8.676v-13.773l-9.934 2.733a23.838 23.838 0 00-3.644-7.895l.868-2.169 4.338-10.997-8.503-4.859-9.023 10.975h-2.819a26.078 26.078 0 00-5.857.803l-1.887-6.984-.781-2.907-11.973 6.919-2.603 13.014a89.824 89.824 0 00-2.58 2.408l-.586.607-1.41 1.432-.39.434c-1.28 1.388-2.517 2.798-3.71 4.338l-8.784-.911-8.438 14.641 5.206 7.244a76.252 76.252 0 00-2.278 6.703l-.325 1.214c-.217.824-.412 1.649-.607 2.451a29.85 29.85 0 00-.369 1.692L60 249.728v13.774l3.188-.868 6.746-1.844a23.681 23.681 0 003.644 7.895l-5.206 13.34 8.503 4.837 7.548-9.414 1.323-1.648a23.709 23.709 0 008.676-.889l2.668 9.912 11.973-6.919 2.603-13.014a69.614 69.614 0 008.676-9.154l8.937.803 8.437-14.619-5.206-7.223a70.722 70.722 0 003.579-12.082zm-16.831 2.169l-.13 1.172c0 .433-.152.867-.239 1.301-.087.434-.108.607-.174.911l-.195.846-.325 1.171-.195.673c-.152.433-.282.889-.456 1.323l-.195.542a38.854 38.854 0 01-.716 1.8v.217c-.238.521-.477 1.063-.737 1.584l-.261.498c-.238.499-.52.977-.78 1.475l-.174.282a26.854 26.854 0 01-1.041 1.692l-.304.477-.824 1.172-.455.629c-.239.325-.499.629-.738.932-.239.304-.434.543-.651.781-.217.239-.412.477-.629.716-.217.239-.715.781-1.084 1.171a10.28 10.28 0 01-.694.694l-.564.521-.412.369c-.521.455-1.063.889-1.627 1.323l-.477.347-.499.369c-.521.347-1.041.694-1.562.997-.611.353-1.241.671-1.887.955l-.802.325-1.172.39-.716.217-.672.13a5.624 5.624 0 01-.846.131h-1.8a11.021 11.021 0 01-1.215-.152h-.26a5.65 5.65 0 01-.911-.26h-.304a6.531 6.531 0 01-1.04-.478 10.454 10.454 0 01-4.73-8.285 19.522 19.522 0 01-.13-2.3 36.094 36.094 0 0116.377-28.37 20.6 20.6 0 012.169-1.085 10.17 10.17 0 0110.021.325l.477.347c.195.152.347.326.52.478l.434.433c.162.187.314.383.456.586.108.152.26.304.368.477.143.232.274.471.391.716.114.173.215.355.303.542.131.261.217.543.326.803.108.26.152.39.238.607.087.217.152.629.239.933.087.304 0 .412.152.629.08.379.138.763.173 1.15v.585c.034.621.034 1.244 0 1.866.031.759.024 1.519-.021 2.277v.043z" fill="#E0E0E0"/><path opacity=".2" d="M85.746 275.735l-1.323 1.648 12.689 7.375-2.668-9.912a23.718 23.718 0 01-8.698.889zm50.3-72.923l9.934-2.733-12.71-7.375-.868 2.169a23.866 23.866 0 013.644 7.939zm-16.832 17.07a9.89 9.89 0 00-.173-1.149c0-.217 0-.412-.152-.629-.152-.217-.152-.629-.239-.933-.086-.304-.173-.39-.238-.607a5.557 5.557 0 00-.326-.803 4.288 4.288 0 00-.303-.542 7.518 7.518 0 00-.391-.716c0-.173-.26-.325-.368-.477a7.18 7.18 0 00-.456-.586l-.434-.433c-.173-.152-.325-.326-.52-.478l-.477-.347a10.175 10.175 0 00-10.021-.325c.091.719.142 1.444.151 2.169v2.386c0 .39 0 .781-.151 1.193-.152.412-.13.867-.217 1.301-.087.434 0 .608-.174.89-.173.282-.13.564-.217.846-.086.281-.195.78-.303 1.171-.06.228-.132.452-.217.672-.13.456-.282.889-.434 1.323l-.195.543a26.224 26.224 0 01-.716 1.8c.004.072.004.144 0 .217a34.786 34.786 0 01-.738 1.583l-.26.499c-.26.499-.52.998-.802 1.475 0 .108 0 .195-.152.304l-1.041 1.67-.326.477c-.26.412-.52.802-.802 1.193l-.456.607c-.26.326-.499.651-.759.955l-.629.78-.629.716c-.369.391-.716.781-1.106 1.172l-.846.845-.564.521c-.304.282-.607.564-.933.824l-.564.456c-.325.282-.672.52-1.019.781l-.499.368-1.562.976c-.49.29-.997.551-1.518.781l-.369.195-.347.131a10.454 10.454 0 004.729 8.285c.332.19.68.349 1.04.477h.261c.296.113.6.2.911.261h.239a11 11 0 001.214.152h1.757c.285-.023.568-.066.846-.131l.651-.13.716-.217 1.171-.39.803-.325.39-.174 1.497-.781c.52-.303 1.041-.65 1.561-.998l.499-.368.477-.347.564-.412.543-.478.52-.433.412-.369.564-.521c.239-.217.456-.455.694-.694.239-.238.738-.759 1.085-1.171.347-.412.434-.456.629-.716.217-.231.434-.492.651-.781.238-.303.498-.607.737-.932l.456-.629.824-1.172.303-.477c.369-.564.716-1.106 1.042-1.692l.173-.282c.26-.499.542-.976.781-1.475l.26-.499c.26-.52.499-1.062.738-1.583v-.217c.26-.607.499-1.214.715-1.8l.196-.542c.173-.434.303-.89.455-1.323l.195-.673.326-1.171.195-.846c0-.304.13-.607.173-.911 0-.434.174-.868.239-1.301l.13-1.172v-2.407c.034-.622.034-1.244 0-1.866.195-.173.152-.368.13-.564zm-56.091 42.817l-3.188.868-1.41-.803-4.273 10.975 14.12 8.221 5.14-13.209-10.389-6.052zm6.746-1.844l-6.746 1.844 10.39 6.051a23.681 23.681 0 01-3.644-7.895zm41.58-72.098a26.015 26.015 0 015.835-.911h2.841l-10.585-6.138 1.909 7.049zM70.238 239.36c.195-.802.39-1.626.607-2.451l.325-1.214a76.223 76.223 0 012.278-6.703l-14.055-8.22c0 .217-.174.412-.239.629-.065.217-.239.672-.369 1.019l-.65 1.8-.13.391c-.11.282-.174.564-.283.868-.195.672-.412 1.323-.607 1.995a5.614 5.614 0 01-.173.564c0 .217 0 .434-.152.651-.217.824-.434 1.648-.608 2.472 0 .239-.13.478-.173.716a8.267 8.267 0 00-.195.955l14.12 8.22c0-.564.13-1.128.304-1.692z" fill="#000"/><path opacity=".2" d="M59.891 249.793l-14.12-8.199.043 13.774 12.71 7.396 1.41.803-.043-13.774zm36.939-63.964l-14.12-8.221-2.603 12.949 14.12 8.199 2.603-12.927zm-28.631 35.919l-14.12-8.221 5.205 7.245 14.12 8.22-5.205-7.244zm17.352-13.817l-14.12-8.221-8.915-.802 14.12 8.199 8.915.824z" fill="#000"/><path opacity=".2" d="M109.584 181.816l10.585 6.138 8.871-11.105-14.12-8.199-7.549 9.413 1.432.846.781 2.907zm-24.033 26.115c1.193-1.497 2.43-2.907 3.71-4.338l.39-.434 1.41-1.431.585-.608a88.387 88.387 0 012.581-2.407l-14.12-8.199a66.543 66.543 0 00-2.581 2.407l-.239.217-1.171 1.193-.608.629c-.65.716-1.323 1.432-1.952 2.169-.715.803-1.41 1.649-2.169 2.495l14.164 8.307zm-15.725 33.121l-14.12-8.221-9.935 8.763 14.12 8.199 9.935-8.741z" fill="#fff"/><path opacity=".2" d="M108.803 178.909l-1.432-.845-12.688-7.375-11.973 6.919 14.12 8.221 11.973-6.92zm-32.167 28.198l-14.12-8.199-8.438 14.619 14.12 8.221 8.438-14.641z" fill="#fff"/><path d="M185.196 227.951l-.933 1.171 8.98 5.206-1.887-7.006a17.182 17.182 0 01-6.16.629zm35.55-51.579l7.028-1.931-9.001-5.205-.608 1.561a16.644 16.644 0 012.581 5.575zm-11.907 12.081c0-.282 0-.564-.131-.824.01-.145.01-.289 0-.434 0-.238-.108-.455-.173-.672a2.335 2.335 0 00-.174-.412 4.526 4.526 0 00-.217-.586l-.216-.39a3.7 3.7 0 00-.543-.846l-.303-.412-.326-.304s-.217-.239-.347-.347l-.347-.239a7.183 7.183 0 00-7.093-.217 12.28 12.28 0 010 1.605v1.28c-.01.137-.01.275 0 .412v.824c0 .261-.108.629-.151.933l-.131.629a4.85 4.85 0 01-.151.607c0 .282-.13.543-.217.825a4.197 4.197 0 01-.152.477c0 .325-.195.629-.304.933l-.13.39-.52 1.28v.13c-.174.39-.348.759-.543 1.128a2.95 2.95 0 01-.173.369c-.174.347-.369.694-.564 1.041v.195a22.05 22.05 0 01-.738 1.193c-.26.39-.151.217-.217.347l-.585.824-.326.434-.52.672-.456.564-.455.499a13.79 13.79 0 01-.759.824l-.499.499-.391.347c-.216.217-.433.391-.65.586l-.391.325-.737.543-.347.26c-.376.26-.745.499-1.106.716l-1.063.542-.282.13h-.239a7.371 7.371 0 003.34 5.856c.231.146.479.263.738.347h.173l.629.174h.174c.289.022.579.022.868 0h1.258l.607-.109h.477l.521-.151.802-.282.564-.239h.261c.365-.166.72-.355 1.062-.564.391-.217.759-.455 1.107-.694l.368-.26.326-.261.39-.282.39-.325.369-.325.304-.261.39-.368.499-.477.759-.825.456-.52c.156-.171.301-.352.434-.542a8.35 8.35 0 00.542-.673l.325-.434.564-.846.239-.325c.238-.39.499-.781.716-1.193l.13-.217c.195-.325.368-.672.564-1.041 0 0 0-.217.173-.347.174-.13.369-.737.521-1.128v-.152c.195-.412.368-.846.52-1.258.041-.133.092-.264.152-.39 0-.304.195-.629.304-.933l.152-.477c0-.282.151-.564.217-.824 0-.217 0-.412.151-.608.047-.207.083-.417.109-.629 0-.303.13-.629.173-.932v-.825c.01-.137.01-.274 0-.412v-1.279c.023-.448.023-.897 0-1.345l-.151-.304zm-39.694 30.28l-2.255.607-.977-.564-3.036 7.765 9.977 5.813 3.666-9.348-7.375-4.273zm32.883-57.219l7.483 4.338 6.29-7.852-9.999-5.813-5.336 6.681.998.585.564 2.061z" fill="#E0E0E0"/><path d="M173.939 217.431l-4.794 1.302 7.353 4.338a16.317 16.317 0 01-2.559-5.64zm29.412-50.972a17.989 17.989 0 014.143-.65h.217c.288-.022.578-.022.867 0h.933l-7.483-4.339 1.323 4.989zm-29.195 35.767c.13-.585.282-1.149.434-1.735 0-.303.151-.585.238-.867a51.172 51.172 0 011.605-4.751l-9.999-5.813-.173.456-.261.716-.455 1.279v.261c0 .086-.13.412-.195.629-.066.217-.304.932-.434 1.41l-.13.39v.477c-.152.586-.304 1.15-.434 1.735-.033.176-.077.35-.13.521l-.131.672 10 5.813c-.13-.412-.022-.802.065-1.193zm10.867-22.145a50.287 50.287 0 012.624-3.037l.26-.304 1.02-1.041.412-.412a46.588 46.588 0 011.822-1.713l-9.999-5.792a97.22 97.22 0 00-1.822 1.692.577.577 0 01-.174.152l-.824.868-.434.433-1.388 1.54-1.475 1.779 9.978 5.835zm-11.127 23.338l-10-5.813-7.027 6.182 9.999 5.813 7.028-6.182z" fill="#E0E0E0"/><path d="M166.868 209.601l-9.999-5.813.021 9.739 9.023 5.249.977.564-.022-9.739zm26.137-45.246l-10-5.813-1.843 9.154 9.999 5.791 1.844-9.132zm8.459-4.902l-.998-.585-8.98-5.228-8.481 4.902 10 5.813 8.459-4.902zm-28.718 30.302l-9.999-5.813 3.687 5.118 9.999 5.813-3.687-5.118zm12.277-9.783l-10-5.791-6.29-.586 9.978 5.813 6.312.564z" fill="#E0E0E0"/><path opacity=".2" d="M185.196 227.951l-.933 1.171 8.98 5.206-1.887-7.006a17.182 17.182 0 01-6.16.629zm35.55-51.579l7.028-1.931-9.001-5.205-.608 1.561a16.644 16.644 0 012.581 5.575zm-11.907 12.081c0-.282 0-.564-.131-.824.01-.145.01-.289 0-.434 0-.238-.108-.455-.173-.672a2.335 2.335 0 00-.174-.412 4.526 4.526 0 00-.217-.586l-.216-.39a3.7 3.7 0 00-.543-.846l-.303-.412-.326-.304s-.217-.239-.347-.347l-.347-.239a7.183 7.183 0 00-7.093-.217 12.28 12.28 0 010 1.605v1.28c-.01.137-.01.275 0 .412v.824c0 .261-.108.629-.151.933l-.131.629a4.85 4.85 0 01-.151.607c0 .282-.13.543-.217.825a4.197 4.197 0 01-.152.477c0 .325-.195.629-.304.933l-.13.39-.52 1.28v.13c-.174.39-.348.759-.543 1.128a2.95 2.95 0 01-.173.369c-.174.347-.369.694-.564 1.041v.195a22.05 22.05 0 01-.738 1.193c-.26.39-.151.217-.217.347l-.585.824-.326.434-.52.672-.456.564-.455.499a13.79 13.79 0 01-.759.824l-.499.499-.391.347c-.216.217-.433.391-.65.586l-.391.325-.737.543-.347.26c-.376.26-.745.499-1.106.716l-1.063.542-.282.13h-.239a7.371 7.371 0 003.34 5.856c.231.146.479.263.738.347h.173l.629.174h.174c.289.022.579.022.868 0h1.258l.607-.109h.477l.521-.151.802-.282.564-.239h.261c.365-.166.72-.355 1.062-.564.391-.217.759-.455 1.107-.694l.368-.26.326-.261.39-.282.39-.325.369-.325.304-.261.39-.368.499-.477.759-.825.456-.52c.156-.171.301-.352.434-.542a8.35 8.35 0 00.542-.673l.325-.434.564-.846.239-.325c.238-.39.499-.781.716-1.193l.13-.217c.195-.325.368-.672.564-1.041 0 0 0-.217.173-.347.174-.13.369-.737.521-1.128v-.152c.195-.412.368-.846.52-1.258.041-.133.092-.264.152-.39 0-.304.195-.629.304-.933l.152-.477c0-.282.151-.564.217-.824 0-.217 0-.412.151-.608.047-.207.083-.417.109-.629 0-.303.13-.629.173-.932v-.825c.01-.137.01-.274 0-.412v-1.279c.023-.448.023-.897 0-1.345l-.151-.304zm-39.694 30.28l-2.255.607-.977-.564-3.036 7.765 9.977 5.813 3.666-9.348-7.375-4.273z" fill="#000"/><path opacity=".2" d="M173.939 217.431l-4.794 1.302 7.353 4.338a16.317 16.317 0 01-2.559-5.64zm29.412-50.972a17.989 17.989 0 014.143-.65h.217c.288-.022.578-.022.867 0h.933l-7.483-4.339 1.323 4.989zm-29.195 35.767c.13-.585.282-1.149.434-1.735 0-.303.151-.585.238-.867a51.172 51.172 0 011.605-4.751l-9.999-5.813-.173.456-.261.716-.455 1.279v.261c0 .086-.13.412-.195.629-.066.217-.304.932-.434 1.41l-.13.39v.477c-.152.586-.304 1.15-.434 1.735-.033.176-.077.35-.13.521l-.131.672 10 5.813c-.13-.412-.022-.802.065-1.193zm-7.288 7.375l-9.999-5.813.021 9.739 9.023 5.249.977.564-.022-9.739zm26.137-45.246l-10-5.813-1.843 9.154 9.999 5.791 1.844-9.132zm-20.259 25.4l-9.999-5.813 3.687 5.118 9.999 5.813-3.687-5.118zm12.277-9.783l-10-5.791-6.29-.586 9.978 5.813 6.312.564z" fill="#000"/><path d="M178.711 179.408l-9.978-5.813-5.986 10.347 9.999 5.813 5.965-10.347z" fill="#E0E0E0"/><path opacity=".2" d="M202.028 161.514l7.483 4.338 6.29-7.852-9.999-5.813-5.336 6.681.998.585.564 2.061zm-17.005 18.567a50.287 50.287 0 012.624-3.037l.26-.304 1.02-1.041.412-.412a46.588 46.588 0 011.822-1.713l-9.999-5.792a97.22 97.22 0 00-1.822 1.692.577.577 0 01-.174.152l-.824.868-.434.433-1.388 1.54-1.475 1.779 9.978 5.835zm-11.127 23.338l-10-5.813-7.027 6.182 9.999 5.813 7.028-6.182z" fill="#fff"/><path opacity=".2" d="M201.464 159.453l-.998-.585-8.98-5.228-8.481 4.902 10 5.813 8.459-4.902zm-22.753 19.955l-9.978-5.813-5.986 10.347 9.999 5.813 5.965-10.347z" fill="#fff"/><path d="M220.768 190.384l7.028-6.204v-9.739l-7.028 1.931a16.65 16.65 0 00-2.581-5.596l.607-1.562 3.037-7.787-6.008-3.427-6.29 7.852h-.933a5.716 5.716 0 00-.868 0h-.217a17.982 17.982 0 00-4.142.651l-1.324-4.946-.542-2.169-8.481 4.902-1.843 9.132a45.886 45.886 0 00-1.822 1.713l-.412.412-1.02 1.042-.26.303a50.66 50.66 0 00-2.625 3.037l-6.312-.586-5.964 10.346 3.687 5.119a50.878 50.878 0 00-1.605 4.751c0 .282-.174.585-.239.867-.065.282-.303 1.15-.434 1.735-.13.586-.195.781-.26 1.193l-7.027 6.182v9.739l2.169-.607 4.793-1.302a16.314 16.314 0 002.56 5.575l-3.644 9.348 6.029 3.427 5.336-6.659.933-1.171a17.184 17.184 0 006.16-.629l1.887 7.006 8.481-4.88 1.822-9.154a48.443 48.443 0 006.138-6.507l6.312.564 5.965-10.346-3.666-5.119a50.161 50.161 0 002.603-8.437zm-11.908 1.496v.824c0 .282-.108.629-.173.933a6.41 6.41 0 01-.109.629c0 .195 0 .391-.152.607-.151.217-.151.543-.217.825l-.151.477c0 .304-.196.629-.304.933-.06.126-.111.256-.152.39-.152.412-.325.846-.52 1.258v.152c-.152.39-.347.759-.521 1.128-.173.368-.13.238-.173.347-.044.108-.369.716-.564 1.041l-.131.217c-.216.412-.477.802-.715 1.193l-.239.325-.564.846-.325.434c-.169.233-.35.458-.543.672-.132.19-.277.372-.433.543l-.456.52-.759.824-.499.478-.39.368-.304.261c-.369.325-.759.65-1.15.932l-.325.26-.369.261c-.347.238-.715.477-1.106.694-.427.25-.869.474-1.323.672l-.564.239-.824.282-.521.152h-.477l-.607.108h-1.497a5.456 5.456 0 01-.867 0h-.196l-.629-.173h-.217a3.288 3.288 0 01-.737-.347 7.383 7.383 0 01-3.34-5.857 12.64 12.64 0 010-1.605 25.593 25.593 0 0111.604-20.085 12.785 12.785 0 011.562-.759 7.17 7.17 0 017.092.217l.347.238c.131 0 .239.239.347.347l.326.304.304.412a3.827 3.827 0 01.542.846l.217.39c.085.191.157.386.217.586.07.132.129.27.173.412 0 .217.109.434.174.673.01.144.01.289 0 .433 0 .261 0 .543.13.825v.39c.022.448.022.897 0 1.345.063.525.099 1.054.108 1.583zm708.101 275.055l.846 1.041-8.026 4.641 1.692-6.246a15.39 15.39 0 005.488.564zm-31.755-46.092l-6.29-1.714 8.025-4.663.564 1.41a15.015 15.015 0 00-2.299 4.967zm10.628 10.845c.014-.249.05-.496.109-.738v-.39c.061-.2.111-.403.152-.607 0-.131 0-.239.152-.369.063-.177.135-.351.217-.521 0-.108.13-.217.173-.347l.26-.434a1.67 1.67 0 01.239-.303c.082-.132.176-.256.282-.369l.282-.282.303-.304.326-.216a6.363 6.363 0 013.13-.938 6.363 6.363 0 013.182.742v2.581c-.01.123-.01.246 0 .369v.738l.13.824c0 .195 0 .39.108.564l.13.542c0 .239.131.499.217.738l.13.433c0 .261.174.543.282.825a2.233 2.233 0 000 .347l.456 1.128v.13c.152.347.304.672.477 1.019.174.347.109.195.152.304l.499.932a.917.917 0 010 .196l.651 1.062.216.304.499.738.304.39.455.607.413.478.39.455.694.738.434.433.347.326.586.52.368.282.651.499.304.239c.319.223.653.425.997.607.309.183.628.35.955.499h.455a6.5 6.5 0 01-2.993 5.227l-.651.304h-.173l-.564.152h-.152a4.63 4.63 0 01-.781 0h-2.06a3.767 3.767 0 01-.456-.13l-.737-.239-.521-.217-.238-.108c-.304-.152-.629-.304-.955-.499a23.605 23.605 0 01-.976-.608l-.304-.238-.325-.239-.347-.26-.347-.282-.325-.282h.108l-.347-.325a4.234 4.234 0 01-.434-.434c-.238-.239-.477-.477-.694-.738l-.39-.455c-.152-.152-.282-.325-.412-.477l-.478-.608-.282-.39-.52-.737-.195-.304-.651-1.063-.108-.195a12.368 12.368 0 01-.499-.933 1.917 1.917 0 01-.152-.304c-.174-.325-.326-.672-.477-.997v-.152a12.103 12.103 0 01-.456-1.128l-.13-.347c0-.282-.195-.542-.282-.824l-.13-.434-.195-.738-.13-.542v-.564c0-.282-.109-.542-.152-.824V434.421a6.9 6.9 0 010-1.15 10.79 10.79 0 010-1.193l-.196-.39zm35.421 27.004l2.017.564.889-.52 2.711 6.94-8.936 5.184-3.254-8.35 6.573-3.818zm-29.347-51.08l-6.681 3.882-5.618-7.027 8.937-5.184 4.75 5.964-.889.521-.499 1.844z" fill="#E0E0E0"/><path d="M927.003 457.543l4.338 1.149-6.507 3.818a14.182 14.182 0 002.169-4.967zm-26.288-45.507a15.355 15.355 0 00-3.688-.585h-1.8l6.681-3.883-1.193 4.468zm26.071 31.929c0-.521-.238-1.042-.368-1.562 0-.26-.152-.499-.217-.759a67.285 67.285 0 00-1.432-4.338l8.915-5.184.152.39.238.651.391 1.128.108.26.152.542c.13.434.282.846.39 1.28.049.111.086.228.109.347v.412c.13.521.26 1.041.369 1.562l.13.455c.048.2.085.403.108.608l-8.828 5.27c0-.325-.13-.715-.217-1.062zm-9.695-19.869a47.3 47.3 0 00-2.343-2.689l-.238-.282-.89-.911-.39-.369a27.532 27.532 0 00-1.627-1.54l8.915-5.184 1.648 1.518.152.152.716.759.39.391c.434.448.846.903 1.237 1.366.455.521.889 1.041 1.323 1.584l-8.893 5.205zm9.934 20.931l8.915-5.184 6.268 5.531-8.915 5.163-6.268-5.51z" fill="#E0E0E0"/><path d="M933.293 450.537l8.915-5.163-.021 8.676-8.026 4.686-.889.52.021-8.719zm-23.317-40.388l8.915-5.184 1.627 8.156-8.915 5.184-1.627-8.156z" fill="#E0E0E0"/><path d="M902.407 405.768l.889-.521 8.025-4.663 7.57 4.381-8.915 5.184-7.569-4.381zm25.637 27.069l8.937-5.184-3.297 4.555-8.915 5.184 3.275-4.555zm-10.953-8.741l8.915-5.184 5.639-.52-8.936 5.184-5.618.52z" fill="#E0E0E0"/><path d="M922.709 423.576l8.936-5.184 5.336 9.261-8.937 5.184-5.335-9.261z" fill="#E0E0E0"/><path d="M887.419 440.993l-3.276 4.577 5.336 9.24 5.64-.499a41.894 41.894 0 005.466 5.769l1.626 8.178 7.57 4.338 1.692-6.247a15.39 15.39 0 005.488.564l.846 1.041 4.772 5.943 5.357-3.058-3.254-8.351a14.19 14.19 0 002.3-4.967l4.338 1.15 2.017.563v-8.676l-6.334-5.531c0-.368-.151-.715-.238-1.062-.087-.348-.239-1.042-.369-1.562-.13-.521-.152-.499-.217-.759a67.262 67.262 0 00-1.431-4.338l3.275-4.555-5.358-9.175-5.617.52a48.108 48.108 0 00-2.343-2.689l-.239-.282-.889-.911-.39-.369a27.532 27.532 0 00-1.627-1.54l-1.627-8.156-7.57-4.338-.499 1.844-1.193 4.338a15.3 15.3 0 00-3.687-.586h-1.8l-5.618-7.027-5.358 3.08 2.69 6.941.564 1.41a14.995 14.995 0 00-2.299 4.967l-6.29-1.714v8.676l6.268 5.531a45.34 45.34 0 002.278 7.722zm8.307-7.787a10.79 10.79 0 010-1.193v-.347a4.07 4.07 0 01.108-.737v-.391c.061-.2.112-.402.152-.607 0-.13 0-.239.152-.369.063-.177.135-.351.217-.52 0-.109.13-.217.174-.347l.26-.434c.067-.11.147-.212.238-.304.082-.132.176-.255.282-.369l.282-.282.304-.303.325-.217a6.352 6.352 0 016.312-.195c.456.195.933.412 1.41.672a22.836 22.836 0 0110.346 17.938v1.431a6.5 6.5 0 01-2.993 5.228l-.651.303h-.195l-.564.152h-.173c-.26.023-.521.023-.781 0h-2.082a3.593 3.593 0 01-.456-.13l-.737-.238-.521-.217a12.5 12.5 0 01-1.193-.608 11.79 11.79 0 01-.976-.607l-.304-.239-.325-.238-1.019-.824-.174-.174-.347-.325a4.234 4.234 0 01-.434-.434c-.238-.239-.477-.477-.694-.738l-.39-.455c-.152-.152-.282-.325-.412-.477l-.478-.608-.282-.39-.52-.738-.195-.303-.651-1.063-.109-.195c-.173-.304-.347-.608-.498-.933a1.272 1.272 0 01-.152-.304c-.174-.325-.326-.672-.477-.997v-.152a12.103 12.103 0 01-.456-1.128l-.13-.347c0-.282-.195-.542-.282-.824l-.13-.434-.195-.738-.131-.542v-.564c0-.195-.108-.542-.151-.824-.044-.282 0-.499 0-.738a11.982 11.982 0 01-.304-1.583z" fill="#E0E0E0"/><path opacity=".2" d="M916.961 466.935l.846 1.041-8.026 4.641 1.692-6.246a15.39 15.39 0 005.488.564zm-31.755-46.092l-6.29-1.714 8.025-4.663.564 1.41a15.015 15.015 0 00-2.299 4.967zm10.628 10.845c.014-.249.05-.496.109-.738v-.39c.061-.2.111-.403.152-.607 0-.131 0-.239.152-.369.063-.177.135-.351.217-.521 0-.108.13-.217.173-.347l.26-.434a1.67 1.67 0 01.239-.303c.082-.132.176-.256.282-.369l.282-.282.303-.304.326-.216a6.363 6.363 0 013.13-.938 6.363 6.363 0 013.182.742v2.581c-.01.123-.01.246 0 .369v.738l.13.824c0 .195 0 .39.108.564l.13.542c0 .239.131.499.217.738l.13.433c0 .261.174.543.282.825a2.233 2.233 0 000 .347l.456 1.128v.13c.152.347.304.672.477 1.019.174.347.109.195.152.304l.499.932a.917.917 0 010 .196l.651 1.062.216.304.499.738.304.39.455.607.413.478.39.455.694.738.434.433.347.326.586.52.368.282.651.499.304.239c.319.223.653.425.997.607.309.183.628.35.955.499h.455a6.5 6.5 0 01-2.993 5.227l-.651.304h-.173l-.564.152h-.152a4.63 4.63 0 01-.781 0h-2.06a3.767 3.767 0 01-.456-.13l-.737-.239-.521-.217-.238-.108c-.304-.152-.629-.304-.955-.499a23.605 23.605 0 01-.976-.608l-.304-.238-.325-.239-.347-.26-.347-.282-.325-.282h.108l-.347-.325a4.234 4.234 0 01-.434-.434c-.238-.239-.477-.477-.694-.738l-.39-.455c-.152-.152-.282-.325-.412-.477l-.478-.608-.282-.39-.52-.737-.195-.304-.651-1.063-.108-.195a12.368 12.368 0 01-.499-.933 1.917 1.917 0 01-.152-.304c-.174-.325-.326-.672-.477-.997v-.152a12.103 12.103 0 01-.456-1.128l-.13-.347c0-.282-.195-.542-.282-.824l-.13-.434-.195-.738-.13-.542v-.564c0-.282-.109-.542-.152-.824V434.421a6.9 6.9 0 010-1.15 10.79 10.79 0 010-1.193l-.196-.39zm35.421 27.004l2.017.564.889-.52 2.711 6.94-8.936 5.184-3.254-8.35 6.573-3.818z" fill="#000"/><path opacity=".2" d="M927.003 457.543l4.338 1.149-6.507 3.818a14.182 14.182 0 002.169-4.967zm-26.288-45.507a15.355 15.355 0 00-3.688-.585h-1.8l6.681-3.883-1.193 4.468zm26.071 31.929c0-.521-.238-1.042-.368-1.562 0-.26-.152-.499-.217-.759a67.285 67.285 0 00-1.432-4.338l8.915-5.184.152.39.238.651.391 1.128.108.26.152.542c.13.434.282.846.39 1.28.049.111.086.228.109.347v.412c.13.521.26 1.041.369 1.562l.13.455c.048.2.085.403.108.608l-8.828 5.27c0-.325-.13-.715-.217-1.062zm6.507 6.572l8.915-5.163-.021 8.676-8.026 4.686-.889.52.021-8.719zm-23.317-40.388l8.915-5.184 1.627 8.156-8.915 5.184-1.627-8.156z" fill="#000"/><path opacity=".2" d="M928.044 432.837l8.937-5.184-3.297 4.555-8.915 5.184 3.275-4.555zm-10.953-8.741l8.915-5.184 5.639-.52-8.936 5.184-5.618.52z" fill="#000"/><path opacity=".2" d="M901.908 407.612l-6.681 3.882-5.618-7.027 8.937-5.184 4.75 5.964-.889.521-.499 1.844zm15.183 16.484a47.3 47.3 0 00-2.343-2.689l-.238-.282-.89-.911-.39-.369a27.532 27.532 0 00-1.627-1.54l8.915-5.184 1.648 1.518.152.152.716.759.39.391c.434.448.846.903 1.237 1.366.455.521.889 1.041 1.323 1.584l-8.893 5.205zm9.934 20.931l8.915-5.184 6.268 5.531-8.915 5.163-6.268-5.51z" fill="#fff"/><path opacity=".2" d="M902.407 405.768l.889-.521 8.025-4.663 7.57 4.381-8.915 5.184-7.569-4.381zm20.302 17.808l8.936-5.184 5.336 9.261-8.937 5.184-5.335-9.261z" fill="#fff"/><path d="M955.201 525.802l.564.716-5.531 3.232 1.149-4.339c1.237.368 2.532.501 3.818.391zm-21.929-31.863l-4.338-1.193 5.553-3.232.39.976a10.102 10.102 0 00-1.605 3.449zm7.331 7.461a3.463 3.463 0 010-.499v-.282c0-.13 0-.282.109-.412a1.31 1.31 0 01.108-.26l.13-.347.13-.239s.109-.216.174-.303l.173-.217.196-.26.195-.174c.061-.083.134-.156.217-.217l.217-.152a4.33 4.33 0 014.338-.151v2.559c.023.19.06.379.108.564v.781c0 .13 0 .325.152.499-.01.101-.01.202 0 .303.042.195.108.385.195.564v.239l.326.802.325.694.108.217.347.651v.13c.131.239.282.477.434.716l.152.217.347.52.217.261c.089.146.19.284.304.412l.282.347.282.304.477.52.303.304.239.217.412.368.239.196.455.347.217.152.673.433.672.347h.304a4.53 4.53 0 01-2.061 3.623l-.456.217h-.13l-.39.108h-.13a2.162 2.162 0 01-.521 0h-1.757l-.52-.174-.347-.151h-.174l-.65-.347-.695-.434-.217-.152.413-.13-.239-.195-.26-.196-.217-.195-.174-.152-.238-.238-.326-.304-.477-.499-.238-.39-.282-.326-.326-.412-.195-.282-.369-.52-.13-.195-.455-.738v-.13a9.346 9.346 0 01-.347-.651.659.659 0 010-.217 4.105 4.105 0 01-.326-.694c-.13-.26-.217-.52-.325-.781-.109-.26 0-.173 0-.238l-.195-.586v-.282l-.13-.52a2.067 2.067 0 010-.369v-.954a4.117 4.117 0 010-.521V501.661c0-.261-.673-.174-.673-.261zm24.532 18.697l1.388.391.607-.347 1.866 4.793-6.16 3.579-2.256-5.769 4.555-2.647zm-20.324-35.333l-4.62 2.69-3.883-4.859 6.182-3.579 3.297 4.121-.629.347-.347 1.28z" fill="#E0E0E0"/><path d="M962.163 519.295l2.972.824-4.555 2.625a9.916 9.916 0 001.583-3.449zm-18.155-31.473a11.136 11.136 0 00-2.559-.39h-1.258l4.62-2.69-.803 3.08zm18.025 22.103l-.26-1.085c0-.173 0-.347-.152-.542a30.934 30.934 0 00-.998-2.928l6.182-3.579a1.255 1.255 0 000 .26l.152.456c0 .26.195.52.282.78v.174c0 .13 0 .26.108.39.109.13.195.586.282.868v.542c.109.347.195.716.282 1.063v.325c.01.138.01.275 0 .412l-6.16 3.579c.391-.238.347-.477.282-.715zm-6.702-13.752a26.953 26.953 0 00-1.627-1.865l-.173-.196-.608-.629-.26-.26-1.128-1.063 6.16-3.579 1.128 1.063h.108l.521.521.26.282c.282.303.586.629.846.954l.911 1.106-6.138 3.666zm6.876 14.467l6.16-3.578 4.338 3.817-6.16 3.601-4.338-3.84z" fill="#E0E0E0"/><path d="M966.545 514.48l6.16-3.601-.022 6.03-5.553 3.232-.607.347.022-6.008zm-16.138-27.959l6.16-3.579 1.128 5.639-6.16 3.579-1.128-5.639zm-5.249-3.037l.629-.347 5.553-3.232 5.227 3.037-6.16 3.579-5.249-3.037zm17.743 18.719l6.181-3.579-2.277 3.167-6.182 3.579 2.278-3.167zm-7.57-6.03l6.16-3.579 3.904-.369-6.182 3.601-3.882.347z" fill="#E0E0E0"/><path d="M959.213 495.826l6.182-3.601 3.687 6.399-6.181 3.579-3.688-6.377z" fill="#E0E0E0"/><path d="M934.812 507.864l-2.278 3.167 3.688 6.398 3.904-.368a28.945 28.945 0 003.774 4.012l1.128 5.64 5.249 3.036 1.15-4.338c1.237.368 2.531.5 3.817.391l.564.716 3.319 4.121 3.709-2.169-2.169-5.77a9.916 9.916 0 001.583-3.449l2.972.825 1.388.368v-6.008l-4.338-3.839c0-.239-.109-.477-.174-.716l-.26-1.084c0-.174 0-.347-.152-.543a30.934 30.934 0 00-.998-2.928l2.278-3.167-3.687-6.376-3.883.347a27.207 27.207 0 00-1.627-1.866l-.173-.195-.608-.629-.26-.26-1.128-1.063-1.128-5.64-5.249-3.036-.347 1.279-.802 3.059a11.138 11.138 0 00-2.56-.391h-1.258l-3.882-4.858-3.71 2.169 1.866 4.793.39.976a10.125 10.125 0 00-1.583 3.449l-4.338-1.193v6.03l4.338 3.818a31.833 31.833 0 001.475 5.292zm5.726-5.379V501.4a3.463 3.463 0 010-.499v-.282c0-.13 0-.282.109-.412a1.31 1.31 0 01.108-.26l.13-.347.13-.239s.109-.216.174-.303l.173-.217.196-.26.195-.174c.061-.083.134-.156.217-.217l.217-.152a4.345 4.345 0 014.338-.152l.976.478a15.764 15.764 0 017.157 12.406c.023.333.023.666 0 .998a4.525 4.525 0 01-2.06 3.623l-.456.216h-.13l-.39.109h-.13a2.162 2.162 0 01-.521 0h-1.757l-.52-.174-.347-.151a4.929 4.929 0 01-.825-.413l-.694-.433-.217-.152-.086-.282-.716-.586-.174-.152-.238-.238-.326-.304-.477-.499-.238-.39-.282-.326-.326-.412-.195-.282-.369-.52-.13-.195-.455-.738v-.13a9.346 9.346 0 01-.347-.651.659.659 0 010-.217 4.105 4.105 0 01-.326-.694c-.13-.26-.217-.52-.325-.781-.109-.26 0-.173 0-.238l-.195-.586v-.282l-.13-.52-.109-.369v-.955a4.101 4.101 0 010-.52 8.94 8.94 0 01-.629-1.041z" fill="#E0E0E0"/><path opacity=".2" d="M955.201 525.802l.564.716-5.531 3.232 1.149-4.339c1.237.368 2.532.501 3.818.391zm-21.929-31.863l-4.338-1.193 5.553-3.232.39.976a10.102 10.102 0 00-1.605 3.449zm7.331 7.461a3.463 3.463 0 010-.499v-.282c0-.13 0-.282.109-.412a1.31 1.31 0 01.108-.26l.13-.347.13-.239s.109-.216.174-.303l.173-.217.196-.26.195-.174c.061-.083.134-.156.217-.217l.217-.152a4.33 4.33 0 014.338-.151v2.559c.023.19.06.379.108.564v.781c0 .13 0 .325.152.499-.01.101-.01.202 0 .303.042.195.108.385.195.564v.239l.326.802.325.694.108.217.347.651v.13c.131.239.282.477.434.716l.152.217.347.52.217.261c.089.146.19.284.304.412l.282.347.282.304.477.52.303.304.239.217.412.368.239.196.455.347.217.152.673.433.672.347h.304a4.53 4.53 0 01-2.061 3.623l-.456.217h-.13l-.39.108h-.13a2.162 2.162 0 01-.521 0h-1.757l-.52-.174-.347-.151h-.174l-.65-.347-.695-.434-.217-.152.413-.13-.239-.195-.26-.196-.217-.195-.174-.152-.238-.238-.326-.304-.477-.499-.238-.39-.282-.326-.326-.412-.195-.282-.369-.52-.13-.195-.455-.738v-.13a9.346 9.346 0 01-.347-.651.659.659 0 010-.217 4.105 4.105 0 01-.326-.694c-.13-.26-.217-.52-.325-.781-.109-.26 0-.173 0-.238l-.195-.586v-.282l-.13-.52a2.067 2.067 0 010-.369v-.954a4.117 4.117 0 010-.521V501.661c0-.261-.673-.174-.673-.261zm24.532 18.697l1.388.391.607-.347 1.866 4.793-6.16 3.579-2.256-5.769 4.555-2.647z" fill="#000"/><path opacity=".2" d="M962.163 519.295l2.972.824-4.555 2.625a9.916 9.916 0 001.583-3.449zm-18.155-31.473a11.136 11.136 0 00-2.559-.39h-1.258l4.62-2.69-.803 3.08zm18.025 22.103l-.26-1.085c0-.173 0-.347-.152-.542a30.934 30.934 0 00-.998-2.928l6.182-3.579a1.255 1.255 0 000 .26l.152.456c0 .26.195.52.282.78v.174c0 .13 0 .26.108.39.109.13.195.586.282.868v.542c.109.347.195.716.282 1.063v.325c.01.138.01.275 0 .412l-6.16 3.579c.391-.238.347-.477.282-.715zm4.512 4.555l6.16-3.601-.022 6.03-5.553 3.232-.607.347.022-6.008zm-16.138-27.959l6.16-3.579 1.128 5.639-6.16 3.579-1.128-5.639zm12.494 15.682l6.181-3.579-2.277 3.167-6.182 3.579 2.278-3.167zm-7.57-6.03l6.16-3.579 3.904-.369-6.182 3.601-3.882.347z" fill="#000"/><path opacity=".2" d="M944.811 484.764l-4.62 2.69-3.883-4.859 6.182-3.579 3.297 4.121-.629.347-.347 1.28zm10.52 11.409a26.953 26.953 0 00-1.627-1.865l-.173-.196-.608-.629-.26-.26-1.128-1.063 6.16-3.579 1.128 1.063h.108l.521.521.26.282c.282.303.586.629.846.954l.911 1.106-6.138 3.666zm6.876 14.467l6.16-3.578 4.338 3.817-6.16 3.601-4.338-3.84z" fill="#fff"/><path opacity=".2" d="M945.158 483.484l.629-.347 5.553-3.232 5.227 3.037-6.16 3.579-5.249-3.037zm14.055 12.342l6.182-3.601 3.687 6.399-6.181 3.579-3.688-6.377z" fill="#fff"/><path d="M903.816 517.993l.478.586-4.599 2.69.955-3.601c1.028.294 2.1.404 3.166.325zm-18.263-26.462l-3.6-.997 4.62-2.69.303.824a8.699 8.699 0 00-1.323 2.863zm6.117 6.182a2.576 2.576 0 010-.412.659.659 0 010-.217 2.87 2.87 0 000-.347v-.217l.13-.304a.869.869 0 01.109-.195l.13-.26.151-.174c.044-.077.095-.149.152-.217l.152-.151.195-.174.174-.13a3.745 3.745 0 013.644-.108 4.929 4.929 0 000 .824v.65a.875.875 0 010 .217v.434a4.217 4.217 0 000 .477c-.01.109-.01.218 0 .326v.303c0 .131 0 .282.108.412a1.265 1.265 0 000 .261c0 .152 0 .303.152.477v.195l.26.651.282.564v.195l.282.521v.108c.11.21.234.413.369.607l.13.174.282.434.174.217.26.347.239.282.216.26.413.434c.074.085.153.164.238.238l.217.196.325.282a.862.862 0 00.217.173c.114.106.237.2.369.282l.174.13.564.369.542.282h.152a3.796 3.796 0 01-1.692 3.015l-.391.173h-2.32l-.413-.13-.303-.13h-.13l-.543-.282a5.02 5.02 0 01-.564-.347l-.173-.13-.195-.13-.196-.152-.195-.174-.195-.173-.152-.13-.195-.174-.26-.26-.391-.412-.217-.261-.238-.281a2.15 2.15 0 00-.282-.347l-.152-.239-.304-.412a1.263 1.263 0 000-.174c-.13-.217-.26-.412-.368-.629v-.108l-.304-.521a.42.42 0 000-.173l-.26-.586-.261-.651v-.195c0-.152-.108-.325-.173-.477v-.239a3.048 3.048 0 01-.109-.433 1.715 1.715 0 010-.304V497.887c0-.217.152-.087.174-.174zm20.367 15.552l1.15.304.498-.282 1.562 3.991-5.119 2.971-1.887-4.793 3.796-2.191zm-16.875-29.369l-3.839 2.234-3.232-4.034 5.141-2.971 2.733 3.405-.521.325-.282 1.041z" fill="#E0E0E0"/><path d="M909.651 512.593l2.473.672-3.796 2.169a8.1 8.1 0 001.323-2.841zm-15.183-26.159a9.206 9.206 0 00-2.169-.325h-1.041l3.839-2.169-.629 2.494zm14.988 18.35c0-.282-.13-.586-.217-.889l-.13-.434a20.12 20.12 0 00-.824-2.429l5.14-2.994a.659.659 0 000 .217l.13.391.239.65a.321.321 0 000 .131c.01.108.01.217 0 .325 0 .239.173.477.239.716v.455c0 .087.151.586.216.89.01.086.01.173 0 .26.01.115.01.231 0 .347l-4.598 3.015c0-.239-.152-.434-.195-.651zm-5.575-11.409a31.655 31.655 0 00-1.344-1.562l-.13-.152-.521-.52-.217-.217-.933-.868 5.119-2.993c.326.282.629.586.933.889.152.152.282.304.434.434l.217.239.715.781.738.911-5.011 3.058z" fill="#E0E0E0"/><path d="M909.586 505.391l5.141-2.971 3.6 3.167-5.14 2.993-3.601-3.189z" fill="#E0E0E0"/><path d="M913.187 508.58l5.14-2.993-.021 5.01-4.621 2.69-.498.282v-4.989zm-13.405-23.23l5.141-2.972.932 4.685-5.119 2.993-.954-4.706zm-4.338-2.495l.521-.325 4.598-2.668 4.36 2.516-5.141 2.972-4.338-2.495zm14.749 15.53l5.119-2.971-1.887 2.624-5.14 2.994 1.908-2.647zm-6.311-5.01l5.118-2.972 3.232-.303-5.119 2.993-3.231.282z" fill="#E0E0E0"/><path d="M907.113 493.093l5.119-2.993 3.08 5.314-5.119 2.971-3.08-5.292z" fill="#E0E0E0"/><path d="M886.833 503.092l-1.887 2.625 3.08 5.314 3.232-.304a25.619 25.619 0 003.21 3.384l.933 4.685 4.338 2.516.954-3.601c1.028.294 2.1.404 3.167.326l.477.585 2.733 3.427 3.102-1.756-1.887-4.794a8.124 8.124 0 001.323-2.863l2.472.672 1.15.304v-4.989l-3.579-3.188c0-.195 0-.391-.13-.608-.13-.217-.13-.585-.217-.889l-.13-.434a20.18 20.18 0 00-.824-2.429l1.908-2.646-3.08-5.314-3.231.303a31.717 31.717 0 00-1.345-1.561l-.13-.152-.521-.521-.217-.217-.933-.867-.954-4.707-4.338-2.516-.282 1.063-.694 2.537a9.25 9.25 0 00-2.169-.325h-1.041l-3.232-4.034-3.08 1.757 1.562 3.991.303.824a8.69 8.69 0 00-1.323 2.863l-3.6-.998v4.989l3.6 3.188a28.006 28.006 0 001.28 4.36zm4.772-4.49v-.889a2.576 2.576 0 010-.412.659.659 0 010-.217 2.87 2.87 0 000-.347v-.217l.13-.304a.906.906 0 01.108-.195l.131-.26.151-.174c.044-.077.094-.15.152-.217l.152-.151.195-.174.174-.13a3.755 3.755 0 013.644-.109l.802.391a13.205 13.205 0 015.943 10.303c.023.274.023.55 0 .824a3.791 3.791 0 01-1.691 3.015l-.391.173h-2.451l-.412-.13-.304-.13a6.565 6.565 0 01-.672-.347 4.93 4.93 0 01-.564-.347l-.173-.13-.196-.13-.585-.499-.152-.13-.195-.174-.261-.26-.39-.412-.217-.26-.239-.282a2.088 2.088 0 00-.282-.347l-.151-.239-.304-.412a1.263 1.263 0 000-.174c-.13-.217-.26-.412-.369-.629v-.108l-.304-.521a.42.42 0 000-.173l-.26-.586-.26-.651v-.195c0-.152-.108-.325-.174-.477v-.239a3.187 3.187 0 01-.108-.433 1.544 1.544 0 010-.304v-1.236c0-.152-.477-.629-.477-.955z" fill="#E0E0E0"/><path opacity=".2" d="M903.816 517.993l.478.586-4.599 2.69.955-3.601c1.028.294 2.1.404 3.166.325zm-18.263-26.462l-3.6-.997 4.62-2.69.303.824a8.699 8.699 0 00-1.323 2.863zm6.117 6.182a2.576 2.576 0 010-.412.659.659 0 010-.217 2.87 2.87 0 000-.347v-.217l.13-.304a.869.869 0 01.109-.195l.13-.26.151-.174c.044-.077.095-.149.152-.217l.152-.151.195-.174.174-.13a3.745 3.745 0 013.644-.108 4.929 4.929 0 000 .824v.65a.875.875 0 010 .217v.434a4.217 4.217 0 000 .477c-.01.109-.01.218 0 .326v.303c0 .131 0 .282.108.412a1.265 1.265 0 000 .261c0 .152 0 .303.152.477v.195l.26.651.282.564v.195l.282.521v.108c.11.21.234.413.369.607l.13.174.282.434.174.217.26.347.239.282.216.26.413.434c.074.085.153.164.238.238l.217.196.325.282a.862.862 0 00.217.173c.114.106.237.2.369.282l.174.13.564.369.542.282h.152a3.796 3.796 0 01-1.692 3.015l-.391.173h-2.32l-.413-.13-.303-.13h-.13l-.543-.282a5.02 5.02 0 01-.564-.347l-.173-.13-.195-.13-.196-.152-.195-.174-.195-.173-.152-.13-.195-.174-.26-.26-.391-.412-.217-.261-.238-.281a2.15 2.15 0 00-.282-.347l-.152-.239-.304-.412a1.263 1.263 0 000-.174c-.13-.217-.26-.412-.368-.629v-.108l-.304-.521a.42.42 0 000-.173l-.26-.586-.261-.651v-.195c0-.152-.108-.325-.173-.477v-.239a3.048 3.048 0 01-.109-.433 1.715 1.715 0 010-.304V497.887c0-.217.152-.087.174-.174zm20.367 15.552l1.15.304.498-.282 1.562 3.991-5.119 2.971-1.887-4.793 3.796-2.191z" fill="#000"/><path opacity=".2" d="M909.651 512.593l2.473.672-3.796 2.169a8.1 8.1 0 001.323-2.841zm-15.183-26.159a9.206 9.206 0 00-2.169-.325h-1.041l3.839-2.169-.629 2.494zm14.988 18.35c0-.282-.13-.586-.217-.889l-.13-.434a20.12 20.12 0 00-.824-2.429l5.14-2.994a.659.659 0 000 .217l.13.391.239.65a.321.321 0 000 .131c.01.108.01.217 0 .325 0 .239.173.477.239.716v.455c0 .087.151.586.216.89.01.086.01.173 0 .26.01.115.01.231 0 .347l-4.598 3.015c0-.239-.152-.434-.195-.651zm3.731 3.796l5.14-2.993-.021 5.01-4.621 2.69-.498.282v-4.989zm-13.405-23.23l5.141-2.972.932 4.685-5.119 2.993-.954-4.706z" fill="#000"/><path opacity=".2" d="M910.193 498.385l5.119-2.971-1.887 2.624-5.14 2.994 1.908-2.647zm-6.311-5.01l5.118-2.972 3.232-.303-5.119 2.993-3.231.282z" fill="#000"/><path opacity=".2" d="M895.162 483.896l-3.839 2.234-3.232-4.034 5.141-2.971 2.733 3.405-.521.325-.282 1.041zm8.719 9.479a31.655 31.655 0 00-1.344-1.562l-.13-.152-.521-.52-.217-.217-.933-.868 5.119-2.993c.326.282.629.586.933.889.152.152.282.304.434.434l.217.239.715.781.738.911-5.011 3.058zm5.705 12.016l5.141-2.971 3.6 3.167-5.14 2.993-3.601-3.189z" fill="#fff"/><path opacity=".2" d="M895.444 482.855l.521-.325 4.598-2.668 4.36 2.516-5.141 2.972-4.338-2.495zm11.669 10.238l5.119-2.993 3.08 5.314-5.119 2.971-3.08-5.292z" fill="#fff"/><path d="M741.66 594.365c-15.183 10.52-32.21 17.807-44.877 31.906-23.621 26.354-24.185 68.737-5.618 98.886 18.567 30.15 53.098 48.239 88.236 52.382 36.874 4.338 75.591-5.835 104.525-29.108 28.935-23.274 47.415-59.714 47.415-96.869s-19.022-74.116-50.126-94.396c-28.392-18.502-69.17-23.859-97.606-2.603-14.381 10.693-23.989 26.506-38.348 37.242l-3.601 2.56z" fill="#455A64"/><path opacity=".3" d="M741.66 594.365c-15.183 10.52-32.21 17.807-44.877 31.906-23.621 26.354-24.185 68.737-5.618 98.886 18.567 30.15 53.098 48.239 88.236 52.382 36.874 4.338 75.591-5.835 104.525-29.108 28.935-23.274 47.415-59.714 47.415-96.869s-19.022-74.116-50.126-94.396c-28.392-18.502-69.17-23.859-97.606-2.603-14.381 10.693-23.989 26.506-38.348 37.242l-3.601 2.56z" fill="#fff"/><path opacity=".1" d="M747.842 748.691c0-.26 0-.499.108-.759a39.864 39.864 0 0132.319-33.23 126.296 126.296 0 0041.385-15.855c9.045-5.466 17.612-12.168 27.742-15.183a45.243 45.243 0 0129.889 1.8 34.7 34.7 0 00-34.705-8.871c8.091-12.386 15.184-25.725 17.982-40.236 2.798-14.511.824-30.475-7.939-42.383a42.622 42.622 0 00-65.83-3.513c-8.676 9.478-13.556 22.839-19.261 34.357-4.078 8.286-8.307 16.745-15.053 23.057-10.173 9.522-24.814 13.014-35.355 22.059-11.973 10.303-17.136 26.809-17.179 42.621a125.622 125.622 0 004.512 31.473 120.245 120.245 0 0043.272 26.462 46.8 46.8 0 01-1.887-21.799z" fill="#000"/><path d="M911.473 646.421a108.453 108.453 0 00-92.466-105.219 76.73 76.73 0 00-10.454 1.757 105.635 105.635 0 0170.399 32.076 105.635 105.635 0 0129.658 71.451c.672 34.553-16.224 69.8-45.224 94.245-22.732 19.152-52.924 31.863-86.089 36.439l2.169.261c2.993.347 5.987.607 8.98.759 29.477-5.705 56.178-17.851 76.848-35.29 29.586-24.901 46.873-61.015 46.179-96.479z" fill="#fff"/><path d="M709.211 737.13a106.107 106.107 0 011.844 17.244l4.099-1.54a10.538 10.538 0 0111.366 2.603l.195.195a4.1 4.1 0 005.683.26 4.045 4.045 0 001.41-2.971l.564-17.353-25.161 1.562z" fill="#FFA8A7"/><path d="M725.002 801.854c-8.481 9.088-24.12 17.027-35.485 9.283l1.279 2.885c11.366 7.743 27.005-.195 35.486-9.283 8.48-9.089 2.971-15.357 10.628-23.426a27.833 27.833 0 006.507-9.804c-.326-.867-.651-1.995-1.063-3.297a34.558 34.558 0 01-6.811 10.216c-7.548 8.047-2.039 14.338-10.541 23.426z" fill="#263238"/><path d="M738.298 758.712a16.402 16.402 0 01-2.668-6.182 3.628 3.628 0 00-1.67-2.538l-.109 2.929a4.047 4.047 0 01-1.409 2.971 4.096 4.096 0 01-5.683-.26l-.195-.195a10.544 10.544 0 00-11.366-2.603l-4.165 1.562a3.185 3.185 0 00-2.169 3.058c.261 11.93-5.292 27.742-11.127 36.418-6.008 2.494-11.192 10.672-8.546 16.658l.261.607c11.365 7.744 27.004-.195 35.485-9.283 8.481-9.088 2.993-15.379 10.628-23.426a34.558 34.558 0 006.811-10.216 37.342 37.342 0 00-4.078-9.5z" fill="#37474F"/><path d="M721.64 775.912a1.455 1.455 0 101.345-2.581 16.624 16.624 0 00-16.311 0 87.384 87.384 0 01-.803 2.798 15.988 15.988 0 0115.769-.217zm2.104-6.442a1.43 1.43 0 001.93-.65 1.455 1.455 0 00-.607-1.931 17.354 17.354 0 00-16.962.152c-.173.954-.369 1.93-.586 2.907a16.18 16.18 0 0116.225-.478zm-4.382 12.841a1.443 1.443 0 001.942-.618 1.443 1.443 0 00-.619-1.942 16.53 16.53 0 00-15.964-.173c-.347 1.019-.737 1.995-1.127 2.972a15.982 15.982 0 0115.768-.239zm-21.56 11.604c-6.008 2.495-11.192 10.672-8.546 16.658l.261.608c11.192 7.635 26.527 0 35.094-8.872-7.157-14.077-22.102-10.563-26.809-8.394zm19.044-5.336a1.475 1.475 0 001.931-.65 1.454 1.454 0 00-.608-1.931 16.578 16.578 0 00-15.985-.152c-.499 1.128-1.041 2.17-1.562 3.211a16.114 16.114 0 0116.224-.478z" fill="#fff"/><path d="M691.36 771.748a104.419 104.419 0 01-5.27 16.528l4.338.238a10.609 10.609 0 019.37 6.963v.282a4.12 4.12 0 005.097 2.516 4.018 4.018 0 002.494-2.169l7.527-15.704-23.556-8.654z" fill="#FFA8A7"/><path d="M679.734 837.296c-11.431 4.88-28.935 5.834-36.201-5.857v3.167c7.266 11.67 24.77 10.715 36.201 5.835 11.431-4.88 8.937-12.862 19.174-17.157a27.6 27.6 0 0010-6.312c0-.911.195-2.169.368-3.427a35.31 35.31 0 01-10.368 6.507c-10.281 4.447-7.786 12.407-19.174 17.244z" fill="#263238"/><path d="M709.233 803.22a16.625 16.625 0 010-6.724 3.551 3.551 0 00-.521-2.993l-1.214 2.581a4.12 4.12 0 01-6.164 1.54 4.114 4.114 0 01-1.428-1.909v-.281a10.602 10.602 0 00-9.37-6.963l-4.338-.239a3.188 3.188 0 00-3.123 1.974c-4.577 10.997-16.051 23.23-24.879 28.826-6.507-.151-14.533 5.228-14.533 11.778v.651c7.267 11.691 24.771 10.737 36.201 5.856 11.431-4.88 8.937-12.862 19.175-17.157a35.336 35.336 0 0010.368-6.507 38.336 38.336 0 00-.174-10.433z" fill="#37474F"/><path d="M687.087 812.265c.249.292.602.474.984.507.382.032.761-.088 1.055-.333a1.432 1.432 0 00.217-1.996 16.571 16.571 0 00-14.923-6.507c-.607.759-1.236 1.518-1.865 2.169a15.987 15.987 0 0114.532 6.16zm4.512-5.054a1.455 1.455 0 002.556-.78 1.438 1.438 0 00-.3-1.042 17.352 17.352 0 00-15.574-6.724c-.542.825-1.128 1.627-1.713 2.43a16.138 16.138 0 0115.031 6.116zm-9.197 9.978a1.455 1.455 0 002.169-1.822 16.522 16.522 0 00-14.532-6.507c-.738.759-1.475 1.518-2.169 2.169a15.957 15.957 0 0114.532 6.16zm-24.358 1.887c-6.507-.152-14.533 5.227-14.533 11.778v.65c7.158 11.518 24.25 10.737 35.681 6.052-.911-15.704-15.986-18.545-21.148-18.48zm19.521 2.82a1.455 1.455 0 002.169-1.801 16.523 16.523 0 00-14.576-6.507 80.844 80.844 0 01-2.711 2.3 16.16 16.16 0 0115.118 6.008z" fill="#fff"/><path d="M758.535 623.018l-57.241 31.906a28.393 28.393 0 00-14.077 29.954l11.106 59.822-9.11 28.935c7.873 10.541 25.92 11.084 25.92 11.084 10.064-20.194 17.352-28.762 23.165-45.68 5.813-16.919 9.522-28.588 9.522-28.588l47.523-13.014a56.395 56.395 0 0041.212-47.914c.802-7.201.846-12.103.846-12.103l-78.866-14.402z" fill="#455A64"/><path opacity=".2" d="M758.969 639.112a27.044 27.044 0 006.507 17.352l-40.387 25.269a29.112 29.112 0 00-12.364 16.138l-14.294 46.742 12.906-52.056a23.535 23.535 0 0110.498-14.403l37.177-23.056c-3.817-9.436-.043-15.986-.043-15.986z" fill="#000"/><path d="M715.805 561.179l-8.025 7.765c-8.221-10.498-19.261-17.613-28.913-32.341-2.798-3.513-2.495-10.541-4.338-14.12-1.497-2.82-4.078-7.049-5.163-9.392a1.561 1.561 0 00-2.299-.694c-2.755 1.996-1.301 6.746.13 11.778 1.692 5.856-7.158-2.169-8.35-3.449-5.618-5.227-10.455-18.046-14.294-16.766-3.84 1.279-.781 7.656-.781 7.656-3.536.759-2.169 6.377-2.169 6.377-2.169 3.688-1.497 9.349 2.776 14.641 3.124 3.818 11.539 9.067 15.899 11.67a13.9 13.9 0 014.555 4.338l27.503 40.842a16.653 16.653 0 0017.779 6.93 16.647 16.647 0 006.081-2.874l14.944-11.17-15.335-21.191z" fill="#FFA8A7"/><path d="M762.331 525.108c-15.183-.673-35.898 24.032-47.545 35.68.889 14.229 16.224 23.599 16.224 23.599a334.34 334.34 0 0031.321-24.488v-34.791z" fill="#64B4FF"/><path opacity=".5" d="M762.331 525.108c-15.183-.673-35.898 24.032-47.545 35.68.889 14.229 16.224 23.599 16.224 23.599a334.34 334.34 0 0031.321-24.488v-34.791z" fill="#000"/><path d="M838.29 641.91c-10.151 9.761-58.911 11.539-83.789-12.147 2.386-16.723 1.583-34.704 0-52.338-1.584-17.635-11.952-48.717 7.83-52.317 26.397-5.163 43.662-4.75 61.296 5.205 18.784 31.386 16.268 78.346 14.663 111.597z" fill="#64B4FF"/><path d="M838.29 641.91c-10.151 9.761-58.911 11.539-83.789-12.147 2.386-16.723 1.583-34.704 0-52.338-1.584-17.635-11.952-48.717 7.83-52.317 26.397-5.163 43.662-4.75 61.296 5.205 18.784 31.386 16.268 78.346 14.663 111.597z" fill="#64B4FF"/><path opacity=".3" d="M838.29 641.91c-10.151 9.761-58.911 11.539-83.789-12.147 2.386-16.723 1.583-34.704 0-52.338-1.584-17.635-11.952-48.717 7.83-52.317 26.397-5.163 43.662-4.75 61.296 5.205 18.784 31.386 16.268 78.346 14.663 111.597z" fill="#000"/><path d="M811.004 485.219a7.2 7.2 0 00-3.536-3.709 5.412 5.412 0 00-1.041-.39 6.502 6.502 0 00-5.878 1.974 11.364 11.364 0 00-2.863 5.683 48.83 48.83 0 00-.716 6.507 76.495 76.495 0 01-1.757 11.3 14.37 14.37 0 01-7.331 9.566l-.239.13a44.578 44.578 0 01-17.092 4.555v6.507c-4.706 6.398-6.029 18.675 6.399 15.009 12.429-3.665 20.497-11.929 20.497-20.063 0-3.427.174-7.83.261-11.756.108-5.314.217-9.739.217-9.739a6.98 6.98 0 004.533 2.364 5.821 5.821 0 002.386-.13 8.929 8.929 0 005.314-4.533 16.753 16.753 0 001.692-6.898 13.96 13.96 0 00-.846-6.377z" fill="#FFA8A7"/><path d="M806.969 462.792a15.306 15.306 0 00-9.76-5.184l-51.016 4.728C740.294 474.808 745 483.05 745 483.05c-.802 19.023-1.453 31.104 6.919 35.095a39.048 39.048 0 0018.632 2.603 44.56 44.56 0 0017.092-4.555l.261-.13a14.451 14.451 0 007.309-9.609 75.908 75.908 0 001.757-11.257 48.83 48.83 0 01.716-6.507 11.368 11.368 0 012.863-5.683 6.506 6.506 0 015.878-1.974c.36.094.709.225 1.041.391 1.454-8.351 1.887-15.683-.499-18.632z" fill="#37474F"/><path d="M788.294 464.223a17.514 17.514 0 00.672 10.672 77.63 77.63 0 013.232 10.389c.67 3.551.183 7.223-1.388 10.477a12.347 12.347 0 01-8.134 6.507c-5.487 1.171-10.845-2.017-16.332-3.102a22.865 22.865 0 00-15.357 2.733 2.665 2.665 0 01-4.013-2.169c-.651-10.845-.651-28.089.976-36.158l40.344.651z" fill="#FFA8A7"/><path d="M748.818 454.332l-6.355-4.338a13.463 13.463 0 002.429 12.472 20.236 20.236 0 0011.17 6.507 42.507 42.507 0 0013.166.586 97.39 97.39 0 0018.979-3.449 15.44 15.44 0 007.462-3.926 9.89 9.89 0 00.39-11.626 14.793 14.793 0 00-10.498-6.073 40.05 40.05 0 00-12.624.998 38.22 38.22 0 01-12.623.911 13.189 13.189 0 01-10.173-6.746c-3.579 5.813-1.323 14.684-1.323 14.684z" fill="#37474F"/><path d="M764.825 483.658l-9.305 11.257 8.524 3.015.781-14.272zm7.028 19.868l-7.18 2.169a4.339 4.339 0 004.837 2.169 4.006 4.006 0 001.916-1.767c.425-.786.575-1.69.427-2.571z" fill="#F28F8F"/><path opacity=".3" d="M771.853 503.526l-7.18 2.169a4.339 4.339 0 004.837 2.169 4.006 4.006 0 001.916-1.767c.425-.786.575-1.69.427-2.571z" fill="#000"/><path d="M767.168 507.821c.75.275 1.563.328 2.342.151a3.6 3.6 0 002.343-3.253 4.339 4.339 0 00-2.777.499 4.34 4.34 0 00-1.908 2.603z" fill="#F28F8F"/><path d="M777.471 486.109a2.555 2.555 0 01-1.706 2.279 2.553 2.553 0 01-2.757-.707 2.559 2.559 0 114.463-1.572zm-21.387-1.974a2.561 2.561 0 01-3.191 2.345 2.56 2.56 0 113.191-2.345zm-1.93-10.281l-5.879 3.6a3.685 3.685 0 011.324-3.947 4.335 4.335 0 014.555.347zm21.863.867l5.445 4.208a3.575 3.575 0 00-.89-4.056 4.34 4.34 0 00-4.555-.152z" fill="#263238"/><path opacity=".2" d="M791.07 515.846a16.028 16.028 0 002.972-6.073 14.289 14.289 0 01-6.16 6.398l-.239.131a44.577 44.577 0 01-17.092 4.554v4.339a43.08 43.08 0 0010.086-2.17 22.782 22.782 0 0010.433-7.179z" fill="#000"/><path d="M681.643 647.506l67.24 38.76.26.131h.13l.543.151h1.323c.231.02.463.02.694 0h.434l.542-.151c.164-.052.324-.118.477-.196l21.582-12.558-69.409-40.041-23.816 13.904zm63.878-10.672l-12.624 7.418a1.275 1.275 0 00-.6 1.085 1.28 1.28 0 00.6 1.084l18.892 10.846a2.04 2.04 0 002.169 0l12.624-7.419a1.28 1.28 0 000-2.169l-18.892-10.845a2.174 2.174 0 00-2.169 0z" fill="#E0E0E0"/><path opacity=".4" d="M681.643 647.506l67.24 38.76.26.131h.13l.543.151h1.323c.231.02.463.02.694 0h.434l.542-.151c.164-.052.324-.118.477-.196l21.582-12.558-69.409-40.041-23.816 13.904zm63.878-10.672l-12.624 7.418a1.275 1.275 0 00-.6 1.085 1.28 1.28 0 00.6 1.084l18.892 10.846a2.04 2.04 0 002.169 0l12.624-7.419a1.28 1.28 0 000-2.169l-18.892-10.845a2.174 2.174 0 00-2.169 0z" fill="#000"/><path d="M750.575 687.416l-7.158-45.55a8.422 8.422 0 00-4.078-5.964l-69.561-40.453a2.178 2.178 0 00-1.865 0l-1.648.825.564.195a2.16 2.16 0 00-.196 1.236l7.158 45.55a8.422 8.422 0 004.078 5.964l69.582 40.453c.144.076.297.135.456.173v.673l1.605-.781a2.17 2.17 0 001.063-2.321z" fill="#E0E0E0"/><path opacity=".3" d="M750.575 687.416l-7.158-45.55a8.422 8.422 0 00-4.078-5.964l-69.561-40.453a2.178 2.178 0 00-1.865 0l-1.648.825.564.195a2.16 2.16 0 00-.196 1.236l7.158 45.55a8.422 8.422 0 004.078 5.964l69.582 40.453c.144.076.297.135.456.173v.673l1.605-.781a2.17 2.17 0 001.063-2.321z" fill="#000"/><path d="M737.951 636.682l-69.582-40.452a2.171 2.171 0 00-2.939 1.039 2.164 2.164 0 00-.185 1.13l7.158 45.55a8.372 8.372 0 004.056 5.943l69.582 40.452a2.164 2.164 0 002.221-.145 2.167 2.167 0 00.924-2.024l-7.157-45.549a8.34 8.34 0 00-4.078-5.944z" fill="#E0E0E0"/><path d="M704.223 637.854a15.391 15.391 0 016.919 9.956c.434 3.535-1.909 4.858-5.271 2.906a15.373 15.373 0 01-6.898-9.934c-.455-3.557 1.909-4.859 5.25-2.928z" fill="#fff"/><path d="M820.569 586.535l6.269 21.516-38.392 27.265-12.906 5.444a20.07 20.07 0 00-8.546 6.811l-10.541 14.554c-1.172 2.451 4.338 6.507 6.941 7.093a9.464 9.464 0 008.676-2.169l8.112-7.462 2.169-.78a34.052 34.052 0 0016.311-12.255l45.159-17.483a17.35 17.35 0 0010.412-20.54l-7.484-27.742-26.18 5.748z" fill="#FFA8A7"/><path d="M809.876 557.665l11.127 33.294c18.111 1.237 26.549-4.858 29.043-10.237-9.5-43.229-15.769-50.409-28.197-51.32-12.429-.911-11.973 28.263-11.973 28.263z" fill="#64B4FF"/><path opacity=".5" d="M809.876 557.665l11.127 33.294c18.111 1.237 26.549-4.858 29.043-10.237-9.5-43.229-15.769-50.409-28.197-51.32-12.429-.911-11.973 28.263-11.973 28.263z" fill="#000"/><path d="M666.72 614.472h-.195l.173.151.022-.151z" fill="#455A64"/><path d="M382.578 894.276c-1.324 2.776-5.531 5.358-10.13 6.117a46.177 46.177 0 01-13.882-.89 92.13 92.13 0 00-20.735-.52c-4.281.552-8.59.856-12.906.911a20.522 20.522 0 01-12.125-3.839 12.471 12.471 0 01-4.555-7.744 11.692 11.692 0 004.555 10.433 20.539 20.539 0 0012.125 3.861 111.89 111.89 0 0012.906-.933 90.86 90.86 0 0120.735.543c4.62.629 9.609 1.952 14.208 1.193 4.598-.759 8.806-3.319 10.129-6.095l-.325-3.037z" fill="#263238"/><path d="M332.213 886.077c3.861 0 2.451-5.726 6.116-9.544-1.496 0-2.993.109-4.49 0-3.318 4.859-4.251 9.544-1.626 9.544zm8.025-.304c3.904 0 2.885-6.81 6.702-10.845-.867.304-1.756.564-2.646.781l-2.299.412c-3.405 4.859-4.403 9.652-1.757 9.652z" fill="#fff"/><path d="M378.543 872.694a5.468 5.468 0 00-2.017-3.145l-20.909-.52a17.745 17.745 0 01-8.677 5.943c-3.817 3.991-2.798 10.845-6.702 10.845-2.646 0-1.648-4.794 1.757-9.609a50.996 50.996 0 01-3.666.369c-3.665 3.817-2.169 9.544-6.116 9.544-2.625 0-1.692-4.686 1.627-9.457h-2.929c-.889 0-1.778 0-2.689-.152-7.679 6.095-8.329 12.689-7.332 23.035 1.319.234 2.653.371 3.991.412 4.316-.054 8.625-.359 12.906-.911a92.08 92.08 0 0120.736.521 46.175 46.175 0 0013.882.889c4.598-.759 8.806-3.34 10.129-6.117l-3.991-21.647z" fill="#455A64"/><path d="M328.222 876.447a33.013 33.013 0 00-10.433 0 12.448 12.448 0 00-9.414 8.199 9.094 9.094 0 00-.173 3.665 12.467 12.467 0 004.555 7.744 18.115 18.115 0 008.133 3.427c-.997-10.346-.347-16.94 7.332-23.035z" fill="#fff"/><path d="M355.031 863.086v10.064a4.142 4.142 0 004.121 4.143h10.541a6.79 6.79 0 006.79-6.507l.26-7.635-21.712-.065z" fill="#995C5C"/><path d="M424.678 858.596a7.779 7.779 0 01-6.333 4.446 13.358 13.358 0 01-8.026-1.974c-3.622-2.299-5.053-5.943-7.526-9.196a54.156 54.156 0 00-8.676-8.546 28.787 28.787 0 01-8.351-9.674c-.501-1.13-.83-2.33-.976-3.557a12.672 12.672 0 00.976 6.81 29.059 29.059 0 008.351 9.696 54.227 54.227 0 018.676 8.524c2.473 3.275 3.904 6.898 7.526 9.197a13.373 13.373 0 008.026 1.974 7.702 7.702 0 006.333-4.447c.433-1.832.565-3.722.391-5.596a7.326 7.326 0 01-.391 2.343z" fill="#263238"/><path d="M400.928 836.493a2.51 2.51 0 00-.499 1.714 1.758 1.758 0 001.128 1.301 2.535 2.535 0 002.364-.607 12.625 12.625 0 001.627-1.931 12.273 12.273 0 015.379-3.925 11.447 11.447 0 013.21-.716l-2.603-2.386c-1.649.093-3.267.49-4.772 1.171a13.212 13.212 0 00-5.834 5.379z" fill="#fff"/><path d="M401.491 828.186a13.012 13.012 0 00-5.834 5.379 2.516 2.516 0 00-.499 1.714 1.758 1.758 0 001.128 1.301 2.536 2.536 0 002.364-.607 11.798 11.798 0 001.627-1.953 12.282 12.282 0 0110.65-4.62l-2.581-2.342a13.018 13.018 0 00-6.855 1.128z" fill="#fff"/><path d="M406.697 825.561a27.617 27.617 0 00-8.199-5.487 10.851 10.851 0 00-11.279 1.561 9.695 9.695 0 00-2.494 8.46c.146 1.227.475 2.427.976 3.557a17.956 17.956 0 002.603 4.099c.998-9.001 8.806-13.209 18.393-12.19z" fill="#fff"/><path d="M424.895 849.768c.04-3.06-.667-6.083-2.06-8.807l-5.076-5.335-3.622-3.297c-1.099.083-2.18.324-3.21.715a12.275 12.275 0 00-5.379 3.926 12.673 12.673 0 01-1.627 1.931 2.535 2.535 0 01-2.364.607 1.762 1.762 0 01-1.128-1.301 2.51 2.51 0 01.499-1.714 13.206 13.206 0 015.834-5.379 13.407 13.407 0 014.772-1.171l-.607-.543a12.282 12.282 0 00-10.65 4.62 11.79 11.79 0 01-1.627 1.953 2.542 2.542 0 01-2.364.607 1.762 1.762 0 01-1.128-1.301 2.516 2.516 0 01.499-1.714 13.012 13.012 0 0112.689-6.507l-1.562-1.41c-9.587-1.019-17.352 3.188-18.393 12.19a42.35 42.35 0 005.747 5.574 54.247 54.247 0 018.677 8.546c2.472 3.254 3.904 6.898 7.526 9.197a13.355 13.355 0 008.025 1.974 7.79 7.79 0 006.334-4.447 7.287 7.287 0 00.39-2.342 64.055 64.055 0 00-.195-6.572z" fill="#455A64"/><path d="M406.545 833.847l.608 10.845c6.81 3.948 13.99 1.8 16.376-.694l.455-10.108-17.439-.043zm13.448-233.626a9.602 9.602 0 01-1.041-3.709l-.586-9.283-66.09 4.338c-.867 4.641-1.757 10.303-2.624 16.745a98.364 98.364 0 0070.341-8.091z" fill="#995C5C"/><path d="M418.692 562.805l14.077 27.222-12.776 21.408 14.142 22.363 21.343-33.143a18.666 18.666 0 002.17-15.313 261.85 261.85 0 00-13.882-37.763l-25.074 15.226z" fill="#995C5C"/><path d="M407.5 510.25c16.202-3.015 25.464 2.386 39.172 39.042-5.531 12.537-29.39 17.179-29.39 17.179L407.5 510.25z" fill="#EBEBEB"/><path d="M377.155 514.566l-17.678 3.471c-3.904 7.157-7.895 13.881-11.799 21.039-2.95 5.379-5.987 11.106-5.748 17.244a17.588 17.588 0 0010.585 15.183l-2.039 24.141c27.785 8.503 61.73 1.042 69.192-5.4 2.169-10.108 4.121-20.866 6.312-30.996a103.657 103.657 0 002.993-19.933 35.048 35.048 0 00-4.663-19.348l-.109-.173a21.687 21.687 0 00-21.69-9.327l-25.356 4.099z" fill="#fff"/><path d="M421.013 601.913a9.005 9.005 0 01-1.02-1.692 98.36 98.36 0 01-70.341 8.004c-4.989 37.069-9.262 99.775-6.638 141.29 2.169 48.218 11.063 116.52 11.063 116.52 11.56 3.471 20.258 1.345 23.533-1.171 3.861-47.719 12.342-80.623 5.792-112.269 4.338-22.102 7.201-49.887 7.201-49.887l3.34 48.868 11.323 85.893a20.275 20.275 0 0020.302-1.019c8.242-49.129 11.322-82.423 4.121-106.781 10.997-80.623 11.452-101.251-8.676-127.756z" fill="#455A64"/><path opacity=".3" d="M395.462 693.055l6.073-25.442c7.071-1.171 18.133-5.792 23.859-15.509a48.652 48.652 0 01-29.325 10.347l-5.466 40.365 1.171 17.2.477-6.246a132.273 132.273 0 013.211-20.715z" fill="#000"/><path d="M245.582 485.436l17.808 46.027a18.41 18.41 0 0013.99 11.474l30.366 5.314a27.354 27.354 0 006.724-12.667 27.678 27.678 0 00-1.323-15.899 143.48 143.48 0 01-27.417-3.015s-19.239-23.382-27.264-35.442l5.726-18.979a6.505 6.505 0 00-.586-5.162l-3.08-5.336a6.508 6.508 0 00-3.557-2.95l-4.446-1.496a7.848 7.848 0 00-6.139.455l-6.767 3.536a2.623 2.623 0 00-1.388 2.342 2.646 2.646 0 001.41 2.278l2.537 1.301 3.493 5.943a18.723 18.723 0 00-.087 22.276z" fill="#995C5C"/><path d="M356.723 517.733c-10.954.499-27.395 2.321-43.511 1.996a27.677 27.677 0 011.323 15.899 27.354 27.354 0 01-6.724 12.667l38.002 6.659a16.353 16.353 0 0018.349-12.039c1.172-4.815 2.451-8.849 3.167-13.534a10.164 10.164 0 00-2.541-8.339 10.171 10.171 0 00-8.065-3.309z" fill="#EBEBEB"/><path d="M355.617 467.021a30.78 30.78 0 01-3.471-16.289 17.614 17.614 0 018.546-13.774 12.448 12.448 0 0115.292 2.69 28.416 28.416 0 0141.97 27.2c-.39 5.856-2.537 11.604-1.865 17.352.369 3.427 1.735 6.897.824 10.238a10.578 10.578 0 01-5.552 6.29c-2.56 1.323-8.546.976-11.366 1.562-8.676 7.851-19.521 4.902-26.332-2.169-6.811-7.072-18.046-33.1-18.046-33.1z" fill="#37474F"/><path d="M353.838 474.808l-5.401 9.37 5.9 2.169-.499-11.539z" fill="#804040"/><path d="M353.209 470.73c.868-8.22 3.275-15.964 8.676-19.89a44.358 44.358 0 006.138 29.391 13.022 13.022 0 013.991-7.05 7.446 7.446 0 017.657-1.627 7.593 7.593 0 013.839 4.187 9.956 9.956 0 01-12.472 13.166 19.173 19.173 0 0014.728 14.923 24.6 24.6 0 0014.272-1.367l2.169 11.084c-9.001 9.609-24.401 3.145-24.401 3.145l-2.039-10.845c-17.699 1.041-19.37.759-21.322-9.002a96.551 96.551 0 01-1.236-26.115z" fill="#995C5C"/><path opacity=".3" d="M392.468 458.714a31.084 31.084 0 0114.099-16.854 29.816 29.816 0 018.74 11.106 29.813 29.813 0 012.647 13.882c-.39 5.856-2.537 11.604-1.865 17.352.369 3.427 1.735 6.897.824 10.238a10.578 10.578 0 01-5.552 6.29c-2.56 1.323-8.546.976-11.366 1.562-.369.347-.738.629-1.128.932a86.08 86.08 0 01-7.006-17.981 45.942 45.942 0 01.607-26.527z" fill="#000"/><path d="M397.37 452.575a22.586 22.586 0 0121.329-16.043 22.586 22.586 0 0121.727 15.501c5.335 16.181-8.351 33.382-5.358 50.148 1.085 6.052 4.338 11.561 5.379 17.591a26.033 26.033 0 01-4.652 20.119 26.037 26.037 0 01-17.841 10.399c3.861-4.338 3.926-10.845 1.736-16.094-2.191-5.249-6.117-9.631-9.479-14.272-13.6-18.654-19.543-45.268-12.841-67.349z" fill="#37474F"/></svg>