<svg width="1000" height="1000" fill="none" xmlns="http://www.w3.org/2000/svg"><path d="M815.163 541.707l-161.521-61.073a21.58 21.58 0 01-13.942-19.536 21.594 21.594 0 011.394-8.313l84.525-223.55a21.61 21.61 0 0127.849-12.57l102.448 38.732 48.37 111.708-61.273 162.121a21.61 21.61 0 01-27.85 12.481z" fill="#F5F5F5"/><path d="M855.916 255.397l-23.808 62.916a20.102 20.102 0 0011.682 25.917l60.496 22.875-48.37-111.708z" fill="#EBEBEB"/><path d="M830.843 324.154s-6.552 14.968 8.883 26.65c.583.435 1.191.836 1.821 1.199 7.373 4.442 55.876 33.313 56.321 32.136l6.396-16.923-60.496-22.875s-14.88-6.329-12.925-20.187zm-11.304-13.525c-.311.822-17.279-4.864-37.91-12.659-20.632-7.795-37.11-14.791-36.799-15.546.31-.755 17.278 4.864 37.909 12.659 20.632 7.795 37.111 14.68 36.8 15.546zm34.8 53.833c-.311.8-28.072-8.883-62.028-21.786-33.957-12.903-61.251-23.919-60.94-24.741.311-.821 28.071 8.884 62.05 21.809s61.162 23.896 60.918 24.718zm-.155 33.89c-.311.8-30.559-9.883-67.58-23.896-37.022-14.014-66.781-26.006-66.47-26.806.311-.799 30.559 9.883 67.58 23.897 37.021 14.013 66.869 25.983 66.47 26.805zm-10.594 28.027c-.311.8-30.559-9.883-67.58-23.896-37.022-14.014-66.781-26.095-66.47-26.806.311-.71 30.559 9.883 67.58 23.874 37.022 13.992 66.781 26.006 66.47 26.828zm-10.593 28.027c-.311.8-30.581-9.883-67.581-23.896-36.999-14.014-66.78-26.006-66.492-26.806.289-.799 30.559 9.883 67.603 23.874 37.043 13.992 66.758 26.006 66.47 26.828zm-10.616 28.027c-.289.8-30.559-9.905-67.558-23.896-36.999-13.991-66.803-26.006-66.492-26.806.311-.799 30.559 9.883 67.58 23.874 37.022 13.992 66.781 26.007 66.47 26.828z" fill="#E0E0E0"/><path d="M276.646 309.623L63.71 384.192c-7.362 2.579-11.24 10.637-8.662 17.999l106.836 305.078c2.579 7.362 10.637 11.24 17.999 8.662l212.936-74.569c7.363-2.578 11.241-10.637 8.663-17.999L294.645 318.286c-2.578-7.363-10.637-11.241-17.999-8.663z" fill="#EBEBEB"/><path d="M279.376 328.586L73.399 400.718l105.89 302.373 205.977-72.132-105.89-302.373z" fill="#E0E0E0"/><path d="M275.69 327.163L69.713 399.295l103.871 296.61 205.977-72.132-103.871-296.61z" fill="#FAFAFA"/><path d="M379.523 623.767L275.388 327.263l.378.178-205.939 72.155.2-.4c38.82 111.397 74.954 214.289 103.802 296.615l-.333-.155 206.05-71.889-205.894 72.422h-.245v-.244c-28.871-82.327-64.893-185.218-103.935-296.594v-.31h.289l205.96-72.089h.289v.267l103.513 296.548z" fill="#E0E0E0"/><path d="M306.48 649.352s45.86-38.687 53.811-78.974a58.305 58.305 0 01-39.22 23.652s-.911 42.196-14.591 55.322z" fill="#E0E0E0"/><path d="M140.104 465.387l-10.836 3.795a7.595 7.595 0 00-4.658 9.679l3.795 10.836a7.594 7.594 0 009.678 4.658l10.837-3.795a7.596 7.596 0 004.658-9.679l-3.795-10.836a7.595 7.595 0 00-9.679-4.658z" fill="#EBEBEB"/><path d="M138.784 484.054a.53.53 0 01-.488 0l-4.975-2.887a.628.628 0 01-.233-.373.626.626 0 01.415-.711.624.624 0 01.44.018l4.442 2.532 5.241-11.104a.667.667 0 01.844-.311.623.623 0 01.288.844l-5.529 11.815a.587.587 0 01-.445.177z" fill="#fff"/><path d="M281.007 419.472c0 .178-26.65 9.705-59.719 21.276-33.068 11.571-59.962 20.809-59.962 20.654 0-.156 26.65-9.705 59.74-21.276 33.091-11.57 59.896-20.809 59.941-20.654zm-62.806 42.685s-.688.311-1.932.799l-5.374 1.999c-4.442 1.644-10.838 3.887-17.767 6.33-6.929 2.442-13.325 4.619-17.767 6.151l-5.441 1.799c-.658.242-1.334.435-2.021.578.621-.326 1.268-.6 1.933-.822l5.374-1.977c4.442-1.665 10.838-3.908 17.767-6.351s13.325-4.597 17.766-6.152l5.441-1.799a12.12 12.12 0 012.021-.555zm65.626-34.512c0 .155-26.65 9.683-59.74 21.253-33.091 11.571-59.963 20.832-59.963 20.654 0-.177 26.65-9.683 59.763-21.253 33.113-11.571 59.94-20.832 59.94-20.654z" fill="#E0E0E0"/><path d="M155.574 509.577l-10.837 3.795a7.596 7.596 0 00-4.658 9.679l3.795 10.836a7.595 7.595 0 009.679 4.658l10.836-3.794a7.595 7.595 0 004.658-9.679l-3.794-10.837a7.596 7.596 0 00-9.679-4.658z" fill="#EBEBEB"/><path d="M154.263 528.249a.576.576 0 01-.51 0l-4.953-2.887a.606.606 0 01-.306-.616.598.598 0 01.084-.228.596.596 0 01.616-.306.598.598 0 01.228.084l4.442 2.532 5.241-11.215a.642.642 0 01.822-.311.625.625 0 01.311.821l-5.53 11.837a.663.663 0 01-.191.193.66.66 0 01-.254.096z" fill="#fff"/><path d="M296.486 463.667c0 .178-26.65 9.683-59.74 21.276-33.091 11.593-59.963 20.809-59.963 20.654 0-.156 26.65-9.706 59.741-21.276 33.09-11.571 59.918-20.809 59.962-20.654zm-62.805 42.685s-.689.31-1.955.799l-5.352 1.999c-4.442 1.643-10.838 3.886-17.767 6.329-6.929 2.443-13.325 4.62-17.766 6.152l-5.441 1.799c-.659.241-1.334.434-2.021.577.618-.33 1.265-.605 1.932-.821l5.374-1.977c4.442-1.666 10.838-3.909 17.767-6.352 6.929-2.443 13.325-4.597 17.767-6.151l5.441-1.799a12.067 12.067 0 012.021-.555zm65.692-34.468c0 .156-26.65 9.683-59.74 21.254-33.091 11.57-59.963 20.831-59.963 20.653 0-.177 26.65-9.682 59.741-21.253 33.09-11.571 59.962-20.876 59.962-20.654z" fill="#E0E0E0"/><path d="M171.065 553.767l-10.836 3.795a7.595 7.595 0 00-4.658 9.679l3.795 10.837a7.595 7.595 0 009.678 4.658l10.837-3.795a7.596 7.596 0 004.658-9.679l-3.795-10.837a7.596 7.596 0 00-9.679-4.658z" fill="#EBEBEB"/><path d="M169.743 572.444a.582.582 0 01-.511 0l-4.975-2.843a.618.618 0 01-.346-.376.61.61 0 01.054-.509.613.613 0 01.416-.297.625.625 0 01.498.116l4.442 2.532 5.241-11.215a.617.617 0 01.59-.391.615.615 0 01.574.414.627.627 0 01-.031.487l-5.53 11.838a.737.737 0 01-.422.244z" fill="#fff"/><path d="M311.966 507.862c0 .177-26.651 9.683-59.741 21.275-33.091 11.593-59.963 20.81-59.963 20.632 0-.178 26.65-9.683 59.763-21.253 33.113-11.571 59.874-20.81 59.941-20.654zm-62.806 42.662c-.63.322-1.284.596-1.954.822l-5.375 1.998c-4.442 1.644-10.815 3.887-17.767 6.33-6.951 2.443-13.325 4.597-17.766 6.152l-5.441 1.798a15.27 15.27 0 01-2.021.578 11.779 11.779 0 011.932-.822l5.374-1.999c4.442-1.643 10.838-3.886 17.767-6.329 6.929-2.443 13.325-4.597 17.767-6.152l5.419-1.799a18.923 18.923 0 012.065-.577zm65.759-34.489c0 .155-26.65 9.682-59.74 21.253-33.091 11.571-59.963 20.831-59.963 20.654 0-.178 26.65-9.683 59.74-21.276 33.091-11.593 59.808-20.809 59.963-20.631z" fill="#E0E0E0"/><path d="M186.534 597.958l-10.836 3.794a7.595 7.595 0 00-4.658 9.679l3.795 10.837a7.596 7.596 0 009.679 4.658l10.836-3.795a7.595 7.595 0 004.658-9.679l-3.795-10.836a7.595 7.595 0 00-9.679-4.658z" fill="#EBEBEB"/><path d="M185.2 616.639a.642.642 0 01-.245.05.641.641 0 01-.244-.05l-4.975-2.888a.62.62 0 01-.21-.855.624.624 0 01.855-.211l4.441 2.532 5.241-11.104a.622.622 0 01.822-.311.641.641 0 01.311.822l-5.552 11.837a.645.645 0 01-.444.178z" fill="#fff"/><path d="M327.445 552.057c0 .177-26.651 9.682-59.741 21.253-33.091 11.571-59.963 20.831-59.963 20.654 0-.178 26.65-9.683 59.741-21.254 33.09-11.57 59.896-20.876 59.963-20.653zm-62.828 42.662c-.618.331-1.265.605-1.932.822l-5.375 1.998c-4.441 1.644-10.837 3.887-17.766 6.33-6.929 2.443-13.325 4.597-17.767 6.151l-5.441 1.799c-1.288.4-2.021.6-2.021.578a11.779 11.779 0 011.932-.822l5.375-1.999c4.441-1.643 10.837-3.886 17.766-6.329 6.929-2.443 13.325-4.597 17.767-6.152l5.441-1.799a15.42 15.42 0 012.021-.577zm65.692-34.49c0 .156-26.65 9.683-59.74 21.254-33.091 11.57-59.963 20.809-59.963 20.653 0-.155 26.65-9.682 59.741-21.275 33.09-11.593 59.896-20.809 59.962-20.632zM93.035 370.392l5.419 15.546a17.297 17.297 0 0022.03 10.615l113.93-39.975a17.255 17.255 0 0010.593-22.008l-5.419-15.546-146.553 51.368z" fill="#E0E0E0"/><path d="M167.833 349.338a16.213 16.213 0 11-10.763-30.588 16.213 16.213 0 0110.763 30.588zm-8.661-24.718a9.998 9.998 0 00-6.684 8.871 9.992 9.992 0 0011.376 10.46 9.99 9.99 0 008.28-7.403 9.994 9.994 0 00-12.972-11.928zm99.715 65.093c0 .289-29.937 11.104-67.091 24.096-37.155 12.992-67.358 23.319-67.47 23.03-.111-.288 29.937-11.104 67.092-24.096s67.358-23.408 67.469-23.03zm-38.487 5.441c0 .289-13.103 5.197-29.515 10.949s-29.804 10.26-29.915 9.86c-.111-.399 13.126-5.196 29.538-10.948 16.412-5.752 29.803-10.15 29.892-9.861z" fill="#E0E0E0"/><path d="M812.387 845.163a42.196 42.196 0 0126.228-3.176c4.753.777 9.728 2.221 12.948 5.774 3.22 3.554 3.864 9.861.133 12.926a12.33 12.33 0 01-8.217 2.065c-6.951 0-14.635-1.31-20.165 2.865-3.176 2.376-5.264 6.329-9.039 7.506a8.88 8.88 0 01-9.838-4.441 15.299 15.299 0 01-1.111-11.26 17.196 17.196 0 019.061-12.259zm-18.388-35.267c4.885 6.951 14.368 4.664 18.766.4 4.397-4.264 6.24-10.416 7.928-16.279 3.864-13.436 7.773-27.516 4.908-41.197a22.972 22.972 0 00-5.263-11.104 11.976 11.976 0 00-11.327-3.775c-4.797 1.266-7.75 5.952-9.905 10.393a98.245 98.245 0 00-9.705 42.196c0 6.796.778 13.903 4.598 19.521m-13.392 9.839a25.345 25.345 0 003.953-23.341 44.997 44.997 0 00-13.814-19.988 74.365 74.365 0 00-24.74-14.591 26.313 26.313 0 00-11.104-1.887 11.637 11.637 0 00-9.328 5.641c-2.62 4.974 0 10.993 2.577 15.901a186.37 186.37 0 0016.256 24.74c4.864 6.285 10.438 12.481 17.878 15.324 7.44 2.842 15.124 2.487 19.055-2.643" fill="#F25C54"/><path d="M793.688 914.964c.244-1.035.385-2.091.422-3.154.244-2.22.511-5.196.844-8.639a120.662 120.662 0 011.954-12.681 97.206 97.206 0 014.597-14.946 55.237 55.237 0 017.64-13.525 28.546 28.546 0 019.661-8.039 26.858 26.858 0 018.128-2.532 15.32 15.32 0 003.153-.444 15.07 15.07 0 00-3.22 0 24.937 24.937 0 00-8.461 2.221 28.397 28.397 0 00-10.194 8.084 54.26 54.26 0 00-7.906 13.813 89.83 89.83 0 00-4.575 15.191 108.505 108.505 0 00-1.688 12.836 150.62 150.62 0 00-.422 8.684 13.334 13.334 0 00.067 3.131z" fill="#263238"/><path d="M794.265 908.324c.067-.487.067-.98 0-1.466v-4.131c0-3.642 0-8.883.178-15.546.333-13.036 1.443-27.05 3.62-46.815 2.043-18.588 4.797-40.219 7.706-54.277a210.493 210.493 0 011.843-8.595c.6-2.51 1.044-4.708 1.511-6.463.466-1.754.71-3.02.977-4.086.121-.482.21-.972.266-1.466-.223.438-.394.9-.511 1.377a335.44 335.44 0 00-1.221 4.042 150.468 150.468 0 00-1.732 6.418c-.622 2.51-1.355 5.375-2.043 8.573a482.783 482.783 0 00-8.018 50.413c-2.221 19.81-3.153 37.754-3.22 50.901 0 6.53 0 11.815.222 15.546 0 1.71.178 3.11.245 4.198.018.463.078.924.177 1.377z" fill="#263238"/><path d="M794.354 873.545a26.555 26.555 0 000-4.441 118.77 118.77 0 00-1.355-11.882 153.05 153.05 0 00-3.864-17.322 140.209 140.209 0 00-7.24-20.499 109.402 109.402 0 00-21.253-33.112 54.142 54.142 0 00-5.019-4.642c-.756-.666-1.444-1.31-2.221-1.821l-1.932-1.333a24.9 24.9 0 00-3.709-2.354 124.777 124.777 0 0112.103 10.794 114.158 114.158 0 0120.743 33.001 160.881 160.881 0 017.284 20.299A166.597 166.597 0 01792 857.378c.91 4.952 1.443 8.883 1.754 11.77a30.28 30.28 0 00.6 4.397zm-33.624 61.362l3.487 47.748h61.362l3.465-47.748H760.73zm75.665-18.833h-81.572v18.833h81.572v-18.833z" fill="#263238"/><path d="M754.823 980.834v5.197h80.195v-5.197h-80.195zm7.573 14.391l-3.753-9.194h73.466l-4.398 9.194h-65.315z" fill="#455A64"/><path d="M827.933 950.498s0 .177-.288.444l-.911 1.221-3.576 4.575-.155.2-.156-.222-8.772-12.126h.533l-8.661 12.237-.267.377-.311-.355-10.238-12.215h.578l-.555.711-9.172 11.482-.289.4-.289-.4a1735.21 1735.21 0 00-8.661-12.237h.511l-10.638 12.126-.2.222-.155-.244c-1.4-2.354-2.51-4.242-3.332-5.597l-.844-1.488a2.214 2.214 0 01-.266-.533s.133.133.355.467l.955 1.443 3.487 5.486h-.333l10.482-12.282.267-.311.244.333 8.728 12.193h-.6l9.217-11.482.577-.711.289-.377.288.355 10.239 12.237h-.578l8.728-12.192.244-.356.267.356c3.442 4.952 6.396 9.15 8.594 12.281h-.333l3.731-4.442 1-1.155.266-.421z" fill="#E0E0E0"/><path d="M829.91 934.574c0 .222-15.369.4-34.335.4s-34.334-.178-34.334-.4c0-.222 15.368-.377 34.334-.377s34.335.177 34.335.377z" fill="#455A64"/><path d="M833.019 986.564c0 .2-16.723.377-37.31.377-20.588 0-37.311-.177-37.311-.377s16.701-.4 37.311-.4c20.609 0 37.31.178 37.31.4zm-605.157-152.35c-.177.2-1.577-.644-3.131-1.887-1.555-1.244-2.687-2.421-2.51-2.643.178-.222 1.555.644 3.109 1.887 1.555 1.244 2.688 2.421 2.532 2.643z" fill="#263238"/><path d="M270.502 770.609a48.602 48.602 0 00-1.443-17.655c-1.866-5.663-6.219-10.838-12.037-12.059-6.663-1.377-13.459 2.82-17.19 8.505-3.731 5.686-4.997 12.57-6.107 19.255a680.44 680.44 0 00-8.328 139.802l27.183 3.82c11.837-48.792 15.701-91.454 17.922-141.668z" fill="#455A64"/><path d="M253.135 740.606l-.133.444-.444 1.221-1.821 4.709c-.378 1.021-.889 2.22-1.288 3.398l-1.311 4.108-1.532 4.73-1.399 5.397a235.462 235.462 0 00-5.264 27.072c-1.465 10.216-2.42 21.542-3.198 33.446-1.377 23.83-1.599 45.461-2.221 61.095-.288 7.84-.555 14.169-.843 18.522a4040.82 4040.82 0 01-.356 5.041v-.022c0-1.221 0-2.909.156-5.041.177-4.442.333-10.682.533-18.522.444-15.546.555-37.266 1.954-61.117.755-11.926 1.754-23.275 3.265-33.535a223.582 223.582 0 015.485-26.961l1.466-5.397c.577-1.658 1.11-3.235 1.599-4.73l1.421-4.109c.422-1.243.955-2.354 1.355-3.375l1.999-4.62c.207-.488.385-.888.533-1.199a1.7 1.7 0 01.044-.555zm2.51.111a19.586 19.586 0 013.331 5.619 41.59 41.59 0 012.465 17.589c-.71 15.035-2.065 35.733-3.842 58.608a2060.23 2060.23 0 01-5.396 58.474 2034.327 2034.327 0 01-2.021 17.767c-.267 2.021-.467 3.62-.622 4.797l-.178 1.244c.01.14.01.281 0 .422v-1.688c0-1.177.244-2.776.422-4.819.422-4.264.999-10.283 1.71-17.767 1.421-14.968 3.309-35.534 5.108-58.497 1.799-22.964 3.242-43.551 4.131-58.541a42.472 42.472 0 00-2.221-17.434 36.486 36.486 0 00-2.887-5.774zm18.855 70.378a14.817 14.817 0 01-5.153-1.332 15.047 15.047 0 01-4.819-2.221c1.786.116 3.534.568 5.152 1.332a14.844 14.844 0 014.82 2.221zm3.287-27.716a16.984 16.984 0 01-4.908 2.732 16.45 16.45 0 01-5.308 1.843 32.407 32.407 0 0110.216-4.575zm-1.71-22.63a16.44 16.44 0 01-8.04-.555 8.883 8.883 0 014.042-.2 8.88 8.88 0 013.998.755zm-28.072-14.48c-.222.133-1.421-1.355-2.643-3.309a9.797 9.797 0 01-1.843-3.842c.222-.133 1.421 1.332 2.665 3.309 1.244 1.976 2.11 3.686 1.821 3.842zm-9.261 13.68a8.098 8.098 0 01-3.864.4 8.016 8.016 0 01-3.842-.577 8.098 8.098 0 013.864-.4 8.028 8.028 0 013.842.577zm-6.662 27.295a9.369 9.369 0 01-4.064-1.111 9.597 9.597 0 01-3.709-2.021 9.373 9.373 0 014.064 1.111 9.584 9.584 0 013.709 2.021zm-.711 23.074c0 .267-1.488.822-3.465 1.221-1.976.4-3.597.556-3.664.289-.067-.266 1.51-.822 3.465-1.221a7.496 7.496 0 013.664-.289zm-3.065 37.665c0 .267-1.599.778-3.686 1.155a7.999 7.999 0 01-3.842.178 8.132 8.132 0 013.686-1.133 7.854 7.854 0 013.842-.2zm-2.221 20.788c.134.222-1.243 1.199-3.064 2.22-1.821 1.022-3.398 1.555-3.509 1.311-.111-.245 1.243-1.2 3.064-2.221 1.822-1.022 3.509-1.555 3.509-1.31zm17.034 23.585c-.222.133-1.421-1.51-2.665-3.687a10.721 10.721 0 01-1.821-4.175c.222-.133 1.421 1.51 2.665 3.687a10.692 10.692 0 011.821 4.175zm4.908-39.198c.178.178-1.155 1.799-2.976 3.598s-3.464 3.087-3.664 2.887c-.2-.2 1.155-1.799 2.976-3.598s3.464-3.087 3.664-2.887z" fill="#263238"/><path d="M246.939 832.571c-.2.2-1.421-.822-2.754-2.221-1.332-1.399-2.221-2.754-2.043-2.931.178-.178 1.421.821 2.754 2.22 1.332 1.399 2.243 2.754 2.043 2.932zm3.376-26.273c.2.178-.911 1.755-2.488 3.487-1.576 1.732-2.998 3.043-3.198 2.865-.199-.178.911-1.755 2.466-3.509 1.554-1.754 3.02-3.02 3.22-2.843zm1.888-19.055c-.2.2-1.733-1.021-3.465-2.709-1.732-1.688-2.954-3.22-2.776-3.42.178-.2 1.732 1.022 3.464 2.732 1.733 1.71 2.954 3.198 2.777 3.397zm3.731-25.806a9.744 9.744 0 01-1.755 3.865c-1.177 1.998-2.332 3.509-2.554 3.375-.222-.133.533-1.865 1.732-3.864 1.2-1.999 2.332-3.509 2.577-3.376zm6.995-23.896c.244.133-.444 1.866-1.532 3.864-1.088 1.999-2.221 3.531-2.399 3.42a9.271 9.271 0 011.533-3.864c1.088-2.021 2.154-3.531 2.398-3.42zm7.951 10.86c.111.244-.977.999-2.443 1.71-1.466.711-2.732 1.066-2.843.822-.111-.244.977-1 2.443-1.71 1.466-.711 2.732-1.066 2.843-.822zm.178 85.813a16.612 16.612 0 01-9.928-4.242 27.658 27.658 0 014.997 2.066 26.349 26.349 0 014.931 2.176zm-3.243 18.167c0 .266-1.577.799-3.664 1.199a7.872 7.872 0 01-3.842.244 8.328 8.328 0 013.664-1.199c2.088-.4 3.798-.511 3.842-.244zm-3.975 31.158c-.156.222-2.221-1.221-4.131-3.62a10.807 10.807 0 01-2.598-4.863 30.68 30.68 0 013.353 4.264 29.292 29.292 0 013.376 4.219zm-43.729 14.258c-.177-.2.933-1.444 2.466-2.754 1.532-1.31 2.931-2.221 3.109-1.999.177.222-.933 1.422-2.465 2.754-1.533 1.333-2.932 2.199-3.11 1.999z" fill="#263238"/><path d="M207.541 829.795c-1.776-5.53-5.085-11.97-10.882-12.059a9.635 9.635 0 00-8.172 5.463 19.979 19.979 0 00-2.221 9.994 261.085 261.085 0 0012.459 72.444h21.253a252.85 252.85 0 00-12.437-75.842zm-38.398-34.801a23.588 23.588 0 00-22.208-18.877c-9.394 1.643-13.037 10.882-14.147 20.343-1.11 9.461 1.821 18.877 4.73 27.96a115503.25 115503.25 0 0027.939 87.435l26.428-2.887c-8.262-39.043-13.059-75.242-22.742-113.974z" fill="#455A64"/><path d="M196.659 817.736a19.905 19.905 0 00-1.799 2.998 19.573 19.573 0 00-.999 9.394c.4 4.042.866 8.883 1.555 14.213.688 5.33 1.643 11.105 2.842 17.278 2.399 12.215 5.108 23.142 6.818 31.092.866 3.976 1.533 7.218 1.932 9.461.178 1.044.334 1.888.445 2.598.111.711.133.911 0 .911a4.871 4.871 0 01-.267-.866l-.622-2.554a909.869 909.869 0 01-2.221-9.394c-1.887-7.951-4.708-18.855-7.106-31.092-1.199-6.13-2.221-11.993-2.776-17.367-.356-2.665-.578-5.241-.8-7.618-.222-2.376-.444-4.619-.555-6.662a19.267 19.267 0 011.333-9.594 8.294 8.294 0 012.22-2.798zm-49.236-42.374a33.832 33.832 0 00-3.198 4.286 30.326 30.326 0 00-4.02 13.836 64.438 64.438 0 003.265 21.254c2.221 7.861 4.864 16.5 7.551 25.539 5.263 18.122 10.016 34.512 13.503 46.482l3.997 14.125c.444 1.599.777 2.865 1.044 3.842.145.44.242.894.289 1.355a7.158 7.158 0 01-.489-1.288c-.289-.978-.711-2.221-1.199-3.82-1.044-3.398-2.51-8.173-4.286-14.014l-13.792-46.415c-2.665-9.084-5.174-17.767-7.484-25.584a63.438 63.438 0 01-3.087-21.543 29.683 29.683 0 014.442-13.991 16.234 16.234 0 013.464-4.064z" fill="#263238"/><path d="M186.221 906.147c-.223-.41-.424-.833-.599-1.266-.333-.866-.889-2.087-1.488-3.731-1.266-3.242-2.887-8.017-4.442-14.013-1.555-5.996-3.331-13.325-4.93-21.32-1.599-7.995-3.198-16.945-4.975-26.273-1.777-9.327-3.864-18.1-6.241-25.939a146.812 146.812 0 00-7.706-20.365 109.422 109.422 0 00-7.129-12.837c-.91-1.465-1.732-2.554-2.221-3.309a8.159 8.159 0 01-.732-1.199c.325.33.622.686.888 1.066.555.755 1.421 1.777 2.376 3.242a94.469 94.469 0 017.44 12.748 136.008 136.008 0 017.928 20.387 256.888 256.888 0 016.174 26.029c1.755 9.305 3.398 18.188 4.908 26.294 1.511 8.106 3.11 15.28 4.709 21.298 1.599 6.019 3.087 10.794 4.241 14.058.533 1.666 1.044 2.909 1.333 3.776.206.432.362.887.466 1.354zm-48.125-86.08c0 .245-1.377.822-3.221 1.266-1.843.444-3.375.6-3.42.333-.044-.266 1.355-.821 3.198-1.265 1.844-.445 3.376-.6 3.443-.334zm-2.799-18.033a13.644 13.644 0 01-4.441.489 13.15 13.15 0 01-4.442-.133 8.874 8.874 0 014.442-.844 8.879 8.879 0 014.441.488zm2.976-16.478c-.177.222-1.621-.711-3.198-2.066-1.576-1.355-2.753-2.62-2.576-2.82.178-.2 1.599.71 3.198 2.065s2.754 2.621 2.576 2.821zm8.062-15.235c.266 0 .178 1.354.155 2.887-.022 1.532 0 2.843-.333 2.887-.333.044-.688-1.244-.644-2.909.045-1.666.622-2.932.822-2.865zm16.457 7.173c.222.155-.422 1.466-1.444 2.909-1.022 1.444-2.021 2.51-2.221 2.354-.2-.155.422-1.443 1.421-2.909 1-1.466 2.021-2.509 2.244-2.354zm10.682 18.633c0 .266-1.266 1.044-3.043 1.777-1.777.732-3.331 1.11-3.42.866-.089-.245 1.266-1.044 3.043-1.755 1.776-.71 3.331-1.199 3.42-.888zm6.485 19.032a7.755 7.755 0 01-4.176 1.844 8.306 8.306 0 01-4.575.155 17.328 17.328 0 014.442-1.11 18.174 18.174 0 014.309-.889zm-29.76-5.418c-.244 0 0-1.4.422-2.954.422-1.555 1.088-2.732 1.333-2.643.244.089 0 1.399-.422 2.954-.422 1.554-.955 2.731-1.333 2.643zm4.153 23.985c.09-1.4.5-2.76 1.2-3.976.91-2.087 1.843-3.686 2.087-3.575a9.151 9.151 0 01-1.199 3.975c-.911 2.088-1.843 3.731-2.088 3.576zm-10.26 6.573a10.064 10.064 0 01-3.798-.843c-2.021-.645-3.664-1.222-3.597-1.488a7.367 7.367 0 013.886.555c2.065.644 3.62 1.532 3.509 1.776zm5.907 19.544c.156.222-.977 1.288-2.509 2.398-1.532 1.111-2.954 1.821-3.109 1.621-.156-.199.977-1.31 2.531-2.42 1.555-1.111 2.932-1.821 3.087-1.599zm4.753 19.499c0 .244-1.332.821-3.131 1.243-1.799.422-3.287.578-3.354.333-.066-.244 1.333-.821 3.132-1.265 1.798-.445 3.286-.578 3.353-.311zm25.74-47.882c.133.222-1.066 1.177-2.799 1.822-1.732.644-3.286.732-3.331.488-.044-.244 1.333-.755 2.976-1.399s3.02-1.155 3.154-.911zm3.664 30.315c-.111.244-1.532-.178-3.176-.955-1.643-.777-2.887-1.599-2.776-1.843.111-.245 1.555.199 3.198.955 1.644.755 2.887 1.599 2.754 1.843zm6.507 21.72a10.413 10.413 0 01-4.22-1.133c-2.221-.866-3.931-1.777-3.842-2.043 1.464.075 2.895.461 4.198 1.133 2.22.866 3.953 1.776 3.864 2.043zm-34.867 17.011c-.133-.244 1.599-1.399 3.598-2.976 1.998-1.576 3.553-2.998 3.753-2.798.2.2-1.066 1.91-3.154 3.554a8.55 8.55 0 01-4.197 2.22zm17.145-11.104c-.267 0-.644-1.421-1.311-3.109-.666-1.688-1.332-3.043-1.11-3.198.222-.156 1.332.999 2.021 2.843.688 1.843.666 3.464.4 3.464zm-4.598-26.05c-.155.222-1.265-.311-2.487-1.177-1.221-.867-2.065-1.755-1.91-1.977.156-.222 1.266.311 2.488 1.177 1.221.866 2.132 1.755 1.909 1.977zm39.976-40.908c.155.222-.933 1.288-2.421 2.376-1.488 1.088-2.821 1.821-2.976 1.599-.155-.222.911-1.266 2.399-2.376 1.488-1.111 2.998-1.821 2.998-1.599zm6.107 16.478c0 .267-1.666.622-3.753.4-2.088-.222-3.665-.933-3.598-1.177.067-.244 1.71 0 3.709.2s3.62.311 3.642.577zm-25.917 3.709c0 .245-1.488.8-3.531.933-2.044.133-3.643-.2-3.62-.466.022-.267 1.621-.356 3.575-.489 1.955-.133 3.531-.244 3.576.022zm2.243-15.59c0 .267-1.599.311-3.332-.511-1.732-.822-2.731-1.999-2.553-2.221.177-.222 1.376.622 2.953 1.333s2.954 1.133 2.932 1.399zm25.895 29.581c-.133.223-1.755-.533-3.62-1.71-1.866-1.177-3.243-2.22-3.087-2.531.155-.311 1.754.555 3.62 1.71 1.865 1.155 3.242 2.309 3.087 2.531z" fill="#263238"/><path d="M279.874 902.86H141.627v24.496h138.247V902.86z" fill="#F25C54"/><path d="M151.954 922.515l16.812 73.221h82.393l18.388-73.221H151.954z" fill="#F25C54"/><path d="M279.807 927.401c0 .266-31.091.488-69.645.488-38.554 0-69.646-.222-69.646-.488 0-.267 31.092-.489 69.646-.489s69.645.244 69.645.489zm-76.885-84.237c-.222.133-1.177-.955-2.11-2.465-.933-1.51-1.51-2.843-1.288-2.976.222-.133 1.177.955 2.11 2.465.933 1.51 1.51 2.821 1.288 2.976zm.045 19.699a7.73 7.73 0 01.732-3.709c.644-1.976 1.4-3.509 1.644-3.42a7.783 7.783 0 01-.733 3.731c-.733 1.955-1.377 3.487-1.643 3.398zm6.751 20.698c-.244.134-1.266-1.532-2.221-3.686a10.105 10.105 0 01-1.421-4.109c.244-.133 1.266 1.533 2.221 3.687a10.106 10.106 0 011.421 4.108zm-14.591 16.657c-.2-.178.622-1.444 1.843-2.865 1.222-1.422 2.354-2.399 2.576-2.221.222.178-.621 1.466-1.843 2.865-1.221 1.399-2.376 2.509-2.576 2.221zm-3.065-30.226c0 .266-1.377.244-2.976 0s-2.842-.711-2.798-.977c.044-.267 1.377-.245 2.954 0 1.577.244 2.865.71 2.82.977z" fill="#263238"/><path d="M673.029 734.476h-327.84v261.438h327.84V734.476z" fill="#E0E0E0"/><path opacity=".3" d="M369.063 735.009c38.598 13.77 81.172 16.723 122.59 17.5 8.595.156 17.279.134 25.584 2.221 8.306 2.088 16.324 6.818 20.588 14.258 4.641 8.106 4.153 18.255 1.51 27.205s-7.196 17.234-10.483 25.962a96.945 96.945 0 00-5.174 48.437 45.486 45.486 0 006.84 19.543 22.41 22.41 0 0017.367 10.171c12.459.178 20.987-12.059 27.161-22.896 25.34-44.417 52.745-94.83 68.957-143.311l-274.94.91z" fill="#000"/><path d="M456.897 994.514c-.333 0-.577-57.941-.577-129.408 0-71.467.244-129.43.577-129.43.333 0 .578 57.941.578 129.43s-.267 129.408-.578 129.408zm134.339-453.251c-.977-6.529-20.476-28.071-20.476-28.071s-9.728-39.109-12.659-50.635a38.05 38.05 0 00-4.242-9.461 76.069 76.069 0 00-28.427-27.428L498.449 410.5l-6.44-14.347-64.804-33.312-17.567 31.092s-42.663 13.547-48.304 23.163c-5.64 9.616 2.799 139.469 2.799 139.469s-17.767 74.887-21.609 90.388c-3.842 15.501 1.199 33.979 1.199 33.979l31.78-39.864c9.883-12.393 31.559-18.1 47.127-17.878l133.05.6-5.352-37.266 107.644 20.831s18.5-36.11 19.988-36.821c1.488-.711-86.724-29.271-86.724-29.271z" fill="#455A64"/><path d="M424.451 406.036c-.933-.955 7.506 27.583 18.122 56.654a142.83 142.83 0 018.595 49.014v105.268l63.782-4.331-9.527-69.335s-7.773-44.727-9.95-61.739c-1.998-15.546-8.883-57.742-8.883-57.742s-35.422 9.417-62.139-17.789z" fill="#fff"/><path d="M566.007 567.38a4.46 4.46 0 010-1.621c.147-1.452.429-2.887.844-4.286a28.877 28.877 0 017.284-12.37 29.261 29.261 0 0112.371-7.329 23.334 23.334 0 014.286-.844 4.257 4.257 0 011.599 0c0 .2-2.221.444-5.641 1.621a30.734 30.734 0 00-19.122 19.166c-1.177 3.443-1.421 5.663-1.621 5.663zm3.287-25.228a20.565 20.565 0 019.749-2.821 19.99 19.99 0 0110.061 1.199c0 .356-4.442-.51-9.972 0-5.53.511-9.705 1.955-9.838 1.622z" fill="#263238"/><path opacity=".3" d="M357.715 599.605l-5.552 6.262a44.86 44.86 0 0022.474 14.88 114.398 114.398 0 0027.117 2.443 38.617 38.617 0 0010.971-1.044c3.62-1.044 6.973-3.087 10.727-3.309 2.517.012 5.02.371 7.439 1.066 2.435.691 5.008.729 7.462.111a5.86 5.86 0 004.331-5.485 391.207 391.207 0 00-84.969-14.924z" fill="#000"/><path d="M539.823 607.644l-15.545-16.612-32.314-8.106s-29.492 8.884-30.203 8.884c-.711 0-25.673-6.841-25.673-6.841l-8.728 32.025 44.972 3.087 51.346-2.066s2.687-2.487 1.088-4.197c-1.599-1.71 8.595 2.887 9.794 2.932 1.199.044 3.509.977 5.108-.933 1.088-1.421 2.554-5.619.155-8.173z" fill="#FFBE9D"/><path d="M524.766 613.707a28.629 28.629 0 01-5.108-1.466c-3.109-.977-7.439-2.221-12.259-3.553a130.895 130.895 0 00-12.481-2.776 26.118 26.118 0 01-5.174-1.222c1.779-.077 3.56.057 5.307.4 4.248.593 8.46 1.424 12.615 2.488a106.953 106.953 0 0112.259 3.908 20.927 20.927 0 014.841 2.221zm15.057-6.063a70.139 70.139 0 01-7.151-2.221c-4.441-1.465-10.504-3.287-17.322-5.174-6.818-1.888-12.859-4.042-17.456-4.309a41.242 41.242 0 00-7.418.289 6.033 6.033 0 011.932-.666 20.967 20.967 0 015.53-.444c4.753 0 11.105 2.02 17.767 4.019 6.663 1.999 12.925 3.842 17.278 5.53 2.221.822 3.887 1.577 5.086 2.11a6.684 6.684 0 011.754.866z" fill="#EB996E"/><path d="M361.335 417.096s-23.208 16.146-28.871 39.375c-5.664 23.23-30.115 118.171-25.096 132.363 5.019 14.191 102.603 28.138 102.603 28.138l11.571-48.859-49.57-13.569s.644-45.194 1.266-63.916c.622-18.722-11.903-73.532-11.903-73.532z" fill="#455A64"/><path d="M420.92 575.464l15.968 3.931-9.617 36.821-15.679-2.509 9.328-38.243z" fill="#fff"/><path d="M307.013 583.815s0 .821.244 2.22a10.817 10.817 0 003.398 5.53c4.242 3.953 12.348 7.24 22.608 9.084 4.686 1.554 10.038 2.776 15.746 4.064a836.316 836.316 0 0018.366 3.908c12.992 2.665 27.361 5.464 42.596 8.306l-.666.422c1.088-4.441 2.221-9.305 3.442-14.169 2.732-11.104 5.397-22.03 7.906-32.313l.4.666-43.951-12.459a43.793 43.793 0 00-19.21-3.375 42.555 42.555 0 00-14.502 3.42 48.566 48.566 0 00-8.328 4.619l-2.021 1.466a4.29 4.29 0 01-.711.466s.2-.222.622-.577 1.066-.911 1.955-1.577a44.916 44.916 0 018.283-4.864 42.074 42.074 0 0114.658-3.664 43.969 43.969 0 0119.588 3.242l44.083 12.348.533.134-.133.533c-2.51 10.282-5.152 21.12-7.862 32.335-1.199 4.841-2.354 9.638-3.464 14.147l-.133.533h-.533a2223.06 2223.06 0 01-42.574-8.417 841.126 841.126 0 01-18.366-4.042c-5.73-1.333-11.105-2.599-15.813-4.22-10.393-1.976-18.499-5.396-22.786-9.549a10.733 10.733 0 01-3.331-5.797 6.764 6.764 0 01-.044-2.42z" fill="#263238"/><path d="M374.682 557.853c-.133.155-1.799-1.377-4.775-3.354a45.65 45.65 0 00-26.384-7.706c-3.597 0-5.796.489-5.84.289a18.29 18.29 0 015.796-1.088 40.351 40.351 0 0126.961 7.839 17.788 17.788 0 014.242 4.02z" fill="#263238"/><path d="M381.189 478.347c.081.99.081 1.985 0 2.976 0 1.932-.2 4.686-.467 8.106-.555 6.818-1.554 16.212-3.353 26.517a180.98 180.98 0 01-6.152 26.028c-.533 1.621-1.11 3.087-1.577 4.442l-1.421 3.198c-.416.911-.93 1.775-1.532 2.576.278-.953.65-1.875 1.11-2.754.378-.955.777-2.043 1.244-3.243.466-1.199.91-2.753 1.399-4.441a232.206 232.206 0 005.796-25.984c1.777-10.26 2.91-19.61 3.665-26.406.333-3.22.622-5.907.844-8.039a12.59 12.59 0 01.444-2.976zm56.587-25.162s-.222-.6-.755-1.644a9.86 9.86 0 00-3.354-3.642 8.308 8.308 0 00-7.217-1.066 9.282 9.282 0 00-6.085 6.907l-.311 1.577-.689-1.466a154.178 154.178 0 01-6.773-17.145 90.137 90.137 0 01-5.02-30.292c0-1.977.267-3.753.378-5.33.111-1.577.466-2.887.711-3.953.234-1.121.561-2.22.977-3.287a78.78 78.78 0 00-1.266 12.57 96.89 96.89 0 005.308 29.937 171.391 171.391 0 006.662 17.056l-.999.133a10.193 10.193 0 016.862-7.529 8.887 8.887 0 017.84 1.355 9.639 9.639 0 013.287 4.02c.194.425.336.873.422 1.332.044.289.066.467.022.467zm54.144 4.997a17.471 17.471 0 01-.511-2.643 28.05 28.05 0 01-.466-7.44 15.546 15.546 0 015.352-9.838 10.23 10.23 0 016.463-2.332 8.873 8.873 0 016.795 3.042l-.977.578-2.109-5.308a2258.129 2258.129 0 01-10.461-26.85l-3.042-8.195a15.369 15.369 0 01-.955-3.042 17.485 17.485 0 011.377 2.887c.888 2.22 2.021 4.819 3.398 8.061 2.82 6.818 6.662 16.257 10.771 26.65l2.087 5.33 1.355 3.42-2.221-2.864a7.677 7.677 0 00-5.929-2.665 9.214 9.214 0 00-5.819 2.021 15.122 15.122 0 00-5.219 9.127 31.555 31.555 0 00.133 7.307c.106.915.098 1.84-.022 2.754zm41.197 5.507c.31 0 5.33 33.713 11.215 75.398 5.885 41.685 10.371 75.508 10.06 75.508-.311 0-5.33-33.712-11.215-75.508-5.885-41.796-10.371-75.353-10.06-75.398z" fill="#263238"/><path opacity=".3" d="M413.258 437.061a69.612 69.612 0 005.53 25.096c2.42-2.998 5.108-6.152 8.883-7.04 4.575-1.088 9.217 1.732 12.526 5.197a22.737 22.737 0 00-3.998-9.595 11.27 11.27 0 00-8.883-4.597 7.778 7.778 0 00-7.396 6.041l-6.373-14.946" fill="#000"/><path d="M375.748 461.468c-.2 0-.133-2.331-.8-5.951a36.523 36.523 0 00-5.396-13.214 39.846 39.846 0 00-5.086-6.019 34.097 34.097 0 00-5.086-3.975c-3.131-1.977-5.33-2.732-5.241-2.932.545.04 1.079.175 1.577.4a9.441 9.441 0 011.799.688c.767.33 1.51.716 2.221 1.155a31.127 31.127 0 015.396 3.865 36.821 36.821 0 015.308 6.174 33.1 33.1 0 015.241 13.724c.221 1.47.296 2.958.222 4.442 0 1.066-.066 1.643-.155 1.643z" fill="#263238"/><path d="M504.668 303.1a47.596 47.596 0 00-48.548-42.529h-2.465c-26.539 2.221-39.464 26.006-36.489 52.456l7.285 93.054 3.087 3.775a49.746 49.746 0 0059.074 13.925l-2.043-29.937s25.451-4.62 25.095-30.159c-.155-12.393-2.554-37.755-4.996-60.585z" fill="#FFBE9D"/><path d="M484.769 393.777a61.828 61.828 0 01-33.69-8.883s8.328 18.189 33.756 15.235l-.066-6.352z" fill="#EB996E"/><path d="M496.584 324.109a3.688 3.688 0 01-3.42 3.776 3.513 3.513 0 01-3.458-1.871 3.488 3.488 0 01-.384-1.327 3.663 3.663 0 013.42-3.776 3.497 3.497 0 013.463 1.867c.214.414.343.867.379 1.331zm1.621-13.88c-.289.444-3.176.755-6.663 2.621-3.486 1.865-5.53 4.197-5.996 4.153-.466-.045 0-.644.866-1.688a16.766 16.766 0 014.664-3.62 15.188 15.188 0 015.419-1.799c1.31-.133 1.865.111 1.71.333zm-38.487 15.813a3.62 3.62 0 01-3.42 3.775 3.49 3.49 0 01-3.842-3.198 3.663 3.663 0 013.42-3.775 3.49 3.49 0 012.596.787 3.488 3.488 0 011.246 2.411zm-.444-10.461c-.511 0-2.888-1.488-6.663-2.42-3.775-.933-6.907-.733-7.24-1.044-.333-.311.4-.444 1.755-.555a18.853 18.853 0 015.885.555 17.034 17.034 0 015.241 2.221c.888.71 1.155 1.199 1.022 1.243zm15.279 30.493a27.396 27.396 0 016.352-1.311c.999 0 1.932-.355 2.087-1.044a5.013 5.013 0 00-.733-2.931l-3.176-7.573c-4.441-10.749-7.595-19.61-7.151-19.766.444-.155 4.442 8.395 8.728 19.144 1.066 2.665 2.088 5.197 3.043 7.618a5.837 5.837 0 01.622 3.908 2.535 2.535 0 01-1.622 1.51 6.361 6.361 0 01-1.687.289 25.244 25.244 0 01-6.463.156zm-15.279-45.639c-.445 1.044-4.331.356-8.884.667-4.553.31-8.417 1.421-8.883.421-.267-.466.444-1.443 1.976-2.398a15.547 15.547 0 0113.659-.844c1.465.777 2.265 1.643 2.132 2.154zm38.842.866c-.866.911-4.242 0-8.284 0-4.042 0-7.484.689-8.283-.244-.356-.444.177-1.355 1.665-2.221a13.459 13.459 0 016.663-1.532 13.323 13.323 0 016.662 1.732c1.466.911 1.955 1.843 1.577 2.265zm13.991-20.898a4.865 4.865 0 00-5.108-3.931 10.128 10.128 0 003.509-1.798 3.535 3.535 0 001.222-3.554c-.666-1.976-3.198-2.398-5.197-2.953a13.326 13.326 0 01-6.662-4.442c-2.421-3.065-3.354-7.062-5.464-10.371a16.939 16.939 0 00-19.892-6.879 16.952 16.952 0 00-6.358 3.991 17.656 17.656 0 00-28.405 4.331 20.589 20.589 0 00-28.204 22.542l15.901 9.749a8.595 8.595 0 0110.482-7.462c4.797 1.399 7.862 6.951 12.837 7.329 3.886.288 7.195-2.71 10.948-3.709 4.553-1.221 9.372.6 13.481 2.909 4.109 2.31 8.039 5.197 12.614 6.352a26.192 26.192 0 0016.19-1.932 16.416 16.416 0 005.997-3.709 7.42 7.42 0 002.109-6.463z" fill="#263238"/><path d="M430.136 279.582l72.844-.4a33.094 33.094 0 00-11.104-12.082 56.856 56.856 0 00-33.313-10.948c-11.882 0-35.645 15.257-44.017 23.674-6.663 6.662-6.485 12.414-6.485 12.414-.844 9.461 4.73 19.988 7.107 29.249 1.199 4.752 3.709 19.143 3.709 19.143 3.997-.111 5.396-3.353 4.685-7.306l-1.177-15.546a23.52 23.52 0 006.419-27.627c-1-1.377-3.398-7.795 1.332-10.571z" fill="#263238"/><path d="M421.342 316.758c-3.709-12.88-7.129-26.65-3.176-39.53h-2.221l-.888.644a10.194 10.194 0 00-11.46 15.701 8.885 8.885 0 00-8.883 7.706 16.48 16.48 0 002.376 8.484 19.85 19.85 0 012.776 8.439 6.328 6.328 0 01-4.841 6.552 7.26 7.26 0 008.239 4.019 14.5 14.5 0 01-4.997 6.307c4.753 3.243 11.26 2.221 16.412-.377a13.992 13.992 0 007.329-6.796c1.421-3.575.355-7.506-.666-11.149z" fill="#263238"/><path d="M420.143 331.793c-.445-.177-17.767-4.73-16.679 12.704 1.088 17.433 18.322 12.836 18.322 12.325 0-.51-1.643-25.029-1.643-25.029z" fill="#FFBE9D"/><path d="M417.611 350.493s-.289.222-.8.489a2.996 2.996 0 01-2.221.177c-1.887-.577-3.597-3.398-3.864-6.551a10.135 10.135 0 01.6-4.442 3.553 3.553 0 012.221-2.465 1.58 1.58 0 011.843.733c.266.466.155.822.266.866.111.044.356-.333.178-1.044a2.224 2.224 0 00-.755-1.044 2.23 2.23 0 00-1.71-.355 4.307 4.307 0 00-3.02 2.887 10.799 10.799 0 00-.778 4.93c.333 3.509 2.221 6.663 4.886 7.285a3.288 3.288 0 002.732-.622c.422-.422.488-.822.422-.844z" fill="#EB996E"/><path d="M402.043 317.336s-.489-.666-.334-2.043a6.516 6.516 0 013.265-4.442 19.996 19.996 0 017.995-1.932 9.848 9.848 0 007.951-4.042 14.51 14.51 0 001.377-9.172c-.422-2.932-1.2-5.574-1.577-7.862a12.902 12.902 0 01.111-7.484c.015 2.45.291 4.892.822 7.284.488 2.221 1.354 4.819 1.887 7.906a15.258 15.258 0 01-1.465 10.039 8.513 8.513 0 01-4.153 3.509c-1.55.575-3.172.933-4.82 1.066a20.793 20.793 0 00-7.662 1.51 6.485 6.485 0 00-3.22 3.82 14.037 14.037 0 00-.177 1.843zm-4.22-7.573s-.378-.489-.533-1.577a7.436 7.436 0 01.866-4.442 7.919 7.919 0 012.065-2.487 8.89 8.89 0 013.354-1.555 9.82 9.82 0 003.309-1.377 3.955 3.955 0 001.31-3.198c0-1.31-.155-2.709-.111-4.108a20.58 20.58 0 01.444-3.975 18.403 18.403 0 012.51-6.219 4.805 4.805 0 013.842-2.465c1.155 0 1.643.533 1.599.578-.044.044-.577-.2-1.555 0a4.45 4.45 0 00-1.829.86 4.457 4.457 0 00-1.258 1.582 20.272 20.272 0 00-2.087 5.952 22.335 22.335 0 00-.333 3.731c0 1.288.2 2.665.133 4.176a5.173 5.173 0 01-1.843 4.175 10.003 10.003 0 01-3.798 1.532 7.225 7.225 0 00-4.93 3.331 9.77 9.77 0 00-1.155 5.486zm102.07-46.038c.111 0-1.311.955-3.598-.111a10.494 10.494 0 01-3.309-2.821 13.902 13.902 0 00-4.042-3.575 12.052 12.052 0 00-6.702-1.521 12.05 12.05 0 00-6.445 2.387c-2.221 1.554-4.065 3.753-6.663 5.574a11.634 11.634 0 01-4.442 2.021 9.424 9.424 0 01-4.952-.466c-3.154-1.133-5.641-3.065-8.35-4.042a22.397 22.397 0 00-8.195-1.488 21.694 21.694 0 00-13.325 4.553 23.854 23.854 0 00-6.219 7.306c-1.088 2.021-1.488 3.265-1.599 3.22-.111-.044 0-.333.178-.932.251-.865.563-1.711.933-2.532a22.69 22.69 0 016.107-7.817 22.342 22.342 0 0113.791-5.042 22.665 22.665 0 018.684 1.488c2.931 1.066 5.463 2.998 8.328 3.998a8.075 8.075 0 004.264.422 10.262 10.262 0 003.842-1.777c2.332-1.666 4.286-3.864 6.663-5.508a12.565 12.565 0 017.617-2.509c2.342.017 4.638.645 6.663 1.821a15.125 15.125 0 014.153 3.931 10.002 10.002 0 002.953 2.842 4.995 4.995 0 003.665.578z" fill="#455A64"/><path d="M464.87 350.648c.555 0 1.177 3.598 4.819 5.708 3.642 2.11 7.529 1.044 7.662 1.555.133.51-.777.888-2.443 1.199a9.392 9.392 0 01-6.351-1.066 8.346 8.346 0 01-3.82-4.842c-.4-1.532-.133-2.531.133-2.554z" fill="#263238"/><path d="M694.683 697.655a33.98 33.98 0 00-24.43-8.128l-15.013 47.681c10.994.489 21.965 6.152 32.58 3.242a23.244 23.244 0 0016.19-19.099 27.6 27.6 0 00-9.327-23.696z" fill="#F25C54"/><path d="M670.431 688.438c0-.377 1.621-.688 4.442-.666a37.08 37.08 0 0112.281 2.332 33.313 33.313 0 0114.969 11.615 30.921 30.921 0 014.996 10.349 27.221 27.221 0 01.356 12.503 25.434 25.434 0 01-5.441 11.393 24.049 24.049 0 01-9.683 6.663 34.8 34.8 0 01-18.877 1.221 57.006 57.006 0 01-11.771-3.664c-2.643-1.133-4.042-1.977-3.908-2.354.133-.378 1.732-.267 4.441.2 2.71.466 6.818 1.332 11.704 1.776a33.853 33.853 0 0016.323-2.221 19.433 19.433 0 007.329-5.418 20.489 20.489 0 004.131-8.884 24.429 24.429 0 00-4.064-18.655 32.19 32.19 0 00-12.215-10.926 55.11 55.11 0 00-10.949-3.82c-2.554-.578-4.108-1.044-4.064-1.444z" fill="#F5F5F5"/><path d="M531.34 867.327l-32.646 91.476L612.29 1000c3.286-11.104-47.593-54.189-47.593-54.189l23.319-57.741-56.676-20.743z" fill="#F25C54"/><path opacity=".6" d="M531.362 928.156a4.928 4.928 0 00-5.13 4.131 4.729 4.729 0 004.042 5.107 5.193 5.193 0 005.419-4.441c0-2.421-2.399-5.197-4.797-4.864" fill="#fff"/><path d="M498.694 958.803l3.309-9.216 107.888 43.04s4.264 4.019 2.399 7.373l-113.596-41.197z" fill="#fff"/><path d="M566.762 945.9c-.222.555-3.087-.2-6.462.6-3.376.799-5.686 2.598-6.108 2.221-.422-.378 1.555-3.309 5.664-4.198 4.108-.888 7.195.911 6.906 1.377zm10.216 9.261c0 .578-2.82.644-5.552 2.221-2.732 1.577-4.175 3.953-4.73 3.731-.556-.222.244-3.487 3.686-5.508 3.443-2.021 6.596-.977 6.596-.444zm1.488 16.701c-.533 0-.311-3.109 2.221-5.641s5.552-2.776 5.619-2.221c.066.555-2.11 1.577-4.153 3.687-2.044 2.109-3.11 4.33-3.687 4.175zm-7.862-39.709c-.422.422-2.687-1.266-5.885-2.221-3.198-.955-6.018-.821-6.129-1.399-.111-.577 2.931-1.71 6.662-.555 3.731 1.155 5.797 3.842 5.352 4.175zm2.177-14.457c-2.04-.18-3.995-.9-5.663-2.088a26.062 26.062 0 01-5.286-3.997 28.024 28.024 0 01-2.643-2.91 7.617 7.617 0 01-1.243-1.954 2.554 2.554 0 01.821-3.043 3.261 3.261 0 012.887-.399 8.095 8.095 0 012.021 1.066 22.19 22.19 0 013.11 2.509 21.249 21.249 0 013.997 5.33 10.104 10.104 0 011.666 5.841c-.311 0-.977-2.11-2.91-5.108a24.822 24.822 0 00-4.041-4.686 23.228 23.228 0 00-2.91-2.221c-1.088-.755-2.11-1.132-2.598-.71-.489.422-.244.244-.111.688.231.523.538 1.01.91 1.444.728.985 1.522 1.92 2.377 2.798a32.569 32.569 0 004.73 4.108c2.932 2.11 5.019 3.043 4.886 3.332z" fill="#263238"/><path d="M571.781 918.273a9.776 9.776 0 01.489-6.041 20.01 20.01 0 013.042-5.952 21.889 21.889 0 012.688-2.931 5.09 5.09 0 014.686-1.555 2.871 2.871 0 011.799 2.465 8.285 8.285 0 01-.178 2.221 13.767 13.767 0 01-5.952 8.884c-3.287 2.221-5.841 1.954-5.819 1.754.023-.2 2.221-.711 4.975-2.931a14.05 14.05 0 003.731-4.686 12.466 12.466 0 001.088-3.332c.267-1.265.156-2.42-.333-2.442a3.409 3.409 0 00-2.665 1.132 19.816 19.816 0 00-2.532 2.576 21.135 21.135 0 00-3.153 5.264c-1.377 3.353-1.533 5.574-1.866 5.574zM421.297 623.035c-17.234.399-33.579 2.82-45.461 15.323-15.745 16.59-35.2 40.198-36.31 56.565-1.644 24.429 13.125 31.758 23.896 37.754a30.245 30.245 0 0015.546 3.62l199.165-1.51 6.24-33.734-128.808-31.758 5.352-48.481-39.62 2.221z" fill="#263238"/><path d="M461.028 620.791l62.65-2.887s108.244 6.019 131.318 27.183c23.075 21.165 20.21 45.217 12.504 68.291-7.707 23.075-75.509 170.739-75.509 170.739s5.508 9.394 2.421 18.766a24.77 24.77 0 01-17.767 16.834l-60.229-22.209s-8.173-2.887-2.399-10.593c5.774-7.706 9.616-9.128 9.616-9.128v-15.39s21.165-38.487 23.075-43.773c1.91-5.286 22.208-83.592 22.208-83.592l13.481-23.164s-32.58-15.324-60.829-26.428l-65.959-16.256 5.419-48.393z" fill="#263238"/><path d="M562.654 894.799a59.17 59.17 0 01-5.286-3.465 71.535 71.535 0 00-28.116-10.682 61.789 61.789 0 01-6.262-.933 24.033 24.033 0 016.351.111 59.962 59.962 0 0128.493 10.838 24.142 24.142 0 014.82 4.131zm30.092-10.571a20.139 20.139 0 01-3.487-3.687c-2.043-2.376-4.752-5.752-7.573-9.616-2.82-3.865-5.263-7.44-6.929-10.083a22.692 22.692 0 01-2.487-4.442 23.353 23.353 0 013.154 3.976l7.195 9.86c2.687 3.642 5.152 6.929 7.284 9.794a23.263 23.263 0 012.843 4.198zm21.986-193.413c0 .177-2.22.666-5.707 1.821a59.965 59.965 0 00-24.118 15.057 59.788 59.788 0 01-4.153 4.331 20.687 20.687 0 013.553-4.886 50.705 50.705 0 0111.104-9.394 50.087 50.087 0 0113.325-5.886 20.158 20.158 0 015.996-1.043z" fill="#455A64"/><path d="M553.215 795.372c.026-.446.108-.886.244-1.31l.933-3.665 3.598-13.436 12.326-44.217c2.509-8.639 4.641-16.856 7.062-24.318a50.807 50.807 0 0111.348-17.3 65.044 65.044 0 0110.749-8.884c1.399-.888 2.488-1.554 3.265-1.954a7.124 7.124 0 011.177-.6s-1.51 1.022-4.175 2.91a72.083 72.083 0 00-10.438 9.083 50.785 50.785 0 00-10.927 17.1c-2.221 7.351-4.441 15.679-6.951 24.274l-12.637 44.106c-1.643 5.53-2.998 10.038-3.975 13.325-.466 1.466-.822 2.665-1.132 3.598a5.109 5.109 0 01-.467 1.288zm-55.41-112.797c-.333 0-1.643-11.681-2.954-26.161-1.31-14.48-2.22-26.25-1.776-26.273.444-.022 1.621 11.682 2.931 26.162 1.311 14.48 2.11 26.25 1.799 26.272zm-104.291 31.381c-.177 0-1.132-1.799-3.109-4.575a45.951 45.951 0 00-9.083-9.572 46.635 46.635 0 00-11.482-6.507c-3.176-1.244-5.241-1.71-5.196-1.91 1.869.087 3.713.47 5.463 1.133a39.418 39.418 0 0120.987 16.389 17.092 17.092 0 012.42 5.042zm38.377-42.64c0 .177-2.754-1.511-7.351-3.62a69.38 69.38 0 00-38.554-5.508c-4.997.711-8.039 1.599-8.084 1.399a7.666 7.666 0 012.065-.799 48.133 48.133 0 015.886-1.422 63.342 63.342 0 0138.998 5.597c1.81.893 3.56 1.902 5.241 3.02a8.073 8.073 0 011.799 1.333z" fill="#455A64"/><path d="M581.931 700.986a6.847 6.847 0 01-1.577-.266l-4.442-.955-16.212-3.576c-13.702-3.065-32.668-7.195-53.7-11.348a2258.216 2258.216 0 00-53.966-9.972l-16.412-2.82-4.442-.778a6.325 6.325 0 01-1.532-.377 13.86 13.86 0 011.576.133l4.442.577c3.887.533 9.505 1.377 16.457 2.466 13.88 2.22 33.024 5.463 54.077 9.638 21.054 4.175 39.975 8.417 53.656 11.682 6.818 1.643 12.347 3.02 16.145 4.019l4.442 1.155a8.669 8.669 0 011.488.422z" fill="#455A64"/><path d="M455.676 674.98c-.222 0-.689-2.621-2.754-6.352a27.383 27.383 0 00-4.442-5.885 72.192 72.192 0 00-6.973-6.041 105.583 105.583 0 00-14.28-8.883 47.63 47.63 0 01-6.085-3.464 37.478 37.478 0 016.462 2.731 83.452 83.452 0 0114.614 8.684 65.315 65.315 0 017.017 6.196 25.726 25.726 0 014.442 6.24 21.238 21.238 0 011.799 4.886c.183.612.251 1.252.2 1.888z" fill="#455A64"/><path d="M677.515 705.072c.245.267-3.086 3.62-5.685 8.751-2.598 5.13-3.442 9.749-3.775 9.682a20.159 20.159 0 012.754-10.215 20.414 20.414 0 016.706-8.218z" fill="#263238"/><path opacity=".3" d="M534.96 477.525l14.258 100.427.71 1.599a215.425 215.425 0 00-14.968-102.026z" fill="#000"/><path d="M611.734 535.223l-46.349 81.016-114.217 2.487-.289 5.175 110.598-.822 3.509-.133 116.771.244 23.608-40.708 30.159-43.218a4.267 4.267 0 00.242-4.395 4.259 4.259 0 00-3.773-2.267l-116.572.444a4.268 4.268 0 00-3.687 2.177z" fill="#E0E0E0"/><path d="M705.365 582.549s5.996 5.507 5.064 10.171c-.933 4.664-.645 8.151-5.064 8.461a6.666 6.666 0 01-5.996 6.952s1.354 7.328-7.174 8.594c0 0-2.62 7.84-7.995 5.93a46.44 46.44 0 01-8.883-4.109l-1.577-2.842s-7.928-2.976-5.974-7.44c1.199-2.709 5.286-3.42 5.286-3.42a7.607 7.607 0 01.511-6.929c1.887-2.554 8.061-.444 8.061-.444a8.748 8.748 0 011.955-6.041c2.22-2.51 11.948 4.264 11.948 4.264l5.352-6.396 4.486-6.751z" fill="#FFBE9D"/><path d="M692.195 616.727a55.51 55.51 0 01-9.86-5.441 54 54 0 01-9.239-6.44 56.708 56.708 0 019.861 5.463 55.896 55.896 0 019.238 6.418zm7.174-8.594a46.277 46.277 0 01-9.15-4.842 46.967 46.967 0 01-8.55-5.818 44.884 44.884 0 019.15 4.841 46.956 46.956 0 018.55 5.819zm-9.772-16.079c.178-.333 3.842 1.599 8.106 4.308a72.476 72.476 0 017.618 5.064c-.156.377-3.976-1.355-8.24-4.087a43.536 43.536 0 01-7.484-5.285z" fill="#EB996E"/><path d="M735.524 535.711c-.184.03-.371.03-.555 0h-7.951l-23.186.178-76.507.177h-5.575a4.606 4.606 0 00-4.242 1.999 1119.212 1119.212 0 00-5.196 9.372l-9.861 17.767-16.723 30.048c-4.752 8.483-8.639 15.368-11.371 20.232-1.31 2.221-2.376 4.13-3.131 5.463l-.844 1.399-.311.466s0-.199.2-.533l.755-1.465 2.954-5.552 11.104-20.41 16.523-30.181c3.109-5.663 6.396-11.615 9.772-17.767l5.219-9.438a5.77 5.77 0 015.219-2.532h5.574l76.508.155 23.186.2 6.307.111h1.643c.179.076.344.181.489.311z" fill="#263238"/><path d="M653.353 576.464a4.929 4.929 0 108.756 4.293 4.932 4.932 0 00-1.405-5.16 5.266 5.266 0 00-7.351.867z" fill="#fff"/><path opacity=".3" d="M329.11 545.172c-.977.4-2.11 1.066-2.11 2.221a1.914 1.914 0 001.622 1.732 20.626 20.626 0 004.752-1.266c12.015-2.643 21.898-.111 33.313 4.442l.377-.378c-4.53-9.838-25.028-12.015-37.954-6.751z" fill="#000"/><path d="M947.858 996.003c0 .31-200.875.577-448.609.577-247.735 0-448.61-.355-448.61-.577 0-.223 200.83-.578 448.61-.578 247.779 0 448.609.156 448.609.578z" fill="#263238"/><path d="M266.877 288.021c.377.377 74.131-24.962 74.131-24.962l-28.427-65.071L247 223.15l36.111 20.743-16.234 44.128z" fill="#455A64"/><path d="M301.477 217.576v-88.59s101.737-18.61 175.047-17.5c73.31 1.111 148.796 13.125 148.796 13.125v85.058s-229.768-20.52-323.843 7.907z" fill="#455A64"/><path d="M300.944 217.665l39.975 45.771V209.67s-33.423 3.997-39.975 7.995z" fill="#263238"/><path d="M301.477 128.964c.333 0 .467 19.988.333 44.417-.133 24.429-.533 44.417-.843 44.417-.311 0-.467-19.854-.334-44.417.134-24.562.511-44.417.844-44.417z" fill="#263238"/><path d="M659.743 281.225c-.377.378-74.131-24.962-74.131-24.962l28.36-65.093 65.648 25.118-36.133 20.742 16.256 44.195z" fill="#455A64"/><path d="M625.72 210.869l-39.975 45.771v-49.88a294.88 294.88 0 0139.975 4.109z" fill="#263238"/><path d="M625.276 124.611c.311 0 .666 19.299.777 43.129.111 23.83 0 43.129-.378 43.129-.377 0-.666-19.299-.777-43.129-.111-23.83.044-43.129.378-43.129z" fill="#263238"/><path d="M670.897 132.673l5.819 6.818 16.39-6.818-4.797-7.173-17.412 7.173z" fill="#455A64"/><path d="M663.391 100.227a8.526 8.526 0 01-10.192 8.364 8.53 8.53 0 01-3.074-15.455 8.529 8.529 0 014.738-1.438 8.55 8.55 0 018.528 8.529zM472.354 227.436a4.264 4.264 0 11-8.528-.044 4.264 4.264 0 018.528.044zM273.7 163.343a3.244 3.244 0 01-2.012 2.999 3.24 3.24 0 01-4.213-4.271 3.24 3.24 0 015.291-1.005 3.24 3.24 0 01.934 2.277z" fill="#F25C54"/><path d="M261.663 127.654l9.55.577 4.53-18.788-8.927.378-5.153 17.833z" fill="#455A64"/><path d="M560.144 277.627l3.22 9.017 19.055-3.198-3.842-8.062-18.433 2.243z" fill="#F25C54"/><path d="M367.42 225.593l-5.886 7.551 12.904 14.369 4.752-7.573-11.77-14.347z" fill="#455A64"/><path d="M344.612 48.215L367.153 71.2l31.736-11.992 1.266 7.884-13.747 28.138 12.681 21.009-1.066 6.285-30.714-5.175-18.167 19.921-4.264-3.22-3.753-25.34-28.649-14.924-1.266-5.796 28.849-7.884 4.553-31.891z" fill="#F25C54"/><path opacity=".3" d="M344.612 48.215L367.153 71.2l31.736-11.992 1.266 7.884-13.747 28.138 12.681 21.009-1.066 6.285-30.714-5.175-18.167 19.921-4.264-3.22-3.753-25.34-28.649-14.924-1.266-5.796 28.849-7.884 4.553-31.891z" fill="#000"/><path d="M344.612 41.752l22.541 23.008 31.736-5.552-14.902 28.56 15.102 28.471-31.78-5.33-22.431 23.141-4.73-31.869L311.21 87.99l28.849-14.347 4.553-31.891zm233.743 6.463L555.791 71.2l-31.736-11.992-1.265 7.884 13.747 28.138-12.681 21.009 1.066 6.285 30.714-5.175 18.166 19.921 4.264-3.22 3.753-25.34 28.649-14.924 1.266-5.796-28.849-7.884-4.53-31.891z" fill="#F25C54"/><path opacity=".3" d="M578.355 48.215L555.791 71.2l-31.736-11.992-1.265 7.884 13.747 28.138-12.681 21.009 1.066 6.285 30.714-5.175 18.166 19.921 4.264-3.22 3.753-25.34 28.649-14.924 1.266-5.796-28.849-7.884-4.53-31.891z" fill="#000"/><path d="M578.355 41.752L555.791 64.76l-31.735-5.552 14.901 28.56-15.101 28.471 31.78-5.33 22.43 23.141 4.731-31.869 28.937-14.191-28.848-14.347-4.531-31.891zM460.739 7.862l18.766 36.666 43.285-2.554-1.466 10.083-27.494 29.115 7.44 30.447-3.665 7.263-35.511-18.011-29.737 17.411-3.975-5.574 5.063-32.358-29.27-29.115.666-7.529 38.198 1.355 17.7-37.2z" fill="#F25C54"/><path opacity=".3" d="M460.739 7.862l18.766 36.666 43.285-2.554-1.466 10.083-27.494 29.115 7.44 30.447-3.665 7.263-35.511-18.011-29.737 17.411-3.975-5.574 5.063-32.358-29.27-29.115.666-7.529 38.198 1.355 17.7-37.2z" fill="#000"/><path d="M463.182 0l18.766 36.644 40.842 5.33-29.071 29.182 7.551 40.463-36.711-18.61-36.177 19.699 6.374-40.686-29.915-28.316 40.663-6.53L463.182 0z" fill="#F25C54"/><path d="M537.958 328.929l31.358 3.464a73.51 73.51 0 11-11.104 23.919l-20.254-27.383z" fill="#FAFAFA"/><path d="M537.958 328.929c1.221 1.643 7.573 10.038 20.543 27.249h-.467a.273.273 0 01.174-.151.276.276 0 01.226.04.293.293 0 01.117.134c.024.056.03.118.016.177a73.005 73.005 0 00.489 37.91 64.04 64.04 0 004.064 10.793c.889 1.777 1.732 3.598 2.687 5.397l3.309 5.263a73.485 73.485 0 0044.728 30.048 72.62 72.62 0 0030.559.134 74.024 74.024 0 0029.248-13.548 71.234 71.234 0 0021.209-26.05 72.622 72.622 0 007.285-33.49 74.058 74.058 0 00-8.217-31.803 71.555 71.555 0 00-19.855-23.94 73.703 73.703 0 00-52.523-15.013 79.68 79.68 0 00-22.985 6.351 73.295 73.295 0 00-29.027 24.119.223.223 0 01-.244.111l-31.336-3.731 31.403 3.175-.267.134a72.912 72.912 0 0129.138-24.43 78.805 78.805 0 0123.163-6.618 74.507 74.507 0 0153.3 15.058 72.252 72.252 0 0120.188 24.273 74.601 74.601 0 018.372 32.291 73.754 73.754 0 01-7.373 34.024 72.453 72.453 0 01-21.564 26.45 75.23 75.23 0 01-29.715 13.725 73.297 73.297 0 01-31.092-.2 74.091 74.091 0 01-45.15-30.448l-3.331-5.33c-.955-1.821-1.799-3.686-2.709-5.485a65.134 65.134 0 01-4.042-10.927 73.124 73.124 0 01-.267-38.265l.533.2a.315.315 0 01-.178.132.316.316 0 01-.222-.021l-20.187-27.738z" fill="#263238"/><path d="M602.296 348.494c.025.34.025.682 0 1.022v2.843c0 2.576 0 6.151.133 10.682 0 9.216.156 22.208.267 37.754l-.511-.511h52.256c.133-.133-1.088 1.088-.577.555v-52.256l.488.511-37.754-.267-10.682-.111h-3.864 3.664l10.549-.133 38.043-.244h.511v52.478c.533-.511-.689.733-.578.6h-52.767v-.6c0-15.679.178-28.76.244-38.043 0-4.441 0-8.039.134-10.571v-2.754c.104-.337.254-.658.444-.955z" fill="#263238"/><path d="M648.911 357.133c.755.6-6.263 10.727-15.701 22.631a238.446 238.446 0 01-5.419 6.662l-1.11 1.355-1.244-1.133c-8.173-7.351-13.703-12.992-13.214-13.569.488-.577 6.907 4.086 15.368 11.104l-2.376.222c1.621-2.221 3.398-4.441 5.285-6.795 9.417-11.904 17.678-21.054 18.411-20.477zM359.31 167.201l-2.997-8.856a39.804 39.804 0 01-.71-1.975 67.436 67.436 0 01-.755-2.486 35.803 35.803 0 01-1.42 4.506l-2.974 8.811h8.856zm11.918 12.362h-5.815c-.651 0-1.176-.147-1.576-.443a2.989 2.989 0 01-.91-1.177l-1.908-5.637h-12.296l-1.909 5.637c-.163.415-.459.792-.888 1.132-.414.326-.932.488-1.554.488h-5.859l12.518-32.337h7.679l12.518 32.337zm8.187-19.464c.711-1.243 1.524-2.22 2.442-2.93.932-.71 1.997-1.065 3.196-1.065 1.036 0 1.879.244 2.53.732l-.444 5.06c-.074.326-.2.548-.377.666-.163.119-.392.178-.688.178-.119 0-.274-.008-.466-.022l-.6-.045a8.466 8.466 0 00-.643-.066c-.207-.03-.4-.045-.577-.045-1.006 0-1.813.267-2.419.799-.592.533-1.095 1.273-1.51 2.22v13.982h-6.88v-23.016h4.084c.34 0 .621.03.843.089.237.059.429.156.577.289a1 1 0 01.355.488c.089.207.163.459.222.755l.355 1.931zm24.208-2.775c-1.924 0-3.64 1.302-5.15 3.907-1.509 2.574-2.263 5.149-2.263 7.723 0 5.386 1.39 8.079 4.172 8.079 1.983 0 3.596-1.287 4.839-3.862 1.243-2.604 1.864-5.519 1.864-8.744 0-4.735-1.154-7.103-3.462-7.103zm-3.773-3.995c.325 0 .621.104.887.311.296.177.444.37.444.577-2.989 2.071-4.779 4.957-5.371 8.656.622-1.657 1.376-3.093 2.264-4.306.917-1.213 1.864-2.131 2.841-2.752 1.864-1.154 3.684-1.731 5.46-1.731 1.775 0 3.285.873 4.528 2.619 1.243 1.746 1.864 4.084 1.864 7.013 0 3.285-.666 6.304-1.998 9.056-1.479 3.107-3.58 5.253-6.303 6.436-1.539.681-3.226 1.021-5.06 1.021-2.575 0-4.824-.991-6.748-2.974-1.894-2.012-2.841-4.883-2.841-8.611 0-3.759.918-7.058 2.753-9.899 1.834-2.871 4.261-4.676 7.28-5.416zm23.823 5.704a16.85 16.85 0 011.376-1.154 7.818 7.818 0 011.509-.888 8.429 8.429 0 011.754-.577 9.096 9.096 0 012.064-.222c1.258 0 2.367.222 3.329.666a6.738 6.738 0 012.464 1.82c.666.77 1.169 1.694 1.509 2.774.34 1.066.51 2.227.51 3.485v14.626h-6.88v-14.626c0-1.124-.259-1.997-.777-2.619-.518-.636-1.28-.954-2.286-.954-.755 0-1.465.162-2.131.488a8.341 8.341 0 00-1.908 1.287v16.424h-6.881v-23.016h4.262c.858 0 1.42.385 1.686 1.155l.4 1.331z" fill="#F25C54"/><path d="M487.497 147.226l-9.988 32.337h-6.791l-6.082-20.041a12.275 12.275 0 01-.333-1.021 70.407 70.407 0 01-.31-1.199c-.104.414-.207.814-.311 1.199-.104.369-.215.71-.333 1.021l-6.17 20.041h-6.792l-9.987-32.337h6.303c.651 0 1.191.148 1.62.443.444.296.733.688.866 1.177l4.439 16.868c.133.533.266 1.117.399 1.753.133.622.267 1.273.4 1.953.266-1.39.592-2.626.976-3.706l5.238-16.868c.133-.415.415-.784.844-1.11.444-.34.976-.51 1.598-.51h2.219c.651 0 1.177.155 1.576.466.4.296.703.68.91 1.154l5.194 16.868c.384 1.036.71 2.212.976 3.529.119-.666.237-1.287.355-1.865.134-.591.267-1.146.4-1.664l4.439-16.868c.118-.429.399-.807.843-1.132.444-.326.977-.488 1.598-.488h5.904zm16.133 10.098c-1.924 0-3.64 1.302-5.15 3.907-1.509 2.574-2.263 5.149-2.263 7.723 0 5.386 1.39 8.079 4.172 8.079 1.983 0 3.596-1.287 4.839-3.862 1.243-2.604 1.864-5.519 1.864-8.744 0-4.735-1.154-7.103-3.462-7.103zm-3.773-3.995c.325 0 .621.104.887.311.296.177.444.37.444.577-2.989 2.071-4.779 4.957-5.371 8.656.622-1.657 1.376-3.093 2.264-4.306.917-1.213 1.864-2.131 2.841-2.752 1.864-1.154 3.684-1.731 5.46-1.731 1.775 0 3.285.873 4.528 2.619 1.242 1.746 1.864 4.084 1.864 7.013 0 3.285-.666 6.304-1.998 9.056-1.479 3.107-3.58 5.253-6.303 6.436-1.539.681-3.226 1.021-5.06 1.021-2.575 0-4.824-.991-6.748-2.974-1.894-2.012-2.841-4.883-2.841-8.611 0-3.759.918-7.058 2.753-9.899 1.834-2.871 4.261-4.676 7.28-5.416zm23.912 6.77c.71-1.243 1.524-2.22 2.441-2.93.932-.71 1.998-1.065 3.196-1.065 1.036 0 1.879.244 2.53.732l-.443 5.06c-.074.326-.2.548-.378.666-.163.119-.392.178-.688.178-.118 0-.274-.008-.466-.022l-.599-.045a8.493 8.493 0 00-.644-.066 4.036 4.036 0 00-.577-.045c-1.006 0-1.812.267-2.419.799-.592.533-1.095 1.273-1.509 2.22v13.982h-6.881v-23.016h4.084c.34 0 .621.03.843.089.237.059.43.156.578.289.162.118.281.281.355.488.088.207.162.459.222.755l.355 1.931zm17.393-13.761v18.621h1.021c.429 0 .755-.059.977-.177.222-.133.444-.348.666-.644l4.35-6.481c.266-.37.569-.644.91-.821.34-.192.777-.289 1.309-.289h6.304l-5.949 8.19a7.289 7.289 0 01-1.997 1.82c.34.252.651.548.932.888.281.326.547.696.799 1.11l6.481 11.008h-6.215c-.518 0-.961-.081-1.331-.244-.37-.177-.681-.481-.933-.91l-4.35-8.145c-.207-.37-.421-.607-.643-.71-.222-.119-.555-.178-.999-.178h-1.332v10.187h-6.88v-33.225h6.88zm32.542 15.248c-.178.281-.37.481-.577.599-.192.118-.444.177-.755.177-.325 0-.651-.066-.976-.199a41.698 41.698 0 00-1.066-.466 9.536 9.536 0 00-1.265-.444 5.424 5.424 0 00-1.62-.222c-.873 0-1.546.17-2.02.51-.458.326-.688.784-.688 1.376 0 .429.148.785.444 1.066.311.281.718.532 1.221.754.503.207 1.073.407 1.709.6.636.192 1.287.406 1.953.643.666.237 1.317.518 1.953.844.636.31 1.206.702 1.709 1.176a5 5 0 011.199 1.687c.31.666.466 1.465.466 2.397 0 1.139-.207 2.19-.622 3.151a6.63 6.63 0 01-1.864 2.486c-.814.696-1.827 1.236-3.041 1.621-1.198.384-2.582.577-4.15.577-.784 0-1.569-.074-2.353-.222a16.68 16.68 0 01-2.286-.6 13.219 13.219 0 01-2.02-.887 9.31 9.31 0 01-1.598-1.132l1.598-2.531a2 2 0 01.666-.688c.281-.177.637-.266 1.066-.266.399 0 .754.089 1.065.266.325.178.673.37 1.043.577.37.208.799.4 1.287.578.504.177 1.132.266 1.887.266.533 0 .984-.052 1.354-.155.37-.119.666-.274.888-.467.222-.192.384-.406.488-.643.104-.237.155-.481.155-.733 0-.458-.155-.836-.466-1.132-.31-.296-.717-.547-1.22-.754a12.345 12.345 0 00-1.732-.599 43.514 43.514 0 01-1.953-.644 17.542 17.542 0 01-1.975-.844 7.21 7.21 0 01-1.709-1.265 6.019 6.019 0 01-1.221-1.886c-.311-.74-.466-1.635-.466-2.686 0-.976.185-1.901.555-2.774a6.561 6.561 0 011.709-2.331c.755-.665 1.701-1.191 2.841-1.575 1.139-.4 2.471-.6 3.995-.6.829 0 1.628.074 2.397.222.784.148 1.517.355 2.197.622a10.02 10.02 0 011.865.954 8.546 8.546 0 011.487 1.176l-1.554 2.42z" fill="#fff"/><path d="M577.913 176.079c0-.533.096-1.028.288-1.487.207-.459.481-.858.821-1.199.356-.34.77-.606 1.243-.799a3.84 3.84 0 011.554-.31c.547 0 1.058.103 1.531.31.474.193.888.459 1.243.799.355.341.629.74.822 1.199.207.459.31.954.31 1.487 0 .533-.103 1.036-.31 1.509a3.554 3.554 0 01-.822 1.199c-.355.34-.769.606-1.243.799a4.034 4.034 0 01-1.531.288c-.562 0-1.08-.096-1.554-.288a3.928 3.928 0 01-1.243-.799 4.023 4.023 0 01-.821-1.199 3.973 3.973 0 01-.288-1.509z" fill="#EEC63A"/></svg>