<svg width="500" height="375" viewBox="0 0 500 375" fill="none" xmlns="http://www.w3.org/2000/svg">
<path d="M500 328.4H0V328.65H500V328.4Z" fill="#E0E0E0"/>
<path d="M393.18 336H376.32V336.25H393.18V336Z" fill="#E0E0E0"/>
<path d="M448.56 335.88H404V336.13H448.56V335.88Z" fill="#E0E0E0"/>
<path d="M320.73 337.56H265.26V337.81H320.73V337.56Z" fill="#E0E0E0"/>
<path d="M259.5 337.56H238.78V337.81H259.5V337.56Z" fill="#E0E0E0"/>
<path d="M151.56 335.63H142.46V335.88H151.56V335.63Z" fill="#E0E0E0"/>
<path d="M172.15 335.63H157.11V335.88H172.15V335.63Z" fill="#E0E0E0"/>
<path d="M133.45 340.14H66.8901V340.39H133.45V340.14Z" fill="#E0E0E0"/>
<path d="M237 283.8H43.91C42.3973 283.797 40.9475 283.195 39.8788 282.124C38.8102 281.054 38.21 279.603 38.21 278.09V6.66C38.2231 5.15603 38.8292 3.71798 39.8964 2.65822C40.9637 1.59846 42.4059 1.00258 43.91 1H237C238.514 1 239.967 1.60159 241.038 2.67242C242.108 3.74325 242.71 5.19561 242.71 6.71V278.09C242.71 279.604 242.108 281.057 241.038 282.128C239.967 283.198 238.514 283.8 237 283.8V283.8ZM43.91 1.2C42.4636 1.20265 41.0774 1.77907 40.0556 2.80273C39.0338 3.82639 38.46 5.21365 38.46 6.66V278.09C38.46 279.536 39.0338 280.924 40.0556 281.947C41.0774 282.971 42.4636 283.547 43.91 283.55H237C238.447 283.547 239.834 282.971 240.858 281.948C241.881 280.924 242.457 279.537 242.46 278.09V6.66C242.457 5.21273 241.881 3.82549 240.858 2.80212C239.834 1.77874 238.447 1.20264 237 1.2H43.91Z" fill="#E0E0E0"/>
<path d="M453.31 283.8H260.21C258.696 283.797 257.246 283.195 256.175 282.125C255.105 281.054 254.503 279.604 254.5 278.09V6.66C254.516 5.15511 255.124 3.71708 256.193 2.65759C257.262 1.59811 258.705 1.00255 260.21 1H453.31C454.812 1.0052 456.252 1.60225 457.317 2.66173C458.382 3.72121 458.987 5.15775 459 6.66V278.09C459 279.601 458.401 281.05 457.335 282.121C456.268 283.191 454.821 283.795 453.31 283.8V283.8ZM260.21 1.2C258.763 1.20264 257.375 1.77874 256.352 2.80212C255.329 3.82549 254.753 5.21273 254.75 6.66V278.09C254.753 279.537 255.329 280.924 256.352 281.948C257.375 282.971 258.763 283.547 260.21 283.55H453.31C454.757 283.547 456.145 282.971 457.168 281.948C458.191 280.924 458.767 279.537 458.77 278.09V6.66C458.767 5.21273 458.191 3.82549 457.168 2.80212C456.145 1.77874 454.757 1.20264 453.31 1.2H260.21Z" fill="#E0E0E0"/>
<path d="M317.79 206.54H270.43V328.4H317.79V206.54Z" fill="#E0E0E0"/>
<path d="M308.79 328.4H317.79V302.81H299.36L308.79 328.4Z" fill="#F0F0F0"/>
<path d="M140.79 206.54H93.4302V328.4H140.79V206.54Z" fill="#E0E0E0"/>
<path d="M317.78 206.54H132.94V312.7H317.78V206.54Z" fill="#F0F0F0"/>
<path d="M228.38 214.25V280.71H310.81V214.25H228.38Z" fill="#E0E0E0"/>
<path d="M139.92 214.26V280.72H222.35V214.26H139.92Z" fill="#E0E0E0"/>
<path d="M310.81 302.81V297.92H228.38V302.81H310.81Z" fill="#E0E0E0"/>
<path d="M222.35 302.81V297.92H139.92V302.81H222.35Z" fill="#E0E0E0"/>
<path d="M310.8 293.36V288.47H228.37V293.36H310.8Z" fill="#E0E0E0"/>
<path d="M222.34 293.37V288.48H139.91V293.37H222.34Z" fill="#E0E0E0"/>
<path d="M189.29 221.41H173C169.495 221.41 166.027 220.697 162.807 219.313C159.586 217.929 156.682 215.903 154.27 213.36H208C205.591 215.902 202.69 217.926 199.473 219.31C196.257 220.694 192.792 221.409 189.29 221.41V221.41Z" fill="#F0F0F0"/>
<path d="M278.58 221.41H262.28C258.775 221.411 255.306 220.698 252.086 219.314C248.866 217.93 245.961 215.904 243.55 213.36H297.31C294.899 215.904 291.995 217.93 288.774 219.314C285.554 220.698 282.085 221.411 278.58 221.41V221.41Z" fill="#F0F0F0"/>
<path d="M141.94 328.4H132.94V302.81H151.37L141.94 328.4Z" fill="#F0F0F0"/>
<path d="M316.77 19.99H68.3501V161.89H316.77V19.99Z" fill="#E0E0E0"/>
<path d="M330.51 15.6099H60C59.6632 15.6099 59.3402 15.7437 59.102 15.9818C58.8638 16.22 58.73 16.543 58.73 16.8799V16.8799C58.7287 17.0475 58.7606 17.2137 58.8238 17.3689C58.887 17.5242 58.9804 17.6654 59.0984 17.7844C59.2165 17.9034 59.357 17.9978 59.5117 18.0622C59.6664 18.1267 59.8324 18.1599 60 18.1599H330.51C330.678 18.1599 330.844 18.1267 330.998 18.0622C331.153 17.9978 331.294 17.9034 331.412 17.7844C331.53 17.6654 331.623 17.5242 331.686 17.3689C331.749 17.2137 331.781 17.0475 331.78 16.8799V16.8799C331.78 16.543 331.646 16.22 331.408 15.9818C331.17 15.7437 330.847 15.6099 330.51 15.6099V15.6099Z" fill="#E0E0E0"/>
<path d="M322.21 19.99H70.8901V161.89H322.21V19.99Z" fill="#E6E6E6"/>
<path d="M316.77 161.89H68.3501V172H316.77V161.89Z" fill="#E0E0E0"/>
<path d="M331.27 161.89H79.9502V172H331.27V161.89Z" fill="#E6E6E6"/>
<path d="M314.58 154.27V27.61L78.5 27.61V154.27H314.58Z" fill="#F5F5F5"/>
<path d="M195.34 154.27L240.05 27.61H261.15L216.44 154.27H195.34Z" fill="#FAFAFA"/>
<path d="M220.98 154.27L265.69 27.61H273.91L229.21 154.27H220.98Z" fill="#FAFAFA"/>
<path d="M314.58 154.27V27.61H313.61V154.27H314.58Z" fill="#E0E0E0"/>
<path d="M78.59 13.3301H65.48V135.55H78.59V13.3301Z" fill="#EBEBEB"/>
<path d="M83.7002 13.3301H73.4902V135.55H83.7002V13.3301Z" fill="#E0E0E0"/>
<path d="M91.7003 13.3301H78.5903V135.55H91.7003V13.3301Z" fill="#EBEBEB"/>
<path d="M96.8101 13.3301H86.6001V135.55H96.8101V13.3301Z" fill="#E0E0E0"/>
<path d="M104.81 13.3301H91.7002V135.55H104.81V13.3301Z" fill="#EBEBEB"/>
<path d="M309.7 13.3301H302.15V135.55H309.7V13.3301Z" fill="#EBEBEB"/>
<path d="M312.66 13.3301H306.77V135.55H312.66V13.3301Z" fill="#E0E0E0"/>
<path d="M317.26 13.3301H309.71V135.55H317.26V13.3301Z" fill="#EBEBEB"/>
<path d="M320.21 13.3301H314.32V135.55H320.21V13.3301Z" fill="#E0E0E0"/>
<path d="M324.81 13.3301H317.26V135.55H324.81V13.3301Z" fill="#EBEBEB"/>
<path d="M393.53 66.35H376.77V112.08H393.53V66.35Z" fill="#E6E6E6"/>
<path d="M370.4 119.71L366.52 130.28H370.4L394.13 119.71H370.4Z" fill="#F0F0F0"/>
<path d="M366.52 119.71V130.28L390.26 119.71H366.52Z" fill="#E0E0E0"/>
<path d="M410.99 119.71L407.11 130.28H410.99L434.72 119.71H410.99Z" fill="#F0F0F0"/>
<path d="M407.11 119.71V130.28L430.85 119.71H407.11Z" fill="#E0E0E0"/>
<path d="M349.11 120.2H374.92V112.15H349.11V120.2Z" fill="#E0E0E0"/>
<path d="M448.56 112.15H374.91V120.2H448.56V112.15Z" fill="#F0F0F0"/>
<path d="M421.45 112.08H380.66L375.61 56.67H416.4L421.45 112.08Z" fill="#E0E0E0"/>
<path d="M423.56 112.08H382.77L377.73 56.67H418.52L423.56 112.08Z" fill="#F0F0F0"/>
<path d="M388.35 105.95L384.42 62.7999H412.94L416.87 105.95H388.35Z" fill="#FAFAFA"/>
<path d="M157.41 188.75C157.41 188.75 139.82 158.44 164.22 134.31C164.22 134.31 170.59 138.46 170.49 144.04C170.39 149.62 163.67 151.04 165.12 155.68C166.57 160.32 172.91 164.91 168.74 168.76C164.57 172.61 169.41 176.03 169.13 180.76C168.85 185.49 157.41 188.75 157.41 188.75Z" fill="#E0E0E0"/>
<path d="M158.74 191.52C158.74 191.52 165.87 157.21 135.11 142C135.11 142 130.38 147.95 132.23 153.21C134.08 158.47 140.9 157.7 141 162.57C141.1 167.44 136.52 173.78 141.68 176.12C146.84 178.46 143.34 183.24 145.1 187.62C146.86 192 158.74 191.52 158.74 191.52Z" fill="#E0E0E0"/>
<path d="M131.8 183.92C131.8 183.92 132.38 206.54 154.8 206.54C177.22 206.54 177.8 183.92 177.8 183.92H131.8Z" fill="#F0F0F0"/>
<path d="M396.35 328.4H398.64L405.16 296.24L406.31 290.61L413.42 255.61H440.71L455.5 328.4H457.79L442.72 254.22C442.667 253.968 442.529 253.741 442.328 253.579C442.128 253.417 441.878 253.329 441.62 253.33H412.51C412.253 253.327 412.003 253.415 411.804 253.578C411.605 253.74 411.469 253.968 411.42 254.22L405.17 285L404 290.63L396.35 328.4Z" fill="#EBEBEB"/>
<path d="M352.54 328.4H354.83L369.62 255.57H396.91L404 290.63L405.14 296.24L411.67 328.4H414L406.33 290.61L405.17 285L398.92 254.22C398.867 253.968 398.729 253.741 398.528 253.579C398.328 253.417 398.078 253.329 397.82 253.33H368.71C368.452 253.329 368.202 253.417 368.002 253.579C367.801 253.741 367.663 253.968 367.61 254.22L352.54 328.4Z" fill="#EBEBEB"/>
<path d="M419.81 254.45H369.67C365.068 254.448 360.651 252.643 357.364 249.422C354.078 246.201 352.184 241.821 352.09 237.22L350.22 161C350.195 159.304 350.507 157.621 351.137 156.046C351.768 154.472 352.705 153.039 353.894 151.83C355.083 150.62 356.5 149.659 358.063 149.002C359.626 148.344 361.304 148.004 363 148H394.43C397.577 147.999 400.614 149.157 402.962 151.252C405.309 153.347 406.804 156.233 407.16 159.36L419.81 254.45Z" fill="#E6E6E6"/>
<path d="M392.46 244.84H441.53C443.352 244.84 445.099 245.564 446.388 246.852C447.676 248.141 448.4 249.888 448.4 251.71V251.95C448.4 252.613 448.137 253.249 447.668 253.718C447.199 254.187 446.563 254.45 445.9 254.45H392.46V244.84Z" fill="#E6E6E6"/>
<path d="M250 373.56C357.082 373.56 443.89 368.492 443.89 362.24C443.89 355.988 357.082 350.92 250 350.92C142.917 350.92 56.1099 355.988 56.1099 362.24C56.1099 368.492 142.917 373.56 250 373.56Z" fill="#F5F5F5"/>
<path d="M186.55 74.2799C186.554 72.4173 186.403 70.5576 186.1 68.7199C184.76 60.5974 180.599 53.2072 174.35 47.8485C168.1 42.4897 160.162 39.5053 151.93 39.4199H151.63C146.107 39.4233 140.665 40.7398 135.751 43.261C130.837 45.7822 126.594 49.4356 123.37 53.9199C122.84 54.6499 122.37 55.3999 121.89 56.1499C121.851 56.1994 121.817 56.2531 121.79 56.3099C118.507 61.7392 116.778 67.9654 116.79 74.3099V74.3799C116.811 81.7538 119.168 88.9314 123.523 94.882C127.877 100.833 134.006 105.25 141.029 107.5C148.051 109.749 155.606 109.716 162.607 107.403C169.609 105.091 175.699 100.619 180 94.6299C180.52 93.8999 181 93.1599 181.47 92.3999C181.509 92.3504 181.543 92.2968 181.57 92.2399C184.849 86.8245 186.572 80.6104 186.55 74.2799V74.2799ZM118.28 73.4899C118.396 67.7803 119.991 62.1983 122.91 57.2899H133.82C132.153 62.5304 131.28 67.9909 131.23 73.4899H118.28ZM135.35 57.2899H150.91V73.4899H132.73C132.763 67.9872 133.647 62.5226 135.35 57.2899V57.2899ZM152.41 55.7899V40.8699C154.573 41.066 156.644 41.8358 158.41 43.0999C162.12 45.6399 165.23 50.0999 167.41 55.7899H152.41ZM167.95 57.2899C169.187 61.036 169.992 64.9111 170.35 68.8399C170.5 70.3999 170.57 71.9499 170.59 73.4899H152.41V57.2899H167.95ZM148.71 41.2899C149.428 41.0859 150.165 40.9586 150.91 40.9099V55.8199H135.91C138.71 48.2799 143.25 42.7999 148.71 41.2599V41.2899ZM150.91 75.0199V91.2199H135.38C134.143 87.4647 133.344 83.5788 133 79.6399C132.86 78.0799 132.78 76.5299 132.76 74.9899L150.91 75.0199ZM150.91 92.7199V107.64C148.748 107.442 146.677 106.673 144.91 105.41C141.21 102.87 138.1 98.4099 135.91 92.7199H150.91ZM154.61 107.25C153.892 107.455 153.155 107.582 152.41 107.63V92.6899H167.41C164.61 100.2 160.07 105.69 154.61 107.22V107.25ZM152.41 91.2499V74.9999H170.59C170.562 80.5031 169.678 85.9684 167.97 91.1999L152.41 91.2499ZM172.09 74.9999H185.09C184.969 80.7088 183.374 86.2893 180.46 91.1999H169.5C171.167 85.9595 172.04 80.4989 172.09 74.9999V74.9999ZM185.09 73.4999H172.09C172.09 71.9199 171.99 70.3199 171.84 68.7099C171.499 64.8339 170.731 61.0074 169.55 57.2999H180.44C182.545 60.8731 183.965 64.8067 184.63 68.8999C184.868 70.4194 185.009 71.9525 185.05 73.4899L185.09 73.4999ZM171.22 47.1699C174.489 49.5243 177.307 52.4475 179.54 55.7999H169C166.76 49.6099 163.39 44.7099 159.26 41.8699L158.94 41.6599C163.35 42.6474 167.514 44.5184 171.18 47.1599L171.22 47.1699ZM144.35 41.6799C140.14 44.4499 136.68 49.4899 134.35 55.7999H123.85L124.58 54.7299C129.329 48.1006 136.352 43.4516 144.31 41.6699L144.35 41.6799ZM118.35 74.9999H131.3C131.3 76.5799 131.4 78.1799 131.55 79.7899C131.896 83.6652 132.664 87.4912 133.84 91.1999H122.89C120.781 87.6288 119.36 83.6943 118.7 79.5999C118.451 78.0785 118.311 76.5413 118.28 74.9999H118.35ZM123.89 92.6999H134.35C136.59 98.8899 139.96 103.79 144.09 106.63L144.42 106.84C136.018 104.932 128.669 99.8699 123.89 92.6999V92.6999ZM159 106.81C163.2 104.05 166.66 98.9999 169 92.6899H179.48C179.24 93.0499 179 93.4099 178.75 93.7599C173.997 100.392 166.965 105.039 159 106.81Z" fill="#FF725E"/>
<path opacity="0.8" d="M186.55 74.2799C186.554 72.4173 186.403 70.5576 186.1 68.7199C184.76 60.5974 180.599 53.2072 174.35 47.8485C168.1 42.4897 160.162 39.5053 151.93 39.4199H151.63C146.107 39.4233 140.665 40.7398 135.751 43.261C130.837 45.7822 126.594 49.4356 123.37 53.9199C122.84 54.6499 122.37 55.3999 121.89 56.1499C121.851 56.1994 121.817 56.2531 121.79 56.3099C118.507 61.7392 116.778 67.9654 116.79 74.3099V74.3799C116.811 81.7538 119.168 88.9314 123.523 94.882C127.877 100.833 134.006 105.25 141.029 107.5C148.051 109.749 155.606 109.716 162.607 107.403C169.609 105.091 175.699 100.619 180 94.6299C180.52 93.8999 181 93.1599 181.47 92.3999C181.509 92.3504 181.543 92.2968 181.57 92.2399C184.849 86.8245 186.572 80.6104 186.55 74.2799V74.2799ZM118.28 73.4899C118.396 67.7803 119.991 62.1983 122.91 57.2899H133.82C132.153 62.5304 131.28 67.9909 131.23 73.4899H118.28ZM135.35 57.2899H150.91V73.4899H132.73C132.763 67.9872 133.647 62.5226 135.35 57.2899V57.2899ZM152.41 55.7899V40.8699C154.573 41.066 156.644 41.8358 158.41 43.0999C162.12 45.6399 165.23 50.0999 167.41 55.7899H152.41ZM167.95 57.2899C169.187 61.036 169.992 64.9111 170.35 68.8399C170.5 70.3999 170.57 71.9499 170.59 73.4899H152.41V57.2899H167.95ZM148.71 41.2899C149.428 41.0859 150.165 40.9586 150.91 40.9099V55.8199H135.91C138.71 48.2799 143.25 42.7999 148.71 41.2599V41.2899ZM150.91 75.0199V91.2199H135.38C134.143 87.4647 133.344 83.5788 133 79.6399C132.86 78.0799 132.78 76.5299 132.76 74.9899L150.91 75.0199ZM150.91 92.7199V107.64C148.748 107.442 146.677 106.673 144.91 105.41C141.21 102.87 138.1 98.4099 135.91 92.7199H150.91ZM154.61 107.25C153.892 107.455 153.155 107.582 152.41 107.63V92.6899H167.41C164.61 100.2 160.07 105.69 154.61 107.22V107.25ZM152.41 91.2499V74.9999H170.59C170.562 80.5031 169.678 85.9684 167.97 91.1999L152.41 91.2499ZM172.09 74.9999H185.09C184.969 80.7088 183.374 86.2893 180.46 91.1999H169.5C171.167 85.9595 172.04 80.4989 172.09 74.9999V74.9999ZM185.09 73.4999H172.09C172.09 71.9199 171.99 70.3199 171.84 68.7099C171.499 64.8339 170.731 61.0074 169.55 57.2999H180.44C182.545 60.8731 183.965 64.8067 184.63 68.8999C184.868 70.4194 185.009 71.9525 185.05 73.4899L185.09 73.4999ZM171.22 47.1699C174.489 49.5243 177.307 52.4475 179.54 55.7999H169C166.76 49.6099 163.39 44.7099 159.26 41.8699L158.94 41.6599C163.35 42.6474 167.514 44.5184 171.18 47.1599L171.22 47.1699ZM144.35 41.6799C140.14 44.4499 136.68 49.4899 134.35 55.7999H123.85L124.58 54.7299C129.329 48.1006 136.352 43.4516 144.31 41.6699L144.35 41.6799ZM118.35 74.9999H131.3C131.3 76.5799 131.4 78.1799 131.55 79.7899C131.896 83.6652 132.664 87.4912 133.84 91.1999H122.89C120.781 87.6288 119.36 83.6943 118.7 79.5999C118.451 78.0785 118.311 76.5413 118.28 74.9999H118.35ZM123.89 92.6999H134.35C136.59 98.8899 139.96 103.79 144.09 106.63L144.42 106.84C136.018 104.932 128.669 99.8699 123.89 92.6999V92.6999ZM159 106.81C163.2 104.05 166.66 98.9999 169 92.6899H179.48C179.24 93.0499 179 93.4099 178.75 93.7599C173.997 100.392 166.965 105.039 159 106.81Z" fill="#FAFAFA"/>
<path d="M414.29 90.9H99.8901V167.08H414.29V90.9Z" fill="#FF725E"/>
<path opacity="0.6" d="M414.29 90.9H99.8901V167.08H414.29V90.9Z" fill="#FAFAFA"/>
<path d="M407.2 97.99H92.7998V174.17H407.2V97.99Z" fill="#FF725E"/>
<path opacity="0.3" d="M407.2 97.99H92.7998V174.17H407.2V97.99Z" fill="black"/>
<path d="M400.11 105.08H85.71V181.26H400.11V105.08Z" fill="#FF725E"/>
<path opacity="0.1" d="M400.11 105.08H85.71V181.26H400.11V105.08Z" fill="#FAFAFA"/>
<path d="M385.11 166.26V120.08L100.71 120.08V166.26H385.11Z" fill="#FF725E"/>
<path opacity="0.9" d="M385.11 166.26V120.08L100.71 120.08V166.26H385.11Z" fill="#FAFAFA"/>
<path d="M337.27 120.08V166.26H338.94V120.08H337.27Z" fill="#FF725E"/>
<path opacity="0.6" d="M337.27 120.08V166.26H338.94V120.08H337.27Z" fill="#FAFAFA"/>
<path d="M107.8 126.45V159.89H109.47V126.45H107.8Z" fill="#FF725E"/>
<path opacity="0.6" d="M107.8 126.45V159.89H109.47V126.45H107.8Z" fill="#FAFAFA"/>
<path d="M360.43 149C359.217 148.999 358.022 148.7 356.952 148.127C355.882 147.555 354.97 146.728 354.296 145.719C353.622 144.71 353.207 143.55 353.089 142.342C352.97 141.135 353.151 139.916 353.615 138.795C354.08 137.674 354.813 136.685 355.751 135.915C356.689 135.145 357.803 134.619 358.993 134.382C360.183 134.145 361.413 134.205 362.574 134.557C363.735 134.909 364.792 135.542 365.65 136.4V136.4C366.683 137.432 367.386 138.747 367.671 140.179C367.956 141.611 367.81 143.096 367.251 144.445C366.692 145.794 365.746 146.946 364.532 147.757C363.318 148.568 361.89 149.001 360.43 149V149ZM360.43 136.25C359.185 136.25 357.979 136.682 357.017 137.473C356.055 138.263 355.397 139.362 355.154 140.584C354.912 141.805 355.101 143.072 355.689 144.17C356.277 145.267 357.227 146.127 358.377 146.602C359.528 147.078 360.808 147.139 361.999 146.777C363.19 146.414 364.218 145.65 364.909 144.614C365.599 143.578 365.909 142.334 365.785 141.095C365.661 139.857 365.112 138.699 364.23 137.82V137.82C363.736 137.311 363.146 136.905 362.493 136.627C361.841 136.349 361.139 136.204 360.43 136.2V136.25Z" fill="#FF725E"/>
<path d="M370 152.14C369.868 152.139 369.737 152.113 369.615 152.061C369.493 152.01 369.383 151.934 369.29 151.84L364.24 146.79C364.135 146.7 364.05 146.59 363.99 146.466C363.93 146.342 363.897 146.207 363.891 146.069C363.886 145.931 363.909 145.794 363.96 145.666C364.01 145.537 364.086 145.421 364.184 145.323C364.281 145.226 364.398 145.15 364.526 145.099C364.654 145.049 364.791 145.026 364.929 145.031C365.067 145.036 365.202 145.07 365.326 145.13C365.45 145.19 365.561 145.275 365.65 145.38L370.7 150.43C370.886 150.617 370.991 150.871 370.991 151.135C370.991 151.399 370.886 151.653 370.7 151.84C370.516 152.028 370.264 152.136 370 152.14V152.14Z" fill="#FF725E"/>
<g opacity="0.6">
<path opacity="0.6" d="M360.43 149C359.217 148.999 358.022 148.7 356.952 148.127C355.882 147.555 354.97 146.728 354.296 145.719C353.622 144.71 353.207 143.55 353.089 142.342C352.97 141.135 353.151 139.916 353.615 138.795C354.08 137.674 354.813 136.685 355.751 135.915C356.689 135.145 357.803 134.619 358.993 134.382C360.183 134.145 361.413 134.205 362.574 134.557C363.735 134.909 364.792 135.542 365.65 136.4V136.4C366.683 137.432 367.386 138.747 367.671 140.179C367.956 141.611 367.81 143.096 367.251 144.445C366.692 145.794 365.746 146.946 364.532 147.757C363.318 148.568 361.89 149.001 360.43 149V149ZM360.43 136.25C359.185 136.25 357.979 136.682 357.017 137.473C356.055 138.263 355.397 139.362 355.154 140.584C354.912 141.805 355.101 143.072 355.689 144.17C356.277 145.267 357.227 146.127 358.377 146.602C359.528 147.078 360.808 147.139 361.999 146.777C363.19 146.414 364.218 145.65 364.909 144.614C365.599 143.578 365.909 142.334 365.785 141.095C365.661 139.857 365.112 138.699 364.23 137.82V137.82C363.736 137.311 363.146 136.905 362.493 136.627C361.841 136.349 361.139 136.204 360.43 136.2V136.25Z" fill="#FAFAFA"/>
<path opacity="0.6" d="M370 152.14C369.868 152.14 369.737 152.113 369.615 152.061C369.493 152.01 369.383 151.935 369.29 151.84L364.24 146.79C364.135 146.7 364.05 146.59 363.99 146.466C363.93 146.342 363.897 146.207 363.891 146.069C363.886 145.931 363.909 145.794 363.96 145.666C364.01 145.537 364.086 145.421 364.184 145.323C364.281 145.226 364.398 145.15 364.526 145.099C364.654 145.049 364.791 145.026 364.929 145.031C365.067 145.037 365.202 145.07 365.326 145.13C365.45 145.19 365.561 145.275 365.65 145.38L370.7 150.43C370.886 150.617 370.991 150.871 370.991 151.135C370.991 151.399 370.886 151.653 370.7 151.84C370.516 152.028 370.264 152.136 370 152.14V152.14Z" fill="#FAFAFA"/>
</g>
<path d="M292.59 44.85H261.15V45.63H292.59V44.85Z" fill="#FF725E"/>
<path d="M292.59 48.16H261.15V48.94H292.59V48.16Z" fill="#FF725E"/>
<path d="M292.59 51.48H261.15V52.26H292.59V51.48Z" fill="#FF725E"/>
<path d="M292.59 54.79H261.15V55.57H292.59V54.79Z" fill="#FF725E"/>
<path d="M292.59 58.1H261.15V58.88H292.59V58.1Z" fill="#FF725E"/>
<path d="M281.65 61.4199H261.15V62.1999H281.65V61.4199Z" fill="#FF725E"/>
<g opacity="0.5">
<path opacity="0.5" d="M292.59 44.85H261.15V45.63H292.59V44.85Z" fill="#FAFAFA"/>
<path opacity="0.5" d="M292.59 48.16H261.15V48.94H292.59V48.16Z" fill="#FAFAFA"/>
<path opacity="0.5" d="M292.59 51.48H261.15V52.26H292.59V51.48Z" fill="#FAFAFA"/>
<path opacity="0.5" d="M292.59 54.79H261.15V55.57H292.59V54.79Z" fill="#FAFAFA"/>
<path opacity="0.5" d="M292.59 58.1H261.15V58.88H292.59V58.1Z" fill="#FAFAFA"/>
<path opacity="0.5" d="M281.65 61.4199H261.15V62.1999H281.65V61.4199Z" fill="#FAFAFA"/>
</g>
<path d="M103.35 187.84H69.8501V188.34H103.35V187.84Z" fill="#FF725E"/>
<path d="M103.35 189.96H69.8501V190.46H103.35V189.96Z" fill="#FF725E"/>
<path d="M103.35 192.08H69.8501V192.58H103.35V192.08Z" fill="#FF725E"/>
<path d="M103.35 194.2H69.8501V194.7H103.35V194.2Z" fill="#FF725E"/>
<path d="M103.35 196.32H69.8501V196.82H103.35V196.32Z" fill="#FF725E"/>
<path d="M90.9101 198.45H69.8501V198.95H90.9101V198.45Z" fill="#FF725E"/>
<g opacity="0.4">
<path opacity="0.4" d="M103.35 187.84H69.8501V188.34H103.35V187.84Z" fill="#FAFAFA"/>
<path opacity="0.4" d="M103.35 189.96H69.8501V190.46H103.35V189.96Z" fill="#FAFAFA"/>
<path opacity="0.4" d="M103.35 192.08H69.8501V192.58H103.35V192.08Z" fill="#FAFAFA"/>
<path opacity="0.4" d="M103.35 194.2H69.8501V194.7H103.35V194.2Z" fill="#FAFAFA"/>
<path opacity="0.4" d="M103.35 196.32H69.8501V196.82H103.35V196.32Z" fill="#FAFAFA"/>
<path opacity="0.4" d="M90.9101 198.45H69.8501V198.95H90.9101V198.45Z" fill="#FAFAFA"/>
</g>
<path d="M213.45 49.76C211.774 49.76 210.166 50.4259 208.981 51.6111C207.796 52.7963 207.13 54.4038 207.13 56.08V76.93C207.13 78.6062 207.796 80.2137 208.981 81.3989C210.166 82.5842 211.774 83.25 213.45 83.25V83.25C215.126 83.25 216.734 82.5842 217.919 81.3989C219.104 80.2137 219.77 78.6062 219.77 76.93V56.08C219.77 54.4038 219.104 52.7963 217.919 51.6111C216.734 50.4259 215.126 49.76 213.45 49.76V49.76Z" fill="#FF725E"/>
<path opacity="0.2" d="M213.45 49.76C211.774 49.76 210.166 50.4259 208.981 51.6111C207.796 52.7963 207.13 54.4038 207.13 56.08V76.93C207.13 78.6062 207.796 80.2137 208.981 81.3989C210.166 82.5842 211.774 83.25 213.45 83.25V83.25C215.126 83.25 216.734 82.5842 217.919 81.3989C219.104 80.2137 219.77 78.6062 219.77 76.93V56.08C219.77 54.4038 219.104 52.7963 217.919 51.6111C216.734 50.4259 215.126 49.76 213.45 49.76V49.76Z" fill="#FAFAFA"/>
<path d="M229.29 37.33C227.619 37.338 226.019 38.0073 224.84 39.1917C223.662 40.3761 223 41.979 223 43.65V76.93C223 78.6062 223.666 80.2137 224.851 81.3989C226.036 82.5842 227.644 83.25 229.32 83.25V83.25C230.996 83.25 232.604 82.5842 233.789 81.3989C234.974 80.2137 235.64 78.6062 235.64 76.93V43.65C235.64 42.8175 235.476 41.9933 235.156 41.2245C234.837 40.4558 234.368 39.7577 233.778 39.1705C233.188 38.5832 232.488 38.1183 231.718 37.8025C230.948 37.4866 230.122 37.3261 229.29 37.33Z" fill="#FF725E"/>
<path opacity="0.3" d="M229.29 37.33C227.619 37.338 226.019 38.0073 224.84 39.1917C223.662 40.3761 223 41.979 223 43.65V76.93C223 78.6062 223.666 80.2137 224.851 81.3989C226.036 82.5842 227.644 83.25 229.32 83.25V83.25C230.996 83.25 232.604 82.5842 233.789 81.3989C234.974 80.2137 235.64 78.6062 235.64 76.93V43.65C235.64 42.8175 235.476 41.9933 235.156 41.2245C234.837 40.4558 234.368 39.7577 233.778 39.1705C233.188 38.5832 232.488 38.1183 231.718 37.8025C230.948 37.4866 230.122 37.3261 229.29 37.33Z" fill="black"/>
<path d="M245.12 62.1899C243.444 62.1899 241.836 62.8558 240.651 64.041C239.466 65.2263 238.8 66.8338 238.8 68.5099V76.9299C238.8 78.6061 239.466 80.2136 240.651 81.3989C241.836 82.5841 243.444 83.2499 245.12 83.2499V83.2499C245.951 83.2513 246.773 83.0888 247.541 82.7717C248.309 82.4547 249.007 81.9894 249.595 81.4024C250.183 80.8154 250.65 80.1183 250.968 79.3508C251.286 78.5834 251.45 77.7607 251.45 76.9299V68.5099C251.45 67.6792 251.286 66.8565 250.968 66.0891C250.65 65.3216 250.183 64.6245 249.595 64.0375C249.007 63.4505 248.309 62.9852 247.541 62.6682C246.773 62.3511 245.951 62.1886 245.12 62.1899V62.1899Z" fill="#FF725E"/>
<path opacity="0.6" d="M245.12 62.1899C243.444 62.1899 241.836 62.8558 240.651 64.041C239.466 65.2263 238.8 66.8338 238.8 68.5099V76.9299C238.8 78.6061 239.466 80.2136 240.651 81.3989C241.836 82.5841 243.444 83.2499 245.12 83.2499V83.2499C245.951 83.2513 246.773 83.0888 247.541 82.7717C248.309 82.4547 249.007 81.9894 249.595 81.4024C250.183 80.8154 250.65 80.1183 250.968 79.3508C251.286 78.5834 251.45 77.7607 251.45 76.9299V68.5099C251.45 67.6792 251.286 66.8565 250.968 66.0891C250.65 65.3216 250.183 64.6245 249.595 64.0375C249.007 63.4505 248.309 62.9852 247.541 62.6682C246.773 62.3511 245.951 62.1886 245.12 62.1899V62.1899Z" fill="#FAFAFA"/>
<path d="M378.61 205.13H404.16L360.54 159.89L378.61 205.13Z" fill="#FF725E"/>
<g opacity="0.1">
<path opacity="0.1" d="M378.61 205.13H404.16L360.54 159.89L378.61 205.13Z" fill="black"/>
</g>
<g style="mix-blend-mode:multiply">
<path d="M354.05 181.25L360.54 159.89L364.22 181.25H354.05Z" fill="#FF725E"/>
</g>
<path d="M360.54 159.89V223.19L365.06 218.68L378.61 205.13L360.54 159.89Z" fill="#FF725E"/>
<path opacity="0.3" d="M360.54 159.89V223.19L365.06 218.68L378.61 205.13L360.54 159.89Z" fill="#FAFAFA"/>
<path d="M405.72 24.11H349.72C346.882 24.1205 344.163 25.2519 342.155 27.2579C340.147 29.2638 339.013 31.9818 339 34.82V63.74C339.013 66.5764 340.146 69.2929 342.151 71.2986C344.157 73.3042 346.874 74.4368 349.71 74.45H390.8L390.5 84.56L400.87 74.45H405.7C408.538 74.4395 411.257 73.308 413.265 71.3021C415.273 69.2961 416.407 66.5781 416.42 63.74V34.82C416.407 31.9853 415.276 29.2703 413.272 27.2649C411.269 25.2595 408.555 24.1258 405.72 24.11V24.11ZM348.46 36.43C348.46 35.6343 348.776 34.8713 349.339 34.3087C349.901 33.7461 350.664 33.43 351.46 33.43H364.35C365.146 33.43 365.909 33.7461 366.471 34.3087C367.034 34.8713 367.35 35.6343 367.35 36.43C367.35 37.2256 367.034 37.9887 366.471 38.5513C365.909 39.1139 365.146 39.43 364.35 39.43H351.45C350.656 39.4273 349.896 39.1101 349.335 38.5478C348.775 37.9855 348.46 37.2239 348.46 36.43V36.43ZM402.54 64.43H380.26C379.829 64.5055 379.386 64.4858 378.963 64.3721C378.541 64.2585 378.148 64.0536 377.813 63.772C377.477 63.4905 377.208 63.1389 377.023 62.7421C376.838 62.3453 376.742 61.9128 376.742 61.475C376.742 61.0372 376.838 60.6047 377.023 60.2079C377.208 59.8111 377.477 59.4595 377.813 59.1779C378.148 58.8963 378.541 58.6915 378.963 58.5779C379.386 58.4642 379.829 58.4444 380.26 58.52H402.54C402.971 58.4444 403.414 58.4642 403.837 58.5779C404.259 58.6915 404.652 58.8963 404.987 59.1779C405.323 59.4595 405.592 59.8111 405.777 60.2079C405.962 60.6047 406.058 61.0372 406.058 61.475C406.058 61.9128 405.962 62.3453 405.777 62.7421C405.592 63.1389 405.323 63.4905 404.987 63.772C404.652 64.0536 404.259 64.2585 403.837 64.3721C403.414 64.4858 402.971 64.5055 402.54 64.43V64.43ZM402.54 51.92H354.45C354.019 51.9955 353.576 51.9758 353.153 51.8621C352.731 51.7485 352.338 51.5436 352.003 51.262C351.667 50.9805 351.398 50.6289 351.213 50.2321C351.028 49.8353 350.932 49.4028 350.932 48.965C350.932 48.5272 351.028 48.0947 351.213 47.6979C351.398 47.3011 351.667 46.9495 352.003 46.6679C352.338 46.3863 352.731 46.1815 353.153 46.0679C353.576 45.9542 354.019 45.9344 354.45 46.01H402.54C402.971 45.9344 403.414 45.9542 403.837 46.0679C404.259 46.1815 404.652 46.3863 404.987 46.6679C405.323 46.9495 405.592 47.3011 405.777 47.6979C405.962 48.0947 406.058 48.5272 406.058 48.965C406.058 49.4028 405.962 49.8353 405.777 50.2321C405.592 50.6289 405.323 50.9805 404.987 51.262C404.652 51.5436 404.259 51.7485 403.837 51.8621C403.414 51.9758 402.971 51.9955 402.54 51.92V51.92ZM402.54 39.41H374.07C373.274 39.41 372.511 39.0939 371.949 38.5313C371.386 37.9687 371.07 37.2056 371.07 36.41C371.07 35.6143 371.386 34.8513 371.949 34.2887C372.511 33.7261 373.274 33.41 374.07 33.41H402.54C403.336 33.41 404.099 33.7261 404.661 34.2887C405.224 34.8513 405.54 35.6143 405.54 36.41C405.54 37.2056 405.224 37.9687 404.661 38.5313C404.099 39.0939 403.336 39.41 402.54 39.41Z" fill="#FF725E"/>
<path d="M318.14 115.78C315.748 109.21 312.097 103.17 307.39 98H227.88C223.173 103.17 219.522 109.21 217.13 115.78L228.13 170.54C236.545 179.662 247.859 185.59 260.149 187.317C272.44 189.043 284.949 186.461 295.551 180.01C306.154 173.559 314.196 163.636 318.312 151.928C322.428 140.219 322.364 127.447 318.13 115.78H318.14Z" fill="#FF725E"/>
<path opacity="0.1" d="M318.14 115.78C315.748 109.21 312.097 103.17 307.39 98H227.88C223.173 103.17 219.522 109.21 217.13 115.78L228.13 170.54C236.545 179.662 247.859 185.59 260.149 187.317C272.44 189.043 284.949 186.461 295.551 180.01C306.154 173.559 314.196 163.636 318.312 151.928C322.428 140.219 322.364 127.447 318.13 115.78H318.14Z" fill="#FAFAFA"/>
<path d="M321.31 136.61C320.742 149.237 315.727 161.256 307.15 170.54H228.15C221.481 163.293 216.929 154.355 214.989 144.699C213.049 135.043 213.797 125.04 217.15 115.78H318.15C320.576 122.445 321.65 129.526 321.31 136.61V136.61Z" fill="#FF725E"/>
<path opacity="0.9" d="M321.31 136.61C320.742 149.237 315.727 161.256 307.15 170.54H228.15C221.481 163.293 216.929 154.355 214.989 144.699C213.049 135.043 213.797 125.04 217.15 115.78H318.15C320.576 122.445 321.65 129.526 321.31 136.61V136.61Z" fill="#FAFAFA"/>
<path opacity="0.3" d="M321.31 136.61C320.688 149.897 315.149 162.479 305.768 171.91C296.387 181.341 283.836 186.948 270.552 187.641C257.268 188.334 244.201 184.064 233.89 175.66C223.579 167.256 216.76 155.32 214.759 142.169C212.758 129.019 215.717 115.594 223.061 104.504C230.405 93.4131 241.611 85.449 254.499 82.1591C267.388 78.8691 281.039 80.4882 292.801 86.7017C304.562 92.9152 313.594 103.279 318.14 115.78C320.566 122.445 321.643 129.525 321.31 136.61V136.61Z" fill="white"/>
<path opacity="0.4" d="M297.92 89.7599L220.66 160.22C220.273 159.507 219.893 158.787 219.52 158.06C217.158 153.331 215.516 148.275 214.65 143.06V143.06L281.38 82.2C287.285 83.7561 292.879 86.3131 297.92 89.7599Z" fill="white"/>
<path opacity="0.4" d="M318.59 117.07L246 183.31C238.47 179.988 231.805 174.979 226.52 168.67L305.84 96.3301C311.62 102.177 315.982 109.273 318.59 117.07V117.07Z" fill="white"/>
<path d="M321.29 103.15C315.162 92.5244 306.02 83.9552 295.02 78.5267C284.021 73.0982 271.658 71.0544 259.497 72.6538C247.336 74.2532 235.922 79.424 226.7 87.512C217.478 95.5999 210.863 106.242 207.691 118.09C204.519 129.939 204.932 142.463 208.88 154.076C212.827 165.69 220.13 175.872 229.866 183.333C239.601 190.795 251.331 195.201 263.572 195.995C275.812 196.788 288.013 193.933 298.63 187.79C312.85 179.563 323.224 166.028 327.472 150.159C331.721 134.289 329.497 117.382 321.29 103.15V103.15ZM225.29 158.59C220.455 150.216 218.212 140.597 218.844 130.948C219.475 121.3 222.954 112.055 228.84 104.384C234.726 96.712 242.754 90.9581 251.91 87.8493C261.066 84.7405 270.938 84.4165 280.278 86.9183C289.619 89.42 298.007 94.6352 304.383 101.904C310.759 109.173 314.837 118.17 316.1 127.757C317.363 137.343 315.755 147.089 311.48 155.761C307.204 164.434 300.453 171.644 292.08 176.48C286.521 179.691 280.383 181.775 274.018 182.614C267.653 183.453 261.185 183.029 254.984 181.368C248.783 179.707 242.97 176.84 237.876 172.932C232.783 169.023 228.51 164.15 225.3 158.59H225.29Z" fill="#FF725E"/>
<path opacity="0.1" d="M321.29 103.15C315.162 92.5244 306.02 83.9552 295.02 78.5267C284.021 73.0982 271.658 71.0544 259.497 72.6538C247.336 74.2532 235.922 79.424 226.7 87.512C217.478 95.5999 210.863 106.242 207.691 118.09C204.519 129.939 204.932 142.463 208.88 154.076C212.827 165.69 220.13 175.872 229.866 183.333C239.601 190.795 251.331 195.201 263.572 195.995C275.812 196.788 288.013 193.933 298.63 187.79C312.85 179.563 323.224 166.028 327.472 150.159C331.721 134.289 329.497 117.382 321.29 103.15V103.15ZM225.29 158.59C220.455 150.216 218.212 140.597 218.844 130.948C219.475 121.3 222.954 112.055 228.84 104.384C234.726 96.712 242.754 90.9581 251.91 87.8493C261.066 84.7405 270.938 84.4165 280.278 86.9183C289.619 89.42 298.007 94.6352 304.383 101.904C310.759 109.173 314.837 118.17 316.1 127.757C317.363 137.343 315.755 147.089 311.48 155.761C307.204 164.434 300.453 171.644 292.08 176.48C286.521 179.691 280.383 181.775 274.018 182.614C267.653 183.453 261.185 183.029 254.984 181.368C248.783 179.707 242.97 176.84 237.876 172.932C232.783 169.023 228.51 164.15 225.3 158.59H225.29Z" fill="black"/>
<path d="M125.06 197.89L132.72 199.67L126.37 204.41C126.37 204.41 121.82 202.35 121.61 199.12L125.06 197.89Z" fill="#E4897B"/>
<path d="M136.82 204.77L131.3 208.45L126.37 204.41L132.72 199.68L136.82 204.77Z" fill="#E4897B"/>
<path d="M223.47 166.78C215.33 172.78 206.98 178.48 198.59 184.05C190.2 189.62 181.7 195.05 173.16 200.38C164.62 205.71 156 210.93 147.35 216C143.03 218.58 138.67 221.08 134.35 223.62C132.204 224.986 129.864 226.021 127.41 226.69C126.1 227.037 124.761 227.262 123.41 227.36C121.91 227.482 120.4 227.405 118.92 227.13C117.862 226.921 116.856 226.505 115.959 225.907C115.063 225.308 114.293 224.539 113.694 223.643C113.095 222.746 112.678 221.741 112.468 220.683C112.258 219.626 112.259 218.537 112.47 217.48C112.538 217.14 112.632 216.806 112.75 216.48C113.233 215.062 113.905 213.717 114.75 212.48C115.503 211.368 116.36 210.33 117.31 209.38C119.118 207.589 121.185 206.079 123.44 204.9C127.81 202.41 132.15 199.9 136.55 197.43C145.31 192.48 154.15 187.66 163.01 182.9C171.87 178.14 180.84 173.53 189.86 169.03C198.88 164.53 207.97 160.15 217.25 156.11C218.65 155.491 220.23 155.411 221.686 155.885C223.142 156.36 224.371 157.356 225.137 158.682C225.904 160.007 226.153 161.569 225.838 163.068C225.523 164.566 224.665 165.895 223.43 166.8L223.47 166.78Z" fill="#FF725E"/>
<path opacity="0.1" d="M223.47 166.78C215.33 172.78 206.98 178.48 198.59 184.05C190.2 189.62 181.7 195.05 173.16 200.38C164.62 205.71 156 210.93 147.35 216C143.03 218.58 138.67 221.08 134.35 223.62C132.204 224.986 129.864 226.021 127.41 226.69C126.1 227.037 124.761 227.262 123.41 227.36C121.91 227.482 120.4 227.405 118.92 227.13C117.862 226.921 116.856 226.505 115.959 225.907C115.063 225.308 114.293 224.539 113.694 223.643C113.095 222.746 112.678 221.741 112.468 220.683C112.258 219.626 112.259 218.537 112.47 217.48C112.538 217.14 112.632 216.806 112.75 216.48C113.233 215.062 113.905 213.717 114.75 212.48C115.503 211.368 116.36 210.33 117.31 209.38C119.118 207.589 121.185 206.079 123.44 204.9C127.81 202.41 132.15 199.9 136.55 197.43C145.31 192.48 154.15 187.66 163.01 182.9C171.87 178.14 180.84 173.53 189.86 169.03C198.88 164.53 207.97 160.15 217.25 156.11C218.65 155.491 220.23 155.411 221.686 155.885C223.142 156.36 224.371 157.356 225.137 158.682C225.904 160.007 226.153 161.569 225.838 163.068C225.523 164.566 224.665 165.895 223.43 166.8L223.47 166.78Z" fill="black"/>
<path d="M136.16 150.52C135.66 151.33 135.09 152.31 134.55 153.23C134.01 154.15 133.48 155.11 132.98 156.08C131.98 157.99 130.98 159.93 129.98 161.9C128.98 163.87 128.17 165.9 127.35 167.9C126.95 168.9 126.53 169.9 126.16 170.9L125.6 172.43C125.49 172.72 125.47 172.84 125.4 173.05C125.33 173.26 125.3 173.46 125.24 173.66C124.85 175.636 124.652 177.646 124.65 179.66C124.6 181.81 124.65 184 124.77 186.21C124.89 188.42 125.01 190.64 125.21 192.86C125.41 195.08 125.61 197.34 125.82 199.54L121.96 200.33C121.28 198.1 120.75 195.88 120.22 193.63C119.69 191.38 119.29 189.12 118.9 186.82C118.51 184.52 118.25 182.21 118.08 179.82C117.872 177.317 117.936 174.799 118.27 172.31C118.33 171.96 118.38 171.63 118.47 171.31C118.56 170.99 118.65 170.54 118.73 170.31L119.22 168.61C119.54 167.48 119.91 166.36 120.29 165.25C121.06 163.02 121.9 160.83 122.84 158.67C123.78 156.51 124.78 154.4 125.84 152.32C126.39 151.32 126.97 150.25 127.56 149.22C128.15 148.19 128.74 147.22 129.48 146.13L136.16 150.52Z" fill="#E4897B"/>
<path d="M131.89 357C131.215 356.979 130.545 356.885 129.89 356.72C129.855 356.714 129.823 356.698 129.797 356.673C129.772 356.647 129.756 356.615 129.75 356.58C129.744 356.544 129.748 356.507 129.762 356.473C129.776 356.44 129.8 356.411 129.83 356.39C130.1 356.21 132.46 354.69 133.37 355.1C133.471 355.146 133.558 355.219 133.621 355.311C133.685 355.402 133.722 355.509 133.73 355.62C133.777 355.798 133.774 355.986 133.721 356.162C133.668 356.339 133.567 356.497 133.43 356.62C132.979 356.929 132.432 357.064 131.89 357ZM130.36 356.46C131.72 356.73 132.74 356.68 133.13 356.32C133.216 356.238 133.278 356.134 133.312 356.02C133.345 355.906 133.348 355.786 133.32 355.67C133.319 355.619 133.303 355.569 133.275 355.527C133.246 355.484 133.207 355.451 133.16 355.43C132.69 355.22 131.32 355.88 130.36 356.46V356.46Z" fill="#FF725E"/>
<path d="M129.88 356.73C129.851 356.739 129.819 356.739 129.79 356.73C129.761 356.715 129.737 356.692 129.722 356.663C129.706 356.635 129.698 356.603 129.7 356.57C129.7 356.48 129.7 354.24 130.55 353.49C130.655 353.396 130.779 353.325 130.913 353.281C131.048 353.238 131.19 353.224 131.33 353.24C131.477 353.242 131.62 353.295 131.733 353.39C131.846 353.484 131.922 353.615 131.95 353.76C132.13 354.63 130.71 356.31 129.95 356.76C129.925 356.756 129.901 356.746 129.88 356.73ZM131.21 353.57C131.058 353.571 130.913 353.628 130.8 353.73C130.308 354.454 130.056 355.315 130.08 356.19C130.82 355.59 131.7 354.33 131.59 353.8C131.59 353.71 131.52 353.61 131.29 353.58L131.21 353.57Z" fill="#FF725E"/>
<path d="M167.31 357C166.486 356.988 165.666 356.894 164.86 356.72C164.822 356.716 164.786 356.699 164.759 356.671C164.732 356.644 164.715 356.608 164.71 356.57C164.706 356.532 164.713 356.493 164.731 356.46C164.749 356.426 164.776 356.398 164.81 356.38C165.16 356.2 168.26 354.62 169.21 355.14C169.302 355.187 169.379 355.257 169.435 355.343C169.491 355.428 169.524 355.528 169.53 355.63C169.552 355.795 169.532 355.963 169.473 356.118C169.414 356.274 169.316 356.412 169.19 356.52C168.637 356.891 167.973 357.061 167.31 357V357ZM165.47 356.46C167.2 356.75 168.47 356.67 168.95 356.25C169.03 356.176 169.091 356.083 169.127 355.981C169.164 355.878 169.175 355.768 169.16 355.66C169.16 355.619 169.149 355.579 169.127 355.544C169.106 355.509 169.076 355.48 169.04 355.46C168.52 355.18 166.74 355.85 165.47 356.46Z" fill="#FF725E"/>
<path d="M164.89 356.73C164.874 356.737 164.857 356.74 164.84 356.74C164.823 356.74 164.806 356.737 164.79 356.73C164.761 356.716 164.738 356.692 164.723 356.663C164.709 356.634 164.704 356.602 164.71 356.57C164.71 356.48 164.9 354.38 165.87 353.57C166.148 353.337 166.507 353.222 166.87 353.25C167.38 353.3 167.52 353.56 167.56 353.77C167.7 354.65 165.87 356.33 164.94 356.77L164.89 356.73ZM166.75 353.57C166.515 353.572 166.288 353.657 166.11 353.81C165.536 354.487 165.187 355.326 165.11 356.21C166.05 355.64 167.3 354.32 167.21 353.79C167.21 353.79 167.21 353.61 166.85 353.58L166.75 353.57Z" fill="#FF725E"/>
<path d="M148 120.49C148.61 125.16 150 134.63 146.62 137.49C146.62 137.49 147.62 142.25 156.14 142.8C165.56 143.41 160.94 138.42 160.94 138.42C155.88 136.86 156.26 133.05 157.39 129.53L148 120.49Z" fill="#E4897B"/>
<path d="M165.47 111C165.409 110.999 165.351 110.981 165.3 110.95C165.256 110.928 165.217 110.897 165.186 110.86C165.155 110.822 165.131 110.779 165.117 110.732C165.103 110.685 165.099 110.636 165.104 110.588C165.11 110.539 165.125 110.492 165.15 110.45C165.409 109.921 165.793 109.463 166.269 109.114C166.744 108.766 167.297 108.538 167.88 108.45C167.969 108.453 168.054 108.489 168.119 108.551C168.184 108.612 168.225 108.695 168.234 108.784C168.242 108.874 168.218 108.963 168.166 109.035C168.114 109.108 168.037 109.16 167.95 109.18V109.18C167.494 109.26 167.062 109.444 166.689 109.718C166.316 109.992 166.012 110.349 165.8 110.76C165.771 110.826 165.726 110.883 165.667 110.925C165.609 110.967 165.541 110.993 165.47 111V111Z" fill="#263238"/>
<path d="M168.16 115.1C168.849 116.473 169.724 117.745 170.76 118.88C170.463 119.138 170.113 119.329 169.735 119.437C169.357 119.546 168.959 119.571 168.57 119.51L168.16 115.1Z" fill="#DE5753"/>
<path d="M167.5 114.08C167.56 114.71 167.94 115.18 168.34 115.14C168.74 115.1 169.04 114.57 168.98 113.94C168.92 113.31 168.54 112.84 168.13 112.88C167.72 112.92 167.44 113.46 167.5 114.08Z" fill="#263238"/>
<path d="M168 112.93L169.46 112.36C169.46 112.36 168.76 113.6 168 112.93Z" fill="#263238"/>
<path d="M156.33 356.54H164.12L164.64 338.52H156.85L156.33 356.54Z" fill="#E4897B"/>
<path d="M120.96 356.54H128.75L131.25 338.52H123.47L120.96 356.54Z" fill="#E4897B"/>
<path d="M129.23 355.64H120.48C120.33 355.638 120.184 355.691 120.07 355.789C119.956 355.886 119.882 356.022 119.86 356.17L118.86 363.09C118.84 363.265 118.858 363.442 118.911 363.609C118.964 363.777 119.052 363.931 119.169 364.062C119.286 364.193 119.43 364.298 119.59 364.37C119.75 364.442 119.924 364.48 120.1 364.48C123.1 364.43 124.62 364.25 128.47 364.25C130.83 364.25 134.29 364.49 137.56 364.49C140.83 364.49 141 361.26 139.64 360.97C133.54 359.66 132.58 357.85 130.52 356.12C130.16 355.812 129.703 355.642 129.23 355.64V355.64Z" fill="#263238"/>
<path d="M164.38 355.64H155.64C155.489 355.636 155.343 355.688 155.228 355.786C155.114 355.884 155.04 356.021 155.02 356.17L154.02 363.09C154.002 363.265 154.02 363.442 154.075 363.61C154.129 363.777 154.219 363.932 154.336 364.063C154.454 364.194 154.598 364.298 154.759 364.37C154.92 364.442 155.094 364.48 155.27 364.48C158.27 364.43 159.79 364.25 163.63 364.25C166 364.25 170.89 364.49 174.16 364.49C177.43 364.49 177.6 361.26 176.24 360.97C170.14 359.66 167.74 357.85 165.68 356.12C165.318 355.81 164.857 355.64 164.38 355.64V355.64Z" fill="#263238"/>
<path d="M164.63 338.52L164.37 347.81H156.58L156.85 338.52H164.63Z" fill="#CE6F64"/>
<path d="M123.46 338.52H131.25L129.96 347.81H122.17L123.46 338.52Z" fill="#CE6F64"/>
<path d="M139.48 151.72C138.001 154.03 136.289 156.181 134.37 158.14L133.48 157.55L123.62 151C123.62 151 129 139 133.05 138.39C136.92 137.77 139.74 141.77 141.05 146.05C141.55 147.6 140.72 149.7 139.48 151.72Z" fill="#FF725E"/>
<path opacity="0.6" d="M139.48 151.72C138.001 154.03 136.289 156.181 134.37 158.14L133.48 157.55L123.62 151C123.62 151 129 139 133.05 138.39C136.92 137.77 139.74 141.77 141.05 146.05C141.55 147.6 140.72 149.7 139.48 151.72Z" fill="#FAFAFA"/>
<path d="M139.48 151.72C138.002 154.03 136.289 156.181 134.37 158.14L133.48 157.55C133.92 153.95 135.32 150.38 136.92 149.25C137.9 149.35 138.77 150.39 139.48 151.72Z" fill="#FF725E"/>
<path opacity="0.4" d="M139.48 151.72C138.002 154.03 136.289 156.181 134.37 158.14L133.48 157.55C133.92 153.95 135.32 150.38 136.92 149.25C137.9 149.35 138.77 150.39 139.48 151.72Z" fill="#FAFAFA"/>
<path d="M173.21 157.71C172.74 160.71 172.13 164.24 171.31 168.43C170.31 173.79 168.91 180.22 167.14 187.91L135.59 185.91C136.95 173.1 137.48 165.18 133.05 138.43C137.529 137.804 142.047 137.507 146.57 137.54C151.359 137.509 156.145 137.819 160.89 138.47C167.01 139.47 173.89 141.31 173.89 141.31C173.89 141.31 175.65 142 173.21 157.71Z" fill="#FF725E"/>
<path opacity="0.6" d="M173.21 157.71C172.74 160.71 172.13 164.24 171.31 168.43C170.31 173.79 168.91 180.22 167.14 187.91L135.59 185.91C136.95 173.1 137.48 165.18 133.05 138.43C137.529 137.804 142.047 137.507 146.57 137.54C151.359 137.509 156.145 137.819 160.89 138.47C167.01 139.47 173.89 141.31 173.89 141.31C173.89 141.31 175.65 142 173.21 157.71Z" fill="#FAFAFA"/>
<path d="M173.21 157.71C172.74 160.71 172.13 164.24 171.31 168.43C169.575 164.739 168.134 160.917 167 157H172.86L173.21 157.71Z" fill="#FF725E"/>
<path opacity="0.4" d="M173.21 157.71C172.74 160.71 172.13 164.24 171.31 168.43C169.575 164.739 168.134 160.917 167 157H172.86L173.21 157.71Z" fill="#FAFAFA"/>
<path d="M146.28 113.92C147.47 121.55 147.82 124.81 152.07 128.38C158.46 133.76 167.57 130.62 168.68 122.78C169.68 115.73 167.56 104.43 159.75 102.09C158.032 101.563 156.208 101.484 154.451 101.861C152.694 102.239 151.063 103.059 149.713 104.245C148.363 105.431 147.338 106.942 146.737 108.636C146.137 110.329 145.979 112.148 146.28 113.92V113.92Z" fill="#E4897B"/>
<path d="M158.8 187.37C158.8 187.37 158.3 201.26 157.1 218.78C156.1 233.48 154.59 250.72 152.48 264.46L152.42 264.84C148.63 289.16 131.84 346 131.84 346H121.22C121.22 346 129.97 291.1 131.89 267C136.76 206.13 124.56 199.24 135.59 185.82L158.8 187.37Z" fill="#FF725E"/>
<path opacity="0.3" d="M158.8 187.37C158.8 187.37 158.3 201.26 157.1 218.78C156.1 233.48 154.59 250.72 152.48 264.46L152.42 264.84C148.63 289.16 131.84 346 131.84 346H121.22C121.22 346 129.97 291.1 131.89 267C136.76 206.13 124.56 199.24 135.59 185.82L158.8 187.37Z" fill="black"/>
<path d="M157.1 218.78C156.1 233.48 154.59 250.72 152.48 264.46C148.89 246.61 142.99 220.54 150.91 203.46C152.8 208.31 155 213.79 157.1 218.78Z" fill="#FF725E"/>
<path opacity="0.4" d="M157.1 218.78C156.1 233.48 154.59 250.72 152.48 264.46C148.89 246.61 142.99 220.54 150.91 203.46C152.8 208.31 155 213.79 157.1 218.78Z" fill="black"/>
<path d="M167.14 187.92C167.14 187.92 176.14 241.26 175.6 265C175.07 289.7 166.02 346 166.02 346H155.5C155.5 346 157.16 291.13 156.23 266.88C155.23 240.44 144.03 186.41 144.03 186.41L167.14 187.92Z" fill="#FF725E"/>
<path opacity="0.3" d="M167.14 187.92C167.14 187.92 176.14 241.26 175.6 265C175.07 289.7 166.02 346 166.02 346H155.5C155.5 346 157.16 291.13 156.23 266.88C155.23 240.44 144.03 186.41 144.03 186.41L167.14 187.92Z" fill="black"/>
<path d="M153.7 346.5H167.81L168.91 341.77L153.2 341.88L153.7 346.5Z" fill="#263238"/>
<path d="M119.68 346.5H133.79L134.89 341.77L119.78 341.88L119.68 346.5Z" fill="#263238"/>
<path d="M135.23 184L133.63 186.74C133.5 186.95 133.75 187.19 134.11 187.21L167.2 189.36C167.48 189.36 167.73 189.26 167.76 189.08L168.23 186.27C168.23 186.08 168.02 185.9 167.71 185.88L135.71 183.8C135.62 183.796 135.531 183.812 135.448 183.846C135.365 183.881 135.29 183.933 135.23 184V184Z" fill="#263238"/>
<path d="M139.29 187.84L138.44 187.78C138.27 187.78 138.14 187.67 138.16 187.57L138.8 183.92C138.8 183.82 138.97 183.74 139.14 183.75L140 183.8C140.17 183.8 140.29 183.91 140.28 184.02L139.64 187.66C139.62 187.77 139.46 187.85 139.29 187.84Z" fill="#FF725E"/>
<path opacity="0.3" d="M139.29 187.84L138.44 187.78C138.27 187.78 138.14 187.67 138.16 187.57L138.8 183.92C138.8 183.82 138.97 183.74 139.14 183.75L140 183.8C140.17 183.8 140.29 183.91 140.28 184.02L139.64 187.66C139.62 187.77 139.46 187.85 139.29 187.84Z" fill="black"/>
<path d="M160 189.18L159.15 189.13C158.98 189.13 158.85 189.02 158.87 188.91L159.51 185.27C159.51 185.16 159.68 185.09 159.86 185.1L160.71 185.15C160.88 185.15 161.01 185.26 160.99 185.37L160.35 189.01C160.36 189.12 160.2 189.19 160 189.18Z" fill="#FF725E"/>
<path opacity="0.3" d="M160 189.18L159.15 189.13C158.98 189.13 158.85 189.02 158.87 188.91L159.51 185.27C159.51 185.16 159.68 185.09 159.86 185.1L160.71 185.15C160.88 185.15 161.01 185.26 160.99 185.37L160.35 189.01C160.36 189.12 160.2 189.19 160 189.18Z" fill="black"/>
<path d="M175.68 149.31C176.88 153.31 178.02 157.36 179.13 161.4L182.48 173.49L182.9 174.99L183.01 175.36L183.06 175.55V175.65C183.096 175.782 183.139 175.913 183.19 176.04C183.435 176.648 183.773 177.214 184.19 177.72C185.384 178.98 186.767 180.046 188.29 180.88C191.778 182.768 195.468 184.257 199.29 185.32L198.71 189.22C194.226 188.989 189.809 188.033 185.63 186.39C183.318 185.484 181.187 184.17 179.34 182.51C178.282 181.529 177.402 180.372 176.74 179.09C176.561 178.743 176.404 178.386 176.27 178.02L176.16 177.75L176.09 177.56L175.96 177.19L175.43 175.68C174.03 171.68 172.73 167.68 171.5 163.62C170.27 159.56 169.06 155.56 167.96 151.48L175.68 149.31Z" fill="#E4897B"/>
<path d="M173.89 141.27C177.89 142.58 182.09 155.66 182.09 155.66L167.65 161.88C167.65 161.88 161.65 147.2 164.31 143.88C166.97 140.56 169.3 139.77 173.89 141.27Z" fill="#FF725E"/>
<path opacity="0.6" d="M173.89 141.27C177.89 142.58 182.09 155.66 182.09 155.66L167.65 161.88C167.65 161.88 161.65 147.2 164.31 143.88C166.97 140.56 169.3 139.77 173.89 141.27Z" fill="#FAFAFA"/>
<path d="M166.17 101.65C163.62 98.5 143.92 96.25 142.87 104.83C135.87 109.73 142.51 122.39 143.51 125.61C138.68 126.95 123.12 132.27 134.51 142.61C145.9 152.95 162.98 151.19 166.32 140.49C168.66 133.01 161.23 120.49 161.39 116.11C161.55 111.73 170.54 107 166.17 101.65Z" fill="#263238"/>
<path d="M144.89 127.19C144.853 127.191 144.817 127.184 144.784 127.168C144.751 127.152 144.722 127.129 144.7 127.1C142.89 124.9 136.59 113.34 138.8 107.84C139.142 106.987 139.724 106.25 140.474 105.718C141.224 105.186 142.111 104.881 143.03 104.84C143.062 104.836 143.095 104.838 143.126 104.847C143.158 104.856 143.187 104.871 143.212 104.892C143.237 104.913 143.258 104.938 143.273 104.967C143.288 104.996 143.297 105.027 143.3 105.06C143.308 105.125 143.291 105.191 143.252 105.243C143.213 105.295 143.154 105.33 143.09 105.34C142.264 105.371 141.464 105.637 140.785 106.109C140.106 106.58 139.577 107.237 139.26 108C137.13 113.32 143.31 124.61 145.08 126.77C145.111 126.805 145.132 126.849 145.139 126.896C145.145 126.943 145.138 126.99 145.118 127.033C145.098 127.076 145.065 127.112 145.024 127.136C144.984 127.16 144.937 127.172 144.89 127.17V127.19Z" fill="#263238"/>
<path d="M159.83 115.64C160.053 117.1 160.757 118.445 161.83 119.46C163.25 120.82 164.59 119.89 164.72 118.16C164.84 116.61 164.24 114.04 162.56 113.32C160.88 112.6 159.62 113.91 159.83 115.64Z" fill="#E4897B"/>
<path d="M194.39 184.24L200.07 182.31L199.18 189.14C199.18 189.14 196.94 190.14 194.04 187.62L191.27 185.85L193.45 184.66C193.749 184.49 194.064 184.349 194.39 184.24Z" fill="#E4897B"/>
<path d="M204.04 182.29L202.3 188.26L199.18 189.13L200.07 182.31L204.04 182.29Z" fill="#E4897B"/>
</svg>
