<svg width="1000" height="1000" viewBox="0 0 1000 1000" fill="none" xmlns="http://www.w3.org/2000/svg">
<path d="M815.163 541.707L653.642 480.634C650.988 479.631 648.558 478.114 646.491 476.171C644.424 474.228 642.761 471.897 641.595 469.31C640.43 466.724 639.786 463.933 639.7 461.098C639.614 458.262 640.088 455.437 641.094 452.785L725.619 229.235C727.646 223.876 731.719 219.541 736.941 217.184C742.164 214.826 748.108 214.64 753.468 216.665L855.916 255.397L904.286 367.105L843.013 529.226C840.968 534.57 836.889 538.884 831.668 541.224C826.447 543.563 820.512 543.737 815.163 541.707V541.707Z" fill="#F5F5F5"/>
<path d="M855.916 255.397L832.108 318.313C831.173 320.782 830.734 323.411 830.815 326.049C830.896 328.688 831.496 331.285 832.58 333.692C833.665 336.098 835.213 338.268 837.137 340.076C839.06 341.884 841.321 343.296 843.79 344.23L904.286 367.105L855.916 255.397Z" fill="#EBEBEB"/>
<path d="M830.843 324.154C830.843 324.154 824.291 339.122 839.726 350.804C840.309 351.239 840.917 351.64 841.547 352.003C848.92 356.445 897.423 385.316 897.868 384.139L904.264 367.216L843.768 344.341C843.768 344.341 828.888 338.012 830.843 324.154Z" fill="#E0E0E0"/>
<path d="M819.539 310.629C819.228 311.451 802.26 305.765 781.629 297.97C760.997 290.175 744.519 283.179 744.83 282.424C745.14 281.669 762.108 287.288 782.739 295.083C803.371 302.878 819.85 309.763 819.539 310.629Z" fill="#E0E0E0"/>
<path d="M854.339 364.462C854.028 365.262 826.267 355.579 792.311 342.676C758.354 329.773 731.06 318.757 731.371 317.935C731.682 317.114 759.442 326.819 793.421 339.744C827.4 352.669 854.583 363.64 854.339 364.462Z" fill="#E0E0E0"/>
<path d="M854.184 398.352C853.873 399.152 823.625 388.469 786.604 374.456C749.582 360.442 719.823 348.45 720.134 347.65C720.445 346.851 750.693 357.533 787.714 371.547C824.735 385.56 854.583 397.53 854.184 398.352Z" fill="#E0E0E0"/>
<path d="M843.59 426.379C843.279 427.179 813.031 416.496 776.01 402.483C738.988 388.469 709.229 376.388 709.54 375.677C709.851 374.967 740.099 385.56 777.12 399.551C814.142 413.543 843.901 425.557 843.59 426.379Z" fill="#E0E0E0"/>
<path d="M832.997 454.406C832.686 455.206 802.416 444.523 765.416 430.51C728.417 416.496 698.636 404.504 698.924 403.704C699.213 402.905 729.483 413.587 766.527 427.578C803.57 441.57 833.285 453.584 832.997 454.406Z" fill="#E0E0E0"/>
<path d="M822.381 482.433C822.092 483.233 791.822 472.528 754.823 458.537C717.824 444.546 688.02 432.531 688.331 431.731C688.642 430.932 718.89 441.614 755.911 455.605C792.933 469.597 822.692 481.612 822.381 482.433Z" fill="#E0E0E0"/>
<path d="M276.646 309.623L63.7102 384.192C56.3478 386.771 52.4695 394.829 55.0478 402.191L161.884 707.269C164.463 714.631 172.521 718.509 179.883 715.931L392.819 641.362C400.182 638.784 404.06 630.725 401.482 623.363L294.645 318.286C292.067 310.923 284.008 307.045 276.646 309.623Z" fill="#EBEBEB"/>
<path d="M279.376 328.586L73.3992 400.718L179.289 703.091L385.266 630.959L279.376 328.586Z" fill="#E0E0E0"/>
<path d="M275.69 327.163L69.7129 399.295L173.584 695.905L379.561 623.773L275.69 327.163Z" fill="#FAFAFA"/>
<path d="M379.523 623.767L275.388 327.263L275.766 327.441L69.8273 399.596L70.0271 399.196C108.847 510.593 144.981 613.485 173.829 695.811L173.496 695.656L379.546 623.767L173.652 696.189H173.407V695.945C144.536 613.618 108.514 510.727 69.4719 399.351V399.041H69.7606L275.721 326.952H276.01V327.219L379.523 623.767Z" fill="#E0E0E0"/>
<path d="M306.48 649.352C306.48 649.352 352.34 610.665 360.291 570.378C355.689 576.764 349.841 582.152 343.101 586.217C336.36 590.282 328.866 592.94 321.071 594.03C321.071 594.03 320.16 636.226 306.48 649.352Z" fill="#E0E0E0"/>
<path d="M140.104 465.387L129.268 469.182C125.309 470.568 123.223 474.902 124.61 478.861L128.405 489.697C129.791 493.656 134.124 495.742 138.083 494.355L148.92 490.56C152.879 489.174 154.964 484.84 153.578 480.881L149.783 470.045C148.397 466.086 144.063 464 140.104 465.387Z" fill="#EBEBEB"/>
<path d="M138.784 484.054C138.709 484.093 138.625 484.114 138.54 484.114C138.455 484.114 138.371 484.093 138.296 484.054L133.321 481.167C133.201 481.075 133.118 480.942 133.088 480.794C133.059 480.645 133.085 480.491 133.161 480.36C133.238 480.229 133.359 480.13 133.503 480.083C133.647 480.035 133.804 480.042 133.943 480.101L138.385 482.633L143.626 471.529C143.702 471.381 143.831 471.267 143.987 471.209C144.144 471.152 144.316 471.155 144.47 471.218C144.545 471.253 144.612 471.304 144.668 471.366C144.723 471.428 144.766 471.5 144.792 471.579C144.819 471.658 144.83 471.741 144.824 471.824C144.819 471.907 144.796 471.988 144.758 472.062L139.229 483.877C139.172 483.936 139.102 483.983 139.026 484.014C138.949 484.044 138.867 484.058 138.784 484.054V484.054Z" fill="white"/>
<path d="M281.007 419.472C281.007 419.65 254.357 429.177 221.288 440.748C188.22 452.319 161.326 461.557 161.326 461.402C161.326 461.246 187.976 451.697 221.066 440.126C254.157 428.556 280.962 419.317 281.007 419.472Z" fill="#E0E0E0"/>
<path d="M218.201 462.157C218.201 462.157 217.513 462.468 216.269 462.956L210.895 464.955C206.453 466.599 200.057 468.842 193.128 471.285C186.199 473.727 179.803 475.904 175.361 477.436L169.92 479.235C169.262 479.477 168.586 479.67 167.899 479.813C168.52 479.487 169.167 479.213 169.832 478.991L175.206 477.014C179.648 475.349 186.044 473.106 192.973 470.663C199.902 468.22 206.298 466.066 210.739 464.511L216.18 462.712C216.837 462.469 217.513 462.283 218.201 462.157V462.157Z" fill="#E0E0E0"/>
<path d="M283.827 427.645C283.827 427.8 257.177 437.328 224.087 448.898C190.996 460.469 164.124 469.73 164.124 469.552C164.124 469.375 190.774 459.869 223.887 448.299C257 436.728 283.827 427.467 283.827 427.645Z" fill="#E0E0E0"/>
<path d="M155.574 509.577L144.737 513.372C140.778 514.759 138.693 519.092 140.079 523.051L143.874 533.887C145.26 537.846 149.594 539.932 153.553 538.545L164.389 534.751C168.348 533.364 170.434 529.031 169.047 525.072L165.253 514.235C163.866 510.276 159.533 508.191 155.574 509.577Z" fill="#EBEBEB"/>
<path d="M154.263 528.249C154.184 528.288 154.097 528.309 154.008 528.309C153.92 528.309 153.832 528.288 153.753 528.249L148.8 525.362C148.728 525.323 148.665 525.27 148.615 525.205C148.565 525.141 148.528 525.067 148.507 524.988C148.486 524.909 148.482 524.827 148.494 524.746C148.506 524.665 148.535 524.587 148.578 524.518C148.617 524.446 148.671 524.383 148.735 524.333C148.799 524.283 148.873 524.246 148.952 524.225C149.031 524.204 149.114 524.2 149.194 524.212C149.275 524.224 149.353 524.253 149.422 524.296L153.864 526.828L159.105 515.613C159.177 515.466 159.302 515.353 159.455 515.295C159.607 515.238 159.776 515.24 159.927 515.302C160.077 515.369 160.194 515.494 160.252 515.648C160.31 515.802 160.305 515.973 160.238 516.123L154.708 527.96C154.658 528.037 154.593 528.103 154.517 528.153C154.44 528.202 154.354 528.235 154.263 528.249V528.249Z" fill="white"/>
<path d="M296.486 463.667C296.486 463.845 269.836 473.35 236.746 484.943C203.655 496.536 176.783 505.752 176.783 505.597C176.783 505.441 203.433 495.891 236.524 484.321C269.614 472.75 296.442 463.512 296.486 463.667Z" fill="#E0E0E0"/>
<path d="M233.681 506.352C233.681 506.352 232.992 506.662 231.726 507.151L226.374 509.15C221.932 510.793 215.536 513.036 208.607 515.479C201.678 517.922 195.282 520.099 190.841 521.631L185.4 523.43C184.741 523.671 184.066 523.864 183.379 524.007C183.997 523.677 184.644 523.402 185.311 523.186L190.685 521.209C195.127 519.543 201.523 517.3 208.452 514.857C215.381 512.414 221.777 510.26 226.219 508.706L231.66 506.907C232.316 506.664 232.992 506.478 233.681 506.352Z" fill="#E0E0E0"/>
<path d="M299.373 471.884C299.373 472.04 272.723 481.567 239.633 493.138C206.542 504.708 179.67 513.969 179.67 513.791C179.67 513.614 206.32 504.109 239.411 492.538C272.501 480.967 299.373 471.662 299.373 471.884Z" fill="#E0E0E0"/>
<path d="M171.065 553.767L160.229 557.562C156.27 558.949 154.184 563.282 155.571 567.241L159.366 578.078C160.752 582.037 165.085 584.122 169.044 582.736L179.881 578.941C183.84 577.554 185.925 573.221 184.539 569.262L180.744 558.425C179.358 554.466 175.024 552.381 171.065 553.767Z" fill="#EBEBEB"/>
<path d="M169.743 572.444C169.663 572.483 169.576 572.503 169.487 572.503C169.399 572.503 169.311 572.483 169.232 572.444L164.257 569.601C164.176 569.566 164.103 569.515 164.044 569.45C163.984 569.385 163.939 569.308 163.911 569.225C163.884 569.141 163.874 569.052 163.883 568.965C163.892 568.877 163.92 568.792 163.965 568.716C164.009 568.64 164.069 568.574 164.141 568.523C164.213 568.472 164.295 568.436 164.381 568.419C164.468 568.402 164.557 568.404 164.643 568.424C164.728 568.444 164.809 568.482 164.879 568.535L169.321 571.067L174.562 559.852C174.593 559.774 174.64 559.703 174.699 559.643C174.758 559.584 174.829 559.537 174.907 559.506C174.985 559.474 175.068 559.459 175.152 559.461C175.236 559.462 175.319 559.481 175.395 559.515C175.472 559.55 175.54 559.6 175.597 559.661C175.654 559.723 175.698 559.796 175.726 559.875C175.754 559.954 175.765 560.038 175.76 560.122C175.755 560.206 175.732 560.287 175.695 560.362L170.165 572.2C170.056 572.327 169.907 572.413 169.743 572.444V572.444Z" fill="white"/>
<path d="M311.966 507.862C311.966 508.039 285.315 517.545 252.225 529.137C219.134 540.73 192.262 549.947 192.262 549.769C192.262 549.591 218.912 540.086 252.025 528.516C285.138 516.945 311.899 507.706 311.966 507.862Z" fill="#E0E0E0"/>
<path d="M249.16 550.524C248.53 550.846 247.876 551.12 247.206 551.346L241.831 553.344C237.389 554.988 231.016 557.231 224.064 559.674C217.113 562.117 210.739 564.271 206.298 565.826L200.857 567.624C200.197 567.863 199.522 568.056 198.836 568.202C199.454 567.871 200.101 567.596 200.768 567.38L206.142 565.381C210.584 563.738 216.98 561.495 223.909 559.052C230.838 556.609 237.234 554.455 241.676 552.9L247.095 551.101C247.772 550.87 248.461 550.677 249.16 550.524V550.524Z" fill="#E0E0E0"/>
<path d="M314.919 516.035C314.919 516.19 288.269 525.717 255.179 537.288C222.088 548.859 195.216 558.119 195.216 557.942C195.216 557.764 221.866 548.259 254.956 536.666C288.047 525.073 314.764 515.857 314.919 516.035Z" fill="#E0E0E0"/>
<path d="M186.534 597.958L175.698 601.752C171.739 603.139 169.653 607.472 171.04 611.431L174.835 622.268C176.221 626.227 180.555 628.312 184.514 626.926L195.35 623.131C199.309 621.744 201.395 617.411 200.008 613.452L196.213 602.616C194.827 598.657 190.493 596.571 186.534 597.958Z" fill="#EBEBEB"/>
<path d="M185.2 616.639C185.123 616.671 185.039 616.689 184.955 616.689C184.872 616.689 184.788 616.671 184.711 616.639L179.736 613.751C179.595 613.666 179.493 613.528 179.454 613.368C179.414 613.207 179.44 613.038 179.526 612.896C179.611 612.755 179.749 612.653 179.909 612.614C180.07 612.574 180.239 612.6 180.381 612.685L184.822 615.217L190.063 604.113C190.131 603.963 190.256 603.846 190.41 603.788C190.564 603.729 190.735 603.734 190.885 603.802C191.031 603.874 191.145 603.999 191.202 604.152C191.26 604.304 191.258 604.473 191.196 604.624L185.644 616.461C185.524 616.575 185.365 616.639 185.2 616.639Z" fill="white"/>
<path d="M327.445 552.057C327.445 552.234 300.794 561.739 267.704 573.31C234.613 584.881 207.741 594.141 207.741 593.964C207.741 593.786 234.391 584.281 267.482 572.71C300.572 561.14 327.378 551.834 327.445 552.057Z" fill="#E0E0E0"/>
<path d="M264.617 594.719C263.999 595.05 263.352 595.324 262.685 595.541L257.31 597.539C252.869 599.183 246.473 601.426 239.544 603.869C232.615 606.312 226.219 608.466 221.777 610.02L216.336 611.819C215.048 612.219 214.315 612.419 214.315 612.397C214.933 612.066 215.58 611.791 216.247 611.575L221.622 609.576C226.063 607.933 232.459 605.69 239.388 603.247C246.317 600.804 252.713 598.65 257.155 597.095L262.596 595.296C263.256 595.058 263.931 594.865 264.617 594.719Z" fill="#E0E0E0"/>
<path d="M330.309 560.229C330.309 560.385 303.659 569.912 270.569 581.483C237.478 593.053 210.606 602.292 210.606 602.136C210.606 601.981 237.256 592.454 270.347 580.861C303.437 569.268 330.243 560.052 330.309 560.229Z" fill="#E0E0E0"/>
<path d="M93.0349 370.392L98.4538 385.938C99.9693 390.266 103.141 393.815 107.272 395.805C111.403 397.796 116.155 398.065 120.484 396.553L234.414 356.578C236.555 355.83 238.529 354.668 240.221 353.156C241.913 351.645 243.29 349.815 244.274 347.771C245.258 345.726 245.829 343.508 245.955 341.243C246.081 338.978 245.759 336.71 245.007 334.57L239.588 319.024L93.0349 370.392Z" fill="#E0E0E0"/>
<path d="M167.833 349.338C164.806 350.403 161.532 350.546 158.424 349.749C155.317 348.952 152.515 347.25 150.375 344.86C148.234 342.47 146.851 339.499 146.401 336.322C145.95 333.146 146.452 329.907 147.843 327.016C149.234 324.125 151.452 321.711 154.215 320.081C156.979 318.451 160.164 317.678 163.367 317.859C166.57 318.04 169.648 319.167 172.21 321.098C174.772 323.029 176.704 325.677 177.76 328.707C179.173 332.759 178.922 337.207 177.061 341.074C175.2 344.942 171.882 347.914 167.833 349.338ZM159.172 324.62C157.305 325.272 155.674 326.463 154.484 328.042C153.294 329.621 152.6 331.517 152.488 333.491C152.376 335.465 152.853 337.428 153.857 339.131C154.861 340.834 156.348 342.201 158.129 343.059C159.91 343.917 161.906 344.228 163.864 343.951C165.821 343.675 167.653 342.824 169.127 341.506C170.601 340.188 171.651 338.463 172.144 336.548C172.637 334.633 172.551 332.616 171.897 330.75C171.021 328.25 169.189 326.201 166.803 325.052C164.417 323.902 161.672 323.747 159.172 324.62V324.62Z" fill="#E0E0E0"/>
<path d="M258.887 389.713C258.887 390.002 228.95 400.817 191.796 413.809C154.641 426.801 124.438 437.128 124.326 436.839C124.215 436.551 154.263 425.735 191.418 412.743C228.573 399.751 258.776 389.335 258.887 389.713Z" fill="#E0E0E0"/>
<path d="M220.4 395.154C220.4 395.443 207.297 400.351 190.885 406.103C174.473 411.855 161.081 416.363 160.97 415.963C160.859 415.564 174.096 410.767 190.508 405.015C206.92 399.263 220.311 394.865 220.4 395.154Z" fill="#E0E0E0"/>
<path d="M812.387 845.163C820.564 841.324 829.758 840.211 838.615 841.987C843.368 842.764 848.343 844.208 851.563 847.761C854.783 851.315 855.427 857.622 851.696 860.687C849.287 862.324 846.376 863.056 843.479 862.752C836.528 862.752 828.844 861.442 823.314 865.617C820.138 867.993 818.05 871.946 814.275 873.123C812.375 873.566 810.382 873.371 808.604 872.568C806.826 871.765 805.361 870.4 804.437 868.682C802.641 865.208 802.244 861.179 803.326 857.422C803.792 854.819 804.852 852.359 806.423 850.233C807.995 848.107 810.036 846.372 812.387 845.163Z" fill="#F25C54"/>
<path d="M793.999 809.896C798.884 816.847 808.367 814.56 812.765 810.296C817.162 806.032 819.005 799.88 820.693 794.017C824.557 780.581 828.466 766.501 825.601 752.82C824.888 748.71 823.068 744.871 820.338 741.716C818.945 740.151 817.166 738.978 815.179 738.316C813.191 737.653 811.065 737.524 809.011 737.941C804.214 739.207 801.261 743.893 799.106 748.334C792.773 761.503 789.458 775.918 789.401 790.53C789.401 797.326 790.179 804.433 793.999 810.051" fill="#F25C54"/>
<path d="M780.607 819.89C783.116 816.615 784.788 812.777 785.477 808.709C786.166 804.642 785.851 800.467 784.56 796.549C781.875 788.746 777.097 781.831 770.746 776.561C763.526 770.136 755.123 765.18 746.006 761.97C742.484 760.547 738.696 759.903 734.902 760.083C733.005 760.19 731.163 760.76 729.537 761.743C727.911 762.727 726.55 764.093 725.574 765.724C722.954 770.698 725.574 776.717 728.151 781.625C732.905 790.29 738.341 798.562 744.407 806.365C749.271 812.65 754.845 818.846 762.285 821.689C769.725 824.531 777.409 824.176 781.34 819.046" fill="#F25C54"/>
<path d="M793.688 914.964C793.932 913.929 794.073 912.873 794.11 911.81C794.354 909.59 794.621 906.614 794.954 903.171C795.38 898.913 796.032 894.68 796.908 890.49C798.036 885.393 799.574 880.395 801.505 875.544C803.402 870.698 805.974 866.145 809.145 862.019C811.728 858.655 815.028 855.909 818.806 853.98C821.363 852.709 824.107 851.855 826.934 851.448C827.998 851.41 829.054 851.261 830.087 851.004C829.017 850.889 827.937 850.889 826.867 851.004C823.938 851.24 821.073 851.992 818.406 853.225C814.428 855.094 810.939 857.862 808.212 861.309C804.912 865.5 802.248 870.154 800.306 875.122C798.336 880.041 796.805 885.124 795.731 890.313C794.913 894.554 794.35 898.841 794.043 903.149C793.754 906.814 793.666 909.812 793.621 911.833C793.52 912.875 793.543 913.926 793.688 914.964V914.964Z" fill="#263238"/>
<path d="M794.265 908.324C794.332 907.837 794.332 907.344 794.265 906.858V902.727C794.265 899.085 794.265 893.844 794.443 887.181C794.776 874.145 795.886 860.131 798.063 840.366C800.106 821.778 802.86 800.147 805.769 786.089C806.391 782.891 807.013 780.003 807.612 777.494C808.212 774.984 808.656 772.786 809.123 771.031C809.589 769.277 809.833 768.011 810.1 766.945C810.221 766.463 810.31 765.973 810.366 765.479C810.143 765.917 809.972 766.379 809.855 766.856C809.522 767.922 809.123 769.255 808.634 770.898C808.145 772.542 807.524 774.807 806.902 777.316C806.28 779.826 805.547 782.691 804.859 785.889C801.299 802.54 798.623 819.368 796.841 836.302C794.62 856.112 793.688 874.056 793.621 887.203C793.621 893.733 793.621 899.018 793.843 902.749C793.843 904.459 794.021 905.859 794.088 906.947C794.106 907.41 794.166 907.871 794.265 908.324Z" fill="#263238"/>
<path d="M794.354 873.545C794.478 872.067 794.478 870.582 794.354 869.104C794.102 865.123 793.65 861.157 792.999 857.222C792.047 851.378 790.757 845.594 789.135 839.9C787.256 832.89 784.835 826.036 781.895 819.401C776.87 807.17 769.669 795.951 760.642 786.289C759.068 784.637 757.392 783.087 755.623 781.647C754.867 780.981 754.179 780.337 753.402 779.826L751.47 778.493C750.305 777.6 749.064 776.813 747.761 776.139C752.025 779.471 756.068 783.076 759.864 786.933C768.619 796.663 775.636 807.826 780.607 819.934C783.486 826.53 785.92 833.311 787.891 840.233C789.562 845.871 790.934 851.594 792 857.378C792.91 862.33 793.443 866.261 793.754 869.148C793.846 870.627 794.047 872.096 794.354 873.545V873.545Z" fill="#263238"/>
<path d="M760.73 934.907L764.217 982.655H825.579L829.044 934.907H760.73Z" fill="#263238"/>
<path d="M836.395 916.074H754.823V934.907H836.395V916.074Z" fill="#263238"/>
<path d="M754.823 980.834V986.031H758.643H835.018V980.834H754.823Z" fill="#455A64"/>
<path d="M762.396 995.225L758.643 986.031H832.109L827.711 995.225H762.396Z" fill="#455A64"/>
<path d="M827.933 950.498C827.933 950.498 827.933 950.675 827.645 950.942L826.734 952.163L823.158 956.738L823.003 956.938L822.847 956.716L814.075 944.59H814.608L805.947 956.827L805.68 957.204L805.369 956.849L795.131 944.634H795.709L795.154 945.345L785.982 956.827L785.693 957.227L785.404 956.827C782.295 952.385 779.386 948.299 776.743 944.59H777.254L766.616 956.716L766.416 956.938L766.261 956.694C764.861 954.34 763.751 952.452 762.929 951.097L762.085 949.609C761.973 949.444 761.883 949.265 761.819 949.076C761.819 949.076 761.952 949.209 762.174 949.542L763.129 950.986L766.616 956.472H766.283L776.765 944.19L777.032 943.879L777.276 944.212L786.004 956.405H785.404L794.621 944.923L795.198 944.212L795.487 943.835L795.775 944.19L806.014 956.427H805.436L814.164 944.235L814.408 943.879L814.675 944.235C818.117 949.187 821.071 953.385 823.269 956.516H822.936L826.667 952.074L827.667 950.919L827.933 950.498Z" fill="#E0E0E0"/>
<path d="M829.91 934.574C829.91 934.796 814.541 934.974 795.575 934.974C776.609 934.974 761.241 934.796 761.241 934.574C761.241 934.352 776.609 934.197 795.575 934.197C814.541 934.197 829.91 934.374 829.91 934.574Z" fill="#455A64"/>
<path d="M833.019 986.564C833.019 986.764 816.296 986.941 795.709 986.941C775.121 986.941 758.398 986.764 758.398 986.564C758.398 986.364 775.099 986.164 795.709 986.164C816.318 986.164 833.019 986.342 833.019 986.564Z" fill="#263238"/>
<path d="M227.862 834.214C227.685 834.414 226.285 833.57 224.731 832.327C223.176 831.083 222.044 829.906 222.221 829.684C222.399 829.462 223.776 830.328 225.33 831.571C226.885 832.815 228.018 833.992 227.862 834.214Z" fill="#263238"/>
<path d="M270.502 770.609C271.107 764.685 270.617 758.701 269.059 752.954C267.193 747.291 262.84 742.116 257.022 740.895C250.359 739.518 243.563 743.715 239.832 749.4C236.101 755.086 234.835 761.97 233.725 768.655C226.148 814.845 223.357 861.694 225.397 908.457L252.58 912.277C264.417 863.485 268.281 820.823 270.502 770.609Z" fill="#455A64"/>
<path d="M253.135 740.606L253.002 741.05L252.558 742.271L250.737 746.98C250.359 748.001 249.848 749.2 249.449 750.378L248.138 754.486L246.606 759.216L245.207 764.613C242.925 773.527 241.167 782.566 239.943 791.685C238.478 801.901 237.523 813.227 236.745 825.131C235.368 848.961 235.146 870.592 234.524 886.226C234.236 894.066 233.969 900.395 233.681 904.748C233.525 906.969 233.414 908.546 233.325 909.789C233.325 910.3 233.325 910.744 233.325 911.078C233.325 911.411 233.325 911.522 233.325 911.522C233.325 911.522 233.325 911.388 233.325 911.078C233.325 910.767 233.325 910.3 233.325 909.767C233.325 908.546 233.325 906.858 233.481 904.726C233.658 900.284 233.814 894.044 234.014 886.204C234.458 870.658 234.569 848.938 235.968 825.087C236.723 813.161 237.722 801.812 239.233 791.552C240.506 782.461 242.338 773.457 244.718 764.591L246.184 759.194C246.761 757.536 247.294 755.959 247.783 754.464L249.204 750.355C249.626 749.112 250.159 748.001 250.559 746.98L252.558 742.36C252.765 741.872 252.943 741.472 253.091 741.161C253.075 740.975 253.09 740.787 253.135 740.606V740.606Z" fill="#263238"/>
<path d="M255.645 740.717C257.062 742.39 258.188 744.29 258.976 746.336C261.055 751.953 261.895 757.953 261.441 763.925C260.731 778.96 259.376 799.658 257.599 822.533C255.823 845.407 253.802 866.061 252.203 881.007C251.381 888.469 250.692 894.51 250.182 898.774C249.915 900.795 249.715 902.394 249.56 903.571L249.382 904.815C249.392 904.955 249.392 905.096 249.382 905.237C249.382 905.237 249.382 905.103 249.382 904.815C249.382 904.526 249.382 904.06 249.382 903.549C249.382 902.372 249.626 900.773 249.804 898.73C250.226 894.466 250.803 888.447 251.514 880.963C252.935 865.995 254.823 845.429 256.622 822.466C258.421 799.502 259.864 778.915 260.753 763.925C261.236 758.022 260.48 752.084 258.532 746.491C257.742 744.485 256.776 742.552 255.645 740.717V740.717Z" fill="#263238"/>
<path d="M274.5 811.095C272.716 810.966 270.97 810.514 269.347 809.763C267.622 809.314 265.99 808.562 264.528 807.542C266.314 807.658 268.062 808.11 269.68 808.874C271.407 809.319 273.04 810.071 274.5 811.095V811.095Z" fill="#263238"/>
<path d="M277.787 783.379C276.314 784.556 274.655 785.479 272.879 786.111C271.228 787.025 269.433 787.649 267.571 787.954C270.685 785.848 274.142 784.3 277.787 783.379V783.379Z" fill="#263238"/>
<path d="M276.077 760.749C273.392 761.234 270.629 761.043 268.037 760.194C269.351 759.817 270.734 759.749 272.079 759.994C273.452 759.933 274.82 760.191 276.077 760.749Z" fill="#263238"/>
<path d="M248.005 746.269C247.783 746.402 246.584 744.914 245.362 742.96C244.473 741.83 243.844 740.518 243.519 739.118C243.741 738.985 244.94 740.45 246.184 742.427C247.428 744.403 248.294 746.113 248.005 746.269Z" fill="#263238"/>
<path d="M238.744 759.949C237.508 760.394 236.181 760.531 234.88 760.349C233.571 760.475 232.252 760.276 231.038 759.772C232.274 759.327 233.601 759.19 234.902 759.372C236.211 759.247 237.53 759.445 238.744 759.949V759.949Z" fill="#263238"/>
<path d="M232.082 787.244C230.66 787.187 229.271 786.807 228.018 786.133C226.647 785.743 225.38 785.053 224.309 784.112C225.73 784.169 227.12 784.549 228.373 785.223C229.744 785.612 231.011 786.303 232.082 787.244V787.244Z" fill="#263238"/>
<path d="M231.371 810.318C231.371 810.585 229.883 811.14 227.906 811.539C225.93 811.939 224.309 812.095 224.242 811.828C224.175 811.562 225.752 811.006 227.707 810.607C228.885 810.208 230.144 810.109 231.371 810.318Z" fill="#263238"/>
<path d="M228.306 847.983C228.306 848.25 226.707 848.761 224.62 849.138C223.372 849.509 222.054 849.57 220.778 849.316C221.898 848.648 223.162 848.26 224.464 848.183C225.708 847.799 227.029 847.73 228.306 847.983Z" fill="#263238"/>
<path d="M226.085 868.771C226.219 868.993 224.842 869.97 223.021 870.991C221.2 872.013 219.623 872.546 219.512 872.302C219.401 872.057 220.755 871.102 222.576 870.081C224.398 869.059 226.085 868.526 226.085 868.771Z" fill="#263238"/>
<path d="M243.119 892.356C242.897 892.489 241.698 890.846 240.454 888.669C239.555 887.424 238.934 886 238.633 884.494C238.855 884.361 240.054 886.004 241.298 888.181C242.198 889.426 242.819 890.85 243.119 892.356V892.356Z" fill="#263238"/>
<path d="M248.027 853.158C248.205 853.336 246.872 854.957 245.051 856.756C243.23 858.555 241.587 859.843 241.387 859.643C241.187 859.443 242.542 857.844 244.363 856.045C246.184 854.246 247.827 852.958 248.027 853.158Z" fill="#263238"/>
<path d="M246.939 832.571C246.739 832.771 245.518 831.749 244.185 830.35C242.853 828.951 241.964 827.596 242.142 827.419C242.32 827.241 243.563 828.24 244.896 829.639C246.228 831.038 247.139 832.393 246.939 832.571Z" fill="#263238"/>
<path d="M250.315 806.298C250.515 806.476 249.404 808.053 247.827 809.785C246.251 811.517 244.829 812.828 244.629 812.65C244.43 812.472 245.54 810.895 247.095 809.141C248.649 807.387 250.115 806.121 250.315 806.298Z" fill="#263238"/>
<path d="M252.203 787.243C252.003 787.443 250.47 786.222 248.738 784.534C247.006 782.846 245.784 781.314 245.962 781.114C246.14 780.914 247.694 782.136 249.426 783.846C251.159 785.556 252.38 787.044 252.203 787.243Z" fill="#263238"/>
<path d="M255.934 761.437C255.64 762.839 255.041 764.158 254.179 765.302C253.002 767.3 251.847 768.811 251.625 768.677C251.403 768.544 252.158 766.812 253.357 764.813C254.557 762.814 255.689 761.304 255.934 761.437Z" fill="#263238"/>
<path d="M262.929 737.541C263.173 737.674 262.485 739.407 261.397 741.405C260.309 743.404 259.176 744.936 258.998 744.825C259.21 743.438 259.734 742.116 260.531 740.961C261.619 738.94 262.685 737.43 262.929 737.541Z" fill="#263238"/>
<path d="M270.88 748.401C270.991 748.645 269.903 749.4 268.437 750.111C266.971 750.822 265.705 751.177 265.594 750.933C265.483 750.689 266.571 749.933 268.037 749.223C269.503 748.512 270.769 748.157 270.88 748.401Z" fill="#263238"/>
<path d="M271.058 834.214C267.369 833.945 263.875 832.452 261.13 829.972C262.86 830.496 264.533 831.188 266.127 832.038C267.841 832.593 269.493 833.322 271.058 834.214V834.214Z" fill="#263238"/>
<path d="M267.815 852.381C267.815 852.647 266.238 853.18 264.151 853.58C262.91 853.978 261.59 854.062 260.309 853.824C261.419 853.143 262.675 852.733 263.973 852.625C266.061 852.225 267.771 852.114 267.815 852.381Z" fill="#263238"/>
<path d="M263.84 883.539C263.684 883.761 261.619 882.318 259.709 879.919C258.437 878.55 257.542 876.874 257.111 875.056C258.352 876.375 259.474 877.802 260.464 879.32C261.717 880.619 262.847 882.032 263.84 883.539V883.539Z" fill="#263238"/>
<path d="M220.111 897.797C219.934 897.597 221.044 896.353 222.577 895.043C224.109 893.733 225.508 892.822 225.686 893.044C225.863 893.266 224.753 894.466 223.221 895.798C221.688 897.131 220.289 897.997 220.111 897.797Z" fill="#263238"/>
<path d="M207.541 829.795C205.765 824.265 202.456 817.825 196.659 817.736C194.932 817.829 193.262 818.386 191.824 819.347C190.386 820.308 189.233 821.639 188.487 823.199C186.891 826.281 186.126 829.725 186.266 833.193C186.982 857.807 191.176 882.197 198.725 905.637H219.978C219.721 879.87 215.527 854.294 207.541 829.795V829.795Z" fill="#455A64"/>
<path d="M169.143 794.994C168.092 789.814 165.331 785.138 161.304 781.714C157.277 778.291 152.216 776.32 146.935 776.117C137.541 777.76 133.898 786.999 132.788 796.46C131.678 805.921 134.609 815.337 137.518 824.42C146.816 853.558 156.129 882.703 165.457 911.855L191.885 908.968C183.623 869.925 178.826 833.726 169.143 794.994Z" fill="#455A64"/>
<path d="M196.659 817.736C195.973 818.68 195.371 819.683 194.86 820.734C193.765 823.737 193.422 826.962 193.861 830.128C194.261 834.17 194.727 839.011 195.416 844.341C196.104 849.671 197.059 855.446 198.258 861.619C200.657 873.834 203.366 884.761 205.076 892.711C205.942 896.687 206.609 899.929 207.008 902.172C207.186 903.216 207.342 904.06 207.453 904.77C207.564 905.481 207.586 905.681 207.453 905.681C207.337 905.401 207.248 905.111 207.186 904.815L206.564 902.261C205.987 899.885 205.232 896.709 204.343 892.867C202.456 884.916 199.635 874.012 197.237 861.775C196.038 855.645 195.016 849.782 194.461 844.408C194.105 841.743 193.883 839.167 193.661 836.79C193.439 834.414 193.217 832.171 193.106 830.128C192.726 826.869 193.185 823.566 194.439 820.534C194.967 819.451 195.725 818.496 196.659 817.736V817.736Z" fill="#263238"/>
<path d="M147.423 775.362C146.246 776.704 145.176 778.137 144.225 779.648C141.793 783.87 140.414 788.616 140.205 793.484C140.095 800.701 141.199 807.886 143.47 814.738C145.691 822.599 148.334 831.238 151.021 840.277C156.284 858.399 161.037 874.789 164.524 886.759L168.521 900.884C168.965 902.483 169.298 903.749 169.565 904.726C169.71 905.166 169.807 905.62 169.854 906.081C169.65 905.668 169.486 905.237 169.365 904.793C169.076 903.815 168.654 902.572 168.166 900.973C167.122 897.575 165.656 892.8 163.88 886.959L150.088 840.544C147.423 831.46 144.914 822.777 142.604 814.96C140.342 808.01 139.297 800.722 139.517 793.417C139.803 788.455 141.33 783.645 143.959 779.426C144.881 777.89 146.052 776.516 147.423 775.362Z" fill="#263238"/>
<path d="M186.221 906.147C185.998 905.737 185.797 905.314 185.622 904.881C185.289 904.015 184.733 902.794 184.134 901.15C182.868 897.908 181.247 893.133 179.692 887.137C178.137 881.141 176.361 873.812 174.762 865.817C173.163 857.822 171.564 848.872 169.787 839.544C168.01 830.217 165.923 821.444 163.546 813.605C161.485 806.635 158.909 799.828 155.84 793.24C153.754 788.806 151.372 784.518 148.711 780.403C147.801 778.938 146.979 777.849 146.49 777.094C146.212 776.716 145.967 776.315 145.758 775.895C146.083 776.225 146.38 776.581 146.646 776.961C147.201 777.716 148.067 778.738 149.022 780.203C151.831 784.252 154.318 788.514 156.462 792.951C159.648 799.523 162.299 806.341 164.39 813.338C166.899 821.901 168.959 830.589 170.564 839.367C172.319 848.672 173.962 857.555 175.472 865.661C176.983 873.767 178.582 880.941 180.181 886.959C181.78 892.978 183.268 897.753 184.422 901.017C184.955 902.683 185.466 903.926 185.755 904.793C185.961 905.225 186.117 905.68 186.221 906.147V906.147Z" fill="#263238"/>
<path d="M138.096 820.067C138.096 820.312 136.719 820.889 134.875 821.333C133.032 821.777 131.5 821.933 131.455 821.666C131.411 821.4 132.81 820.845 134.653 820.401C136.497 819.956 138.029 819.801 138.096 820.067Z" fill="#263238"/>
<path d="M135.297 802.034C133.854 802.44 132.353 802.605 130.856 802.523C129.378 802.731 127.876 802.686 126.414 802.39C127.797 801.73 129.327 801.439 130.856 801.546C132.354 801.327 133.883 801.496 135.297 802.034Z" fill="#263238"/>
<path d="M138.273 785.556C138.096 785.778 136.652 784.845 135.075 783.49C133.499 782.135 132.322 780.87 132.499 780.67C132.677 780.47 134.098 781.38 135.697 782.735C137.296 784.09 138.451 785.356 138.273 785.556Z" fill="#263238"/>
<path d="M146.335 770.321C146.601 770.321 146.513 771.675 146.49 773.208C146.468 774.74 146.49 776.051 146.157 776.095C145.824 776.139 145.469 774.851 145.513 773.186C145.558 771.52 146.135 770.254 146.335 770.321Z" fill="#263238"/>
<path d="M162.792 777.494C163.014 777.649 162.37 778.96 161.348 780.403C160.326 781.847 159.327 782.913 159.127 782.757C158.927 782.602 159.549 781.314 160.548 779.848C161.548 778.382 162.569 777.339 162.792 777.494Z" fill="#263238"/>
<path d="M173.474 796.127C173.474 796.393 172.208 797.171 170.431 797.904C168.654 798.636 167.1 799.014 167.011 798.77C166.922 798.525 168.277 797.726 170.054 797.015C171.83 796.305 173.385 795.816 173.474 796.127Z" fill="#263238"/>
<path d="M179.959 815.159C178.783 816.179 177.329 816.821 175.783 817.003C174.303 817.482 172.718 817.536 171.208 817.158C172.633 816.593 174.127 816.22 175.65 816.048C177.045 815.578 178.492 815.28 179.959 815.159V815.159Z" fill="#263238"/>
<path d="M150.199 809.741C149.955 809.741 150.199 808.341 150.621 806.787C151.043 805.232 151.709 804.055 151.954 804.144C152.198 804.233 151.954 805.543 151.532 807.098C151.11 808.652 150.577 809.829 150.199 809.741Z" fill="#263238"/>
<path d="M154.352 833.726C154.442 832.326 154.852 830.966 155.552 829.75C156.462 827.663 157.395 826.064 157.639 826.175C157.549 827.574 157.139 828.935 156.44 830.15C155.529 832.238 154.597 833.881 154.352 833.726Z" fill="#263238"/>
<path d="M144.092 840.299C142.783 840.268 141.493 839.981 140.294 839.456C138.273 838.811 136.63 838.234 136.697 837.968C138.018 837.798 139.362 837.99 140.583 838.523C142.648 839.167 144.203 840.055 144.092 840.299Z" fill="#263238"/>
<path d="M149.999 859.843C150.155 860.065 149.022 861.131 147.49 862.241C145.958 863.352 144.536 864.062 144.381 863.862C144.225 863.663 145.358 862.552 146.912 861.442C148.467 860.331 149.844 859.621 149.999 859.843Z" fill="#263238"/>
<path d="M154.752 879.342C154.752 879.586 153.42 880.163 151.621 880.585C149.822 881.007 148.334 881.163 148.267 880.918C148.201 880.674 149.6 880.097 151.399 879.653C153.197 879.208 154.685 879.075 154.752 879.342Z" fill="#263238"/>
<path d="M180.492 831.46C180.625 831.682 179.426 832.637 177.693 833.282C175.961 833.926 174.407 834.014 174.362 833.77C174.318 833.526 175.695 833.015 177.338 832.371C178.981 831.727 180.358 831.216 180.492 831.46Z" fill="#263238"/>
<path d="M184.156 861.775C184.045 862.019 182.624 861.597 180.98 860.82C179.337 860.043 178.093 859.221 178.204 858.977C178.315 858.732 179.759 859.176 181.402 859.932C183.046 860.687 184.289 861.531 184.156 861.775Z" fill="#263238"/>
<path d="M190.663 883.495C189.192 883.42 187.754 883.034 186.443 882.362C184.222 881.496 182.512 880.585 182.601 880.319C184.065 880.394 185.496 880.78 186.799 881.452C189.019 882.318 190.752 883.228 190.663 883.495Z" fill="#263238"/>
<path d="M155.796 900.506C155.663 900.262 157.395 899.107 159.394 897.53C161.392 895.954 162.947 894.532 163.147 894.732C163.347 894.932 162.081 896.642 159.993 898.286C158.832 899.407 157.377 900.177 155.796 900.506V900.506Z" fill="#263238"/>
<path d="M172.941 889.402C172.674 889.402 172.297 887.981 171.63 886.293C170.964 884.605 170.298 883.25 170.52 883.095C170.742 882.939 171.852 884.094 172.541 885.938C173.229 887.781 173.207 889.402 172.941 889.402Z" fill="#263238"/>
<path d="M168.343 863.352C168.188 863.574 167.078 863.041 165.856 862.175C164.635 861.308 163.791 860.42 163.946 860.198C164.102 859.976 165.212 860.509 166.434 861.375C167.655 862.241 168.566 863.13 168.343 863.352Z" fill="#263238"/>
<path d="M208.319 822.444C208.474 822.666 207.386 823.732 205.898 824.82C204.41 825.908 203.077 826.641 202.922 826.419C202.767 826.197 203.833 825.153 205.321 824.043C206.809 822.932 208.319 822.222 208.319 822.444Z" fill="#263238"/>
<path d="M214.426 838.922C214.426 839.189 212.76 839.544 210.673 839.322C208.585 839.1 207.008 838.389 207.075 838.145C207.142 837.901 208.785 838.145 210.784 838.345C212.783 838.545 214.404 838.656 214.426 838.922Z" fill="#263238"/>
<path d="M188.509 842.631C188.509 842.876 187.021 843.431 184.978 843.564C182.934 843.697 181.335 843.364 181.358 843.098C181.38 842.831 182.979 842.742 184.933 842.609C186.888 842.476 188.464 842.365 188.509 842.631Z" fill="#263238"/>
<path d="M190.752 827.041C190.752 827.308 189.153 827.352 187.42 826.53C185.688 825.708 184.689 824.531 184.867 824.309C185.044 824.087 186.243 824.931 187.82 825.642C189.397 826.353 190.774 826.775 190.752 827.041Z" fill="#263238"/>
<path d="M216.647 856.622C216.514 856.845 214.892 856.089 213.027 854.912C211.161 853.735 209.784 852.692 209.94 852.381C210.095 852.07 211.694 852.936 213.56 854.091C215.425 855.246 216.802 856.4 216.647 856.622Z" fill="#263238"/>
<path d="M279.874 902.86H141.627V927.356H279.874V902.86Z" fill="#F25C54"/>
<path d="M151.954 922.515L168.766 995.736H251.159L269.547 922.515H151.954Z" fill="#F25C54"/>
<path d="M279.807 927.401C279.807 927.667 248.716 927.889 210.162 927.889C171.608 927.889 140.516 927.667 140.516 927.401C140.516 927.134 171.608 926.912 210.162 926.912C248.716 926.912 279.807 927.156 279.807 927.401Z" fill="#263238"/>
<path d="M202.922 843.164C202.7 843.297 201.745 842.209 200.812 840.699C199.879 839.189 199.302 837.856 199.524 837.723C199.746 837.59 200.701 838.678 201.634 840.188C202.567 841.698 203.144 843.009 202.922 843.164Z" fill="#263238"/>
<path d="M202.967 862.863C202.9 861.585 203.152 860.311 203.699 859.154C204.343 857.178 205.099 855.645 205.343 855.734C205.411 857.019 205.159 858.301 204.61 859.465C203.877 861.42 203.233 862.952 202.967 862.863Z" fill="#263238"/>
<path d="M209.718 883.561C209.474 883.695 208.452 882.029 207.497 879.875C206.731 878.625 206.246 877.223 206.076 875.766C206.32 875.633 207.342 877.299 208.297 879.453C209.063 880.703 209.548 882.105 209.718 883.561V883.561Z" fill="#263238"/>
<path d="M195.127 900.218C194.927 900.04 195.749 898.774 196.97 897.353C198.192 895.931 199.324 894.954 199.546 895.132C199.768 895.31 198.925 896.598 197.703 897.997C196.482 899.396 195.327 900.506 195.127 900.218Z" fill="#263238"/>
<path d="M192.062 869.992C192.062 870.258 190.685 870.236 189.086 869.992C187.487 869.748 186.244 869.281 186.288 869.015C186.332 868.748 187.665 868.77 189.242 869.015C190.819 869.259 192.107 869.725 192.062 869.992Z" fill="#263238"/>
<path d="M673.029 734.476H345.189V995.914H673.029V734.476Z" fill="#E0E0E0"/>
<g opacity="0.3">
<path opacity="0.3" d="M369.063 735.009C407.661 748.779 450.235 751.732 491.653 752.509C500.248 752.665 508.932 752.643 517.237 754.73C525.543 756.818 533.561 761.548 537.825 768.988C542.466 777.094 541.978 787.243 539.335 796.193C536.692 805.143 532.139 813.427 528.852 822.155C523.033 837.597 521.252 854.269 523.678 870.592C524.425 877.545 526.766 884.233 530.518 890.135C532.419 893.067 534.98 895.514 537.995 897.28C541.011 899.046 544.398 900.083 547.885 900.306C560.344 900.484 568.872 888.247 575.046 877.41C600.386 832.993 627.791 782.58 644.003 734.099L369.063 735.009Z" fill="black"/>
</g>
<path d="M456.897 994.514C456.564 994.514 456.32 936.573 456.32 865.106C456.32 793.639 456.564 735.676 456.897 735.676C457.23 735.676 457.475 793.617 457.475 865.106C457.475 936.595 457.208 994.514 456.897 994.514Z" fill="#455A64"/>
<path d="M591.236 541.263C590.259 534.734 570.76 513.192 570.76 513.192C570.76 513.192 561.032 474.083 558.101 462.557C557.125 459.224 555.698 456.041 553.859 453.096C546.964 441.61 537.158 432.148 525.432 425.668L498.449 410.5L492.009 396.153L427.205 362.841L409.638 393.933C409.638 393.933 366.975 407.48 361.334 417.096C355.694 426.712 364.133 556.565 364.133 556.565C364.133 556.565 346.366 631.452 342.524 646.953C338.682 662.454 343.723 680.932 343.723 680.932L375.503 641.068C385.386 628.675 407.062 622.968 422.63 623.19L555.68 623.79L550.328 586.524L657.972 607.355C657.972 607.355 676.472 571.245 677.96 570.534C679.448 569.823 591.236 541.263 591.236 541.263Z" fill="#F25C54"/>
<path d="M424.451 406.036C423.518 405.081 431.957 433.619 442.573 462.69C448.284 478.399 451.193 494.989 451.168 511.704V616.972L514.95 612.641L505.423 543.306C505.423 543.306 497.65 498.579 495.473 481.567C493.475 466.021 486.59 423.825 486.59 423.825C486.59 423.825 451.168 433.242 424.451 406.036Z" fill="white"/>
<path d="M566.007 567.38C565.908 566.845 565.908 566.295 566.007 565.759C566.154 564.307 566.436 562.872 566.851 561.473C568.199 556.802 570.705 552.547 574.135 549.103C577.585 545.669 581.837 543.15 586.506 541.774C587.905 541.359 589.34 541.077 590.792 540.93C591.32 540.829 591.863 540.829 592.391 540.93C592.391 541.13 590.17 541.374 586.75 542.551C582.311 544.074 578.28 546.593 574.965 549.916C571.651 553.238 569.141 557.275 567.628 561.717C566.451 565.16 566.207 567.38 566.007 567.38Z" fill="#263238"/>
<path d="M569.294 542.152C572.257 540.412 575.609 539.442 579.043 539.331C582.444 538.86 585.909 539.273 589.104 540.53C589.104 540.886 584.662 540.02 579.132 540.53C573.602 541.041 569.427 542.485 569.294 542.152Z" fill="#263238"/>
<g opacity="0.3">
<path opacity="0.3" d="M357.715 599.605L352.163 605.867C357.952 613.014 365.798 618.208 374.637 620.747C383.547 622.638 392.65 623.458 401.754 623.19C405.442 623.368 409.137 623.017 412.725 622.146C416.345 621.102 419.698 619.059 423.452 618.837C425.969 618.849 428.472 619.208 430.891 619.903C433.326 620.594 435.899 620.632 438.353 620.014C439.568 619.686 440.645 618.975 441.425 617.987C442.205 616.999 442.647 615.787 442.684 614.529C414.998 606.437 386.501 601.432 357.715 599.605V599.605Z" fill="black"/>
</g>
<path d="M539.823 607.644L524.278 591.032L491.964 582.926C491.964 582.926 462.472 591.81 461.761 591.81C461.05 591.81 436.088 584.969 436.088 584.969L427.36 616.994L472.332 620.081L523.678 618.015C523.678 618.015 526.365 615.528 524.766 613.818C523.167 612.108 533.361 616.705 534.56 616.75C535.759 616.794 538.069 617.727 539.668 615.817C540.756 614.396 542.222 610.198 539.823 607.644Z" fill="#FFBE9D"/>
<path d="M524.766 613.707C523.022 613.378 521.312 612.887 519.658 612.241C516.549 611.264 512.219 610.02 507.399 608.688C502.58 607.355 498.138 606.467 494.918 605.912C493.156 605.682 491.423 605.272 489.744 604.69C491.523 604.613 493.304 604.747 495.051 605.09C499.299 605.683 503.511 606.514 507.666 607.578C511.827 608.633 515.921 609.939 519.925 611.486C521.627 612.017 523.254 612.764 524.766 613.707V613.707Z" fill="#EB996E"/>
<path d="M539.823 607.644C537.402 607.032 535.015 606.29 532.672 605.423C528.231 603.958 522.168 602.136 515.35 600.249C508.532 598.361 502.491 596.207 497.894 595.94C495.418 595.813 492.935 595.91 490.476 596.229C491.078 595.899 491.731 595.673 492.408 595.563C494.224 595.171 496.084 595.021 497.938 595.119C502.691 595.119 509.043 597.139 515.705 599.138C522.368 601.137 528.63 602.98 532.983 604.668C535.204 605.49 536.87 606.245 538.069 606.778C538.693 606.979 539.284 607.271 539.823 607.644V607.644Z" fill="#EB996E"/>
<path d="M361.335 417.096C361.335 417.096 338.127 433.242 332.464 456.471C326.8 479.701 302.349 574.642 307.368 588.834C312.387 603.025 409.971 616.972 409.971 616.972L421.542 568.113L371.972 554.544C371.972 554.544 372.616 509.35 373.238 490.628C373.86 471.906 361.335 417.096 361.335 417.096Z" fill="#F25C54"/>
<path d="M420.92 575.464L436.888 579.395L427.271 616.216L411.592 613.707L420.92 575.464Z" fill="white"/>
<path d="M307.013 583.815C307.013 583.815 307.013 584.636 307.257 586.035C307.797 588.183 308.983 590.113 310.655 591.565C314.897 595.518 323.003 598.805 333.263 600.649C337.949 602.203 343.301 603.425 349.009 604.713C354.716 606.001 360.89 607.311 367.375 608.621C380.367 611.286 394.736 614.085 409.971 616.927L409.305 617.349C410.393 612.908 411.526 608.044 412.747 603.18C415.479 592.076 418.144 581.15 420.653 570.867L421.053 571.533L377.102 559.074C371.034 556.519 364.468 555.366 357.892 555.699C352.895 555.977 347.986 557.135 343.39 559.119C340.47 560.382 337.68 561.929 335.062 563.738L333.041 565.204C332.82 565.382 332.582 565.539 332.33 565.67C332.33 565.67 332.53 565.448 332.952 565.093C333.374 564.738 334.018 564.182 334.907 563.516C337.486 561.603 340.263 559.973 343.19 558.652C347.815 556.556 352.781 555.315 357.848 554.988C364.539 554.561 371.239 555.67 377.436 558.23V558.23L421.519 570.578L422.052 570.712L421.919 571.245C419.409 581.527 416.767 592.365 414.057 603.58C412.858 608.421 411.703 613.218 410.593 617.727L410.46 618.26H409.927C394.692 615.395 380.345 612.552 367.353 609.843C360.868 608.488 354.716 607.133 348.987 605.801C343.257 604.468 337.882 603.202 333.174 601.581C322.781 599.605 314.675 596.185 310.388 592.032C308.689 590.504 307.522 588.473 307.057 586.235C306.897 585.438 306.882 584.618 307.013 583.815Z" fill="#263238"/>
<path d="M374.682 557.853C374.549 558.008 372.883 556.476 369.907 554.499C362.113 549.281 352.901 546.59 343.523 546.793C339.926 546.793 337.727 547.282 337.683 547.082C339.543 546.408 341.501 546.041 343.479 545.994C353.115 545.295 362.681 548.077 370.44 553.833C372.066 554.93 373.499 556.288 374.682 557.853Z" fill="#263238"/>
<path d="M381.189 478.347C381.27 479.337 381.27 480.332 381.189 481.323C381.189 483.255 380.989 486.009 380.722 489.429C380.167 496.247 379.168 505.641 377.369 515.946C375.963 524.762 373.907 533.461 371.217 541.974C370.684 543.595 370.107 545.061 369.64 546.416L368.219 549.614C367.803 550.525 367.289 551.389 366.687 552.19C366.965 551.237 367.337 550.315 367.797 549.436C368.175 548.481 368.574 547.393 369.041 546.193C369.507 544.994 369.951 543.44 370.44 541.752C372.867 533.208 374.803 524.533 376.236 515.768C378.013 505.508 379.146 496.158 379.901 489.362C380.234 486.142 380.523 483.455 380.745 481.323C380.773 480.317 380.923 479.318 381.189 478.347V478.347Z" fill="#263238"/>
<path d="M437.776 453.185C437.776 453.185 437.554 452.585 437.021 451.541C436.231 450.062 435.077 448.808 433.667 447.899C432.625 447.184 431.433 446.716 430.182 446.531C428.931 446.346 427.654 446.45 426.45 446.833C424.922 447.356 423.558 448.268 422.491 449.479C421.424 450.69 420.691 452.159 420.365 453.74L420.054 455.317L419.365 453.851C416.767 448.276 414.506 442.551 412.592 436.706C409.198 426.97 407.501 416.724 407.572 406.414C407.572 404.437 407.839 402.661 407.95 401.084C408.061 399.507 408.416 398.197 408.661 397.131C408.895 396.01 409.222 394.911 409.638 393.844C408.88 397.993 408.457 402.197 408.372 406.414C408.555 416.61 410.346 426.713 413.68 436.351C415.595 442.151 417.819 447.844 420.342 453.407L419.343 453.54C419.726 451.793 420.562 450.178 421.766 448.857C422.971 447.536 424.502 446.554 426.205 446.011C427.527 445.612 428.924 445.527 430.285 445.762C431.646 445.997 432.933 446.546 434.045 447.366C435.488 448.38 436.624 449.77 437.332 451.386C437.526 451.811 437.668 452.259 437.754 452.718C437.798 453.007 437.82 453.185 437.776 453.185Z" fill="#263238"/>
<path d="M491.92 458.182C491.682 457.315 491.511 456.432 491.409 455.539C490.923 453.091 490.767 450.589 490.943 448.099C491.443 444.268 493.351 440.761 496.295 438.261C498.116 436.762 500.399 435.938 502.758 435.929C504.043 435.914 505.316 436.178 506.49 436.704C507.663 437.229 508.708 438.003 509.553 438.971L508.576 439.549L506.467 434.241C502.314 423.781 498.627 414.253 496.006 407.391L492.964 399.196C492.541 398.218 492.221 397.198 492.009 396.154C492.555 397.072 493.016 398.038 493.386 399.041C494.274 401.261 495.407 403.86 496.784 407.102C499.604 413.92 503.446 423.359 507.555 433.752L509.642 439.082L510.997 442.502L508.776 439.638C508.043 438.787 507.132 438.108 506.107 437.647C505.083 437.187 503.97 436.956 502.847 436.973C500.733 436.959 498.678 437.673 497.028 438.994C494.253 441.314 492.401 444.552 491.809 448.121C491.57 450.554 491.615 453.006 491.942 455.428C492.048 456.343 492.04 457.268 491.92 458.182Z" fill="#263238"/>
<path d="M533.117 463.689C533.427 463.689 538.447 497.402 544.332 539.087C550.217 580.772 554.703 614.595 554.392 614.595C554.081 614.595 549.062 580.883 543.177 539.087C537.292 497.291 532.806 463.734 533.117 463.689Z" fill="#263238"/>
<g opacity="0.3">
<path opacity="0.3" d="M413.258 437.061C413.528 445.697 415.403 454.207 418.788 462.157C421.208 459.159 423.896 456.005 427.671 455.117C432.246 454.029 436.888 456.849 440.197 460.314C439.623 456.85 438.255 453.566 436.199 450.719C435.173 449.321 433.837 448.178 432.296 447.38C430.755 446.583 429.051 446.152 427.316 446.122C425.587 446.163 423.921 446.779 422.581 447.873C421.242 448.967 420.305 450.477 419.92 452.163L413.547 437.217" fill="black"/>
</g>
<path d="M375.748 461.468C375.548 461.468 375.615 459.137 374.948 455.517C374.036 450.8 372.202 446.31 369.552 442.303C368.059 440.133 366.356 438.117 364.466 436.284C362.9 434.801 361.197 433.47 359.38 432.309C356.249 430.332 354.05 429.577 354.139 429.377C354.684 429.417 355.218 429.552 355.716 429.777C356.337 429.944 356.94 430.175 357.515 430.465C358.282 430.795 359.025 431.181 359.736 431.62C361.667 432.712 363.476 434.008 365.132 435.485C367.124 437.34 368.904 439.411 370.44 441.659C373.193 445.783 374.984 450.474 375.681 455.383C375.902 456.853 375.977 458.341 375.903 459.825C375.903 460.891 375.837 461.468 375.748 461.468Z" fill="#263238"/>
<path d="M504.668 303.1C503.399 291.208 497.7 280.23 488.704 272.349C479.708 264.469 468.075 260.264 456.12 260.571H453.655C427.116 262.792 414.191 286.577 417.166 313.027L424.451 406.081L427.538 409.856C434.468 418.37 444.02 424.352 454.705 426.871C465.391 429.39 476.609 428.303 486.612 423.781V423.781L484.569 393.844C484.569 393.844 510.02 389.224 509.664 363.685C509.509 351.292 507.11 325.93 504.668 303.1Z" fill="#FFBE9D"/>
<path d="M484.769 393.777C472.919 394.107 461.225 391.023 451.079 384.894C451.079 384.894 459.407 403.083 484.835 400.129L484.769 393.777Z" fill="#EB996E"/>
<path d="M496.584 324.109C496.609 325.058 496.268 325.98 495.631 326.683C494.994 327.386 494.11 327.817 493.164 327.885C492.701 327.931 492.233 327.884 491.789 327.748C491.344 327.611 490.931 327.388 490.573 327.09C490.216 326.792 489.921 326.427 489.706 326.014C489.491 325.602 489.36 325.15 489.322 324.687C489.291 323.737 489.63 322.812 490.268 322.108C490.906 321.403 491.793 320.974 492.742 320.911C493.205 320.863 493.674 320.907 494.12 321.042C494.566 321.178 494.98 321.401 495.338 321.699C495.696 321.997 495.991 322.364 496.205 322.778C496.419 323.192 496.548 323.645 496.584 324.109Z" fill="#263238"/>
<path d="M498.205 310.229C497.916 310.673 495.029 310.984 491.542 312.85C488.056 314.715 486.012 317.047 485.546 317.003C485.08 316.958 485.546 316.359 486.412 315.315C487.74 313.842 489.32 312.616 491.076 311.695C492.752 310.758 494.591 310.148 496.495 309.896C497.805 309.763 498.36 310.007 498.205 310.229Z" fill="#263238"/>
<path d="M459.718 326.042C459.76 326.995 459.425 327.926 458.784 328.633C458.144 329.34 457.25 329.765 456.298 329.817C455.834 329.866 455.366 329.821 454.92 329.686C454.474 329.551 454.059 329.327 453.701 329.029C453.343 328.731 453.048 328.364 452.834 327.95C452.62 327.536 452.492 327.084 452.456 326.619C452.425 325.669 452.764 324.744 453.402 324.04C454.04 323.335 454.927 322.906 455.876 322.844C456.339 322.795 456.808 322.839 457.254 322.974C457.7 323.11 458.114 323.333 458.472 323.631C458.83 323.929 459.125 324.296 459.339 324.71C459.553 325.124 459.682 325.577 459.718 326.042V326.042Z" fill="#263238"/>
<path d="M459.274 315.581C458.763 315.581 456.386 314.093 452.611 313.161C448.836 312.228 445.704 312.428 445.371 312.117C445.038 311.806 445.771 311.673 447.126 311.562C449.104 311.436 451.09 311.624 453.011 312.117C454.87 312.558 456.642 313.309 458.252 314.338C459.14 315.048 459.407 315.537 459.274 315.581Z" fill="#263238"/>
<path d="M474.553 346.074C476.611 345.387 478.743 344.947 480.905 344.763C481.904 344.763 482.837 344.408 482.992 343.719C483.055 342.69 482.799 341.667 482.259 340.788L479.083 333.215C474.642 322.466 471.488 313.605 471.932 313.449C472.376 313.294 476.374 321.844 480.66 332.593C481.726 335.258 482.748 337.79 483.703 340.211C484.359 341.401 484.579 342.784 484.325 344.119C484.187 344.477 483.969 344.799 483.688 345.061C483.407 345.323 483.07 345.517 482.703 345.629C482.156 345.801 481.589 345.898 481.016 345.918C478.877 346.247 476.705 346.299 474.553 346.074Z" fill="#263238"/>
<path d="M459.274 300.435C458.829 301.479 454.943 300.791 450.39 301.102C445.837 301.412 441.973 302.523 441.507 301.523C441.24 301.057 441.951 300.08 443.483 299.125C445.545 297.952 447.847 297.266 450.215 297.119C452.582 296.973 454.951 297.37 457.142 298.281C458.607 299.058 459.407 299.924 459.274 300.435Z" fill="#263238"/>
<path d="M498.116 301.301C497.25 302.212 493.874 301.301 489.832 301.301C485.79 301.301 482.348 301.99 481.549 301.057C481.193 300.613 481.726 299.702 483.214 298.836C485.266 297.76 487.561 297.233 489.877 297.304C492.211 297.288 494.509 297.885 496.539 299.036C498.005 299.947 498.494 300.879 498.116 301.301Z" fill="#263238"/>
<path d="M512.107 280.403C511.882 279.238 511.239 278.194 510.298 277.47C509.357 276.746 508.184 276.391 506.999 276.472C508.276 276.108 509.468 275.497 510.508 274.674C511.026 274.256 511.415 273.701 511.631 273.073C511.847 272.444 511.881 271.767 511.73 271.12C511.064 269.144 508.532 268.722 506.533 268.167C503.909 267.404 501.583 265.853 499.871 263.725C497.45 260.66 496.517 256.663 494.407 253.354C493.045 251.217 491.22 249.414 489.068 248.076C486.917 246.738 484.492 245.9 481.974 245.623C479.455 245.346 476.906 245.637 474.515 246.475C472.124 247.314 469.951 248.677 468.157 250.466C466.197 248.452 463.785 246.935 461.121 246.04C458.457 245.146 455.618 244.9 452.84 245.324C450.062 245.747 447.426 246.828 445.149 248.475C442.873 250.123 441.023 252.29 439.752 254.797C436.346 253.376 432.619 252.898 428.964 253.411C425.309 253.925 421.859 255.411 418.975 257.716C416.092 260.02 413.881 263.058 412.574 266.51C411.267 269.962 410.913 273.702 411.548 277.339L427.449 287.088C427.578 285.879 427.962 284.711 428.576 283.661C429.19 282.611 430.02 281.703 431.011 280.998C432.002 280.293 433.131 279.806 434.324 279.569C435.517 279.333 436.746 279.352 437.931 279.626C442.728 281.025 445.793 286.577 450.768 286.955C454.654 287.243 457.963 284.245 461.716 283.246C466.269 282.025 471.088 283.846 475.197 286.155C479.306 288.465 483.236 291.352 487.811 292.507C493.276 293.602 498.948 292.925 504.001 290.575C506.245 289.788 508.291 288.522 509.998 286.866C510.839 286.035 511.469 285.015 511.836 283.891C512.203 282.766 512.296 281.571 512.107 280.403Z" fill="#263238"/>
<path d="M430.136 279.582L502.98 279.182C500.351 274.286 496.533 270.131 491.876 267.1C482.202 260.032 470.543 256.2 458.563 256.152C446.681 256.152 422.918 271.409 414.546 279.826C407.883 286.488 408.061 292.24 408.061 292.24C407.217 301.701 412.791 312.228 415.168 321.489C416.367 326.241 418.877 340.632 418.877 340.632C422.874 340.521 424.273 337.279 423.562 333.326L422.385 317.78C426.316 314.501 429.069 310.029 430.228 305.043C431.386 300.057 430.886 294.829 428.804 290.153C427.804 288.776 425.406 282.358 430.136 279.582Z" fill="#263238"/>
<path d="M421.342 316.758C417.633 303.878 414.213 290.108 418.166 277.228H415.945L415.057 277.872C413.003 277.181 410.783 277.164 408.719 277.82C406.654 278.477 404.853 279.775 403.576 281.525C402.299 283.275 401.612 285.386 401.616 287.552C401.62 289.719 402.314 291.828 403.597 293.573C401.432 293.554 399.334 294.327 397.698 295.746C396.062 297.165 395.001 299.133 394.714 301.279C394.721 304.27 395.543 307.203 397.09 309.763C398.641 312.33 399.59 315.215 399.866 318.202C399.96 319.689 399.525 321.162 398.64 322.36C397.754 323.559 396.474 324.406 395.025 324.754C395.727 326.269 396.929 327.496 398.43 328.228C399.931 328.96 401.638 329.153 403.264 328.773C402.227 331.305 400.494 333.491 398.267 335.08C403.02 338.323 409.527 337.301 414.679 334.703C417.876 333.417 420.485 330.997 422.008 327.907C423.429 324.332 422.363 320.401 421.342 316.758Z" fill="#263238"/>
<path d="M420.143 331.793C419.698 331.616 402.376 327.063 403.464 344.497C404.552 361.93 421.786 357.333 421.786 356.822C421.786 356.312 420.143 331.793 420.143 331.793Z" fill="#FFBE9D"/>
<path d="M417.611 350.493C417.611 350.493 417.322 350.715 416.811 350.982C416.121 351.324 415.326 351.388 414.59 351.159C412.703 350.582 410.993 347.761 410.726 344.608C410.592 343.101 410.797 341.583 411.326 340.166C411.467 339.606 411.744 339.088 412.131 338.658C412.518 338.229 413.004 337.9 413.547 337.701C413.891 337.594 414.262 337.608 414.598 337.741C414.933 337.875 415.213 338.119 415.39 338.434C415.656 338.9 415.545 339.256 415.656 339.3C415.767 339.344 416.012 338.967 415.834 338.256C415.691 337.841 415.428 337.478 415.079 337.212C414.833 337.041 414.554 336.921 414.26 336.86C413.966 336.798 413.663 336.798 413.369 336.857C412.662 337.043 412.014 337.405 411.485 337.91C410.957 338.415 410.566 339.046 410.349 339.744C409.708 341.304 409.442 342.993 409.571 344.674C409.904 348.183 411.792 351.337 414.457 351.959C414.93 352.063 415.42 352.061 415.892 351.953C416.365 351.846 416.807 351.635 417.189 351.337C417.611 350.915 417.677 350.515 417.611 350.493Z" fill="#EB996E"/>
<path d="M402.043 317.336C402.043 317.336 401.554 316.67 401.709 315.293C401.895 314.359 402.284 313.477 402.848 312.709C403.412 311.942 404.138 311.307 404.974 310.851C407.476 309.66 410.199 309.002 412.969 308.919C414.519 308.919 416.047 308.553 417.429 307.851C418.81 307.148 420.007 306.129 420.92 304.877C422.37 302.053 422.854 298.83 422.297 295.705C421.875 292.773 421.097 290.131 420.72 287.843C420.017 285.392 420.055 282.788 420.831 280.359C420.846 282.809 421.122 285.251 421.653 287.643C422.141 289.864 423.007 292.462 423.54 295.549C424.211 298.965 423.694 302.507 422.075 305.588C421.111 307.18 419.653 308.413 417.922 309.097C416.372 309.672 414.75 310.03 413.102 310.163C410.476 310.178 407.876 310.69 405.44 311.673C404.678 312.065 404.001 312.604 403.448 313.26C402.895 313.916 402.478 314.675 402.22 315.493C402.121 316.102 402.061 316.718 402.043 317.336V317.336Z" fill="#455A64"/>
<path d="M397.823 309.763C397.823 309.763 397.445 309.274 397.29 308.186C397.11 306.651 397.413 305.099 398.156 303.744C398.666 302.782 399.369 301.935 400.221 301.257C401.218 300.509 402.36 299.98 403.575 299.702C404.753 299.45 405.875 298.983 406.884 298.325C407.33 297.926 407.68 297.431 407.907 296.877C408.134 296.323 408.232 295.725 408.194 295.127C408.194 293.817 408.039 292.418 408.083 291.019C408.102 289.682 408.25 288.351 408.527 287.044C408.976 284.835 409.826 282.727 411.037 280.825C411.422 280.128 411.975 279.537 412.646 279.106C413.317 278.676 414.084 278.419 414.879 278.36C416.034 278.36 416.522 278.893 416.478 278.938C416.434 278.982 415.901 278.738 414.923 278.938C414.256 279.08 413.63 279.375 413.094 279.798C412.559 280.222 412.129 280.763 411.836 281.38C410.834 283.243 410.13 285.251 409.749 287.332C409.534 288.564 409.422 289.813 409.416 291.063C409.416 292.351 409.616 293.728 409.549 295.239C409.581 296.029 409.432 296.816 409.112 297.54C408.793 298.264 408.312 298.905 407.706 299.414C406.559 300.181 405.266 300.703 403.908 300.946C402.897 301.119 401.934 301.506 401.084 302.08C400.233 302.654 399.516 303.404 398.978 304.277C398.065 305.954 397.664 307.861 397.823 309.763V309.763Z" fill="#455A64"/>
<path d="M499.893 263.725C500.004 263.725 498.582 264.68 496.295 263.614C495.007 262.915 493.88 261.954 492.986 260.793C491.885 259.349 490.512 258.134 488.944 257.218C486.905 256.071 484.576 255.543 482.242 255.697C479.907 255.85 477.668 256.68 475.797 258.084C473.576 259.638 471.732 261.837 469.134 263.658C467.813 264.638 466.299 265.327 464.692 265.679C463.03 265.97 461.319 265.809 459.74 265.213C456.586 264.08 454.099 262.148 451.39 261.171C448.775 260.167 445.995 259.662 443.195 259.683C438.37 259.677 433.682 261.279 429.87 264.236C427.323 266.225 425.208 268.711 423.651 271.542C422.563 273.563 422.163 274.807 422.052 274.762C421.941 274.718 422.052 274.429 422.23 273.83C422.481 272.965 422.793 272.119 423.163 271.298C424.597 268.274 426.683 265.604 429.27 263.481C433.168 260.294 438.028 258.518 443.061 258.439C446.025 258.362 448.976 258.868 451.745 259.927C454.676 260.993 457.208 262.925 460.073 263.925C461.43 264.447 462.904 264.593 464.337 264.347C465.727 264.028 467.036 263.423 468.179 262.57C470.511 260.904 472.465 258.706 474.842 257.062C477.039 255.416 479.714 254.535 482.459 254.553C484.801 254.57 487.097 255.198 489.122 256.374C490.743 257.408 492.153 258.742 493.275 260.305C494.053 261.446 495.058 262.414 496.228 263.147C497.33 263.803 498.642 264.01 499.893 263.725Z" fill="#455A64"/>
<path d="M464.87 350.648C465.425 350.648 466.047 354.246 469.689 356.356C473.331 358.466 477.218 357.4 477.351 357.911C477.484 358.421 476.574 358.799 474.908 359.11C472.732 359.514 470.482 359.137 468.557 358.044C466.712 356.977 465.346 355.245 464.737 353.202C464.337 351.67 464.604 350.671 464.87 350.648Z" fill="#263238"/>
<path d="M694.683 697.655C687.921 691.846 679.147 688.927 670.253 689.527L655.24 737.208C666.234 737.697 677.205 743.36 687.82 740.45C692.06 739.143 695.837 736.65 698.705 733.266C701.574 729.882 703.415 725.747 704.01 721.351C704.472 716.943 703.866 712.488 702.242 708.363C700.619 704.239 698.026 700.566 694.683 697.655V697.655Z" fill="#F25C54"/>
<path d="M670.431 688.438C670.431 688.061 672.052 687.75 674.873 687.772C679.069 687.849 683.222 688.637 687.154 690.104C693.163 692.445 698.362 696.48 702.123 701.719C704.42 704.826 706.115 708.336 707.119 712.068C708.207 716.152 708.328 720.432 707.475 724.571C706.648 728.766 704.776 732.684 702.034 735.964C699.407 738.952 696.08 741.241 692.351 742.627C686.292 744.769 679.758 745.192 673.474 743.848C669.429 743.056 665.483 741.827 661.703 740.184C659.06 739.051 657.661 738.207 657.795 737.83C657.928 737.452 659.527 737.563 662.236 738.03C664.946 738.496 669.054 739.362 673.94 739.806C679.481 740.421 685.088 739.658 690.263 737.585C693.101 736.386 695.613 734.528 697.592 732.167C699.667 729.583 701.085 726.535 701.723 723.283C702.333 720.06 702.287 716.747 701.589 713.542C700.89 710.337 699.554 707.306 697.659 704.628C694.598 699.993 690.39 696.229 685.444 693.702C681.939 692.047 678.269 690.767 674.495 689.882C671.941 689.304 670.387 688.838 670.431 688.438Z" fill="#F5F5F5"/>
<path d="M531.34 867.327L498.694 958.803L612.29 1000C615.576 988.896 564.697 945.811 564.697 945.811L588.016 888.07L531.34 867.327Z" fill="#F25C54"/>
<g opacity="0.6">
<path opacity="0.6" d="M531.362 928.156C530.148 928.091 528.953 928.476 528.006 929.239C527.059 930.001 526.427 931.087 526.232 932.287C526.123 933.494 526.481 934.697 527.234 935.647C527.986 936.597 529.074 937.223 530.274 937.394C531.568 937.463 532.842 937.046 533.844 936.224C534.847 935.402 535.506 934.236 535.693 932.953C535.693 930.532 533.294 927.756 530.896 928.089" fill="white"/>
</g>
<path d="M498.694 958.803L502.003 949.587L609.891 992.627C609.891 992.627 614.155 996.646 612.29 1000L498.694 958.803Z" fill="white"/>
<path d="M566.762 945.9C566.54 946.455 563.675 945.7 560.3 946.5C556.924 947.299 554.614 949.098 554.192 948.721C553.77 948.343 555.747 945.412 559.856 944.523C563.964 943.635 567.051 945.434 566.762 945.9Z" fill="#263238"/>
<path d="M576.978 955.161C576.978 955.739 574.158 955.805 571.426 957.382C568.694 958.959 567.251 961.335 566.696 961.113C566.14 960.891 566.94 957.626 570.382 955.605C573.825 953.584 576.978 954.628 576.978 955.161Z" fill="#263238"/>
<path d="M578.466 971.862C577.933 971.862 578.155 968.753 580.687 966.221C583.219 963.689 586.239 963.445 586.306 964C586.372 964.555 584.196 965.577 582.153 967.687C580.109 969.796 579.043 972.017 578.466 971.862Z" fill="#263238"/>
<path d="M570.604 932.153C570.182 932.575 567.917 930.887 564.719 929.932C561.521 928.977 558.701 929.111 558.59 928.533C558.479 927.956 561.521 926.823 565.252 927.978C568.983 929.133 571.049 931.82 570.604 932.153Z" fill="#263238"/>
<path d="M572.781 917.696C570.741 917.516 568.786 916.796 567.118 915.608C565.193 914.506 563.417 913.163 561.832 911.611C560.884 910.704 560.001 909.732 559.189 908.701C558.678 908.117 558.258 907.458 557.946 906.747C557.723 906.221 557.682 905.635 557.831 905.084C557.98 904.532 558.31 904.047 558.767 903.704C559.185 903.419 559.663 903.234 560.164 903.164C560.665 903.095 561.175 903.143 561.654 903.305C562.375 903.563 563.055 903.922 563.675 904.371C564.785 905.112 565.826 905.952 566.785 906.88C568.389 908.435 569.738 910.234 570.782 912.21C571.923 913.94 572.505 915.979 572.448 918.051C572.137 918.051 571.471 915.941 569.538 912.943C568.392 911.219 567.034 909.644 565.497 908.257C564.587 907.441 563.614 906.699 562.587 906.036C561.499 905.281 560.477 904.904 559.989 905.326C559.5 905.748 559.745 905.57 559.878 906.014C560.109 906.537 560.416 907.024 560.788 907.458C561.516 908.443 562.31 909.378 563.165 910.256C564.606 911.774 566.19 913.15 567.895 914.364C570.827 916.474 572.914 917.407 572.781 917.696Z" fill="#263238"/>
<path d="M571.781 918.273C571.3 916.259 571.471 914.143 572.27 912.232C572.943 910.092 573.971 908.08 575.312 906.28C576.117 905.224 577.017 904.242 578 903.349C578.584 902.713 579.321 902.237 580.141 901.965C580.961 901.693 581.837 901.634 582.686 901.794C583.187 901.994 583.622 902.331 583.941 902.768C584.259 903.204 584.447 903.721 584.485 904.259C584.526 905.004 584.466 905.751 584.307 906.48C583.957 908.283 583.251 909.998 582.228 911.523C581.206 913.049 579.889 914.355 578.355 915.364C575.068 917.585 572.514 917.318 572.536 917.118C572.559 916.918 574.757 916.407 577.511 914.187C579.077 912.911 580.35 911.313 581.242 909.501C581.76 908.447 582.126 907.325 582.33 906.169C582.597 904.904 582.486 903.749 581.997 903.727C581.497 903.707 580.999 903.799 580.538 903.995C580.077 904.191 579.666 904.486 579.332 904.859C578.411 905.639 577.564 906.501 576.8 907.435C575.499 909.027 574.436 910.8 573.647 912.699C572.27 916.052 572.114 918.273 571.781 918.273Z" fill="#263238"/>
<path d="M421.297 623.035C404.063 623.434 387.718 625.855 375.836 638.358C360.091 654.948 340.636 678.556 339.526 694.923C337.882 719.352 352.651 726.681 363.422 732.677C368.186 735.254 373.555 736.504 378.968 736.297L578.133 734.787L584.373 701.053L455.565 669.295L460.917 620.814L421.297 623.035Z" fill="#263238"/>
<path d="M461.028 620.791L523.678 617.904C523.678 617.904 631.922 623.923 654.996 645.087C678.071 666.252 675.206 690.304 667.5 713.378C659.793 736.453 591.991 884.117 591.991 884.117C591.991 884.117 597.499 893.511 594.412 902.883C593.162 906.987 590.868 910.697 587.753 913.648C584.639 916.599 580.811 918.69 576.645 919.717L516.416 897.508C516.416 897.508 508.243 894.621 514.017 886.915C519.791 879.209 523.633 877.787 523.633 877.787V862.397C523.633 862.397 544.798 823.91 546.708 818.624C548.618 813.338 568.916 735.032 568.916 735.032L582.397 711.868C582.397 711.868 549.817 696.544 521.568 685.44L455.609 669.184L461.028 620.791Z" fill="#263238"/>
<path d="M562.654 894.799C560.831 893.739 559.067 892.582 557.368 891.334C548.859 885.821 539.275 882.18 529.252 880.652C527.15 880.448 525.06 880.137 522.99 879.719C525.102 879.475 527.238 879.512 529.341 879.83C539.614 880.928 549.429 884.661 557.834 890.668C559.616 891.827 561.236 893.216 562.654 894.799Z" fill="#455A64"/>
<path d="M592.746 884.228C591.433 883.151 590.261 881.912 589.259 880.541C587.216 878.165 584.507 874.789 581.686 870.925C578.866 867.06 576.423 863.485 574.757 860.842C573.764 859.459 572.93 857.97 572.27 856.4C573.463 857.607 574.52 858.94 575.424 860.376L582.619 870.236C585.306 873.878 587.771 877.165 589.903 880.03C591.001 881.322 591.954 882.729 592.746 884.228Z" fill="#455A64"/>
<path d="M614.732 690.815C614.732 690.992 612.512 691.481 609.025 692.636C599.895 695.649 591.623 700.813 584.907 707.693C583.596 709.205 582.21 710.651 580.754 712.024C581.693 710.23 582.89 708.584 584.307 707.138C587.538 703.489 591.278 700.325 595.411 697.744C599.542 695.143 604.032 693.16 608.736 691.858C610.671 691.209 612.692 690.857 614.732 690.815Z" fill="#455A64"/>
<path d="M553.215 795.372C553.241 794.926 553.323 794.486 553.459 794.062L554.392 790.397L557.99 776.961L570.316 732.744C572.825 724.105 574.957 715.888 577.378 708.426C579.934 701.942 583.797 696.053 588.726 691.126C591.981 687.788 595.584 684.809 599.475 682.242C600.874 681.354 601.963 680.688 602.74 680.288C603.113 680.052 603.507 679.851 603.917 679.688C603.917 679.688 602.407 680.71 599.742 682.598C595.979 685.284 592.484 688.326 589.304 691.681C584.548 696.588 580.832 702.404 578.377 708.781C576.156 716.132 573.936 724.46 571.426 733.055L558.789 777.161C557.146 782.691 555.791 787.199 554.814 790.486C554.348 791.952 553.992 793.151 553.682 794.084C553.585 794.532 553.428 794.965 553.215 795.372V795.372Z" fill="#455A64"/>
<path d="M497.805 682.575C497.472 682.575 496.162 670.894 494.851 656.414C493.541 641.934 492.631 630.164 493.075 630.141C493.519 630.119 494.696 641.823 496.006 656.303C497.317 670.783 498.116 682.553 497.805 682.575Z" fill="#455A64"/>
<path d="M393.514 713.956C393.337 713.956 392.382 712.157 390.405 709.381C387.854 705.77 384.794 702.546 381.322 699.809C377.823 697.107 373.957 694.916 369.84 693.302C366.664 692.058 364.599 691.592 364.644 691.392C366.513 691.479 368.357 691.862 370.107 692.525C378.792 695.388 386.211 701.182 391.094 708.914C392.172 710.451 392.99 712.154 393.514 713.956V713.956Z" fill="#455A64"/>
<path d="M431.891 671.316C431.891 671.493 429.137 669.805 424.54 667.696C412.478 662.217 399.099 660.305 385.986 662.188C380.989 662.899 377.947 663.787 377.902 663.587C378.548 663.222 379.244 662.953 379.967 662.788C381.897 662.191 383.863 661.716 385.853 661.366C399.116 659.039 412.777 660.999 424.851 666.963C426.661 667.856 428.411 668.865 430.092 669.983C430.751 670.342 431.356 670.79 431.891 671.316V671.316Z" fill="#455A64"/>
<path d="M581.931 700.986C581.397 700.959 580.867 700.87 580.354 700.72L575.912 699.765L559.7 696.189C545.998 693.124 527.032 688.994 506 684.841C484.969 680.688 465.87 677.245 452.034 674.869L435.622 672.049L431.18 671.271C430.656 671.21 430.141 671.083 429.648 670.894C430.175 670.908 430.702 670.953 431.224 671.027L435.666 671.604C439.553 672.137 445.171 672.981 452.123 674.07C466.003 676.29 485.147 679.533 506.2 683.708C527.254 687.883 546.175 692.125 559.856 695.39C566.674 697.033 572.203 698.41 576.001 699.409L580.443 700.564C580.95 700.66 581.448 700.801 581.931 700.986V700.986Z" fill="#455A64"/>
<path d="M455.676 674.98C455.454 674.98 454.987 672.359 452.922 668.628C451.714 666.475 450.219 664.496 448.48 662.743C446.287 660.583 443.958 658.565 441.507 656.702C436.991 653.366 432.216 650.396 427.227 647.819C425.116 646.815 423.082 645.657 421.142 644.355C423.377 645.061 425.54 645.976 427.604 647.086C432.758 649.476 437.655 652.385 442.218 655.77C444.702 657.665 447.047 659.735 449.235 661.966C451.019 663.813 452.516 665.916 453.677 668.206C454.475 669.755 455.079 671.396 455.476 673.092C455.659 673.704 455.727 674.344 455.676 674.98V674.98Z" fill="#455A64"/>
<path d="M677.515 705.072C677.76 705.339 674.429 708.692 671.83 713.823C669.232 718.953 668.388 723.572 668.055 723.505C668.047 719.916 668.998 716.389 670.809 713.29C672.281 710.007 674.595 707.173 677.515 705.072V705.072Z" fill="#263238"/>
<g opacity="0.3">
<path opacity="0.3" d="M534.96 477.525L549.218 577.952L549.928 579.551C553.272 544.832 548.135 509.82 534.96 477.525Z" fill="black"/>
</g>
<path d="M611.734 535.223L565.385 616.239L451.168 618.726L450.879 623.901L561.477 623.079L564.986 622.946L681.757 623.19L705.365 582.482L735.524 539.264C735.96 538.623 736.213 537.875 736.256 537.1C736.299 536.326 736.129 535.554 735.766 534.869C735.403 534.184 734.86 533.61 734.195 533.211C733.53 532.811 732.769 532.601 731.993 532.602L615.421 533.046C614.669 533.052 613.932 533.256 613.285 533.638C612.637 534.02 612.102 534.567 611.734 535.223V535.223Z" fill="#E0E0E0"/>
<path d="M705.365 582.549C705.365 582.549 711.361 588.056 710.429 592.72C709.496 597.384 709.784 600.871 705.365 601.181C705.447 602.888 704.871 604.561 703.755 605.855C702.639 607.148 701.069 607.964 699.369 608.133C699.369 608.133 700.723 615.461 692.195 616.727C692.195 616.727 689.575 624.567 684.2 622.657C681.103 621.604 678.125 620.227 675.317 618.548L673.74 615.706C673.74 615.706 665.812 612.73 667.766 608.266C668.965 605.557 673.052 604.846 673.052 604.846C672.581 603.733 672.382 602.525 672.471 601.32C672.56 600.115 672.934 598.949 673.563 597.917C675.45 595.363 681.624 597.473 681.624 597.473C681.496 595.285 682.194 593.13 683.579 591.432C685.799 588.922 695.527 595.696 695.527 595.696L700.879 589.3L705.365 582.549Z" fill="#FFBE9D"/>
<path d="M692.195 616.727C688.733 615.253 685.429 613.429 682.335 611.286C679.039 609.467 675.943 607.309 673.096 604.846C676.556 606.335 679.86 608.165 682.957 610.309C686.244 612.132 689.34 614.283 692.195 616.727V616.727Z" fill="#EB996E"/>
<path d="M699.369 608.133C696.147 606.866 693.078 605.242 690.219 603.291C687.163 601.672 684.296 599.721 681.669 597.473C684.895 598.728 687.966 600.353 690.819 602.314C693.874 603.933 696.742 605.884 699.369 608.133V608.133Z" fill="#EB996E"/>
<path d="M689.597 592.054C689.775 591.721 693.439 593.653 697.703 596.362C700.346 597.888 702.891 599.579 705.321 601.426C705.165 601.803 701.345 600.071 697.081 597.339C694.408 595.846 691.899 594.074 689.597 592.054V592.054Z" fill="#EB996E"/>
<path d="M735.524 535.711C735.34 535.741 735.153 535.741 734.969 535.711H733.325H727.018L703.832 535.889L627.325 536.066H621.75C620.929 535.988 620.102 536.133 619.355 536.484C618.609 536.836 617.971 537.382 617.508 538.065C615.732 541.234 613.999 544.358 612.312 547.437L602.451 565.204L585.728 595.252C580.976 603.735 577.089 610.62 574.357 615.484C573.047 617.705 571.981 619.614 571.226 620.947L570.382 622.346L570.071 622.812C570.071 622.812 570.071 622.613 570.271 622.279L571.026 620.814L573.98 615.262L585.084 594.852L601.607 564.671C604.716 559.008 608.003 553.056 611.379 546.904L616.598 537.466C617.167 536.621 617.95 535.941 618.866 535.497C619.783 535.052 620.801 534.858 621.817 534.934H627.391L703.899 535.089L727.085 535.289L733.392 535.4H735.035C735.214 535.476 735.379 535.581 735.524 535.711Z" fill="#263238"/>
<path d="M653.353 576.464C652.814 577.244 652.511 578.163 652.482 579.111C652.452 580.059 652.696 580.995 653.185 581.808C653.674 582.621 654.388 583.275 655.239 583.692C656.091 584.11 657.045 584.273 657.986 584.162C658.928 584.051 659.818 583.671 660.549 583.067C661.281 582.463 661.822 581.661 662.109 580.757C662.396 579.853 662.416 578.885 662.167 577.97C661.917 577.055 661.409 576.231 660.704 575.597C659.611 574.745 658.227 574.358 656.85 574.52C655.474 574.682 654.217 575.381 653.353 576.464V576.464Z" fill="white"/>
<g opacity="0.3">
<path opacity="0.3" d="M329.11 545.172C328.133 545.572 327 546.238 327 547.393C327.036 547.822 327.215 548.227 327.509 548.541C327.804 548.856 328.196 549.061 328.622 549.125C330.251 548.894 331.846 548.469 333.374 547.859C345.389 545.216 355.272 547.748 366.687 552.301L367.064 551.923C362.534 542.085 342.036 539.908 329.11 545.172Z" fill="black"/>
</g>
<path d="M947.858 996.003C947.858 996.313 746.983 996.58 499.249 996.58C251.514 996.58 50.6389 996.225 50.6389 996.003C50.6389 995.78 251.469 995.425 499.249 995.425C747.028 995.425 947.858 995.581 947.858 996.003Z" fill="#263238"/>
<path d="M266.877 288.021C267.254 288.398 341.008 263.059 341.008 263.059L312.581 197.988L247 223.15L283.111 243.893L266.877 288.021Z" fill="#455A64"/>
<path d="M301.477 217.576V128.986C301.477 128.986 403.214 110.376 476.524 111.486C549.834 112.597 625.32 124.611 625.32 124.611V209.669C625.32 209.669 395.552 189.149 301.477 217.576Z" fill="#455A64"/>
<path d="M300.944 217.665L340.919 263.436V209.67C340.919 209.67 307.496 213.667 300.944 217.665Z" fill="#263238"/>
<path d="M301.477 128.964C301.81 128.964 301.944 148.952 301.81 173.381C301.677 197.81 301.277 217.798 300.967 217.798C300.656 217.798 300.5 197.944 300.633 173.381C300.767 148.819 301.144 128.964 301.477 128.964Z" fill="#263238"/>
<path d="M659.743 281.225C659.366 281.603 585.612 256.263 585.612 256.263L613.972 191.17L679.62 216.288L643.487 237.03L659.743 281.225Z" fill="#455A64"/>
<path d="M625.72 210.869L585.745 256.64V206.76C599.148 207.219 612.504 208.592 625.72 210.869V210.869Z" fill="#263238"/>
<path d="M625.276 124.611C625.587 124.611 625.942 143.91 626.053 167.74C626.164 191.57 626.053 210.869 625.675 210.869C625.298 210.869 625.009 191.57 624.898 167.74C624.787 143.91 624.942 124.611 625.276 124.611Z" fill="#263238"/>
<path d="M670.897 132.673L676.716 139.491L693.106 132.673L688.309 125.5L670.897 132.673Z" fill="#455A64"/>
<path d="M663.391 100.227C663.391 101.913 662.891 103.562 661.954 104.964C661.017 106.367 659.685 107.46 658.127 108.105C656.568 108.751 654.854 108.92 653.199 108.591C651.545 108.262 650.025 107.449 648.833 106.257C647.64 105.064 646.828 103.545 646.499 101.89C646.17 100.236 646.339 98.5213 646.984 96.963C647.63 95.4047 648.723 94.0728 650.125 93.1357C651.528 92.1986 653.176 91.6985 654.863 91.6985C657.123 91.7043 659.289 92.6047 660.887 94.2028C662.485 95.8008 663.385 97.9666 663.391 100.227V100.227Z" fill="#F25C54"/>
<path d="M472.354 227.436C472.35 228.281 472.094 229.106 471.62 229.806C471.146 230.505 470.474 231.048 469.691 231.366C468.908 231.683 468.048 231.76 467.22 231.588C466.393 231.415 465.635 231.001 465.044 230.397C464.453 229.793 464.054 229.027 463.899 228.196C463.744 227.365 463.839 226.507 464.173 225.73C464.506 224.954 465.063 224.294 465.773 223.834C466.482 223.375 467.312 223.137 468.157 223.15C469.28 223.167 470.351 223.627 471.137 224.43C471.923 225.233 472.36 226.313 472.354 227.436V227.436Z" fill="#F25C54"/>
<path d="M273.7 163.343C273.7 163.986 273.509 164.615 273.151 165.149C272.792 165.683 272.283 166.098 271.688 166.342C271.093 166.587 270.439 166.648 269.809 166.519C269.179 166.391 268.601 166.077 268.149 165.619C267.698 165.161 267.392 164.58 267.272 163.948C267.152 163.316 267.223 162.663 267.475 162.071C267.727 161.479 268.15 160.976 268.689 160.625C269.228 160.274 269.859 160.092 270.502 160.1C271.354 160.112 272.168 160.459 272.766 161.066C273.365 161.672 273.7 162.491 273.7 163.343V163.343Z" fill="#F25C54"/>
<path d="M261.663 127.654L271.213 128.231L275.743 109.443L266.816 109.821L261.663 127.654Z" fill="#455A64"/>
<path d="M560.144 277.627L563.364 286.644L582.419 283.446L578.577 275.384L560.144 277.627Z" fill="#F25C54"/>
<path d="M367.42 225.593L361.534 233.144L374.438 247.513L379.19 239.94L367.42 225.593Z" fill="#455A64"/>
<path d="M344.612 48.2145L367.153 71.2002L398.889 59.2076L400.155 67.0916L386.408 95.2297L399.089 116.239L398.023 122.524L367.309 117.349L349.142 137.27L344.878 134.05L341.125 108.71L312.476 93.7861L311.21 87.9897L340.059 80.1057L344.612 48.2145Z" fill="#F25C54"/>
<g opacity="0.3">
<path opacity="0.3" d="M344.612 48.2145L367.153 71.2002L398.889 59.2076L400.155 67.0916L386.408 95.2297L399.089 116.239L398.023 122.524L367.309 117.349L349.142 137.27L344.878 134.05L341.125 108.71L312.476 93.7861L311.21 87.9897L340.059 80.1057L344.612 48.2145Z" fill="black"/>
</g>
<path d="M344.612 41.7518L367.153 64.7597L398.889 59.2076L383.987 87.7676L399.089 116.239L367.309 110.909L344.878 134.05L340.148 102.181L311.21 87.9897L340.059 73.6431L344.612 41.7518Z" fill="#F25C54"/>
<path d="M578.355 48.2145L555.791 71.2002L524.055 59.2076L522.79 67.0916L536.537 95.2297L523.856 116.239L524.922 122.524L555.636 117.349L573.802 137.27L578.066 134.05L581.819 108.71L610.468 93.7861L611.734 87.9897L582.885 80.1057L578.355 48.2145Z" fill="#F25C54"/>
<g opacity="0.3">
<path opacity="0.3" d="M578.355 48.2145L555.791 71.2002L524.055 59.2076L522.79 67.0916L536.537 95.2297L523.856 116.239L524.922 122.524L555.636 117.349L573.802 137.27L578.066 134.05L581.819 108.71L610.468 93.7861L611.734 87.9897L582.885 80.1057L578.355 48.2145Z" fill="black"/>
</g>
<path d="M578.355 41.7518L555.791 64.7597L524.056 59.2076L538.957 87.7676L523.856 116.239L555.636 110.909L578.066 134.05L582.797 102.181L611.734 87.9897L582.886 73.6431L578.355 41.7518Z" fill="#F25C54"/>
<path d="M460.739 7.86182L479.505 44.5279L522.79 41.9739L521.324 52.0565L493.83 81.1718L501.27 111.619L497.605 118.882L462.094 100.871L432.357 118.282L428.382 112.708L433.445 80.35L404.175 51.2348L404.841 43.7062L443.039 45.0609L460.739 7.86182Z" fill="#F25C54"/>
<g opacity="0.3">
<path opacity="0.3" d="M460.739 7.86182L479.505 44.5279L522.79 41.9739L521.324 52.0565L493.83 81.1718L501.27 111.619L497.605 118.882L462.094 100.871L432.357 118.282L428.382 112.708L433.445 80.35L404.175 51.2348L404.841 43.7062L443.039 45.0609L460.739 7.86182Z" fill="black"/>
</g>
<path d="M463.182 0L481.948 36.6439L522.79 41.9739L493.719 71.1557L501.27 111.619L464.559 93.0088L428.382 112.708L434.756 72.0219L404.841 43.7061L445.504 37.1769L463.182 0Z" fill="#F25C54"/>
<path d="M537.958 328.929L569.316 332.393C579.903 317.405 595.713 306.919 613.639 302.995C631.565 299.071 650.31 301.993 666.19 311.188C682.071 320.382 693.938 335.184 699.46 352.683C704.982 370.182 703.76 389.115 696.033 405.758C688.306 422.402 674.633 435.554 657.702 442.63C640.771 449.705 621.806 450.193 604.534 443.996C587.261 437.799 572.932 425.366 564.36 409.141C555.789 392.916 553.596 374.072 558.212 356.312V356.312L537.958 328.929Z" fill="#FAFAFA"/>
<path d="M537.958 328.929C539.179 330.572 545.531 338.967 558.501 356.178H558.034C558.05 356.142 558.074 356.109 558.104 356.083C558.134 356.057 558.169 356.038 558.208 356.027C558.246 356.017 558.286 356.015 558.326 356.022C558.365 356.029 558.402 356.044 558.434 356.067C558.486 356.099 558.527 356.145 558.551 356.201C558.575 356.257 558.581 356.319 558.567 356.378C555.389 368.837 555.557 381.915 559.056 394.288C560.083 398.001 561.444 401.613 563.12 405.081C564.009 406.858 564.852 408.679 565.807 410.478L569.116 415.741C579.683 431.059 595.668 441.798 613.844 445.789C623.906 448.001 634.322 448.046 644.403 445.923C655.029 443.61 665.015 438.985 673.651 432.375C682.696 425.507 689.968 416.575 694.86 406.325C699.926 395.903 702.423 384.419 702.145 372.835C701.821 361.752 699.013 350.884 693.928 341.032C689.145 331.693 682.367 323.52 674.073 317.092C659.135 305.545 640.335 300.171 621.55 302.079C613.613 303.031 605.865 305.172 598.565 308.43C586.95 313.798 576.943 322.113 569.538 332.549C569.515 332.591 569.479 332.625 569.435 332.645C569.391 332.665 569.341 332.67 569.294 332.66L537.958 328.929L569.361 332.104L569.094 332.238C576.475 321.661 586.529 313.231 598.232 307.808C605.568 304.428 613.38 302.196 621.395 301.19C640.436 299.174 659.523 304.566 674.695 316.248C683.132 322.752 690.025 331.041 694.883 340.521C700.075 350.515 702.938 361.555 703.255 372.812C703.548 384.579 701.019 396.246 695.882 406.836C690.903 417.244 683.509 426.312 674.318 433.286C665.54 439.987 655.395 444.672 644.603 447.011C634.344 449.169 623.741 449.1 613.511 446.811C595.142 442.761 579 431.876 568.361 416.363L565.03 411.033C564.075 409.212 563.231 407.347 562.321 405.548C560.65 402.033 559.297 398.377 558.279 394.621C554.795 382.116 554.703 368.909 558.012 356.356L558.545 356.556C558.504 356.62 558.44 356.667 558.367 356.688C558.293 356.708 558.214 356.701 558.145 356.667L537.958 328.929Z" fill="#263238"/>
<path d="M602.296 348.494C602.321 348.834 602.321 349.176 602.296 349.516C602.296 350.249 602.296 351.181 602.296 352.359C602.296 354.935 602.296 358.51 602.429 363.041C602.429 372.257 602.585 385.249 602.696 400.795L602.185 400.284H654.441C654.574 400.151 653.353 401.372 653.864 400.839V393.733C653.864 391.401 653.864 389.069 653.864 386.759V373.234C653.864 364.484 653.864 356.201 653.864 348.583L654.352 349.094L616.598 348.827L605.916 348.716H603.073H602.052H602.962H605.716L616.265 348.583L654.308 348.339H654.819V348.827C654.819 356.445 654.819 364.729 654.819 373.479V400.817C655.352 400.306 654.13 401.55 654.241 401.417H601.985H601.474V400.817C601.474 385.138 601.652 372.057 601.718 362.774C601.718 358.333 601.718 354.735 601.852 352.203C601.852 351.07 601.852 350.16 601.852 349.449C601.956 349.112 602.106 348.791 602.296 348.494Z" fill="#263238"/>
<path d="M648.911 357.133C649.666 357.733 642.648 367.86 633.21 379.764C631.344 382.14 629.501 384.405 627.791 386.426L626.681 387.781L625.437 386.648C617.264 379.297 611.734 373.656 612.223 373.079C612.711 372.502 619.13 377.165 627.591 384.183L625.215 384.405C626.836 382.184 628.613 379.964 630.5 377.61C639.917 365.706 648.178 356.556 648.911 357.133Z" fill="#F25C54"/>
<path d="M359.31 167.201L356.313 158.345C356.091 157.783 355.855 157.124 355.603 156.37C355.352 155.6 355.1 154.772 354.848 153.884C354.626 154.787 354.39 155.623 354.138 156.392C353.887 157.161 353.65 157.827 353.428 158.39L350.454 167.201H359.31ZM371.228 179.563H365.413C364.762 179.563 364.237 179.416 363.837 179.12C363.438 178.809 363.135 178.417 362.927 177.943L361.019 172.306H348.723L346.814 177.943C346.651 178.358 346.355 178.735 345.926 179.075C345.512 179.401 344.994 179.563 344.372 179.563H338.513L351.031 147.226H358.71L371.228 179.563ZM379.415 160.099C380.126 158.856 380.939 157.879 381.857 157.169C382.789 156.459 383.854 156.104 385.053 156.104C386.089 156.104 386.932 156.348 387.583 156.836L387.139 161.896C387.065 162.222 386.939 162.444 386.762 162.562C386.599 162.681 386.37 162.74 386.074 162.74C385.955 162.74 385.8 162.732 385.608 162.718C385.415 162.703 385.216 162.688 385.008 162.673C384.801 162.644 384.587 162.621 384.365 162.607C384.158 162.577 383.965 162.562 383.788 162.562C382.782 162.562 381.975 162.829 381.369 163.361C380.777 163.894 380.274 164.634 379.859 165.581V179.563H372.979V156.547H377.063C377.403 156.547 377.684 156.577 377.906 156.636C378.143 156.695 378.335 156.792 378.483 156.925C378.646 157.043 378.764 157.206 378.838 157.413C378.927 157.62 379.001 157.872 379.06 158.168L379.415 160.099ZM403.623 157.324C401.699 157.324 399.983 158.626 398.473 161.231C396.964 163.805 396.21 166.38 396.21 168.954C396.21 174.34 397.6 177.033 400.382 177.033C402.365 177.033 403.978 175.746 405.221 173.171C406.464 170.567 407.085 167.652 407.085 164.427C407.085 159.692 405.931 157.324 403.623 157.324ZM399.85 153.329C400.175 153.329 400.471 153.433 400.737 153.64C401.033 153.817 401.181 154.01 401.181 154.217C398.192 156.288 396.402 159.174 395.81 162.873C396.432 161.216 397.186 159.78 398.074 158.567C398.991 157.354 399.938 156.436 400.915 155.815C402.779 154.661 404.599 154.084 406.375 154.084C408.15 154.084 409.66 154.957 410.903 156.703C412.146 158.449 412.767 160.787 412.767 163.716C412.767 167.001 412.101 170.02 410.769 172.772C409.29 175.879 407.189 178.025 404.466 179.208C402.927 179.889 401.24 180.229 399.406 180.229C396.831 180.229 394.582 179.238 392.658 177.255C390.764 175.243 389.817 172.372 389.817 168.644C389.817 164.885 390.735 161.586 392.57 158.745C394.404 155.874 396.831 154.069 399.85 153.329ZM423.673 159.033C424.117 158.619 424.576 158.234 425.049 157.879C425.523 157.524 426.026 157.228 426.558 156.991C427.106 156.74 427.69 156.547 428.312 156.414C428.948 156.266 429.636 156.192 430.376 156.192C431.634 156.192 432.743 156.414 433.705 156.858C434.682 157.287 435.503 157.894 436.169 158.678C436.835 159.448 437.338 160.372 437.678 161.452C438.018 162.518 438.188 163.679 438.188 164.937V179.563H431.308V164.937C431.308 163.813 431.049 162.94 430.531 162.318C430.013 161.682 429.251 161.364 428.245 161.364C427.49 161.364 426.78 161.526 426.114 161.852C425.463 162.163 424.827 162.592 424.206 163.139V179.563H417.325V156.547H421.587C422.445 156.547 423.007 156.932 423.273 157.702L423.673 159.033Z" fill="#F25C54"/>
<path d="M487.497 147.226L477.509 179.563H470.718L464.636 159.522C464.518 159.211 464.407 158.87 464.303 158.501C464.2 158.116 464.096 157.716 463.993 157.302C463.889 157.716 463.786 158.116 463.682 158.501C463.578 158.87 463.467 159.211 463.349 159.522L457.179 179.563H450.387L440.4 147.226H446.703C447.354 147.226 447.894 147.374 448.323 147.669C448.767 147.965 449.056 148.357 449.189 148.846L453.628 165.714C453.761 166.247 453.894 166.831 454.027 167.467C454.16 168.089 454.294 168.74 454.427 169.42C454.693 168.03 455.019 166.794 455.403 165.714L460.641 148.846C460.774 148.431 461.056 148.062 461.485 147.736C461.929 147.396 462.461 147.226 463.083 147.226H465.302C465.953 147.226 466.479 147.381 466.878 147.692C467.278 147.988 467.581 148.372 467.788 148.846L472.982 165.714C473.366 166.75 473.692 167.926 473.958 169.243C474.077 168.577 474.195 167.956 474.313 167.378C474.447 166.787 474.58 166.232 474.713 165.714L479.152 148.846C479.27 148.417 479.551 148.039 479.995 147.714C480.439 147.388 480.972 147.226 481.593 147.226H487.497ZM503.63 157.324C501.706 157.324 499.99 158.626 498.48 161.231C496.971 163.805 496.217 166.38 496.217 168.954C496.217 174.34 497.607 177.033 500.389 177.033C502.372 177.033 503.985 175.746 505.228 173.171C506.471 170.567 507.092 167.652 507.092 164.427C507.092 159.692 505.938 157.324 503.63 157.324ZM499.857 153.329C500.182 153.329 500.478 153.433 500.744 153.64C501.04 153.817 501.188 154.01 501.188 154.217C498.199 156.288 496.409 159.174 495.817 162.873C496.439 161.216 497.193 159.78 498.081 158.567C498.998 157.354 499.945 156.436 500.922 155.815C502.786 154.661 504.606 154.084 506.382 154.084C508.157 154.084 509.667 154.957 510.91 156.703C512.152 158.449 512.774 160.787 512.774 163.716C512.774 167.001 512.108 170.02 510.776 172.772C509.297 175.879 507.196 178.025 504.473 179.208C502.934 179.889 501.247 180.229 499.413 180.229C496.838 180.229 494.589 179.238 492.665 177.255C490.771 175.243 489.824 172.372 489.824 168.644C489.824 164.885 490.742 161.586 492.577 158.745C494.411 155.874 496.838 154.069 499.857 153.329ZM523.769 160.099C524.479 158.856 525.293 157.879 526.21 157.169C527.142 156.459 528.208 156.104 529.406 156.104C530.442 156.104 531.285 156.348 531.936 156.836L531.493 161.896C531.419 162.222 531.293 162.444 531.115 162.562C530.952 162.681 530.723 162.74 530.427 162.74C530.309 162.74 530.153 162.732 529.961 162.718C529.769 162.703 529.569 162.688 529.362 162.673C529.155 162.644 528.94 162.621 528.718 162.607C528.511 162.577 528.319 162.562 528.141 162.562C527.135 162.562 526.329 162.829 525.722 163.361C525.13 163.894 524.627 164.634 524.213 165.581V179.563H517.332V156.547H521.416C521.756 156.547 522.037 156.577 522.259 156.636C522.496 156.695 522.689 156.792 522.837 156.925C522.999 157.043 523.118 157.206 523.192 157.413C523.28 157.62 523.354 157.872 523.414 158.168L523.769 160.099ZM541.162 146.338V164.959H542.183C542.612 164.959 542.938 164.9 543.16 164.782C543.382 164.649 543.604 164.434 543.826 164.138L548.176 157.657C548.442 157.287 548.745 157.013 549.086 156.836C549.426 156.644 549.863 156.547 550.395 156.547H556.699L550.75 164.737C550.188 165.477 549.522 166.084 548.753 166.557C549.093 166.809 549.404 167.105 549.685 167.445C549.966 167.771 550.232 168.141 550.484 168.555L556.965 179.563H550.75C550.232 179.563 549.789 179.482 549.419 179.319C549.049 179.142 548.738 178.838 548.486 178.409L544.136 170.264C543.929 169.894 543.715 169.657 543.493 169.554C543.271 169.435 542.938 169.376 542.494 169.376H541.162V179.563H534.282V146.338H541.162ZM573.704 161.586C573.526 161.867 573.334 162.067 573.127 162.185C572.935 162.303 572.683 162.362 572.372 162.362C572.047 162.362 571.721 162.296 571.396 162.163C571.07 162.015 570.715 161.859 570.33 161.697C569.96 161.534 569.539 161.386 569.065 161.253C568.592 161.105 568.052 161.031 567.445 161.031C566.572 161.031 565.899 161.201 565.425 161.541C564.967 161.867 564.737 162.325 564.737 162.917C564.737 163.346 564.885 163.702 565.181 163.983C565.492 164.264 565.899 164.515 566.402 164.737C566.905 164.944 567.475 165.144 568.111 165.337C568.747 165.529 569.398 165.743 570.064 165.98C570.73 166.217 571.381 166.498 572.017 166.824C572.653 167.134 573.223 167.526 573.726 168C574.229 168.459 574.629 169.021 574.925 169.687C575.235 170.353 575.391 171.152 575.391 172.084C575.391 173.223 575.184 174.274 574.769 175.235C574.355 176.197 573.734 177.026 572.905 177.721C572.091 178.417 571.078 178.957 569.864 179.342C568.666 179.726 567.282 179.919 565.714 179.919C564.93 179.919 564.145 179.845 563.361 179.697C562.577 179.549 561.815 179.349 561.075 179.097C560.35 178.846 559.677 178.55 559.055 178.21C558.434 177.854 557.901 177.477 557.457 177.078L559.055 174.547C559.233 174.252 559.455 174.022 559.721 173.859C560.002 173.682 560.358 173.593 560.787 173.593C561.186 173.593 561.541 173.682 561.852 173.859C562.177 174.037 562.525 174.229 562.895 174.436C563.265 174.644 563.694 174.836 564.182 175.014C564.686 175.191 565.314 175.28 566.069 175.28C566.602 175.28 567.053 175.228 567.423 175.125C567.793 175.006 568.089 174.851 568.311 174.658C568.533 174.466 568.695 174.252 568.799 174.015C568.903 173.778 568.954 173.534 568.954 173.282C568.954 172.824 568.799 172.446 568.488 172.15C568.178 171.854 567.771 171.603 567.268 171.396C566.764 171.174 566.187 170.974 565.536 170.797C564.9 170.604 564.249 170.39 563.583 170.153C562.917 169.916 562.259 169.635 561.608 169.309C560.972 168.969 560.402 168.547 559.899 168.044C559.396 167.526 558.989 166.898 558.678 166.158C558.367 165.418 558.212 164.523 558.212 163.472C558.212 162.496 558.397 161.571 558.767 160.698C559.152 159.81 559.721 159.033 560.476 158.367C561.231 157.702 562.177 157.176 563.317 156.792C564.456 156.392 565.788 156.192 567.312 156.192C568.141 156.192 568.94 156.266 569.709 156.414C570.493 156.562 571.226 156.769 571.906 157.036C572.587 157.302 573.208 157.62 573.771 157.99C574.333 158.345 574.829 158.737 575.258 159.166L573.704 161.586Z" fill="white"/>
<path d="M577.913 176.079C577.913 175.546 578.009 175.051 578.201 174.592C578.408 174.133 578.682 173.734 579.022 173.393C579.378 173.053 579.792 172.787 580.265 172.594C580.739 172.387 581.257 172.284 581.819 172.284C582.366 172.284 582.877 172.387 583.35 172.594C583.824 172.787 584.238 173.053 584.593 173.393C584.948 173.734 585.222 174.133 585.415 174.592C585.622 175.051 585.725 175.546 585.725 176.079C585.725 176.612 585.622 177.115 585.415 177.588C585.222 178.047 584.948 178.446 584.593 178.787C584.238 179.127 583.824 179.393 583.35 179.586C582.877 179.778 582.366 179.874 581.819 179.874C581.257 179.874 580.739 179.778 580.265 179.586C579.792 179.393 579.378 179.127 579.022 178.787C578.682 178.446 578.408 178.047 578.201 177.588C578.009 177.115 577.913 176.612 577.913 176.079Z" fill="#EEC63A"/>
</svg>
